  0
SECTION
  2
HEADER
  9
$ACADVER
  1
AC1009
  9
$INSBASE
 10
0.0
 20
0.0
 30
0.0
  9
$EXTMIN
 10
0.0
 20
0.0
 30
0.0
  9
$EXTMAX
 10
0.0
 20
0.0
 30
0.0
  0
ENDSEC
  0
SECTION
  2
TABLES
  0
TABLE
  2
VPORT
 70
0
  0
ENDTAB
  0
TABLE
  2
LTYPE
 70
1
  0
LTYPE
  2
CONTINUOUS
 70
0
  3
Solid line
 72
65
 73
0
 40
0.0
  0
ENDTAB
  0
TABLE
  2
LAYER
 70
1
  0
LAYER
  2
0
 70
64
 62
7
  6
continuous
  0
ENDTAB
  0
TABLE
  2
STYLE
 70
1
  0
STYLE
  2
STANDARD
 70
0
 40
0
 41
1.0
 50
0.0
 71
0
 42
1
 3
ARIAL.TTF
 4

  0
ENDTAB
  0
TABLE
  2
VIEW
 70
0
  0
ENDTAB
  0
ENDSEC
  0
SECTION
  2
BLOCKS
  0
BLOCK
  8
0
  2
SKETCH025
 70
0
 10
0.0
 20
0.0
 30
0.0
  3
SKETCH025
  0
POLYLINE
  8
0
 62
7
 70
0
 66
1
 10
0.0
 20
0.0
 30
0.0
  0
VERTEX
  8
0
 10
134.0
 20
261.25
 30
0.0
  0
VERTEX
  8
0
 10
134.0
 20
286.0
 30
0.0
  0
VERTEX
  8
0
 10
101.0
 20
286.0
 30
0.0
  0
VERTEX
  8
0
 10
101.0
 20
261.25
 30
0.0
  0
SEQEND
  8
0
  0
POLYLINE
  8
0
 62
7
 70
0
 66
1
 10
0.0
 20
0.0
 30
0.0
  0
VERTEX
  8
0
 10
101.0
 20
260.75
 30
0.0
  0
VERTEX
  8
0
 10
101.0
 20
236.0
 30
0.0
 42
0.414213562373
  0
VERTEX
  8
0
 10
103.0
 20
234.0
 30
0.0
  0
VERTEX
  8
0
 10
132.0
 20
234.0
 30
0.0
 42
0.414213562373
  0
VERTEX
  8
0
 10
134.0
 20
236.0
 30
0.0
  0
VERTEX
  8
0
 10
134.0
 20
260.75
 30
0.0
  0
SEQEND
  8
0
  0
CIRCLE
  8
0
 62
7
 10
117.5
 20
281.5
 30
0.0
 40
1.5
  0
CIRCLE
  8
0
 62
7
 10
117.5
 20
238.5
 30
0.0
 40
1.5
  0
POLYLINE
  8
0
 62
7
 70
1
 66
1
 10
0.0
 20
0.0
 30
0.0
  0
VERTEX
  8
0
 10
125.0
 20
283.0
 30
0.0
  0
VERTEX
  8
0
 10
130.0
 20
283.0
 30
0.0
  0
VERTEX
  8
0
 10
130.0
 20
280.0
 30
0.0
  0
VERTEX
  8
0
 10
125.0
 20
280.0
 30
0.0
  0
SEQEND
  8
0
  0
POLYLINE
  8
0
 62
7
 70
1
 66
1
 10
0.0
 20
0.0
 30
0.0
  0
VERTEX
  8
0
 10
105.0
 20
283.0
 30
0.0
  0
VERTEX
  8
0
 10
110.0
 20
283.0
 30
0.0
  0
VERTEX
  8
0
 10
110.0
 20
280.0
 30
0.0
  0
VERTEX
  8
0
 10
105.0
 20
280.0
 30
0.0
  0
SEQEND
  8
0
  0
POLYLINE
  8
0
 62
7
 70
1
 66
1
 10
0.0
 20
0.0
 30
0.0
  0
VERTEX
  8
0
 10
105.0
 20
240.0
 30
0.0
  0
VERTEX
  8
0
 10
110.0
 20
240.0
 30
0.0
  0
VERTEX
  8
0
 10
110.0
 20
237.0
 30
0.0
  0
VERTEX
  8
0
 10
105.0
 20
237.0
 30
0.0
  0
SEQEND
  8
0
  0
POLYLINE
  8
0
 62
7
 70
1
 66
1
 10
0.0
 20
0.0
 30
0.0
  0
VERTEX
  8
0
 10
125.0
 20
240.0
 30
0.0
  0
VERTEX
  8
0
 10
130.0
 20
240.0
 30
0.0
  0
VERTEX
  8
0
 10
130.0
 20
237.0
 30
0.0
  0
VERTEX
  8
0
 10
125.0
 20
237.0
 30
0.0
  0
SEQEND
  8
0
  0
POLYLINE
  8
0
 62
7
 70
1
 66
1
 10
0.0
 20
0.0
 30
0.0
  0
VERTEX
  8
0
 10
117.5
 20
249.0
 30
0.0
  0
VERTEX
  8
0
 10
118.5
 20
250.732050808
 30
0.0
  0
VERTEX
  8
0
 10
116.5
 20
250.732050808
 30
0.0
  0
SEQEND
  8
0
  0
ENDBLK
  0
BLOCK
  8
0
  2
SKETCH051
 70
0
 10
0.0
 20
0.0
 30
0.0
  3
SKETCH051
  0
POLYLINE
  8
0
 62
7
 70
0
 66
1
 10
0.0
 20
0.0
 30
0.0
  0
VERTEX
  8
0
 10
5.0
 20
40.0
 30
0.0
  0
VERTEX
  8
0
 10
5.0
 20
66.0
 30
0.0
  0
VERTEX
  8
0
 10
8.0
 20
66.0
 30
0.0
  0
VERTEX
  8
0
 10
8.0
 20
69.0
 30
0.0
  0
VERTEX
  8
0
 10
5.0
 20
69.0
 30
0.0
  0
VERTEX
  8
0
 10
5.0
 20
70.0
 30
0.0
 42
-0.414213562373
  0
VERTEX
  8
0
 10
10.0
 20
75.0
 30
0.0
  0
VERTEX
  8
0
 10
80.0
 20
75.0
 30
0.0
 42
-0.414213562373
  0
VERTEX
  8
0
 10
85.0
 20
70.0
 30
0.0
  0
VERTEX
  8
0
 10
85.0
 20
69.0
 30
0.0
  0
VERTEX
  8
0
 10
82.0
 20
69.0
 30
0.0
  0
VERTEX
  8
0
 10
82.0
 20
66.0
 30
0.0
  0
VERTEX
  8
0
 10
85.0
 20
66.0
 30
0.0
  0
VERTEX
  8
0
 10
85.0
 20
40.0
 30
0.0
  0
SEQEND
  8
0
  0
POLYLINE
  8
0
 62
7
 70
0
 66
1
 10
0.0
 20
0.0
 30
0.0
  0
VERTEX
  8
0
 10
85.0
 20
39.5
 30
0.0
  0
VERTEX
  8
0
 10
85.0
 20
28.0
 30
0.0
  0
VERTEX
  8
0
 10
82.0
 20
28.0
 30
0.0
  0
VERTEX
  8
0
 10
82.0
 20
25.0
 30
0.0
  0
VERTEX
  8
0
 10
85.0
 20
25.0
 30
0.0
  0
VERTEX
  8
0
 10
74.7595378894
 20
6.04919696264
 30
0.0
 42
-0.27551397878
  0
VERTEX
  8
0
 10
73.0
 20
5.0
 30
0.0
  0
VERTEX
  8
0
 10
17.0
 20
5.0
 30
0.0
 42
-0.27551397878
  0
VERTEX
  8
0
 10
15.2404621106
 20
6.04919696264
 30
0.0
  0
VERTEX
  8
0
 10
5.0
 20
25.0
 30
0.0
  0
VERTEX
  8
0
 10
8.0
 20
25.0
 30
0.0
  0
VERTEX
  8
0
 10
8.0
 20
28.0
 30
0.0
  0
VERTEX
  8
0
 10
5.0
 20
28.0
 30
0.0
  0
VERTEX
  8
0
 10
5.0
 20
39.5
 30
0.0
  0
SEQEND
  8
0
  0
POLYLINE
  8
0
 62
7
 70
1
 66
1
 10
0.0
 20
0.0
 30
0.0
  0
VERTEX
  8
0
 10
35.0
 20
11.0
 30
0.0
  0
VERTEX
  8
0
 10
55.0
 20
11.0
 30
0.0
  0
VERTEX
  8
0
 10
55.0
 20
8.0
 30
0.0
  0
VERTEX
  8
0
 10
35.0
 20
8.0
 30
0.0
  0
SEQEND
  8
0
  0
CIRCLE
  8
0
 62
7
 10
35.5
 20
16.0
 30
0.0
 40
1.5
  0
CIRCLE
  8
0
 62
7
 10
20.6
 20
67.0
 30
0.0
 40
1.5
  0
CIRCLE
  8
0
 62
7
 10
69.1
 20
68.0
 30
0.0
 40
1.5
  0
POLYLINE
  8
0
 62
7
 70
1
 66
1
 10
0.0
 20
0.0
 30
0.0
  0
VERTEX
  8
0
 10
43.55
 20
19.9
 30
0.0
  0
VERTEX
  8
0
 10
46.45
 20
19.9
 30
0.0
  0
VERTEX
  8
0
 10
46.45
 20
17.0
 30
0.0
  0
VERTEX
  8
0
 10
43.55
 20
17.0
 30
0.0
  0
SEQEND
  8
0
  0
CIRCLE
  8
0
 62
7
 10
11.0
 20
67.5
 30
0.0
 40
1.5
  0
POLYLINE
  8
0
 62
7
 70
1
 66
1
 10
0.0
 20
0.0
 30
0.0
  0
VERTEX
  8
0
 10
14.0
 20
69.0
 30
0.0
  0
VERTEX
  8
0
 10
17.0
 20
69.0
 30
0.0
  0
VERTEX
  8
0
 10
17.0
 20
66.0
 30
0.0
  0
VERTEX
  8
0
 10
14.0
 20
66.0
 30
0.0
  0
SEQEND
  8
0
  0
CIRCLE
  8
0
 62
7
 10
79.0
 20
67.5
 30
0.0
 40
1.5
  0
POLYLINE
  8
0
 62
7
 70
1
 66
1
 10
0.0
 20
0.0
 30
0.0
  0
VERTEX
  8
0
 10
73.0
 20
69.0
 30
0.0
  0
VERTEX
  8
0
 10
76.0
 20
69.0
 30
0.0
  0
VERTEX
  8
0
 10
76.0
 20
66.0
 30
0.0
  0
VERTEX
  8
0
 10
73.0
 20
66.0
 30
0.0
  0
SEQEND
  8
0
  0
CIRCLE
  8
0
 62
7
 10
79.0
 20
26.5
 30
0.0
 40
1.5
  0
POLYLINE
  8
0
 62
7
 70
1
 66
1
 10
0.0
 20
0.0
 30
0.0
  0
VERTEX
  8
0
 10
73.0
 20
28.0
 30
0.0
  0
VERTEX
  8
0
 10
76.0
 20
28.0
 30
0.0
  0
VERTEX
  8
0
 10
76.0
 20
25.0
 30
0.0
  0
VERTEX
  8
0
 10
73.0
 20
25.0
 30
0.0
  0
SEQEND
  8
0
  0
CIRCLE
  8
0
 62
7
 10
11.0
 20
26.5
 30
0.0
 40
1.5
  0
POLYLINE
  8
0
 62
7
 70
1
 66
1
 10
0.0
 20
0.0
 30
0.0
  0
VERTEX
  8
0
 10
14.0
 20
28.0
 30
0.0
  0
VERTEX
  8
0
 10
17.0
 20
28.0
 30
0.0
  0
VERTEX
  8
0
 10
17.0
 20
25.0
 30
0.0
  0
VERTEX
  8
0
 10
14.0
 20
25.0
 30
0.0
  0
SEQEND
  8
0
  0
ENDBLK
  0
BLOCK
  8
0
  2
SKETCH039
 70
0
 10
0.0
 20
0.0
 30
0.0
  3
SKETCH039
  0
POLYLINE
  8
0
 62
7
 70
0
 66
1
 10
0.0
 20
0.0
 30
0.0
  0
VERTEX
  8
0
 10
203.0
 20
170.75
 30
0.0
  0
VERTEX
  8
0
 10
203.0
 20
185.0
 30
0.0
  0
VERTEX
  8
0
 10
199.0
 20
185.0
 30
0.0
  0
VERTEX
  8
0
 10
199.0
 20
188.0
 30
0.0
  0
VERTEX
  8
0
 10
203.0
 20
188.0
 30
0.0
  0
VERTEX
  8
0
 10
203.0
 20
189.0
 30
0.0
 42
0.414213562373
  0
VERTEX
  8
0
 10
201.0
 20
191.0
 30
0.0
  0
VERTEX
  8
0
 10
187.0
 20
191.0
 30
0.0
 42
0.414213562373
  0
VERTEX
  8
0
 10
185.0
 20
189.0
 30
0.0
  0
VERTEX
  8
0
 10
185.0
 20
188.0
 30
0.0
  0
VERTEX
  8
0
 10
189.0
 20
188.0
 30
0.0
  0
VERTEX
  8
0
 10
189.0
 20
185.0
 30
0.0
  0
VERTEX
  8
0
 10
185.0
 20
185.0
 30
0.0
  0
VERTEX
  8
0
 10
185.0
 20
170.75
 30
0.0
  0
SEQEND
  8
0
  0
POLYLINE
  8
0
 62
7
 70
0
 66
1
 10
0.0
 20
0.0
 30
0.0
  0
VERTEX
  8
0
 10
185.0
 20
170.25
 30
0.0
  0
VERTEX
  8
0
 10
185.0
 20
156.0
 30
0.0
  0
VERTEX
  8
0
 10
189.0
 20
156.0
 30
0.0
  0
VERTEX
  8
0
 10
189.0
 20
153.0
 30
0.0
  0
VERTEX
  8
0
 10
185.0
 20
153.0
 30
0.0
  0
VERTEX
  8
0
 10
185.0
 20
152.0
 30
0.0
 42
0.414213562373
  0
VERTEX
  8
0
 10
187.0
 20
150.0
 30
0.0
  0
VERTEX
  8
0
 10
201.0
 20
150.0
 30
0.0
 42
0.414213562373
  0
VERTEX
  8
0
 10
203.0
 20
152.0
 30
0.0
  0
VERTEX
  8
0
 10
203.0
 20
153.0
 30
0.0
  0
VERTEX
  8
0
 10
199.0
 20
153.0
 30
0.0
  0
VERTEX
  8
0
 10
199.0
 20
156.0
 30
0.0
  0
VERTEX
  8
0
 10
203.0
 20
156.0
 30
0.0
  0
VERTEX
  8
0
 10
203.0
 20
170.25
 30
0.0
  0
SEQEND
  8
0
  0
CIRCLE
  8
0
 62
7
 10
194.0
 20
154.5
 30
0.0
 40
1.5
  0
CIRCLE
  8
0
 62
7
 10
194.0
 20
186.5
 30
0.0
 40
1.5
  0
CIRCLE
  8
0
 62
7
 10
194.0
 20
177.0
 30
0.0
 40
3.4
  0
ENDBLK
  0
BLOCK
  8
0
  2
SKETCH046
 70
0
 10
0.0
 20
0.0
 30
0.0
  3
SKETCH046
  0
POLYLINE
  8
0
 62
7
 70
0
 66
1
 10
0.0
 20
0.0
 30
0.0
  0
VERTEX
  8
0
 10
38.0
 20
158.25
 30
0.0
  0
VERTEX
  8
0
 10
38.0
 20
168.0
 30
0.0
 42
0.414213562373
  0
VERTEX
  8
0
 10
36.0
 20
170.0
 30
0.0
  0
VERTEX
  8
0
 10
7.00000000001
 20
170.0
 30
0.0
 42
0.414213562373
  0
VERTEX
  8
0
 10
5.0
 20
168.0
 30
0.0
  0
VERTEX
  8
0
 10
5.0
 20
158.25
 30
0.0
  0
SEQEND
  8
0
  0
POLYLINE
  8
0
 62
7
 70
0
 66
1
 10
0.0
 20
0.0
 30
0.0
  0
VERTEX
  8
0
 10
5.0
 20
157.75
 30
0.0
  0
VERTEX
  8
0
 10
5.0
 20
148.0
 30
0.0
  0
VERTEX
  8
0
 10
9.0
 20
148.0
 30
0.0
  0
VERTEX
  8
0
 10
9.0
 20
143.0
 30
0.0
  0
VERTEX
  8
0
 10
14.0
 20
143.0
 30
0.0
  0
VERTEX
  8
0
 10
14.0
 20
148.0
 30
0.0
  0
VERTEX
  8
0
 10
20.0
 20
148.0
 30
0.0
  0
VERTEX
  8
0
 10
20.0
 20
152.0
 30
0.0
  0
VERTEX
  8
0
 10
18.7
 20
152.0
 30
0.0
  0
VERTEX
  8
0
 10
18.7
 20
154.5
 30
0.0
  0
VERTEX
  8
0
 10
20.0
 20
154.5
 30
0.0
  0
VERTEX
  8
0
 10
20.0
 20
156.0
 30
0.0
  0
VERTEX
  8
0
 10
23.0
 20
156.0
 30
0.0
  0
VERTEX
  8
0
 10
23.0
 20
154.5
 30
0.0
  0
VERTEX
  8
0
 10
24.3
 20
154.5
 30
0.0
  0
VERTEX
  8
0
 10
24.3
 20
152.0
 30
0.0
  0
VERTEX
  8
0
 10
23.0
 20
152.0
 30
0.0
  0
VERTEX
  8
0
 10
23.0
 20
148.0
 30
0.0
  0
VERTEX
  8
0
 10
29.0
 20
148.0
 30
0.0
  0
VERTEX
  8
0
 10
29.0
 20
143.0
 30
0.0
  0
VERTEX
  8
0
 10
34.0
 20
143.0
 30
0.0
  0
VERTEX
  8
0
 10
34.0
 20
148.0
 30
0.0
  0
VERTEX
  8
0
 10
38.0
 20
148.0
 30
0.0
  0
VERTEX
  8
0
 10
38.0
 20
157.75
 30
0.0
  0
SEQEND
  8
0
  0
CIRCLE
  8
0
 62
7
 10
29.0
 20
164.0
 30
0.0
 40
1.5
  0
ENDBLK
  0
BLOCK
  8
0
  2
SKETCH094
 70
0
 10
0.0
 20
0.0
 30
0.0
  3
SKETCH094
  0
POLYLINE
  8
0
 62
7
 70
0
 66
1
 10
0.0
 20
0.0
 30
0.0
  0
VERTEX
  8
0
 10
144.0
 20
178.0
 30
0.0
  0
VERTEX
  8
0
 10
144.0
 20
168.0
 30
0.0
  0
VERTEX
  8
0
 10
141.0
 20
168.0
 30
0.0
  0
VERTEX
  8
0
 10
141.0
 20
163.0
 30
0.0
  0
VERTEX
  8
0
 10
144.0
 20
163.0
 30
0.0
  0
VERTEX
  8
0
 10
144.0
 20
143.0
 30
0.0
  0
VERTEX
  8
0
 10
148.0
 20
143.0
 30
0.0
  0
VERTEX
  8
0
 10
148.0
 20
146.0
 30
0.0
  0
VERTEX
  8
0
 10
151.5
 20
146.0
 30
0.0
  0
VERTEX
  8
0
 10
151.5
 20
150.0
 30
0.0
  0
VERTEX
  8
0
 10
150.2
 20
150.0
 30
0.0
  0
VERTEX
  8
0
 10
150.2
 20
152.5
 30
0.0
  0
VERTEX
  8
0
 10
151.5
 20
152.5
 30
0.0
  0
VERTEX
  8
0
 10
151.5
 20
154.0
 30
0.0
  0
VERTEX
  8
0
 10
154.5
 20
154.0
 30
0.0
  0
VERTEX
  8
0
 10
154.5
 20
152.5
 30
0.0
  0
VERTEX
  8
0
 10
155.8
 20
152.5
 30
0.0
  0
VERTEX
  8
0
 10
155.8
 20
150.0
 30
0.0
  0
VERTEX
  8
0
 10
154.5
 20
150.0
 30
0.0
  0
VERTEX
  8
0
 10
154.5
 20
146.0
 30
0.0
  0
VERTEX
  8
0
 10
158.0
 20
146.0
 30
0.0
  0
VERTEX
  8
0
 10
158.0
 20
143.0
 30
0.0
  0
VERTEX
  8
0
 10
162.0
 20
143.0
 30
0.0
  0
VERTEX
  8
0
 10
162.0
 20
178.0
 30
0.0
  0
SEQEND
  8
0
  0
POLYLINE
  8
0
 62
7
 70
0
 66
1
 10
0.0
 20
0.0
 30
0.0
  0
VERTEX
  8
0
 10
162.0
 20
178.5
 30
0.0
  0
VERTEX
  8
0
 10
162.0
 20
188.0
 30
0.0
 42
0.414213562373
  0
VERTEX
  8
0
 10
160.0
 20
190.0
 30
0.0
  0
VERTEX
  8
0
 10
146.0
 20
190.0
 30
0.0
 42
0.414213562373
  0
VERTEX
  8
0
 10
144.0
 20
188.0
 30
0.0
  0
VERTEX
  8
0
 10
144.0
 20
178.5
 30
0.0
  0
SEQEND
  8
0
  0
POLYLINE
  8
0
 62
7
 70
1
 66
1
 10
0.0
 20
0.0
 30
0.0
  0
VERTEX
  8
0
 10
146.95
 20
185.0
 30
0.0
  0
VERTEX
  8
0
 10
159.05
 20
185.0
 30
0.0
  0
VERTEX
  8
0
 10
159.05
 20
162.5
 30
0.0
  0
VERTEX
  8
0
 10
146.95
 20
162.5
 30
0.0
  0
SEQEND
  8
0
  0
CIRCLE
  8
0
 62
7
 10
153.0
 20
187.5
 30
0.0
 40
1.0
  0
CIRCLE
  8
0
 62
7
 10
153.0
 20
160.0
 30
0.0
 40
1.0
  0
ENDBLK
  0
BLOCK
  8
0
  2
SKETCH095
 70
0
 10
0.0
 20
0.0
 30
0.0
  3
SKETCH095
  0
POLYLINE
  8
0
 62
7
 70
0
 66
1
 10
0.0
 20
0.0
 30
0.0
  0
VERTEX
  8
0
 10
144.0
 20
226.0
 30
0.0
  0
VERTEX
  8
0
 10
144.0
 20
216.0
 30
0.0
  0
VERTEX
  8
0
 10
141.0
 20
216.0
 30
0.0
  0
VERTEX
  8
0
 10
141.0
 20
211.0
 30
0.0
  0
VERTEX
  8
0
 10
144.0
 20
211.0
 30
0.0
  0
VERTEX
  8
0
 10
144.0
 20
191.0
 30
0.0
  0
VERTEX
  8
0
 10
148.0
 20
191.0
 30
0.0
  0
VERTEX
  8
0
 10
148.0
 20
194.0
 30
0.0
  0
VERTEX
  8
0
 10
151.5
 20
194.0
 30
0.0
  0
VERTEX
  8
0
 10
151.5
 20
198.0
 30
0.0
  0
VERTEX
  8
0
 10
150.2
 20
198.0
 30
0.0
  0
VERTEX
  8
0
 10
150.2
 20
200.5
 30
0.0
  0
VERTEX
  8
0
 10
151.5
 20
200.5
 30
0.0
  0
VERTEX
  8
0
 10
151.5
 20
202.0
 30
0.0
  0
VERTEX
  8
0
 10
154.5
 20
202.0
 30
0.0
  0
VERTEX
  8
0
 10
154.5
 20
200.5
 30
0.0
  0
VERTEX
  8
0
 10
155.8
 20
200.5
 30
0.0
  0
VERTEX
  8
0
 10
155.8
 20
198.0
 30
0.0
  0
VERTEX
  8
0
 10
154.5
 20
198.0
 30
0.0
  0
VERTEX
  8
0
 10
154.5
 20
194.0
 30
0.0
  0
VERTEX
  8
0
 10
158.0
 20
194.0
 30
0.0
  0
VERTEX
  8
0
 10
158.0
 20
191.0
 30
0.0
  0
VERTEX
  8
0
 10
162.0
 20
191.0
 30
0.0
  0
VERTEX
  8
0
 10
162.0
 20
226.0
 30
0.0
  0
SEQEND
  8
0
  0
POLYLINE
  8
0
 62
7
 70
0
 66
1
 10
0.0
 20
0.0
 30
0.0
  0
VERTEX
  8
0
 10
162.0
 20
226.5
 30
0.0
  0
VERTEX
  8
0
 10
162.0
 20
231.0
 30
0.0
 42
0.414213562373
  0
VERTEX
  8
0
 10
160.0
 20
233.0
 30
0.0
  0
VERTEX
  8
0
 10
146.0
 20
233.0
 30
0.0
 42
0.414213562374
  0
VERTEX
  8
0
 10
144.0
 20
231.0
 30
0.0
  0
VERTEX
  8
0
 10
144.0
 20
226.5
 30
0.0
  0
SEQEND
  8
0
  0
CIRCLE
  8
0
 62
7
 10
153.0
 20
227.0
 30
0.0
 40
1.5
  0
ENDBLK
  0
BLOCK
  8
0
  2
SKETCH052
 70
0
 10
0.0
 20
0.0
 30
0.0
  3
SKETCH052
  0
POLYLINE
  8
0
 62
7
 70
0
 66
1
 10
0.0
 20
0.0
 30
0.0
  0
VERTEX
  8
0
 10
86.0
 20
47.25
 30
0.0
  0
VERTEX
  8
0
 10
86.0
 20
66.0
 30
0.0
  0
VERTEX
  8
0
 10
89.0
 20
66.0
 30
0.0
  0
VERTEX
  8
0
 10
89.0
 20
69.0
 30
0.0
  0
VERTEX
  8
0
 10
86.0
 20
69.0
 30
0.0
  0
VERTEX
  8
0
 10
86.0
 20
70.0
 30
0.0
 42
-0.414213562373
  0
VERTEX
  8
0
 10
91.0
 20
75.0
 30
0.0
  0
VERTEX
  8
0
 10
161.0
 20
75.0
 30
0.0
 42
-0.414213562373
  0
VERTEX
  8
0
 10
166.0
 20
70.0
 30
0.0
  0
VERTEX
  8
0
 10
166.0
 20
69.0
 30
0.0
  0
VERTEX
  8
0
 10
163.0
 20
69.0
 30
0.0
  0
VERTEX
  8
0
 10
163.0
 20
66.0
 30
0.0
  0
VERTEX
  8
0
 10
166.0
 20
66.0
 30
0.0
  0
VERTEX
  8
0
 10
166.0
 20
47.25
 30
0.0
  0
SEQEND
  8
0
  0
POLYLINE
  8
0
 62
7
 70
0
 66
1
 10
0.0
 20
0.0
 30
0.0
  0
VERTEX
  8
0
 10
166.0
 20
46.75
 30
0.0
  0
VERTEX
  8
0
 10
166.0
 20
28.0
 30
0.0
  0
VERTEX
  8
0
 10
163.0
 20
28.0
 30
0.0
  0
VERTEX
  8
0
 10
163.0
 20
25.0
 30
0.0
  0
VERTEX
  8
0
 10
166.0
 20
25.0
 30
0.0
  0
VERTEX
  8
0
 10
155.759537889
 20
6.04919696264
 30
0.0
 42
-0.27551397878
  0
VERTEX
  8
0
 10
154.0
 20
5.0
 30
0.0
  0
VERTEX
  8
0
 10
98.0
 20
5.00000000002
 30
0.0
 42
-0.275513978781
  0
VERTEX
  8
0
 10
96.2404621106
 20
6.04919696266
 30
0.0
  0
VERTEX
  8
0
 10
86.0
 20
25.0
 30
0.0
  0
VERTEX
  8
0
 10
89.0
 20
25.0
 30
0.0
  0
VERTEX
  8
0
 10
89.0
 20
28.0
 30
0.0
  0
VERTEX
  8
0
 10
86.0
 20
28.0
 30
0.0
  0
VERTEX
  8
0
 10
86.0
 20
46.75
 30
0.0
  0
SEQEND
  8
0
  0
POLYLINE
  8
0
 62
7
 70
1
 66
1
 10
0.0
 20
0.0
 30
0.0
  0
VERTEX
  8
0
 10
116.0
 20
11.0
 30
0.0
  0
VERTEX
  8
0
 10
136.0
 20
11.0
 30
0.0
  0
VERTEX
  8
0
 10
136.0
 20
8.0
 30
0.0
  0
VERTEX
  8
0
 10
116.0
 20
8.0
 30
0.0
  0
SEQEND
  8
0
  0
POLYLINE
  8
0
 62
7
 70
1
 66
1
 10
0.0
 20
0.0
 30
0.0
  0
VERTEX
  8
0
 10
122.0
 20
50.0
 30
0.0
  0
VERTEX
  8
0
 10
122.0
 20
30.0
 30
0.0
 42
1.0
  0
VERTEX
  8
0
 10
125.0
 20
30.0
 30
0.0
  0
VERTEX
  8
0
 10
125.0
 20
50.0
 30
0.0
 42
1.0
  0
SEQEND
  8
0
  0
POLYLINE
  8
0
 62
7
 70
1
 66
1
 10
0.0
 20
0.0
 30
0.0
  0
VERTEX
  8
0
 10
127.0
 20
50.0
 30
0.0
  0
VERTEX
  8
0
 10
127.0
 20
30.0
 30
0.0
 42
1.0
  0
VERTEX
  8
0
 10
130.0
 20
30.0
 30
0.0
  0
VERTEX
  8
0
 10
130.0
 20
50.0
 30
0.0
 42
1.0
  0
SEQEND
  8
0
  0
POLYLINE
  8
0
 62
7
 70
1
 66
1
 10
0.0
 20
0.0
 30
0.0
  0
VERTEX
  8
0
 10
98.0
 20
47.5
 30
0.0
  0
VERTEX
  8
0
 10
110.1
 20
47.5
 30
0.0
  0
VERTEX
  8
0
 10
110.1
 20
25.0
 30
0.0
  0
VERTEX
  8
0
 10
98.0
 20
25.0
 30
0.0
  0
VERTEX
  8
0
 10
95.0
 20
25.0
 30
0.0
  0
VERTEX
  8
0
 10
95.0
 20
28.0
 30
0.0
  0
VERTEX
  8
0
 10
98.0
 20
28.0
 30
0.0
  0
SEQEND
  8
0
  0
POLYLINE
  8
0
 62
7
 70
1
 66
1
 10
0.0
 20
0.0
 30
0.0
  0
VERTEX
  8
0
 10
141.9
 20
47.5
 30
0.0
  0
VERTEX
  8
0
 10
154.0
 20
47.5
 30
0.0
  0
VERTEX
  8
0
 10
154.0
 20
28.0
 30
0.0
  0
VERTEX
  8
0
 10
157.0
 20
28.0
 30
0.0
  0
VERTEX
  8
0
 10
157.0
 20
25.0
 30
0.0
  0
VERTEX
  8
0
 10
154.0
 20
25.0
 30
0.0
  0
VERTEX
  8
0
 10
141.9
 20
25.0
 30
0.0
  0
SEQEND
  8
0
  0
CIRCLE
  8
0
 62
7
 10
104.05
 20
50.0
 30
0.0
 40
1.0
  0
CIRCLE
  8
0
 62
7
 10
104.05
 20
22.5
 30
0.0
 40
1.0
  0
CIRCLE
  8
0
 62
7
 10
147.95
 20
22.5
 30
0.0
 40
1.0
  0
CIRCLE
  8
0
 62
7
 10
147.95
 20
50.0
 30
0.0
 40
1.0
  0
CIRCLE
  8
0
 62
7
 10
92.0
 20
67.5
 30
0.0
 40
1.5
  0
POLYLINE
  8
0
 62
7
 70
1
 66
1
 10
0.0
 20
0.0
 30
0.0
  0
VERTEX
  8
0
 10
95.0
 20
69.0
 30
0.0
  0
VERTEX
  8
0
 10
98.0
 20
69.0
 30
0.0
  0
VERTEX
  8
0
 10
98.0
 20
66.0
 30
0.0
  0
VERTEX
  8
0
 10
95.0
 20
66.0
 30
0.0
  0
SEQEND
  8
0
  0
CIRCLE
  8
0
 62
7
 10
160.0
 20
67.5
 30
0.0
 40
1.5
  0
POLYLINE
  8
0
 62
7
 70
1
 66
1
 10
0.0
 20
0.0
 30
0.0
  0
VERTEX
  8
0
 10
154.0
 20
69.0
 30
0.0
  0
VERTEX
  8
0
 10
157.0
 20
69.0
 30
0.0
  0
VERTEX
  8
0
 10
157.0
 20
66.0
 30
0.0
  0
VERTEX
  8
0
 10
154.0
 20
66.0
 30
0.0
  0
SEQEND
  8
0
  0
CIRCLE
  8
0
 62
7
 10
92.0
 20
26.5
 30
0.0
 40
1.5
  0
CIRCLE
  8
0
 62
7
 10
160.0
 20
26.5
 30
0.0
 40
1.5
  0
ENDBLK
  0
BLOCK
  8
0
  2
SKETCH083
 70
0
 10
0.0
 20
0.0
 30
0.0
  3
SKETCH083
  0
POLYLINE
  8
0
 62
7
 70
0
 66
1
 10
0.0
 20
0.0
 30
0.0
  0
VERTEX
  8
0
 10
95.0
 20
104.250005495
 30
0.0
  0
VERTEX
  8
0
 10
95.0
 20
111.0
 30
0.0
 42
-0.414213562373
  0
VERTEX
  8
0
 10
97.0
 20
113.0
 30
0.0
  0
VERTEX
  8
0
 10
109.0
 20
113.0
 30
0.0
 42
0.414213562373
  0
VERTEX
  8
0
 10
111.0
 20
115.0
 30
0.0
  0
VERTEX
  8
0
 10
111.0
 20
142.0
 30
0.0
  0
VERTEX
  8
0
 10
114.0
 20
142.0
 30
0.0
  0
VERTEX
  8
0
 10
114.0
 20
139.0
 30
0.0
  0
VERTEX
  8
0
 10
115.5
 20
139.0
 30
0.0
  0
VERTEX
  8
0
 10
115.5
 20
135.0
 30
0.0
  0
VERTEX
  8
0
 10
114.2
 20
135.0
 30
0.0
  0
VERTEX
  8
0
 10
114.2
 20
132.5
 30
0.0
  0
VERTEX
  8
0
 10
115.5
 20
132.5
 30
0.0
  0
VERTEX
  8
0
 10
115.5
 20
131.0
 30
0.0
  0
VERTEX
  8
0
 10
118.5
 20
131.0
 30
0.0
  0
VERTEX
  8
0
 10
118.5
 20
132.5
 30
0.0
  0
VERTEX
  8
0
 10
119.8
 20
132.5
 30
0.0
  0
VERTEX
  8
0
 10
119.8
 20
135.0
 30
0.0
  0
VERTEX
  8
0
 10
118.5
 20
135.0
 30
0.0
  0
VERTEX
  8
0
 10
118.5
 20
139.0
 30
0.0
  0
VERTEX
  8
0
 10
120.0
 20
139.0
 30
0.0
  0
VERTEX
  8
0
 10
120.0
 20
142.0
 30
0.0
  0
VERTEX
  8
0
 10
123.0
 20
142.0
 30
0.0
  0
VERTEX
  8
0
 10
123.0
 20
104.250005495
 30
0.0
  0
SEQEND
  8
0
  0
POLYLINE
  8
0
 62
7
 70
0
 66
1
 10
0.0
 20
0.0
 30
0.0
  0
VERTEX
  8
0
 10
123.0
 20
103.750005495
 30
0.0
  0
VERTEX
  8
0
 10
123.0
 20
76.0
 30
0.0
  0
VERTEX
  8
0
 10
120.0
 20
76.0
 30
0.0
  0
VERTEX
  8
0
 10
120.0
 20
79.0
 30
0.0
  0
VERTEX
  8
0
 10
118.5
 20
79.0
 30
0.0
  0
VERTEX
  8
0
 10
118.5
 20
83.0
 30
0.0
  0
VERTEX
  8
0
 10
119.8
 20
83.0
 30
0.0
  0
VERTEX
  8
0
 10
119.8
 20
85.5
 30
0.0
  0
VERTEX
  8
0
 10
118.5
 20
85.5
 30
0.0
  0
VERTEX
  8
0
 10
118.5
 20
87.0
 30
0.0
  0
VERTEX
  8
0
 10
115.5
 20
87.0
 30
0.0
  0
VERTEX
  8
0
 10
115.5
 20
85.5
 30
0.0
  0
VERTEX
  8
0
 10
114.2
 20
85.5
 30
0.0
  0
VERTEX
  8
0
 10
114.2
 20
83.0
 30
0.0
  0
VERTEX
  8
0
 10
115.5
 20
83.0
 30
0.0
  0
VERTEX
  8
0
 10
115.5
 20
79.0
 30
0.0
  0
VERTEX
  8
0
 10
114.0
 20
79.0
 30
0.0
  0
VERTEX
  8
0
 10
114.0
 20
76.0
 30
0.0
  0
VERTEX
  8
0
 10
111.0
 20
76.0
 30
0.0
  0
VERTEX
  8
0
 10
111.0
 20
93.0
 30
0.0
 42
0.414213562386
  0
VERTEX
  8
0
 10
109.0
 20
95.0000000001
 30
0.0
  0
VERTEX
  8
0
 10
97.0
 20
95.0000000001
 30
0.0
 42
-0.414215171788
  0
VERTEX
  8
0
 10
95.0
 20
97.0000109899
 30
0.0
  0
VERTEX
  8
0
 10
95.0
 20
103.750005495
 30
0.0
  0
SEQEND
  8
0
  0
CIRCLE
  8
0
 62
7
 10
104.0
 20
104.0
 30
0.0
 40
1.5
  0
ENDBLK
  0
BLOCK
  8
0
  2
SKETCH064
 70
0
 10
0.0
 20
0.0
 30
0.0
  3
SKETCH064
  0
POLYLINE
  8
0
 62
7
 70
0
 66
1
 10
0.0
 20
0.0
 30
0.0
  0
VERTEX
  8
0
 10
166.0
 20
84.75
 30
0.0
  0
VERTEX
  8
0
 10
166.0
 20
76.0
 30
0.0
  0
VERTEX
  8
0
 10
140.0
 20
76.0
 30
0.0
 42
-0.414213562373
  0
VERTEX
  8
0
 10
138.0
 20
78.0
 30
0.0
  0
VERTEX
  8
0
 10
138.0
 20
84.75
 30
0.0
  0
SEQEND
  8
0
  0
POLYLINE
  8
0
 62
7
 70
0
 66
1
 10
0.0
 20
0.0
 30
0.0
  0
VERTEX
  8
0
 10
138.0
 20
85.25
 30
0.0
  0
VERTEX
  8
0
 10
138.0
 20
92.0
 30
0.0
 42
-0.414213562373
  0
VERTEX
  8
0
 10
140.0
 20
94.0
 30
0.0
  0
VERTEX
  8
0
 10
166.0
 20
94.0
 30
0.0
  0
VERTEX
  8
0
 10
166.0
 20
85.25
 30
0.0
  0
SEQEND
  8
0
  0
POLYLINE
  8
0
 62
7
 70
1
 66
1
 10
0.0
 20
0.0
 30
0.0
  0
VERTEX
  8
0
 10
147.260627178
 20
88.3899960876
 30
0.0
  0
VERTEX
  8
0
 10
161.52630662
 20
87.2932326475
 30
0.0
 42
-0.92606974791
  0
VERTEX
  8
0
 10
161.52630662
 20
82.7067673525
 30
0.0
  0
VERTEX
  8
0
 10
147.260627178
 20
81.6100039124
 30
0.0
 42
-1.07983227209
  0
SEQEND
  8
0
  0
ENDBLK
  0
BLOCK
  8
0
  2
SKETCH084
 70
0
 10
0.0
 20
0.0
 30
0.0
  3
SKETCH084
  0
POLYLINE
  8
0
 62
7
 70
0
 66
1
 10
0.0
 20
0.0
 30
0.0
  0
VERTEX
  8
0
 10
94.0
 20
103.750006032
 30
0.0
  0
VERTEX
  8
0
 10
94.0
 20
97.0000120648
 30
0.0
 42
-0.414215329215
  0
VERTEX
  8
0
 10
92.0
 20
95.0
 30
0.0
  0
VERTEX
  8
0
 10
80.0
 20
95.0
 30
0.0
 42
0.414213562378
  0
VERTEX
  8
0
 10
78.0
 20
93.0
 30
0.0
  0
VERTEX
  8
0
 10
78.0
 20
76.0
 30
0.0
  0
VERTEX
  8
0
 10
75.0
 20
76.0
 30
0.0
  0
VERTEX
  8
0
 10
75.0
 20
79.0
 30
0.0
  0
VERTEX
  8
0
 10
73.5
 20
79.0
 30
0.0
  0
VERTEX
  8
0
 10
73.5
 20
83.0
 30
0.0
  0
VERTEX
  8
0
 10
74.8
 20
83.0
 30
0.0
  0
VERTEX
  8
0
 10
74.8
 20
85.5
 30
0.0
  0
VERTEX
  8
0
 10
73.5
 20
85.5
 30
0.0
  0
VERTEX
  8
0
 10
73.5
 20
87.0
 30
0.0
  0
VERTEX
  8
0
 10
70.5
 20
87.0
 30
0.0
  0
VERTEX
  8
0
 10
70.5
 20
85.5
 30
0.0
  0
VERTEX
  8
0
 10
69.2
 20
85.5
 30
0.0
  0
VERTEX
  8
0
 10
69.2
 20
83.0
 30
0.0
  0
VERTEX
  8
0
 10
70.5
 20
83.0
 30
0.0
  0
VERTEX
  8
0
 10
70.5
 20
79.0
 30
0.0
  0
VERTEX
  8
0
 10
69.0
 20
79.0
 30
0.0
  0
VERTEX
  8
0
 10
69.0
 20
76.0
 30
0.0
  0
VERTEX
  8
0
 10
66.0
 20
76.0
 30
0.0
  0
VERTEX
  8
0
 10
66.0
 20
103.75
 30
0.0
  0
SEQEND
  8
0
  0
POLYLINE
  8
0
 62
7
 70
0
 66
1
 10
0.0
 20
0.0
 30
0.0
  0
VERTEX
  8
0
 10
66.0
 20
104.25
 30
0.0
  0
VERTEX
  8
0
 10
66.0
 20
142.0
 30
0.0
  0
VERTEX
  8
0
 10
69.0
 20
142.0
 30
0.0
  0
VERTEX
  8
0
 10
69.0
 20
139.0
 30
0.0
  0
VERTEX
  8
0
 10
70.5
 20
139.0
 30
0.0
  0
VERTEX
  8
0
 10
70.5
 20
135.0
 30
0.0
  0
VERTEX
  8
0
 10
69.2
 20
135.0
 30
0.0
  0
VERTEX
  8
0
 10
69.2
 20
132.5
 30
0.0
  0
VERTEX
  8
0
 10
70.5
 20
132.5
 30
0.0
  0
VERTEX
  8
0
 10
70.5
 20
131.0
 30
0.0
  0
VERTEX
  8
0
 10
73.5
 20
131.0
 30
0.0
  0
VERTEX
  8
0
 10
73.5
 20
132.5
 30
0.0
  0
VERTEX
  8
0
 10
74.8
 20
132.5
 30
0.0
  0
VERTEX
  8
0
 10
74.8
 20
135.0
 30
0.0
  0
VERTEX
  8
0
 10
73.5
 20
135.0
 30
0.0
  0
VERTEX
  8
0
 10
73.5
 20
139.0
 30
0.0
  0
VERTEX
  8
0
 10
75.0
 20
139.0
 30
0.0
  0
VERTEX
  8
0
 10
75.0
 20
142.0
 30
0.0
  0
VERTEX
  8
0
 10
78.0
 20
142.0
 30
0.0
  0
VERTEX
  8
0
 10
78.0
 20
115.0
 30
0.0
 42
0.414213562373
  0
VERTEX
  8
0
 10
80.0
 20
113.0
 30
0.0
  0
VERTEX
  8
0
 10
92.0
 20
113.0
 30
0.0
 42
-0.414213562373
  0
VERTEX
  8
0
 10
94.0
 20
111.0
 30
0.0
  0
VERTEX
  8
0
 10
94.0
 20
104.250006032
 30
0.0
  0
SEQEND
  8
0
  0
CIRCLE
  8
0
 62
7
 10
85.0
 20
104.0
 30
0.0
 40
1.5
  0
ENDBLK
  0
BLOCK
  8
0
  2
SKETCH099
 70
0
 10
0.0
 20
0.0
 30
0.0
  3
SKETCH099
  0
POLYLINE
  8
0
 62
7
 70
0
 66
1
 10
0.0
 20
0.0
 30
0.0
  0
VERTEX
  8
0
 10
72.0
 20
158.25
 30
0.0
  0
VERTEX
  8
0
 10
72.0
 20
168.0
 30
0.0
 42
0.414213562373
  0
VERTEX
  8
0
 10
70.0
 20
170.0
 30
0.0
  0
VERTEX
  8
0
 10
41.0
 20
170.0
 30
0.0
 42
0.414213562373
  0
VERTEX
  8
0
 10
39.0
 20
168.0
 30
0.0
  0
VERTEX
  8
0
 10
39.0
 20
158.25
 30
0.0
  0
SEQEND
  8
0
  0
POLYLINE
  8
0
 62
7
 70
0
 66
1
 10
0.0
 20
0.0
 30
0.0
  0
VERTEX
  8
0
 10
39.0
 20
157.75
 30
0.0
  0
VERTEX
  8
0
 10
39.0
 20
148.0
 30
0.0
  0
VERTEX
  8
0
 10
43.0
 20
148.0
 30
0.0
  0
VERTEX
  8
0
 10
43.0
 20
143.0
 30
0.0
  0
VERTEX
  8
0
 10
48.0
 20
143.0
 30
0.0
  0
VERTEX
  8
0
 10
48.0
 20
148.0
 30
0.0
  0
VERTEX
  8
0
 10
54.0
 20
148.0
 30
0.0
  0
VERTEX
  8
0
 10
54.0
 20
152.0
 30
0.0
  0
VERTEX
  8
0
 10
52.7
 20
152.0
 30
0.0
  0
VERTEX
  8
0
 10
52.7
 20
154.5
 30
0.0
  0
VERTEX
  8
0
 10
54.0
 20
154.5
 30
0.0
  0
VERTEX
  8
0
 10
54.0
 20
156.0
 30
0.0
  0
VERTEX
  8
0
 10
57.0
 20
156.0
 30
0.0
  0
VERTEX
  8
0
 10
57.0
 20
154.5
 30
0.0
  0
VERTEX
  8
0
 10
58.3
 20
154.5
 30
0.0
  0
VERTEX
  8
0
 10
58.3
 20
152.0
 30
0.0
  0
VERTEX
  8
0
 10
57.0
 20
152.0
 30
0.0
  0
VERTEX
  8
0
 10
57.0
 20
148.0
 30
0.0
  0
VERTEX
  8
0
 10
63.0
 20
148.0
 30
0.0
  0
VERTEX
  8
0
 10
63.0
 20
143.0
 30
0.0
  0
VERTEX
  8
0
 10
68.0
 20
143.0
 30
0.0
  0
VERTEX
  8
0
 10
68.0
 20
148.0
 30
0.0
  0
VERTEX
  8
0
 10
72.0
 20
148.0
 30
0.0
  0
VERTEX
  8
0
 10
72.0
 20
157.75
 30
0.0
  0
SEQEND
  8
0
  0
CIRCLE
  8
0
 62
7
 10
48.0
 20
164.0
 30
0.0
 40
1.5
  0
ENDBLK
  0
BLOCK
  8
0
  2
SKETCH100
 70
0
 10
0.0
 20
0.0
 30
0.0
  3
SKETCH100
  0
POLYLINE
  8
0
 62
7
 70
0
 66
1
 10
0.0
 20
0.0
 30
0.0
  0
VERTEX
  8
0
 10
140.0
 20
197.25
 30
0.0
  0
VERTEX
  8
0
 10
140.0
 20
207.0
 30
0.0
 42
0.414213562373
  0
VERTEX
  8
0
 10
138.0
 20
209.0
 30
0.0
  0
VERTEX
  8
0
 10
109.0
 20
209.0
 30
0.0
 42
0.414213562373
  0
VERTEX
  8
0
 10
107.0
 20
207.0
 30
0.0
  0
VERTEX
  8
0
 10
107.0
 20
197.25
 30
0.0
  0
SEQEND
  8
0
  0
POLYLINE
  8
0
 62
7
 70
0
 66
1
 10
0.0
 20
0.0
 30
0.0
  0
VERTEX
  8
0
 10
107.0
 20
196.75
 30
0.0
  0
VERTEX
  8
0
 10
107.0
 20
187.0
 30
0.0
  0
VERTEX
  8
0
 10
111.0
 20
187.0
 30
0.0
  0
VERTEX
  8
0
 10
111.0
 20
182.0
 30
0.0
  0
VERTEX
  8
0
 10
116.0
 20
182.0
 30
0.0
  0
VERTEX
  8
0
 10
116.0
 20
187.0
 30
0.0
  0
VERTEX
  8
0
 10
122.0
 20
187.0
 30
0.0
  0
VERTEX
  8
0
 10
122.0
 20
191.0
 30
0.0
  0
VERTEX
  8
0
 10
120.7
 20
191.0
 30
0.0
  0
VERTEX
  8
0
 10
120.7
 20
193.5
 30
0.0
  0
VERTEX
  8
0
 10
122.0
 20
193.5
 30
0.0
  0
VERTEX
  8
0
 10
122.0
 20
195.0
 30
0.0
  0
VERTEX
  8
0
 10
125.0
 20
195.0
 30
0.0
  0
VERTEX
  8
0
 10
125.0
 20
193.5
 30
0.0
  0
VERTEX
  8
0
 10
126.3
 20
193.5
 30
0.0
  0
VERTEX
  8
0
 10
126.3
 20
191.0
 30
0.0
  0
VERTEX
  8
0
 10
125.0
 20
191.0
 30
0.0
  0
VERTEX
  8
0
 10
125.0
 20
187.0
 30
0.0
  0
VERTEX
  8
0
 10
131.0
 20
187.0
 30
0.0
  0
VERTEX
  8
0
 10
131.0
 20
182.0
 30
0.0
  0
VERTEX
  8
0
 10
136.0
 20
182.0
 30
0.0
  0
VERTEX
  8
0
 10
136.0
 20
187.0
 30
0.0
  0
VERTEX
  8
0
 10
140.0
 20
187.0
 30
0.0
  0
VERTEX
  8
0
 10
140.0
 20
196.75
 30
0.0
  0
SEQEND
  8
0
  0
CIRCLE
  8
0
 62
7
 10
131.0
 20
203.0
 30
0.0
 40
3.4
  0
ENDBLK
  0
BLOCK
  8
0
  2
SKETCH107
 70
0
 10
0.0
 20
0.0
 30
0.0
  3
SKETCH107
  0
POLYLINE
  8
0
 62
7
 70
0
 66
1
 10
0.0
 20
0.0
 30
0.0
  0
VERTEX
  8
0
 10
186.75
 20
265.0
 30
0.0
  0
VERTEX
  8
0
 10
204.0
 20
265.0
 30
0.0
  0
VERTEX
  8
0
 10
204.0
 20
260.0
 30
0.0
  0
VERTEX
  8
0
 10
201.0
 20
260.0
 30
0.0
  0
VERTEX
  8
0
 10
201.0
 20
255.0
 30
0.0
  0
VERTEX
  8
0
 10
204.0
 20
255.0
 30
0.0
  0
VERTEX
  8
0
 10
204.0
 20
250.0
 30
0.0
  0
VERTEX
  8
0
 10
186.75
 20
250.0
 30
0.0
  0
SEQEND
  8
0
  0
POLYLINE
  8
0
 62
7
 70
0
 66
1
 10
0.0
 20
0.0
 30
0.0
  0
VERTEX
  8
0
 10
186.25
 20
265.0
 30
0.0
  0
VERTEX
  8
0
 10
169.0
 20
265.0
 30
0.0
  0
VERTEX
  8
0
 10
169.0
 20
260.0
 30
0.0
  0
VERTEX
  8
0
 10
172.0
 20
260.0
 30
0.0
  0
VERTEX
  8
0
 10
172.0
 20
255.0
 30
0.0
  0
VERTEX
  8
0
 10
169.0
 20
255.0
 30
0.0
  0
VERTEX
  8
0
 10
169.0
 20
250.0
 30
0.0
  0
VERTEX
  8
0
 10
186.25
 20
250.0
 30
0.0
  0
SEQEND
  8
0
  0
ENDBLK
  0
BLOCK
  8
0
  2
SKETCH104
 70
0
 10
0.0
 20
0.0
 30
0.0
  3
SKETCH104
  0
POLYLINE
  8
0
 62
7
 70
0
 66
1
 10
0.0
 20
0.0
 30
0.0
  0
VERTEX
  8
0
 10
106.0
 20
220.25
 30
0.0
  0
VERTEX
  8
0
 10
106.0
 20
230.0
 30
0.0
 42
0.414213562373
  0
VERTEX
  8
0
 10
104.0
 20
232.0
 30
0.0
  0
VERTEX
  8
0
 10
75.0
 20
232.0
 30
0.0
 42
0.414213562373
  0
VERTEX
  8
0
 10
73.0
 20
230.0
 30
0.0
  0
VERTEX
  8
0
 10
73.0
 20
220.25
 30
0.0
  0
SEQEND
  8
0
  0
POLYLINE
  8
0
 62
7
 70
1
 66
1
 10
0.0
 20
0.0
 30
0.0
  0
VERTEX
  8
0
 10
92.3
 20
214.0
 30
0.0
  0
VERTEX
  8
0
 10
92.3
 20
216.5
 30
0.0
  0
VERTEX
  8
0
 10
86.7
 20
216.5
 30
0.0
  0
VERTEX
  8
0
 10
86.7
 20
214.0
 30
0.0
  0
SEQEND
  8
0
  0
POLYLINE
  8
0
 62
7
 70
0
 66
1
 10
0.0
 20
0.0
 30
0.0
  0
VERTEX
  8
0
 10
73.0
 20
219.75
 30
0.0
  0
VERTEX
  8
0
 10
73.0
 20
210.0
 30
0.0
  0
VERTEX
  8
0
 10
106.0
 20
210.0
 30
0.0
  0
VERTEX
  8
0
 10
106.0
 20
219.75
 30
0.0
  0
SEQEND
  8
0
  0
POLYLINE
  8
0
 62
7
 70
1
 66
1
 10
0.0
 20
0.0
 30
0.0
  0
VERTEX
  8
0
 10
82.2606271777
 20
229.389996088
 30
0.0
  0
VERTEX
  8
0
 10
96.5263066202
 20
228.293232648
 30
0.0
 42
-0.92606974791
  0
VERTEX
  8
0
 10
96.5263066202
 20
223.706767352
 30
0.0
  0
VERTEX
  8
0
 10
82.2606271777
 20
222.610003912
 30
0.0
 42
-1.07983227209
  0
SEQEND
  8
0
  0
ENDBLK
  0
BLOCK
  8
0
  2
SKETCH102
 70
0
 10
0.0
 20
0.0
 30
0.0
  3
SKETCH102
  0
POLYLINE
  8
0
 62
7
 70
0
 66
1
 10
0.0
 20
0.0
 30
0.0
  0
VERTEX
  8
0
 10
52.0
 20
261.75
 30
0.0
  0
VERTEX
  8
0
 10
52.0
 20
288.0
 30
0.0
 42
0.414213562373
  0
VERTEX
  8
0
 10
50.0
 20
290.0
 30
0.0
  0
VERTEX
  8
0
 10
7.0
 20
290.0
 30
0.0
 42
0.414213562373
  0
VERTEX
  8
0
 10
5.0
 20
288.0
 30
0.0
  0
VERTEX
  8
0
 10
5.0
 20
261.75
 30
0.0
  0
SEQEND
  8
0
  0
POLYLINE
  8
0
 62
7
 70
0
 66
1
 10
0.0
 20
0.0
 30
0.0
  0
VERTEX
  8
0
 10
5.0
 20
261.25
 30
0.0
  0
VERTEX
  8
0
 10
5.0
 20
235.0
 30
0.0
 42
0.414213562373
  0
VERTEX
  8
0
 10
7.0
 20
233.0
 30
0.0
  0
VERTEX
  8
0
 10
50.0
 20
233.0
 30
0.0
 42
0.414213562373
  0
VERTEX
  8
0
 10
52.0
 20
235.0
 30
0.0
  0
VERTEX
  8
0
 10
52.0
 20
261.25
 30
0.0
  0
SEQEND
  8
0
  0
CIRCLE
  8
0
 62
7
 10
35.5
 20
284.5
 30
0.0
 40
3.0
  0
CIRCLE
  8
0
 62
7
 10
35.5
 20
241.5
 30
0.0
 40
3.0
  0
POLYLINE
  8
0
 62
7
 70
1
 66
1
 10
0.0
 20
0.0
 30
0.0
  0
VERTEX
  8
0
 10
43.0
 20
286.0
 30
0.0
  0
VERTEX
  8
0
 10
48.0
 20
286.0
 30
0.0
  0
VERTEX
  8
0
 10
48.0
 20
283.0
 30
0.0
  0
VERTEX
  8
0
 10
43.0
 20
283.0
 30
0.0
  0
SEQEND
  8
0
  0
POLYLINE
  8
0
 62
7
 70
1
 66
1
 10
0.0
 20
0.0
 30
0.0
  0
VERTEX
  8
0
 10
23.0
 20
286.0
 30
0.0
  0
VERTEX
  8
0
 10
28.0
 20
286.0
 30
0.0
  0
VERTEX
  8
0
 10
28.0
 20
283.0
 30
0.0
  0
VERTEX
  8
0
 10
23.0
 20
283.0
 30
0.0
  0
SEQEND
  8
0
  0
POLYLINE
  8
0
 62
7
 70
1
 66
1
 10
0.0
 20
0.0
 30
0.0
  0
VERTEX
  8
0
 10
23.0
 20
243.0
 30
0.0
  0
VERTEX
  8
0
 10
28.0
 20
243.0
 30
0.0
  0
VERTEX
  8
0
 10
28.0
 20
240.0
 30
0.0
  0
VERTEX
  8
0
 10
23.0
 20
240.0
 30
0.0
  0
SEQEND
  8
0
  0
POLYLINE
  8
0
 62
7
 70
1
 66
1
 10
0.0
 20
0.0
 30
0.0
  0
VERTEX
  8
0
 10
43.0
 20
243.0
 30
0.0
  0
VERTEX
  8
0
 10
48.0
 20
243.0
 30
0.0
  0
VERTEX
  8
0
 10
48.0
 20
240.0
 30
0.0
  0
VERTEX
  8
0
 10
43.0
 20
240.0
 30
0.0
  0
SEQEND
  8
0
  0
POLYLINE
  8
0
 62
7
 70
1
 66
1
 10
0.0
 20
0.0
 30
0.0
  0
VERTEX
  8
0
 10
35.5
 20
252.0
 30
0.0
  0
VERTEX
  8
0
 10
36.5
 20
253.732050808
 30
0.0
  0
VERTEX
  8
0
 10
34.5
 20
253.732050808
 30
0.0
  0
SEQEND
  8
0
  0
ENDBLK
  0
BLOCK
  8
0
  2
SKETCH105
 70
0
 10
0.0
 20
0.0
 30
0.0
  3
SKETCH105
  0
POLYLINE
  8
0
 62
7
 70
0
 66
1
 10
0.0
 20
0.0
 30
0.0
  0
VERTEX
  8
0
 10
140.0
 20
220.25
 30
0.0
  0
VERTEX
  8
0
 10
140.0
 20
230.0
 30
0.0
 42
0.414213562373
  0
VERTEX
  8
0
 10
138.0
 20
232.0
 30
0.0
  0
VERTEX
  8
0
 10
109.0
 20
232.0
 30
0.0
 42
0.414213562373
  0
VERTEX
  8
0
 10
107.0
 20
230.0
 30
0.0
  0
VERTEX
  8
0
 10
107.0
 20
220.25
 30
0.0
  0
SEQEND
  8
0
  0
POLYLINE
  8
0
 62
7
 70
1
 66
1
 10
0.0
 20
0.0
 30
0.0
  0
VERTEX
  8
0
 10
126.3
 20
214.0
 30
0.0
  0
VERTEX
  8
0
 10
126.3
 20
216.5
 30
0.0
  0
VERTEX
  8
0
 10
120.7
 20
216.5
 30
0.0
  0
VERTEX
  8
0
 10
120.7
 20
214.0
 30
0.0
  0
SEQEND
  8
0
  0
POLYLINE
  8
0
 62
7
 70
0
 66
1
 10
0.0
 20
0.0
 30
0.0
  0
VERTEX
  8
0
 10
107.0
 20
219.75
 30
0.0
  0
VERTEX
  8
0
 10
107.0
 20
210.0
 30
0.0
  0
VERTEX
  8
0
 10
140.0
 20
210.0
 30
0.0
  0
VERTEX
  8
0
 10
140.0
 20
219.75
 30
0.0
  0
SEQEND
  8
0
  0
POLYLINE
  8
0
 62
7
 70
1
 66
1
 10
0.0
 20
0.0
 30
0.0
  0
VERTEX
  8
0
 10
130.739372822
 20
229.389996088
 30
0.0
  0
VERTEX
  8
0
 10
116.47369338
 20
228.293232648
 30
0.0
 42
0.92606974791
  0
VERTEX
  8
0
 10
116.47369338
 20
223.706767352
 30
0.0
  0
VERTEX
  8
0
 10
130.739372822
 20
222.610003912
 30
0.0
 42
1.07983227209
  0
SEQEND
  8
0
  0
ENDBLK
  0
BLOCK
  8
0
  2
SKETCH103
 70
0
 10
0.0
 20
0.0
 30
0.0
  3
SKETCH103
  0
POLYLINE
  8
0
 62
7
 70
0
 66
1
 10
0.0
 20
0.0
 30
0.0
  0
VERTEX
  8
0
 10
100.0
 20
261.75
 30
0.0
  0
VERTEX
  8
0
 10
100.0
 20
288.0
 30
0.0
 42
0.414213562373
  0
VERTEX
  8
0
 10
98.0
 20
290.0
 30
0.0
  0
VERTEX
  8
0
 10
55.0
 20
290.0
 30
0.0
 42
0.414213562373
  0
VERTEX
  8
0
 10
53.0
 20
288.0
 30
0.0
  0
VERTEX
  8
0
 10
53.0
 20
261.75
 30
0.0
  0
SEQEND
  8
0
  0
POLYLINE
  8
0
 62
7
 70
0
 66
1
 10
0.0
 20
0.0
 30
0.0
  0
VERTEX
  8
0
 10
53.0
 20
261.25
 30
0.0
  0
VERTEX
  8
0
 10
53.0
 20
235.0
 30
0.0
 42
0.414213562373
  0
VERTEX
  8
0
 10
55.0
 20
233.0
 30
0.0
  0
VERTEX
  8
0
 10
98.0
 20
233.0
 30
0.0
 42
0.414213562373
  0
VERTEX
  8
0
 10
100.0
 20
235.0
 30
0.0
  0
VERTEX
  8
0
 10
100.0
 20
261.25
 30
0.0
  0
SEQEND
  8
0
  0
CIRCLE
  8
0
 62
7
 10
69.5
 20
284.5
 30
0.0
 40
3.0
  0
CIRCLE
  8
0
 62
7
 10
69.5
 20
241.5
 30
0.0
 40
3.0
  0
POLYLINE
  8
0
 62
7
 70
1
 66
1
 10
0.0
 20
0.0
 30
0.0
  0
VERTEX
  8
0
 10
77.0
 20
286.0
 30
0.0
  0
VERTEX
  8
0
 10
82.0
 20
286.0
 30
0.0
  0
VERTEX
  8
0
 10
82.0
 20
283.0
 30
0.0
  0
VERTEX
  8
0
 10
77.0
 20
283.0
 30
0.0
  0
SEQEND
  8
0
  0
POLYLINE
  8
0
 62
7
 70
1
 66
1
 10
0.0
 20
0.0
 30
0.0
  0
VERTEX
  8
0
 10
57.0
 20
286.0
 30
0.0
  0
VERTEX
  8
0
 10
62.0
 20
286.0
 30
0.0
  0
VERTEX
  8
0
 10
62.0
 20
283.0
 30
0.0
  0
VERTEX
  8
0
 10
57.0
 20
283.0
 30
0.0
  0
SEQEND
  8
0
  0
POLYLINE
  8
0
 62
7
 70
1
 66
1
 10
0.0
 20
0.0
 30
0.0
  0
VERTEX
  8
0
 10
57.0
 20
243.0
 30
0.0
  0
VERTEX
  8
0
 10
62.0
 20
243.0
 30
0.0
  0
VERTEX
  8
0
 10
62.0
 20
240.0
 30
0.0
  0
VERTEX
  8
0
 10
57.0
 20
240.0
 30
0.0
  0
SEQEND
  8
0
  0
POLYLINE
  8
0
 62
7
 70
1
 66
1
 10
0.0
 20
0.0
 30
0.0
  0
VERTEX
  8
0
 10
77.0
 20
243.0
 30
0.0
  0
VERTEX
  8
0
 10
82.0
 20
243.0
 30
0.0
  0
VERTEX
  8
0
 10
82.0
 20
240.0
 30
0.0
  0
VERTEX
  8
0
 10
77.0
 20
240.0
 30
0.0
  0
SEQEND
  8
0
  0
POLYLINE
  8
0
 62
7
 70
1
 66
1
 10
0.0
 20
0.0
 30
0.0
  0
VERTEX
  8
0
 10
69.5
 20
252.0
 30
0.0
  0
VERTEX
  8
0
 10
70.5
 20
253.732050808
 30
0.0
  0
VERTEX
  8
0
 10
68.5
 20
253.732050808
 30
0.0
  0
SEQEND
  8
0
  0
ENDBLK
  0
BLOCK
  8
0
  2
SKETCH101
 70
0
 10
0.0
 20
0.0
 30
0.0
  3
SKETCH101
  0
POLYLINE
  8
0
 62
7
 70
0
 66
1
 10
0.0
 20
0.0
 30
0.0
  0
VERTEX
  8
0
 10
106.0
 20
197.25
 30
0.0
  0
VERTEX
  8
0
 10
106.0
 20
207.0
 30
0.0
 42
0.414213562373
  0
VERTEX
  8
0
 10
104.0
 20
209.0
 30
0.0
  0
VERTEX
  8
0
 10
75.0
 20
209.0
 30
0.0
 42
0.414213562373
  0
VERTEX
  8
0
 10
73.0
 20
207.0
 30
0.0
  0
VERTEX
  8
0
 10
73.0
 20
197.25
 30
0.0
  0
SEQEND
  8
0
  0
POLYLINE
  8
0
 62
7
 70
0
 66
1
 10
0.0
 20
0.0
 30
0.0
  0
VERTEX
  8
0
 10
73.0
 20
196.75
 30
0.0
  0
VERTEX
  8
0
 10
73.0
 20
187.0
 30
0.0
  0
VERTEX
  8
0
 10
77.0
 20
187.0
 30
0.0
  0
VERTEX
  8
0
 10
77.0
 20
182.0
 30
0.0
  0
VERTEX
  8
0
 10
82.0
 20
182.0
 30
0.0
  0
VERTEX
  8
0
 10
82.0
 20
187.0
 30
0.0
  0
VERTEX
  8
0
 10
88.0
 20
187.0
 30
0.0
  0
VERTEX
  8
0
 10
88.0
 20
191.0
 30
0.0
  0
VERTEX
  8
0
 10
86.7
 20
191.0
 30
0.0
  0
VERTEX
  8
0
 10
86.7
 20
193.5
 30
0.0
  0
VERTEX
  8
0
 10
88.0
 20
193.5
 30
0.0
  0
VERTEX
  8
0
 10
88.0
 20
195.0
 30
0.0
  0
VERTEX
  8
0
 10
91.0
 20
195.0
 30
0.0
  0
VERTEX
  8
0
 10
91.0
 20
193.5
 30
0.0
  0
VERTEX
  8
0
 10
92.3
 20
193.5
 30
0.0
  0
VERTEX
  8
0
 10
92.3
 20
191.0
 30
0.0
  0
VERTEX
  8
0
 10
91.0
 20
191.0
 30
0.0
  0
VERTEX
  8
0
 10
91.0
 20
187.0
 30
0.0
  0
VERTEX
  8
0
 10
97.0
 20
187.0
 30
0.0
  0
VERTEX
  8
0
 10
97.0
 20
182.0
 30
0.0
  0
VERTEX
  8
0
 10
102.0
 20
182.0
 30
0.0
  0
VERTEX
  8
0
 10
102.0
 20
187.0
 30
0.0
  0
VERTEX
  8
0
 10
106.0
 20
187.0
 30
0.0
  0
VERTEX
  8
0
 10
106.0
 20
196.75
 30
0.0
  0
SEQEND
  8
0
  0
CIRCLE
  8
0
 62
7
 10
82.0
 20
203.0
 30
0.0
 40
3.4
  0
ENDBLK
  0
BLOCK
  8
0
  2
SKETCH108
 70
0
 10
0.0
 20
0.0
 30
0.0
  3
SKETCH108
  0
POLYLINE
  8
0
 62
7
 70
0
 66
1
 10
0.0
 20
0.0
 30
0.0
  0
VERTEX
  8
0
 10
186.75
 20
249.0
 30
0.0
  0
VERTEX
  8
0
 10
204.0
 20
249.0
 30
0.0
  0
VERTEX
  8
0
 10
204.0
 20
244.0
 30
0.0
  0
VERTEX
  8
0
 10
201.0
 20
244.0
 30
0.0
  0
VERTEX
  8
0
 10
201.0
 20
239.0
 30
0.0
  0
VERTEX
  8
0
 10
204.0
 20
239.0
 30
0.0
  0
VERTEX
  8
0
 10
204.0
 20
234.0
 30
0.0
  0
VERTEX
  8
0
 10
186.75
 20
234.0
 30
0.0
  0
SEQEND
  8
0
  0
POLYLINE
  8
0
 62
7
 70
0
 66
1
 10
0.0
 20
0.0
 30
0.0
  0
VERTEX
  8
0
 10
186.25
 20
249.0
 30
0.0
  0
VERTEX
  8
0
 10
169.0
 20
249.0
 30
0.0
  0
VERTEX
  8
0
 10
169.0
 20
244.0
 30
0.0
  0
VERTEX
  8
0
 10
172.0
 20
244.0
 30
0.0
  0
VERTEX
  8
0
 10
172.0
 20
239.0
 30
0.0
  0
VERTEX
  8
0
 10
169.0
 20
239.0
 30
0.0
  0
VERTEX
  8
0
 10
169.0
 20
234.0
 30
0.0
  0
VERTEX
  8
0
 10
186.25
 20
234.0
 30
0.0
  0
SEQEND
  8
0
  0
ENDBLK
  0
BLOCK
  8
0
  2
SKETCH003
 70
0
 10
0.0
 20
0.0
 30
0.0
  3
SKETCH003
  0
POLYLINE
  8
0
 62
7
 70
0
 66
1
 10
0.0
 20
0.0
 30
0.0
  0
VERTEX
  8
0
 10
34.75
 20
142.0
 30
0.0
  0
VERTEX
  8
0
 10
25.0
 20
142.0
 30
0.0
  0
VERTEX
  8
0
 10
25.0
 20
139.0
 30
0.0
  0
VERTEX
  8
0
 10
5.0
 20
139.0
 30
0.0
  0
VERTEX
  8
0
 10
5.0
 20
79.0
 30
0.0
  0
VERTEX
  8
0
 10
25.0
 20
79.0
 30
0.0
  0
VERTEX
  8
0
 10
25.0
 20
76.0
 30
0.0
  0
VERTEX
  8
0
 10
34.75
 20
76.0
 30
0.0
  0
SEQEND
  8
0
  0
POLYLINE
  8
0
 62
7
 70
0
 66
1
 10
0.0
 20
0.0
 30
0.0
  0
VERTEX
  8
0
 10
35.25
 20
76.0
 30
0.0
  0
VERTEX
  8
0
 10
45.0
 20
76.0
 30
0.0
  0
VERTEX
  8
0
 10
45.0
 20
79.0
 30
0.0
  0
VERTEX
  8
0
 10
65.0
 20
79.0
 30
0.0
  0
VERTEX
  8
0
 10
65.0
 20
139.0
 30
0.0
  0
VERTEX
  8
0
 10
45.0
 20
139.0
 30
0.0
  0
VERTEX
  8
0
 10
45.0
 20
142.0
 30
0.0
  0
VERTEX
  8
0
 10
35.25
 20
142.0
 30
0.0
  0
SEQEND
  8
0
  0
CIRCLE
  8
0
 62
7
 10
22.25
 20
109.0
 30
0.0
 40
7.9
  0
CIRCLE
  8
0
 62
7
 10
47.75
 20
109.0
 30
0.0
 40
7.9
  0
ENDBLK
  0
BLOCK
  8
0
  2
SKETCH109
 70
0
 10
0.0
 20
0.0
 30
0.0
  3
SKETCH109
  0
POLYLINE
  8
0
 62
7
 70
0
 66
1
 10
0.0
 20
0.0
 30
0.0
  0
VERTEX
  8
0
 10
102.75
 20
181.1
 30
0.0
  0
VERTEX
  8
0
 10
82.0
 20
181.1
 30
0.0
 42
0.414213562373
  0
VERTEX
  8
0
 10
81.0
 20
180.1
 30
0.0
  0
VERTEX
  8
0
 10
81.0
 20
177.1
 30
0.0
 42
0.414213562373
  0
VERTEX
  8
0
 10
82.0
 20
176.1
 30
0.0
  0
VERTEX
  8
0
 10
87.0
 20
176.1
 30
0.0
 42
-0.414213562373
  0
VERTEX
  8
0
 10
88.0
 20
175.1
 30
0.0
  0
VERTEX
  8
0
 10
88.0
 20
174.1
 30
0.0
 42
-0.414213562373
  0
VERTEX
  8
0
 10
87.0
 20
173.1
 30
0.0
  0
VERTEX
  8
0
 10
79.0
 20
173.1
 30
0.0
 42
-0.414213562373
  0
VERTEX
  8
0
 10
78.0
 20
174.1
 30
0.0
  0
VERTEX
  8
0
 10
78.0
 20
180.1
 30
0.0
 42
0.414213562373
  0
VERTEX
  8
0
 10
77.0
 20
181.1
 30
0.0
  0
VERTEX
  8
0
 10
74.0
 20
181.1
 30
0.0
 42
0.414213562373
  0
VERTEX
  8
0
 10
73.0
 20
180.1
 30
0.0
  0
VERTEX
  8
0
 10
73.0
 20
163.0
 30
0.0
  0
VERTEX
  8
0
 10
83.0
 20
163.0
 30
0.0
  0
VERTEX
  8
0
 10
83.0
 20
166.0
 30
0.0
  0
VERTEX
  8
0
 10
93.0
 20
166.0
 30
0.0
  0
VERTEX
  8
0
 10
93.0
 20
163.0
 30
0.0
  0
VERTEX
  8
0
 10
95.4019237886
 20
163.0
 30
0.0
 42
0.57735026919
  0
VERTEX
  8
0
 10
100.598076211
 20
163.0
 30
0.0
  0
VERTEX
  8
0
 10
102.75
 20
163.0
 30
0.0
  0
SEQEND
  8
0
  0
POLYLINE
  8
0
 62
7
 70
0
 66
1
 10
0.0
 20
0.0
 30
0.0
  0
VERTEX
  8
0
 10
103.25
 20
181.1
 30
0.0
  0
VERTEX
  8
0
 10
132.0
 20
181.1
 30
0.0
 42
-0.414213562373
  0
VERTEX
  8
0
 10
133.0
 20
180.1
 30
0.0
  0
VERTEX
  8
0
 10
133.0
 20
163.0
 30
0.0
  0
VERTEX
  8
0
 10
123.0
 20
163.0
 30
0.0
  0
VERTEX
  8
0
 10
123.0
 20
166.0
 30
0.0
  0
VERTEX
  8
0
 10
113.0
 20
166.0
 30
0.0
  0
VERTEX
  8
0
 10
113.0
 20
163.0
 30
0.0
  0
VERTEX
  8
0
 10
103.25
 20
163.0
 30
0.0
  0
SEQEND
  8
0
  0
CIRCLE
  8
0
 62
7
 10
121.5
 20
172.05
 30
0.0
 40
1.5
  0
CIRCLE
  8
0
 62
7
 10
98.0
 20
164.5
 30
0.0
 40
1.0
  0
ENDBLK
  0
BLOCK
  8
0
  2
SKETCH110
 70
0
 10
0.0
 20
0.0
 30
0.0
  3
SKETCH110
  0
POLYLINE
  8
0
 62
7
 70
0
 66
1
 10
0.0
 20
0.0
 30
0.0
  0
VERTEX
  8
0
 10
102.75
 20
161.1
 30
0.0
  0
VERTEX
  8
0
 10
74.0
 20
161.1
 30
0.0
 42
0.414213562373
  0
VERTEX
  8
0
 10
73.0
 20
160.1
 30
0.0
  0
VERTEX
  8
0
 10
73.0
 20
143.0
 30
0.0
  0
VERTEX
  8
0
 10
83.0
 20
143.0
 30
0.0
  0
VERTEX
  8
0
 10
83.0
 20
146.0
 30
0.0
  0
VERTEX
  8
0
 10
93.0
 20
146.0
 30
0.0
  0
VERTEX
  8
0
 10
93.0
 20
143.0
 30
0.0
  0
VERTEX
  8
0
 10
102.75
 20
143.0
 30
0.0
  0
SEQEND
  8
0
  0
POLYLINE
  8
0
 62
7
 70
0
 66
1
 10
0.0
 20
0.0
 30
0.0
  0
VERTEX
  8
0
 10
103.25
 20
161.1
 30
0.0
  0
VERTEX
  8
0
 10
124.0
 20
161.1
 30
0.0
 42
-0.414213562373
  0
VERTEX
  8
0
 10
125.0
 20
160.1
 30
0.0
  0
VERTEX
  8
0
 10
125.0
 20
157.1
 30
0.0
 42
-0.414213562373
  0
VERTEX
  8
0
 10
124.0
 20
156.1
 30
0.0
  0
VERTEX
  8
0
 10
119.0
 20
156.1
 30
0.0
 42
0.414213562373
  0
VERTEX
  8
0
 10
118.0
 20
155.1
 30
0.0
  0
VERTEX
  8
0
 10
118.0
 20
154.1
 30
0.0
 42
0.414213562373
  0
VERTEX
  8
0
 10
119.0
 20
153.1
 30
0.0
  0
VERTEX
  8
0
 10
127.0
 20
153.1
 30
0.0
 42
0.414213562373
  0
VERTEX
  8
0
 10
128.0
 20
154.1
 30
0.0
  0
VERTEX
  8
0
 10
128.0
 20
160.1
 30
0.0
 42
-0.414213562373
  0
VERTEX
  8
0
 10
129.0
 20
161.1
 30
0.0
  0
VERTEX
  8
0
 10
132.0
 20
161.1
 30
0.0
 42
-0.414213562373
  0
VERTEX
  8
0
 10
133.0
 20
160.1
 30
0.0
  0
VERTEX
  8
0
 10
133.0
 20
143.0
 30
0.0
  0
VERTEX
  8
0
 10
123.0
 20
143.0
 30
0.0
  0
VERTEX
  8
0
 10
123.0
 20
146.0
 30
0.0
  0
VERTEX
  8
0
 10
113.0
 20
146.0
 30
0.0
  0
VERTEX
  8
0
 10
113.0
 20
143.0
 30
0.0
  0
VERTEX
  8
0
 10
110.598076211
 20
143.0
 30
0.0
 42
-0.57735026919
  0
VERTEX
  8
0
 10
105.401923789
 20
143.0
 30
0.0
  0
VERTEX
  8
0
 10
103.25
 20
143.0
 30
0.0
  0
SEQEND
  8
0
  0
CIRCLE
  8
0
 62
7
 10
84.5
 20
152.05
 30
0.0
 40
1.5
  0
CIRCLE
  8
0
 62
7
 10
108.0
 20
144.5
 30
0.0
 40
1.0
  0
ENDBLK
  0
BLOCK
  8
0
  2
SKETCH112
 70
0
 10
0.0
 20
0.0
 30
0.0
  3
SKETCH112
  0
POLYLINE
  8
0
 62
7
 70
0
 66
1
 10
0.0
 20
0.0
 30
0.0
  0
VERTEX
  8
0
 10
167.0
 20
35.25
 30
0.0
  0
VERTEX
  8
0
 10
167.0
 20
63.0
 30
0.0
 42
-0.414213562373
  0
VERTEX
  8
0
 10
169.0
 20
65.0
 30
0.0
  0
VERTEX
  8
0
 10
185.1
 20
65.0
 30
0.0
  0
VERTEX
  8
0
 10
185.1
 20
55.0
 30
0.0
  0
VERTEX
  8
0
 10
182.1
 20
55.0
 30
0.0
  0
VERTEX
  8
0
 10
182.1
 20
59.0
 30
0.0
  0
VERTEX
  8
0
 10
170.0
 20
59.0
 30
0.0
  0
VERTEX
  8
0
 10
170.0
 20
36.5
 30
0.0
  0
VERTEX
  8
0
 10
182.1
 20
36.5
 30
0.0
  0
VERTEX
  8
0
 10
182.1
 20
45.0
 30
0.0
  0
VERTEX
  8
0
 10
185.1
 20
45.0
 30
0.0
  0
VERTEX
  8
0
 10
185.1
 20
35.25
 30
0.0
  0
SEQEND
  8
0
  0
CIRCLE
  8
0
 62
7
 10
176.05
 20
61.5
 30
0.0
 40
1.0
  0
CIRCLE
  8
0
 62
7
 10
176.05
 20
34.0
 30
0.0
 40
1.0
  0
POLYLINE
  8
0
 62
7
 70
0
 66
1
 10
0.0
 20
0.0
 30
0.0
  0
VERTEX
  8
0
 10
185.1
 20
34.75
 30
0.0
  0
VERTEX
  8
0
 10
185.1
 20
32.5980762114
 30
0.0
 42
-0.57735026919
  0
VERTEX
  8
0
 10
185.1
 20
27.4019237886
 30
0.0
  0
VERTEX
  8
0
 10
185.1
 20
25.0
 30
0.0
  0
VERTEX
  8
0
 10
182.1
 20
25.0
 30
0.0
  0
VERTEX
  8
0
 10
182.1
 20
15.0
 30
0.0
  0
VERTEX
  8
0
 10
185.1
 20
15.0
 30
0.0
  0
VERTEX
  8
0
 10
185.1
 20
5.0
 30
0.0
  0
VERTEX
  8
0
 10
169.0
 20
5.0
 30
0.0
 42
-0.414213562373
  0
VERTEX
  8
0
 10
167.0
 20
7.0
 30
0.0
  0
VERTEX
  8
0
 10
167.0
 20
34.75
 30
0.0
  0
SEQEND
  8
0
  0
CIRCLE
  8
0
 62
7
 10
183.6
 20
30.0
 30
0.0
 40
1.0
  0
ENDBLK
  0
BLOCK
  8
0
  2
SKETCH128
 70
0
 10
0.0
 20
0.0
 30
0.0
  3
SKETCH128
  0
POLYLINE
  8
0
 62
7
 70
0
 66
1
 10
0.0
 20
0.0
 30
0.0
  0
VERTEX
  8
0
 10
21.25
 20
231.0
 30
0.0
  0
VERTEX
  8
0
 10
8.0
 20
231.0
 30
0.0
  0
VERTEX
  8
0
 10
8.0
 20
221.0
 30
0.0
  0
VERTEX
  8
0
 10
5.0
 20
221.0
 30
0.0
  0
VERTEX
  8
0
 10
5.0
 20
211.0
 30
0.0
  0
VERTEX
  8
0
 10
8.0
 20
211.0
 30
0.0
  0
VERTEX
  8
0
 10
8.0
 20
197.0
 30
0.0
  0
VERTEX
  8
0
 10
11.5
 20
197.0
 30
0.0
  0
VERTEX
  8
0
 10
11.5
 20
198.0
 30
0.0
  0
VERTEX
  8
0
 10
13.0
 20
198.0
 30
0.0
  0
VERTEX
  8
0
 10
13.0
 20
197.0
 30
0.0
  0
VERTEX
  8
0
 10
13.5
 20
197.0
 30
0.0
  0
VERTEX
  8
0
 10
13.5
 20
195.0
 30
0.0
  0
VERTEX
  8
0
 10
13.0
 20
195.0
 30
0.0
  0
VERTEX
  8
0
 10
13.0
 20
194.0
 30
0.0
  0
VERTEX
  8
0
 10
11.5
 20
194.0
 30
0.0
  0
VERTEX
  8
0
 10
11.5
 20
195.0
 30
0.0
  0
VERTEX
  8
0
 10
8.0
 20
195.0
 30
0.0
  0
VERTEX
  8
0
 10
8.0
 20
191.0
 30
0.0
  0
VERTEX
  8
0
 10
5.0
 20
191.0
 30
0.0
  0
VERTEX
  8
0
 10
5.0
 20
181.0
 30
0.0
  0
VERTEX
  8
0
 10
8.0
 20
181.0
 30
0.0
  0
VERTEX
  8
0
 10
8.0
 20
171.0
 30
0.0
  0
VERTEX
  8
0
 10
21.25
 20
171.0
 30
0.0
  0
SEQEND
  8
0
  0
POLYLINE
  8
0
 62
7
 70
0
 66
1
 10
0.0
 20
0.0
 30
0.0
  0
VERTEX
  8
0
 10
21.75
 20
171.0
 30
0.0
  0
VERTEX
  8
0
 10
35.0
 20
171.0
 30
0.0
  0
VERTEX
  8
0
 10
35.0
 20
181.0
 30
0.0
  0
VERTEX
  8
0
 10
38.0
 20
181.0
 30
0.0
  0
VERTEX
  8
0
 10
38.0
 20
191.0
 30
0.0
  0
VERTEX
  8
0
 10
35.0
 20
191.0
 30
0.0
  0
VERTEX
  8
0
 10
35.0
 20
195.0
 30
0.0
  0
VERTEX
  8
0
 10
31.5
 20
195.0
 30
0.0
  0
VERTEX
  8
0
 10
31.5
 20
194.0
 30
0.0
  0
VERTEX
  8
0
 10
30.0
 20
194.0
 30
0.0
  0
VERTEX
  8
0
 10
30.0
 20
195.0
 30
0.0
  0
VERTEX
  8
0
 10
29.5
 20
195.0
 30
0.0
  0
VERTEX
  8
0
 10
29.5
 20
197.0
 30
0.0
  0
VERTEX
  8
0
 10
30.0
 20
197.0
 30
0.0
  0
VERTEX
  8
0
 10
30.0
 20
198.0
 30
0.0
  0
VERTEX
  8
0
 10
31.5
 20
198.0
 30
0.0
  0
VERTEX
  8
0
 10
31.5
 20
197.0
 30
0.0
  0
VERTEX
  8
0
 10
35.0
 20
197.0
 30
0.0
  0
VERTEX
  8
0
 10
35.0
 20
211.0
 30
0.0
  0
VERTEX
  8
0
 10
38.0
 20
211.0
 30
0.0
  0
VERTEX
  8
0
 10
38.0
 20
221.0
 30
0.0
  0
VERTEX
  8
0
 10
35.0
 20
221.0
 30
0.0
  0
VERTEX
  8
0
 10
35.0
 20
231.0
 30
0.0
  0
VERTEX
  8
0
 10
21.75
 20
231.0
 30
0.0
  0
SEQEND
  8
0
  0
ENDBLK
  0
BLOCK
  8
0
  2
SKETCH124
 70
0
 10
0.0
 20
0.0
 30
0.0
  3
SKETCH124
  0
POLYLINE
  8
0
 62
7
 70
0
 66
1
 10
0.0
 20
0.0
 30
0.0
  0
VERTEX
  8
0
 10
163.0
 20
178.0
 30
0.0
  0
VERTEX
  8
0
 10
163.0
 20
143.0
 30
0.0
  0
VERTEX
  8
0
 10
167.0
 20
143.0
 30
0.0
  0
VERTEX
  8
0
 10
167.0
 20
146.0
 30
0.0
  0
VERTEX
  8
0
 10
170.5
 20
146.0
 30
0.0
  0
VERTEX
  8
0
 10
170.5
 20
150.0
 30
0.0
  0
VERTEX
  8
0
 10
169.2
 20
150.0
 30
0.0
  0
VERTEX
  8
0
 10
169.2
 20
152.5
 30
0.0
  0
VERTEX
  8
0
 10
170.5
 20
152.5
 30
0.0
  0
VERTEX
  8
0
 10
170.5
 20
154.0
 30
0.0
  0
VERTEX
  8
0
 10
173.5
 20
154.0
 30
0.0
  0
VERTEX
  8
0
 10
173.5
 20
152.5
 30
0.0
  0
VERTEX
  8
0
 10
174.8
 20
152.5
 30
0.0
  0
VERTEX
  8
0
 10
174.8
 20
150.0
 30
0.0
  0
VERTEX
  8
0
 10
173.5
 20
150.0
 30
0.0
  0
VERTEX
  8
0
 10
173.5
 20
146.0
 30
0.0
  0
VERTEX
  8
0
 10
177.0
 20
146.0
 30
0.0
  0
VERTEX
  8
0
 10
177.0
 20
143.0
 30
0.0
  0
VERTEX
  8
0
 10
181.0
 20
143.0
 30
0.0
  0
VERTEX
  8
0
 10
181.0
 20
163.0
 30
0.0
  0
VERTEX
  8
0
 10
184.0
 20
163.0
 30
0.0
  0
VERTEX
  8
0
 10
184.0
 20
168.0
 30
0.0
  0
VERTEX
  8
0
 10
181.0
 20
168.0
 30
0.0
  0
VERTEX
  8
0
 10
181.0
 20
178.0
 30
0.0
  0
SEQEND
  8
0
  0
POLYLINE
  8
0
 62
7
 70
0
 66
1
 10
0.0
 20
0.0
 30
0.0
  0
VERTEX
  8
0
 10
181.0
 20
178.5
 30
0.0
  0
VERTEX
  8
0
 10
181.0
 20
188.0
 30
0.0
 42
0.414213562373
  0
VERTEX
  8
0
 10
179.0
 20
190.0
 30
0.0
  0
VERTEX
  8
0
 10
165.0
 20
190.0
 30
0.0
 42
0.414213562373
  0
VERTEX
  8
0
 10
163.0
 20
188.0
 30
0.0
  0
VERTEX
  8
0
 10
163.0
 20
178.5
 30
0.0
  0
SEQEND
  8
0
  0
POLYLINE
  8
0
 62
7
 70
1
 66
1
 10
0.0
 20
0.0
 30
0.0
  0
VERTEX
  8
0
 10
165.95
 20
185.0
 30
0.0
  0
VERTEX
  8
0
 10
178.05
 20
185.0
 30
0.0
  0
VERTEX
  8
0
 10
178.05
 20
162.5
 30
0.0
  0
VERTEX
  8
0
 10
165.95
 20
162.5
 30
0.0
  0
SEQEND
  8
0
  0
CIRCLE
  8
0
 62
7
 10
172.0
 20
187.5
 30
0.0
 40
1.0
  0
CIRCLE
  8
0
 62
7
 10
172.0
 20
160.0
 30
0.0
 40
1.0
  0
ENDBLK
  0
BLOCK
  8
0
  2
SKETCH125
 70
0
 10
0.0
 20
0.0
 30
0.0
  3
SKETCH125
  0
POLYLINE
  8
0
 62
7
 70
0
 66
1
 10
0.0
 20
0.0
 30
0.0
  0
VERTEX
  8
0
 10
163.0
 20
226.0
 30
0.0
  0
VERTEX
  8
0
 10
163.0
 20
191.0
 30
0.0
  0
VERTEX
  8
0
 10
167.0
 20
191.0
 30
0.0
  0
VERTEX
  8
0
 10
167.0
 20
194.0
 30
0.0
  0
VERTEX
  8
0
 10
170.5
 20
194.0
 30
0.0
  0
VERTEX
  8
0
 10
170.5
 20
198.0
 30
0.0
  0
VERTEX
  8
0
 10
169.2
 20
198.0
 30
0.0
  0
VERTEX
  8
0
 10
169.2
 20
200.5
 30
0.0
  0
VERTEX
  8
0
 10
170.5
 20
200.5
 30
0.0
  0
VERTEX
  8
0
 10
170.5
 20
202.0
 30
0.0
  0
VERTEX
  8
0
 10
173.5
 20
202.0
 30
0.0
  0
VERTEX
  8
0
 10
173.5
 20
200.5
 30
0.0
  0
VERTEX
  8
0
 10
174.8
 20
200.5
 30
0.0
  0
VERTEX
  8
0
 10
174.8
 20
198.0
 30
0.0
  0
VERTEX
  8
0
 10
173.5
 20
198.0
 30
0.0
  0
VERTEX
  8
0
 10
173.5
 20
194.0
 30
0.0
  0
VERTEX
  8
0
 10
177.0
 20
194.0
 30
0.0
  0
VERTEX
  8
0
 10
177.0
 20
191.0
 30
0.0
  0
VERTEX
  8
0
 10
181.0
 20
191.0
 30
0.0
  0
VERTEX
  8
0
 10
181.0
 20
211.0
 30
0.0
  0
VERTEX
  8
0
 10
184.0
 20
211.0
 30
0.0
  0
VERTEX
  8
0
 10
184.0
 20
216.0
 30
0.0
  0
VERTEX
  8
0
 10
181.0
 20
216.0
 30
0.0
  0
VERTEX
  8
0
 10
181.0
 20
226.0
 30
0.0
  0
SEQEND
  8
0
  0
POLYLINE
  8
0
 62
7
 70
0
 66
1
 10
0.0
 20
0.0
 30
0.0
  0
VERTEX
  8
0
 10
181.0
 20
226.5
 30
0.0
  0
VERTEX
  8
0
 10
181.0
 20
231.0
 30
0.0
 42
0.414213562373
  0
VERTEX
  8
0
 10
179.0
 20
233.0
 30
0.0
  0
VERTEX
  8
0
 10
165.0
 20
233.0
 30
0.0
 42
0.414213562377
  0
VERTEX
  8
0
 10
163.0
 20
231.0
 30
0.0
  0
VERTEX
  8
0
 10
163.0
 20
226.5
 30
0.0
  0
SEQEND
  8
0
  0
CIRCLE
  8
0
 62
7
 10
172.0
 20
227.0
 30
0.0
 40
1.5
  0
ENDBLK
  0
BLOCK
  8
0
  2
SKETCH117
 70
0
 10
0.0
 20
0.0
 30
0.0
  3
SKETCH117
  0
POLYLINE
  8
0
 62
7
 70
0
 66
1
 10
0.0
 20
0.0
 30
0.0
  0
VERTEX
  8
0
 10
109.0
 20
122.75
 30
0.0
  0
VERTEX
  8
0
 10
109.0
 20
114.0
 30
0.0
  0
VERTEX
  8
0
 10
80.0
 20
114.0
 30
0.0
  0
VERTEX
  8
0
 10
80.0
 20
122.75
 30
0.0
  0
SEQEND
  8
0
  0
POLYLINE
  8
0
 62
7
 70
0
 66
1
 10
0.0
 20
0.0
 30
0.0
  0
VERTEX
  8
0
 10
80.0
 20
123.25
 30
0.0
  0
VERTEX
  8
0
 10
80.0
 20
132.0
 30
0.0
  0
VERTEX
  8
0
 10
109.0
 20
132.0
 30
0.0
  0
VERTEX
  8
0
 10
109.0
 20
123.25
 30
0.0
  0
SEQEND
  8
0
  0
POLYLINE
  8
0
 62
7
 70
1
 66
1
 10
0.0
 20
0.0
 30
0.0
  0
VERTEX
  8
0
 10
88.2606271777
 20
126.389996088
 30
0.0
  0
VERTEX
  8
0
 10
102.52630662
 20
125.293232648
 30
0.0
 42
-0.92606974791
  0
VERTEX
  8
0
 10
102.52630662
 20
120.706767352
 30
0.0
  0
VERTEX
  8
0
 10
88.2606271777
 20
119.610003912
 30
0.0
 42
-1.07983227209
  0
SEQEND
  8
0
  0
ENDBLK
  0
BLOCK
  8
0
  2
SKETCH116
 70
0
 10
0.0
 20
0.0
 30
0.0
  3
SKETCH116
  0
POLYLINE
  8
0
 62
7
 70
0
 66
1
 10
0.0
 20
0.0
 30
0.0
  0
VERTEX
  8
0
 10
109.0
 20
84.75
 30
0.0
  0
VERTEX
  8
0
 10
109.0
 20
76.0
 30
0.0
  0
VERTEX
  8
0
 10
80.0
 20
76.0
 30
0.0
  0
VERTEX
  8
0
 10
80.0
 20
84.75
 30
0.0
  0
SEQEND
  8
0
  0
POLYLINE
  8
0
 62
7
 70
0
 66
1
 10
0.0
 20
0.0
 30
0.0
  0
VERTEX
  8
0
 10
80.0
 20
85.25
 30
0.0
  0
VERTEX
  8
0
 10
80.0
 20
94.0
 30
0.0
  0
VERTEX
  8
0
 10
109.0
 20
94.0
 30
0.0
  0
VERTEX
  8
0
 10
109.0
 20
85.25
 30
0.0
  0
SEQEND
  8
0
  0
POLYLINE
  8
0
 62
7
 70
1
 66
1
 10
0.0
 20
0.0
 30
0.0
  0
VERTEX
  8
0
 10
88.2606271777
 20
88.3899960876
 30
0.0
  0
VERTEX
  8
0
 10
102.52630662
 20
87.2932326475
 30
0.0
 42
-0.92606974791
  0
VERTEX
  8
0
 10
102.52630662
 20
82.7067673525
 30
0.0
  0
VERTEX
  8
0
 10
88.2606271777
 20
81.6100039124
 30
0.0
 42
-1.07983227209
  0
SEQEND
  8
0
  0
ENDBLK
  0
BLOCK
  8
0
  2
SKETCH129
 70
0
 10
0.0
 20
0.0
 30
0.0
  3
SKETCH129
  0
POLYLINE
  8
0
 62
7
 70
0
 66
1
 10
0.0
 20
0.0
 30
0.0
  0
VERTEX
  8
0
 10
152.0
 20
103.750005976
 30
0.0
  0
VERTEX
  8
0
 10
152.0
 20
97.0000119519
 30
0.0
 42
-0.41421531268
  0
VERTEX
  8
0
 10
150.0
 20
95.0
 30
0.0
  0
VERTEX
  8
0
 10
138.0
 20
95.0
 30
0.0
 42
0.414213562378
  0
VERTEX
  8
0
 10
136.0
 20
93.0
 30
0.0
  0
VERTEX
  8
0
 10
136.0
 20
76.0
 30
0.0
  0
VERTEX
  8
0
 10
133.0
 20
76.0
 30
0.0
  0
VERTEX
  8
0
 10
133.0
 20
79.0
 30
0.0
  0
VERTEX
  8
0
 10
131.5
 20
79.0
 30
0.0
  0
VERTEX
  8
0
 10
131.5
 20
83.0
 30
0.0
  0
VERTEX
  8
0
 10
132.8
 20
83.0
 30
0.0
  0
VERTEX
  8
0
 10
132.8
 20
85.5
 30
0.0
  0
VERTEX
  8
0
 10
131.5
 20
85.5
 30
0.0
  0
VERTEX
  8
0
 10
131.5
 20
87.0
 30
0.0
  0
VERTEX
  8
0
 10
128.5
 20
87.0
 30
0.0
  0
VERTEX
  8
0
 10
128.5
 20
85.5
 30
0.0
  0
VERTEX
  8
0
 10
127.2
 20
85.5
 30
0.0
  0
VERTEX
  8
0
 10
127.2
 20
83.0
 30
0.0
  0
VERTEX
  8
0
 10
128.5
 20
83.0
 30
0.0
  0
VERTEX
  8
0
 10
128.5
 20
79.0
 30
0.0
  0
VERTEX
  8
0
 10
127.0
 20
79.0
 30
0.0
  0
VERTEX
  8
0
 10
127.0
 20
76.0
 30
0.0
  0
VERTEX
  8
0
 10
124.0
 20
76.0
 30
0.0
  0
VERTEX
  8
0
 10
124.0
 20
103.75
 30
0.0
  0
SEQEND
  8
0
  0
POLYLINE
  8
0
 62
7
 70
0
 66
1
 10
0.0
 20
0.0
 30
0.0
  0
VERTEX
  8
0
 10
124.0
 20
104.25
 30
0.0
  0
VERTEX
  8
0
 10
124.0
 20
142.0
 30
0.0
  0
VERTEX
  8
0
 10
127.0
 20
142.0
 30
0.0
  0
VERTEX
  8
0
 10
127.0
 20
139.0
 30
0.0
  0
VERTEX
  8
0
 10
128.5
 20
139.0
 30
0.0
  0
VERTEX
  8
0
 10
128.5
 20
135.0
 30
0.0
  0
VERTEX
  8
0
 10
127.2
 20
135.0
 30
0.0
  0
VERTEX
  8
0
 10
127.2
 20
132.5
 30
0.0
  0
VERTEX
  8
0
 10
128.5
 20
132.5
 30
0.0
  0
VERTEX
  8
0
 10
128.5
 20
131.0
 30
0.0
  0
VERTEX
  8
0
 10
131.5
 20
131.0
 30
0.0
  0
VERTEX
  8
0
 10
131.5
 20
132.5
 30
0.0
  0
VERTEX
  8
0
 10
132.8
 20
132.5
 30
0.0
  0
VERTEX
  8
0
 10
132.8
 20
135.0
 30
0.0
  0
VERTEX
  8
0
 10
131.5
 20
135.0
 30
0.0
  0
VERTEX
  8
0
 10
131.5
 20
139.0
 30
0.0
  0
VERTEX
  8
0
 10
133.0
 20
139.0
 30
0.0
  0
VERTEX
  8
0
 10
133.0
 20
142.0
 30
0.0
  0
VERTEX
  8
0
 10
136.0
 20
142.0
 30
0.0
  0
VERTEX
  8
0
 10
136.0
 20
115.0
 30
0.0
 42
0.414213562373
  0
VERTEX
  8
0
 10
138.0
 20
113.0
 30
0.0
  0
VERTEX
  8
0
 10
150.0
 20
113.0
 30
0.0
 42
-0.414213562373
  0
VERTEX
  8
0
 10
152.0
 20
111.0
 30
0.0
  0
VERTEX
  8
0
 10
152.0
 20
104.250005976
 30
0.0
  0
SEQEND
  8
0
  0
CIRCLE
  8
0
 62
7
 10
143.0
 20
104.0
 30
0.0
 40
3.4
  0
ENDBLK
  0
BLOCK
  8
0
  2
SKETCH130
 70
0
 10
0.0
 20
0.0
 30
0.0
  3
SKETCH130
  0
POLYLINE
  8
0
 62
7
 70
0
 66
1
 10
0.0
 20
0.0
 30
0.0
  0
VERTEX
  8
0
 10
153.0
 20
104.249999859
 30
0.0
  0
VERTEX
  8
0
 10
153.0
 20
111.0
 30
0.0
 42
-0.414213562373
  0
VERTEX
  8
0
 10
155.0
 20
113.0
 30
0.0
  0
VERTEX
  8
0
 10
167.0
 20
113.0
 30
0.0
 42
0.414213562373
  0
VERTEX
  8
0
 10
169.0
 20
115.0
 30
0.0
  0
VERTEX
  8
0
 10
169.0
 20
142.0
 30
0.0
  0
VERTEX
  8
0
 10
172.0
 20
142.0
 30
0.0
  0
VERTEX
  8
0
 10
172.0
 20
139.0
 30
0.0
  0
VERTEX
  8
0
 10
173.5
 20
139.0
 30
0.0
  0
VERTEX
  8
0
 10
173.5
 20
135.0
 30
0.0
  0
VERTEX
  8
0
 10
172.2
 20
135.0
 30
0.0
  0
VERTEX
  8
0
 10
172.2
 20
132.5
 30
0.0
  0
VERTEX
  8
0
 10
173.5
 20
132.5
 30
0.0
  0
VERTEX
  8
0
 10
173.5
 20
131.0
 30
0.0
  0
VERTEX
  8
0
 10
176.5
 20
131.0
 30
0.0
  0
VERTEX
  8
0
 10
176.5
 20
132.5
 30
0.0
  0
VERTEX
  8
0
 10
177.8
 20
132.5
 30
0.0
  0
VERTEX
  8
0
 10
177.8
 20
135.0
 30
0.0
  0
VERTEX
  8
0
 10
176.5
 20
135.0
 30
0.0
  0
VERTEX
  8
0
 10
176.5
 20
139.0
 30
0.0
  0
VERTEX
  8
0
 10
178.0
 20
139.0
 30
0.0
  0
VERTEX
  8
0
 10
178.0
 20
142.0
 30
0.0
  0
VERTEX
  8
0
 10
181.0
 20
142.0
 30
0.0
  0
VERTEX
  8
0
 10
181.0
 20
104.249999859
 30
0.0
  0
SEQEND
  8
0
  0
POLYLINE
  8
0
 62
7
 70
0
 66
1
 10
0.0
 20
0.0
 30
0.0
  0
VERTEX
  8
0
 10
181.0
 20
103.749999859
 30
0.0
  0
VERTEX
  8
0
 10
181.0
 20
76.0
 30
0.0
  0
VERTEX
  8
0
 10
178.0
 20
76.0
 30
0.0
  0
VERTEX
  8
0
 10
178.0
 20
79.0
 30
0.0
  0
VERTEX
  8
0
 10
176.5
 20
79.0
 30
0.0
  0
VERTEX
  8
0
 10
176.5
 20
83.0
 30
0.0
  0
VERTEX
  8
0
 10
177.8
 20
83.0
 30
0.0
  0
VERTEX
  8
0
 10
177.8
 20
85.5
 30
0.0
  0
VERTEX
  8
0
 10
176.5
 20
85.5
 30
0.0
  0
VERTEX
  8
0
 10
176.5
 20
87.0
 30
0.0
  0
VERTEX
  8
0
 10
173.5
 20
87.0
 30
0.0
  0
VERTEX
  8
0
 10
173.5
 20
85.5
 30
0.0
  0
VERTEX
  8
0
 10
172.2
 20
85.5
 30
0.0
  0
VERTEX
  8
0
 10
172.2
 20
83.0
 30
0.0
  0
VERTEX
  8
0
 10
173.5
 20
83.0
 30
0.0
  0
VERTEX
  8
0
 10
173.5
 20
79.0
 30
0.0
  0
VERTEX
  8
0
 10
172.0
 20
79.0
 30
0.0
  0
VERTEX
  8
0
 10
172.0
 20
76.0
 30
0.0
  0
VERTEX
  8
0
 10
169.0
 20
76.0
 30
0.0
  0
VERTEX
  8
0
 10
169.0
 20
93.0
 30
0.0
 42
0.414213562373
  0
VERTEX
  8
0
 10
167.0
 20
95.0
 30
0.0
  0
VERTEX
  8
0
 10
155.0
 20
95.0
 30
0.0
 42
-0.414213521176
  0
VERTEX
  8
0
 10
153.0
 20
96.9999997187
 30
0.0
  0
VERTEX
  8
0
 10
153.0
 20
103.749999859
 30
0.0
  0
SEQEND
  8
0
  0
CIRCLE
  8
0
 62
7
 10
162.0
 20
104.0
 30
0.0
 40
3.4
  0
ENDBLK
  0
BLOCK
  8
0
  2
SKETCH132
 70
0
 10
0.0
 20
0.0
 30
0.0
  3
SKETCH132
  0
POLYLINE
  8
0
 62
7
 70
0
 66
1
 10
0.0
 20
0.0
 30
0.0
  0
VERTEX
  8
0
 10
168.0
 20
261.25
 30
0.0
  0
VERTEX
  8
0
 10
168.0
 20
286.0
 30
0.0
  0
VERTEX
  8
0
 10
135.0
 20
286.0
 30
0.0
  0
VERTEX
  8
0
 10
135.0
 20
261.25
 30
0.0
  0
SEQEND
  8
0
  0
POLYLINE
  8
0
 62
7
 70
0
 66
1
 10
0.0
 20
0.0
 30
0.0
  0
VERTEX
  8
0
 10
135.0
 20
260.75
 30
0.0
  0
VERTEX
  8
0
 10
135.0
 20
236.0
 30
0.0
 42
0.414213562373
  0
VERTEX
  8
0
 10
137.0
 20
234.0
 30
0.0
  0
VERTEX
  8
0
 10
166.0
 20
234.0
 30
0.0
 42
0.414213562373
  0
VERTEX
  8
0
 10
168.0
 20
236.0
 30
0.0
  0
VERTEX
  8
0
 10
168.0
 20
260.75
 30
0.0
  0
SEQEND
  8
0
  0
CIRCLE
  8
0
 62
7
 10
151.5
 20
281.5
 30
0.0
 40
1.5
  0
CIRCLE
  8
0
 62
7
 10
151.5
 20
238.5
 30
0.0
 40
1.5
  0
POLYLINE
  8
0
 62
7
 70
1
 66
1
 10
0.0
 20
0.0
 30
0.0
  0
VERTEX
  8
0
 10
159.0
 20
283.0
 30
0.0
  0
VERTEX
  8
0
 10
164.0
 20
283.0
 30
0.0
  0
VERTEX
  8
0
 10
164.0
 20
280.0
 30
0.0
  0
VERTEX
  8
0
 10
159.0
 20
280.0
 30
0.0
  0
SEQEND
  8
0
  0
POLYLINE
  8
0
 62
7
 70
1
 66
1
 10
0.0
 20
0.0
 30
0.0
  0
VERTEX
  8
0
 10
139.0
 20
283.0
 30
0.0
  0
VERTEX
  8
0
 10
144.0
 20
283.0
 30
0.0
  0
VERTEX
  8
0
 10
144.0
 20
280.0
 30
0.0
  0
VERTEX
  8
0
 10
139.0
 20
280.0
 30
0.0
  0
SEQEND
  8
0
  0
POLYLINE
  8
0
 62
7
 70
1
 66
1
 10
0.0
 20
0.0
 30
0.0
  0
VERTEX
  8
0
 10
139.0
 20
240.0
 30
0.0
  0
VERTEX
  8
0
 10
144.0
 20
240.0
 30
0.0
  0
VERTEX
  8
0
 10
144.0
 20
237.0
 30
0.0
  0
VERTEX
  8
0
 10
139.0
 20
237.0
 30
0.0
  0
SEQEND
  8
0
  0
POLYLINE
  8
0
 62
7
 70
1
 66
1
 10
0.0
 20
0.0
 30
0.0
  0
VERTEX
  8
0
 10
159.0
 20
240.0
 30
0.0
  0
VERTEX
  8
0
 10
164.0
 20
240.0
 30
0.0
  0
VERTEX
  8
0
 10
164.0
 20
237.0
 30
0.0
  0
VERTEX
  8
0
 10
159.0
 20
237.0
 30
0.0
  0
SEQEND
  8
0
  0
POLYLINE
  8
0
 62
7
 70
1
 66
1
 10
0.0
 20
0.0
 30
0.0
  0
VERTEX
  8
0
 10
151.5
 20
249.0
 30
0.0
  0
VERTEX
  8
0
 10
152.5
 20
250.732050808
 30
0.0
  0
VERTEX
  8
0
 10
150.5
 20
250.732050808
 30
0.0
  0
SEQEND
  8
0
  0
ENDBLK
  0
BLOCK
  8
0
  2
SKETCH131
 70
0
 10
0.0
 20
0.0
 30
0.0
  3
SKETCH131
  0
POLYLINE
  8
0
 62
7
 70
0
 66
1
 10
0.0
 20
0.0
 30
0.0
  0
VERTEX
  8
0
 10
166.0
 20
122.75
 30
0.0
  0
VERTEX
  8
0
 10
166.0
 20
114.0
 30
0.0
  0
VERTEX
  8
0
 10
140.0
 20
114.0
 30
0.0
 42
-0.414213562373
  0
VERTEX
  8
0
 10
138.0
 20
116.0
 30
0.0
  0
VERTEX
  8
0
 10
138.0
 20
122.75
 30
0.0
  0
SEQEND
  8
0
  0
POLYLINE
  8
0
 62
7
 70
0
 66
1
 10
0.0
 20
0.0
 30
0.0
  0
VERTEX
  8
0
 10
138.0
 20
123.25
 30
0.0
  0
VERTEX
  8
0
 10
138.0
 20
130.0
 30
0.0
 42
-0.414213562373
  0
VERTEX
  8
0
 10
140.0
 20
132.0
 30
0.0
  0
VERTEX
  8
0
 10
166.0
 20
132.0
 30
0.0
  0
VERTEX
  8
0
 10
166.0
 20
123.25
 30
0.0
  0
SEQEND
  8
0
  0
POLYLINE
  8
0
 62
7
 70
1
 66
1
 10
0.0
 20
0.0
 30
0.0
  0
VERTEX
  8
0
 10
147.260627178
 20
126.389996088
 30
0.0
  0
VERTEX
  8
0
 10
161.52630662
 20
125.293232648
 30
0.0
 42
-0.92606974791
  0
VERTEX
  8
0
 10
161.52630662
 20
120.706767352
 30
0.0
  0
VERTEX
  8
0
 10
147.260627178
 20
119.610003912
 30
0.0
 42
-1.07983227209
  0
SEQEND
  8
0
  0
ENDBLK
  0
BLOCK
  8
0
  2
SKETCH134
 70
0
 10
0.0
 20
0.0
 30
0.0
  3
SKETCH134
  0
POLYLINE
  8
0
 62
7
 70
0
 66
1
 10
0.0
 20
0.0
 30
0.0
  0
VERTEX
  8
0
 10
55.25
 20
231.0
 30
0.0
  0
VERTEX
  8
0
 10
42.0
 20
231.0
 30
0.0
  0
VERTEX
  8
0
 10
42.0
 20
221.0
 30
0.0
  0
VERTEX
  8
0
 10
39.0
 20
221.0
 30
0.0
  0
VERTEX
  8
0
 10
39.0
 20
211.0
 30
0.0
  0
VERTEX
  8
0
 10
42.0
 20
211.0
 30
0.0
  0
VERTEX
  8
0
 10
42.0
 20
197.0
 30
0.0
  0
VERTEX
  8
0
 10
45.5
 20
197.0
 30
0.0
  0
VERTEX
  8
0
 10
45.5
 20
198.0
 30
0.0
  0
VERTEX
  8
0
 10
47.0
 20
198.0
 30
0.0
  0
VERTEX
  8
0
 10
47.0
 20
197.0
 30
0.0
  0
VERTEX
  8
0
 10
47.5
 20
197.0
 30
0.0
  0
VERTEX
  8
0
 10
47.5
 20
195.0
 30
0.0
  0
VERTEX
  8
0
 10
47.0
 20
195.0
 30
0.0
  0
VERTEX
  8
0
 10
47.0
 20
194.0
 30
0.0
  0
VERTEX
  8
0
 10
45.5
 20
194.0
 30
0.0
  0
VERTEX
  8
0
 10
45.5
 20
195.0
 30
0.0
  0
VERTEX
  8
0
 10
42.0
 20
195.0
 30
0.0
  0
VERTEX
  8
0
 10
42.0
 20
191.0
 30
0.0
  0
VERTEX
  8
0
 10
39.0
 20
191.0
 30
0.0
  0
VERTEX
  8
0
 10
39.0
 20
181.0
 30
0.0
  0
VERTEX
  8
0
 10
42.0
 20
181.0
 30
0.0
  0
VERTEX
  8
0
 10
42.0
 20
171.0
 30
0.0
  0
VERTEX
  8
0
 10
55.25
 20
171.0
 30
0.0
  0
SEQEND
  8
0
  0
POLYLINE
  8
0
 62
7
 70
0
 66
1
 10
0.0
 20
0.0
 30
0.0
  0
VERTEX
  8
0
 10
55.75
 20
171.0
 30
0.0
  0
VERTEX
  8
0
 10
69.0
 20
171.0
 30
0.0
  0
VERTEX
  8
0
 10
69.0
 20
181.0
 30
0.0
  0
VERTEX
  8
0
 10
72.0
 20
181.0
 30
0.0
  0
VERTEX
  8
0
 10
72.0
 20
191.0
 30
0.0
  0
VERTEX
  8
0
 10
69.0
 20
191.0
 30
0.0
  0
VERTEX
  8
0
 10
69.0
 20
195.0
 30
0.0
  0
VERTEX
  8
0
 10
65.5
 20
195.0
 30
0.0
  0
VERTEX
  8
0
 10
65.5
 20
194.0
 30
0.0
  0
VERTEX
  8
0
 10
64.0
 20
194.0
 30
0.0
  0
VERTEX
  8
0
 10
64.0
 20
195.0
 30
0.0
  0
VERTEX
  8
0
 10
63.5
 20
195.0
 30
0.0
  0
VERTEX
  8
0
 10
63.5
 20
197.0
 30
0.0
  0
VERTEX
  8
0
 10
64.0
 20
197.0
 30
0.0
  0
VERTEX
  8
0
 10
64.0
 20
198.0
 30
0.0
  0
VERTEX
  8
0
 10
65.5
 20
198.0
 30
0.0
  0
VERTEX
  8
0
 10
65.5
 20
197.0
 30
0.0
  0
VERTEX
  8
0
 10
69.0
 20
197.0
 30
0.0
  0
VERTEX
  8
0
 10
69.0
 20
211.0
 30
0.0
  0
VERTEX
  8
0
 10
72.0
 20
211.0
 30
0.0
  0
VERTEX
  8
0
 10
72.0
 20
221.0
 30
0.0
  0
VERTEX
  8
0
 10
69.0
 20
221.0
 30
0.0
  0
VERTEX
  8
0
 10
69.0
 20
231.0
 30
0.0
  0
VERTEX
  8
0
 10
55.75
 20
231.0
 30
0.0
  0
SEQEND
  8
0
  0
ENDBLK
  0
BLOCK
  8
0
  2
SKETCH135
 70
0
 10
0.0
 20
0.0
 30
0.0
  3
SKETCH135
  0
POLYLINE
  8
0
 62
7
 70
0
 66
1
 10
0.0
 20
0.0
 30
0.0
  0
VERTEX
  8
0
 10
187.0
 20
35.25
 30
0.0
  0
VERTEX
  8
0
 10
187.0
 20
63.0
 30
0.0
 42
-0.414213562373
  0
VERTEX
  8
0
 10
189.0
 20
65.0
 30
0.0
  0
VERTEX
  8
0
 10
205.1
 20
65.0
 30
0.0
  0
VERTEX
  8
0
 10
205.1
 20
55.0
 30
0.0
  0
VERTEX
  8
0
 10
202.1
 20
55.0
 30
0.0
  0
VERTEX
  8
0
 10
202.1
 20
59.0
 30
0.0
  0
VERTEX
  8
0
 10
190.0
 20
59.0
 30
0.0
  0
VERTEX
  8
0
 10
190.0
 20
36.5
 30
0.0
  0
VERTEX
  8
0
 10
202.1
 20
36.5
 30
0.0
  0
VERTEX
  8
0
 10
202.1
 20
45.0
 30
0.0
  0
VERTEX
  8
0
 10
205.1
 20
45.0
 30
0.0
  0
VERTEX
  8
0
 10
205.1
 20
35.25
 30
0.0
  0
SEQEND
  8
0
  0
CIRCLE
  8
0
 62
7
 10
196.05
 20
61.5
 30
0.0
 40
1.0
  0
CIRCLE
  8
0
 62
7
 10
196.05
 20
34.0
 30
0.0
 40
1.0
  0
POLYLINE
  8
0
 62
7
 70
0
 66
1
 10
0.0
 20
0.0
 30
0.0
  0
VERTEX
  8
0
 10
205.1
 20
34.75
 30
0.0
  0
VERTEX
  8
0
 10
205.1
 20
32.5980762114
 30
0.0
 42
-0.57735026919
  0
VERTEX
  8
0
 10
205.1
 20
27.4019237886
 30
0.0
  0
VERTEX
  8
0
 10
205.1
 20
25.0
 30
0.0
  0
VERTEX
  8
0
 10
202.1
 20
25.0
 30
0.0
  0
VERTEX
  8
0
 10
202.1
 20
15.0
 30
0.0
  0
VERTEX
  8
0
 10
205.1
 20
15.0
 30
0.0
  0
VERTEX
  8
0
 10
205.1
 20
5.0
 30
0.0
  0
VERTEX
  8
0
 10
189.0
 20
5.0
 30
0.0
 42
-0.414213562373
  0
VERTEX
  8
0
 10
187.0
 20
7.0
 30
0.0
  0
VERTEX
  8
0
 10
187.0
 20
34.75
 30
0.0
  0
SEQEND
  8
0
  0
CIRCLE
  8
0
 62
7
 10
203.6
 20
30.0
 30
0.0
 40
1.0
  0
ENDBLK
  0
BLOCK
  8
0
  2
SKETCH136
 70
0
 10
0.0
 20
0.0
 30
0.0
  3
SKETCH136
  0
POLYLINE
  8
0
 62
7
 70
0
 66
1
 10
0.0
 20
0.0
 30
0.0
  0
VERTEX
  8
0
 10
203.0
 20
212.75
 30
0.0
  0
VERTEX
  8
0
 10
203.0
 20
227.0
 30
0.0
  0
VERTEX
  8
0
 10
199.0
 20
227.0
 30
0.0
  0
VERTEX
  8
0
 10
199.0
 20
230.0
 30
0.0
  0
VERTEX
  8
0
 10
203.0
 20
230.0
 30
0.0
  0
VERTEX
  8
0
 10
203.0
 20
231.0
 30
0.0
 42
0.414213562373
  0
VERTEX
  8
0
 10
201.0
 20
233.0
 30
0.0
  0
VERTEX
  8
0
 10
187.0
 20
233.0
 30
0.0
 42
0.414213562373
  0
VERTEX
  8
0
 10
185.0
 20
231.0
 30
0.0
  0
VERTEX
  8
0
 10
185.0
 20
230.0
 30
0.0
  0
VERTEX
  8
0
 10
189.0
 20
230.0
 30
0.0
  0
VERTEX
  8
0
 10
189.0
 20
227.0
 30
0.0
  0
VERTEX
  8
0
 10
185.0
 20
227.0
 30
0.0
  0
VERTEX
  8
0
 10
185.0
 20
212.75
 30
0.0
  0
SEQEND
  8
0
  0
POLYLINE
  8
0
 62
7
 70
0
 66
1
 10
0.0
 20
0.0
 30
0.0
  0
VERTEX
  8
0
 10
185.0
 20
212.25
 30
0.0
  0
VERTEX
  8
0
 10
185.0
 20
198.0
 30
0.0
  0
VERTEX
  8
0
 10
189.0
 20
198.0
 30
0.0
  0
VERTEX
  8
0
 10
189.0
 20
195.0
 30
0.0
  0
VERTEX
  8
0
 10
185.0
 20
195.0
 30
0.0
  0
VERTEX
  8
0
 10
185.0
 20
194.0
 30
0.0
 42
0.414213562373
  0
VERTEX
  8
0
 10
187.0
 20
192.0
 30
0.0
  0
VERTEX
  8
0
 10
201.0
 20
192.0
 30
0.0
 42
0.414213562373
  0
VERTEX
  8
0
 10
203.0
 20
194.0
 30
0.0
  0
VERTEX
  8
0
 10
203.0
 20
195.0
 30
0.0
  0
VERTEX
  8
0
 10
199.0
 20
195.0
 30
0.0
  0
VERTEX
  8
0
 10
199.0
 20
198.0
 30
0.0
  0
VERTEX
  8
0
 10
203.0
 20
198.0
 30
0.0
  0
VERTEX
  8
0
 10
203.0
 20
212.25
 30
0.0
  0
SEQEND
  8
0
  0
CIRCLE
  8
0
 62
7
 10
194.0
 20
196.5
 30
0.0
 40
1.5
  0
CIRCLE
  8
0
 62
7
 10
194.0
 20
228.5
 30
0.0
 40
1.5
  0
CIRCLE
  8
0
 62
7
 10
194.0
 20
219.0
 30
0.0
 40
3.4
  0
ENDBLK
  0
ENDSEC
  0
SECTION
  2
ENTITIES
  0
INSERT
  2
SKETCH025
  8
0
 62
7
 10
0.0
 20
0.0
 30
0.0
  0
INSERT
  2
SKETCH051
  8
0
 62
7
 10
0.0
 20
0.0
 30
0.0
  0
INSERT
  2
SKETCH039
  8
0
 62
7
 10
0.0
 20
0.0
 30
0.0
  0
INSERT
  2
SKETCH046
  8
0
 62
7
 10
0.0
 20
0.0
 30
0.0
  0
INSERT
  2
SKETCH094
  8
0
 62
7
 10
0.0
 20
0.0
 30
0.0
  0
INSERT
  2
SKETCH095
  8
0
 62
7
 10
0.0
 20
0.0
 30
0.0
  0
INSERT
  2
SKETCH052
  8
0
 62
7
 10
0.0
 20
0.0
 30
0.0
  0
INSERT
  2
SKETCH083
  8
0
 62
7
 10
0.0
 20
0.0
 30
0.0
  0
INSERT
  2
SKETCH064
  8
0
 62
7
 10
0.0
 20
0.0
 30
0.0
  0
INSERT
  2
SKETCH084
  8
0
 62
7
 10
0.0
 20
0.0
 30
0.0
  0
INSERT
  2
SKETCH099
  8
0
 62
7
 10
0.0
 20
0.0
 30
0.0
  0
INSERT
  2
SKETCH100
  8
0
 62
7
 10
0.0
 20
0.0
 30
0.0
  0
INSERT
  2
SKETCH107
  8
0
 62
7
 10
0.0
 20
0.0
 30
0.0
  0
INSERT
  2
SKETCH104
  8
0
 62
7
 10
0.0
 20
0.0
 30
0.0
  0
INSERT
  2
SKETCH102
  8
0
 62
7
 10
0.0
 20
0.0
 30
0.0
  0
INSERT
  2
SKETCH105
  8
0
 62
7
 10
0.0
 20
0.0
 30
0.0
  0
INSERT
  2
SKETCH103
  8
0
 62
7
 10
0.0
 20
0.0
 30
0.0
  0
INSERT
  2
SKETCH101
  8
0
 62
7
 10
0.0
 20
0.0
 30
0.0
  0
INSERT
  2
SKETCH108
  8
0
 62
7
 10
0.0
 20
0.0
 30
0.0
  0
INSERT
  2
SKETCH003
  8
0
 62
7
 10
0.0
 20
0.0
 30
0.0
  0
INSERT
  2
SKETCH109
  8
0
 62
7
 10
0.0
 20
0.0
 30
0.0
  0
INSERT
  2
SKETCH110
  8
0
 62
7
 10
0.0
 20
0.0
 30
0.0
  0
INSERT
  2
SKETCH112
  8
0
 62
7
 10
0.0
 20
0.0
 30
0.0
  0
INSERT
  2
SKETCH128
  8
0
 62
7
 10
0.0
 20
0.0
 30
0.0
  0
INSERT
  2
SKETCH124
  8
0
 62
7
 10
0.0
 20
0.0
 30
0.0
  0
INSERT
  2
SKETCH125
  8
0
 62
7
 10
0.0
 20
0.0
 30
0.0
  0
INSERT
  2
SKETCH117
  8
0
 62
7
 10
0.0
 20
0.0
 30
0.0
  0
INSERT
  2
SKETCH116
  8
0
 62
7
 10
0.0
 20
0.0
 30
0.0
  0
INSERT
  2
SKETCH129
  8
0
 62
7
 10
0.0
 20
0.0
 30
0.0
  0
INSERT
  2
SKETCH130
  8
0
 62
7
 10
0.0
 20
0.0
 30
0.0
  0
INSERT
  2
SKETCH132
  8
0
 62
7
 10
0.0
 20
0.0
 30
0.0
  0
INSERT
  2
SKETCH131
  8
0
 62
7
 10
0.0
 20
0.0
 30
0.0
  0
POLYLINE
  8
0
 62
7
 70
0
 66
1
 10
0.0
 20
0.0
 30
0.0
  0
VERTEX
  8
0
 10
186.25
 20
266.0
 30
0.0
  0
VERTEX
  8
0
 10
185.0
 20
266.0
 30
0.0
  0
VERTEX
  8
0
 10
185.0
 20
269.0
 30
0.0
  0
VERTEX
  8
0
 10
169.358954277
 20
284.471188988
 30
0.0
 42
-0.959910788645
  0
VERTEX
  8
0
 10
170.70497775
 20
285.948190055
 30
0.0
  0
VERTEX
  8
0
 10
185.85721239
 20
273.233955557
 30
0.0
 42
0.363970234268
  0
VERTEX
  8
0
 10
187.14278761
 20
273.233955557
 30
0.0
  0
VERTEX
  8
0
 10
202.29502225
 20
285.948190055
 30
0.0
 42
-0.959910788645
  0
VERTEX
  8
0
 10
203.641045723
 20
284.471188988
 30
0.0
  0
VERTEX
  8
0
 10
188.0
 20
269.0
 30
0.0
  0
VERTEX
  8
0
 10
188.0
 20
266.0
 30
0.0
  0
VERTEX
  8
0
 10
186.75
 20
266.0
 30
0.0
  0
SEQEND
  8
0
  0
INSERT
  2
SKETCH134
  8
0
 62
7
 10
0.0
 20
0.0
 30
0.0
  0
INSERT
  2
SKETCH135
  8
0
 62
7
 10
0.0
 20
0.0
 30
0.0
  0
INSERT
  2
SKETCH136
  8
0
 62
7
 10
0.0
 20
0.0
 30
0.0
  0
ENDSEC
  0
EOF
