  0
SECTION
  2
HEADER
  9
$ACADVER
  1
AC1009
  9
$INSBASE
 10
0.0
 20
0.0
 30
0.0
  9
$EXTMIN
 10
0.0
 20
0.0
 30
0.0
  9
$EXTMAX
 10
0.0
 20
0.0
 30
0.0
  0
ENDSEC
  0
SECTION
  2
TABLES
  0
TABLE
  2
VPORT
 70
0
  0
ENDTAB
  0
TABLE
  2
LTYPE
 70
1
  0
LTYPE
  2
CONTINUOUS
 70
0
  3
Solid line
 72
65
 73
0
 40
0.0
  0
ENDTAB
  0
TABLE
  2
LAYER
 70
1
  0
LAYER
  2
0
 70
64
 62
7
  6
continuous
  0
ENDTAB
  0
TABLE
  2
STYLE
 70
1
  0
STYLE
  2
STANDARD
 70
0
 40
0
 41
1.0
 50
0.0
 71
0
 42
1
 3
ARIAL.TTF
 4

  0
ENDTAB
  0
TABLE
  2
VIEW
 70
0
  0
ENDTAB
  0
ENDSEC
  0
SECTION
  2
BLOCKS
  0
BLOCK
  8
0
  2
SKETCH128
 70
0
 10
0.0
 20
0.0
 30
0.0
  3
SKETCH128
  0
POLYLINE
  8
0
 62
7
 70
0
 66
1
 10
0.0
 20
0.0
 30
0.0
  0
VERTEX
  8
0
 10
68.0
 20
183.0
 30
0.0
  0
VERTEX
  8
0
 10
68.0
 20
193.0
 30
0.0
  0
VERTEX
  8
0
 10
65.0
 20
193.0
 30
0.0
  0
VERTEX
  8
0
 10
65.0
 20
203.0
 30
0.0
  0
VERTEX
  8
0
 10
68.0
 20
203.0
 30
0.0
  0
VERTEX
  8
0
 10
68.0
 20
213.0
 30
0.0
  0
VERTEX
  8
0
 10
95.0
 20
213.0
 30
0.0
  0
VERTEX
  8
0
 10
95.0
 20
203.0
 30
0.0
  0
VERTEX
  8
0
 10
98.0
 20
203.0
 30
0.0
  0
VERTEX
  8
0
 10
98.0
 20
193.0
 30
0.0
  0
VERTEX
  8
0
 10
95.0
 20
193.0
 30
0.0
  0
VERTEX
  8
0
 10
95.0
 20
183.0
 30
0.0
  0
SEQEND
  8
0
  0
POLYLINE
  8
0
 62
7
 70
0
 66
1
 10
0.0
 20
0.0
 30
0.0
  0
VERTEX
  8
0
 10
95.0
 20
182.5
 30
0.0
  0
VERTEX
  8
0
 10
95.0
 20
182.0
 30
0.0
  0
VERTEX
  8
0
 10
93.0
 20
182.0
 30
0.0
  0
VERTEX
  8
0
 10
93.0
 20
183.0
 30
0.0
  0
VERTEX
  8
0
 10
91.5
 20
183.0
 30
0.0
  0
VERTEX
  8
0
 10
91.5
 20
182.0
 30
0.0
  0
VERTEX
  8
0
 10
89.5
 20
182.0
 30
0.0
  0
VERTEX
  8
0
 10
89.5
 20
180.0
 30
0.0
  0
VERTEX
  8
0
 10
91.5
 20
180.0
 30
0.0
  0
VERTEX
  8
0
 10
91.5
 20
179.0
 30
0.0
  0
VERTEX
  8
0
 10
93.0
 20
179.0
 30
0.0
  0
VERTEX
  8
0
 10
93.0
 20
180.0
 30
0.0
  0
VERTEX
  8
0
 10
95.0
 20
180.0
 30
0.0
  0
VERTEX
  8
0
 10
95.0
 20
173.0
 30
0.0
  0
VERTEX
  8
0
 10
98.0
 20
173.0
 30
0.0
  0
VERTEX
  8
0
 10
98.0
 20
163.0
 30
0.0
  0
VERTEX
  8
0
 10
95.0
 20
163.0
 30
0.0
  0
VERTEX
  8
0
 10
95.0
 20
153.0
 30
0.0
  0
VERTEX
  8
0
 10
68.0
 20
153.0
 30
0.0
  0
VERTEX
  8
0
 10
68.0
 20
163.0
 30
0.0
  0
VERTEX
  8
0
 10
65.0
 20
163.0
 30
0.0
  0
VERTEX
  8
0
 10
65.0
 20
173.0
 30
0.0
  0
VERTEX
  8
0
 10
68.0
 20
173.0
 30
0.0
  0
VERTEX
  8
0
 10
68.0
 20
180.0
 30
0.0
  0
VERTEX
  8
0
 10
70.0
 20
180.0
 30
0.0
  0
VERTEX
  8
0
 10
70.0
 20
179.0
 30
0.0
  0
VERTEX
  8
0
 10
71.5
 20
179.0
 30
0.0
  0
VERTEX
  8
0
 10
71.5
 20
180.0
 30
0.0
  0
VERTEX
  8
0
 10
73.5
 20
180.0
 30
0.0
  0
VERTEX
  8
0
 10
73.5
 20
182.0
 30
0.0
  0
VERTEX
  8
0
 10
71.5
 20
182.0
 30
0.0
  0
VERTEX
  8
0
 10
71.5
 20
183.0
 30
0.0
  0
VERTEX
  8
0
 10
70.0
 20
183.0
 30
0.0
  0
VERTEX
  8
0
 10
70.0
 20
182.0
 30
0.0
  0
VERTEX
  8
0
 10
68.0
 20
182.0
 30
0.0
  0
VERTEX
  8
0
 10
68.0
 20
182.5
 30
0.0
  0
SEQEND
  8
0
  0
ENDBLK
  0
BLOCK
  8
0
  2
SKETCH093
 70
0
 10
0.0
 20
0.0
 30
0.0
  3
SKETCH093
  0
POLYLINE
  8
0
 62
7
 70
0
 66
1
 10
0.0
 20
0.0
 30
0.0
  0
VERTEX
  8
0
 10
177.0
 20
265.75
 30
0.0
  0
VERTEX
  8
0
 10
177.0
 20
280.0
 30
0.0
  0
VERTEX
  8
0
 10
173.0
 20
280.0
 30
0.0
  0
VERTEX
  8
0
 10
173.0
 20
283.0
 30
0.0
  0
VERTEX
  8
0
 10
177.0
 20
283.0
 30
0.0
  0
VERTEX
  8
0
 10
177.0
 20
286.0
 30
0.0
 42
0.414213562373
  0
VERTEX
  8
0
 10
175.0
 20
288.0
 30
0.0
  0
VERTEX
  8
0
 10
161.0
 20
288.0
 30
0.0
 42
0.414213562373
  0
VERTEX
  8
0
 10
159.0
 20
286.0
 30
0.0
  0
VERTEX
  8
0
 10
159.0
 20
283.0
 30
0.0
  0
VERTEX
  8
0
 10
163.0
 20
283.0
 30
0.0
  0
VERTEX
  8
0
 10
163.0
 20
280.0
 30
0.0
  0
VERTEX
  8
0
 10
159.0
 20
280.0
 30
0.0
  0
VERTEX
  8
0
 10
159.0
 20
265.75
 30
0.0
  0
SEQEND
  8
0
  0
POLYLINE
  8
0
 62
7
 70
0
 66
1
 10
0.0
 20
0.0
 30
0.0
  0
VERTEX
  8
0
 10
159.0
 20
265.25
 30
0.0
  0
VERTEX
  8
0
 10
159.0
 20
251.0
 30
0.0
  0
VERTEX
  8
0
 10
163.0
 20
251.0
 30
0.0
  0
VERTEX
  8
0
 10
163.0
 20
248.0
 30
0.0
  0
VERTEX
  8
0
 10
159.0
 20
248.0
 30
0.0
  0
VERTEX
  8
0
 10
159.0
 20
245.0
 30
0.0
 42
0.414213562373
  0
VERTEX
  8
0
 10
161.0
 20
243.0
 30
0.0
  0
VERTEX
  8
0
 10
175.0
 20
243.0
 30
0.0
 42
0.414213562373
  0
VERTEX
  8
0
 10
177.0
 20
245.0
 30
0.0
  0
VERTEX
  8
0
 10
177.0
 20
248.0
 30
0.0
  0
VERTEX
  8
0
 10
173.0
 20
248.0
 30
0.0
  0
VERTEX
  8
0
 10
173.0
 20
251.0
 30
0.0
  0
VERTEX
  8
0
 10
177.0
 20
251.0
 30
0.0
  0
VERTEX
  8
0
 10
177.0
 20
265.25
 30
0.0
  0
SEQEND
  8
0
  0
CIRCLE
  8
0
 62
7
 10
168.0
 20
249.5
 30
0.0
 40
1.5
  0
CIRCLE
  8
0
 62
7
 10
168.0
 20
281.5
 30
0.0
 40
1.5
  0
CIRCLE
  8
0
 62
7
 10
168.0
 20
271.0
 30
0.0
 40
3.4
  0
ENDBLK
  0
BLOCK
  8
0
  2
SKETCH100
 70
0
 10
0.0
 20
0.0
 30
0.0
  3
SKETCH100
  0
POLYLINE
  8
0
 62
7
 70
0
 66
1
 10
0.0
 20
0.0
 30
0.0
  0
VERTEX
  8
0
 10
203.0
 20
139.25
 30
0.0
  0
VERTEX
  8
0
 10
203.0
 20
149.0
 30
0.0
 42
0.414213562373
  0
VERTEX
  8
0
 10
201.0
 20
151.0
 30
0.0
  0
VERTEX
  8
0
 10
172.0
 20
151.0
 30
0.0
 42
0.414213562373
  0
VERTEX
  8
0
 10
170.0
 20
149.0
 30
0.0
  0
VERTEX
  8
0
 10
170.0
 20
139.25
 30
0.0
  0
SEQEND
  8
0
  0
POLYLINE
  8
0
 62
7
 70
0
 66
1
 10
0.0
 20
0.0
 30
0.0
  0
VERTEX
  8
0
 10
170.0
 20
138.75
 30
0.0
  0
VERTEX
  8
0
 10
170.0
 20
129.0
 30
0.0
  0
VERTEX
  8
0
 10
174.0
 20
129.0
 30
0.0
  0
VERTEX
  8
0
 10
174.0
 20
124.0
 30
0.0
  0
VERTEX
  8
0
 10
179.0
 20
124.0
 30
0.0
  0
VERTEX
  8
0
 10
179.0
 20
129.0
 30
0.0
  0
VERTEX
  8
0
 10
185.0
 20
129.0
 30
0.0
  0
VERTEX
  8
0
 10
185.0
 20
132.0
 30
0.0
  0
VERTEX
  8
0
 10
183.7
 20
132.0
 30
0.0
  0
VERTEX
  8
0
 10
183.7
 20
134.5
 30
0.0
  0
VERTEX
  8
0
 10
185.0
 20
134.5
 30
0.0
  0
VERTEX
  8
0
 10
185.0
 20
137.0
 30
0.0
  0
VERTEX
  8
0
 10
188.0
 20
137.0
 30
0.0
  0
VERTEX
  8
0
 10
188.0
 20
134.5
 30
0.0
  0
VERTEX
  8
0
 10
189.3
 20
134.5
 30
0.0
  0
VERTEX
  8
0
 10
189.3
 20
132.0
 30
0.0
  0
VERTEX
  8
0
 10
188.0
 20
132.0
 30
0.0
  0
VERTEX
  8
0
 10
188.0
 20
129.0
 30
0.0
  0
VERTEX
  8
0
 10
194.0
 20
129.0
 30
0.0
  0
VERTEX
  8
0
 10
194.0
 20
124.0
 30
0.0
  0
VERTEX
  8
0
 10
199.0
 20
124.0
 30
0.0
  0
VERTEX
  8
0
 10
199.0
 20
129.0
 30
0.0
  0
VERTEX
  8
0
 10
203.0
 20
129.0
 30
0.0
  0
VERTEX
  8
0
 10
203.0
 20
138.75
 30
0.0
  0
SEQEND
  8
0
  0
CIRCLE
  8
0
 62
7
 10
194.0
 20
145.0
 30
0.0
 40
3.4
  0
ENDBLK
  0
BLOCK
  8
0
  2
SKETCH095
 70
0
 10
0.0
 20
0.0
 30
0.0
  3
SKETCH095
  0
POLYLINE
  8
0
 62
7
 70
0
 66
1
 10
0.0
 20
0.0
 30
0.0
  0
VERTEX
  8
0
 10
159.0
 20
230.0
 30
0.0
  0
VERTEX
  8
0
 10
159.0
 20
220.0
 30
0.0
  0
VERTEX
  8
0
 10
156.0
 20
220.0
 30
0.0
  0
VERTEX
  8
0
 10
156.0
 20
215.0
 30
0.0
  0
VERTEX
  8
0
 10
159.0
 20
215.0
 30
0.0
  0
VERTEX
  8
0
 10
159.0
 20
200.0
 30
0.0
  0
VERTEX
  8
0
 10
163.0
 20
200.0
 30
0.0
  0
VERTEX
  8
0
 10
163.0
 20
203.0
 30
0.0
  0
VERTEX
  8
0
 10
166.5
 20
203.0
 30
0.0
  0
VERTEX
  8
0
 10
166.5
 20
206.0
 30
0.0
  0
VERTEX
  8
0
 10
165.2
 20
206.0
 30
0.0
  0
VERTEX
  8
0
 10
165.2
 20
208.5
 30
0.0
  0
VERTEX
  8
0
 10
166.5
 20
208.5
 30
0.0
  0
VERTEX
  8
0
 10
166.5
 20
211.0
 30
0.0
  0
VERTEX
  8
0
 10
169.5
 20
211.0
 30
0.0
  0
VERTEX
  8
0
 10
169.5
 20
208.5
 30
0.0
  0
VERTEX
  8
0
 10
170.8
 20
208.5
 30
0.0
  0
VERTEX
  8
0
 10
170.8
 20
206.0
 30
0.0
  0
VERTEX
  8
0
 10
169.5
 20
206.0
 30
0.0
  0
VERTEX
  8
0
 10
169.5
 20
203.0
 30
0.0
  0
VERTEX
  8
0
 10
173.0
 20
203.0
 30
0.0
  0
VERTEX
  8
0
 10
173.0
 20
200.0
 30
0.0
  0
VERTEX
  8
0
 10
177.0
 20
200.0
 30
0.0
  0
VERTEX
  8
0
 10
177.0
 20
230.0
 30
0.0
  0
SEQEND
  8
0
  0
POLYLINE
  8
0
 62
7
 70
0
 66
1
 10
0.0
 20
0.0
 30
0.0
  0
VERTEX
  8
0
 10
177.0
 20
230.5
 30
0.0
  0
VERTEX
  8
0
 10
177.0
 20
240.0
 30
0.0
 42
0.414213562373
  0
VERTEX
  8
0
 10
175.0
 20
242.0
 30
0.0
  0
VERTEX
  8
0
 10
161.0
 20
242.0
 30
0.0
 42
0.414213562373
  0
VERTEX
  8
0
 10
159.0
 20
240.0
 30
0.0
  0
VERTEX
  8
0
 10
159.0
 20
230.5
 30
0.0
  0
SEQEND
  8
0
  0
CIRCLE
  8
0
 62
7
 10
168.0
 20
236.0
 30
0.0
 40
1.5
  0
ENDBLK
  0
BLOCK
  8
0
  2
SKETCH099
 70
0
 10
0.0
 20
0.0
 30
0.0
  3
SKETCH099
  0
POLYLINE
  8
0
 62
7
 70
0
 66
1
 10
0.0
 20
0.0
 30
0.0
  0
VERTEX
  8
0
 10
203.0
 20
111.25
 30
0.0
  0
VERTEX
  8
0
 10
203.0
 20
121.0
 30
0.0
 42
0.414213562373
  0
VERTEX
  8
0
 10
201.0
 20
123.0
 30
0.0
  0
VERTEX
  8
0
 10
172.0
 20
123.0
 30
0.0
 42
0.414213562373
  0
VERTEX
  8
0
 10
170.0
 20
121.0
 30
0.0
  0
VERTEX
  8
0
 10
170.0
 20
111.25
 30
0.0
  0
SEQEND
  8
0
  0
POLYLINE
  8
0
 62
7
 70
0
 66
1
 10
0.0
 20
0.0
 30
0.0
  0
VERTEX
  8
0
 10
170.0
 20
110.75
 30
0.0
  0
VERTEX
  8
0
 10
170.0
 20
101.0
 30
0.0
  0
VERTEX
  8
0
 10
174.0
 20
101.0
 30
0.0
  0
VERTEX
  8
0
 10
174.0
 20
96.0
 30
0.0
  0
VERTEX
  8
0
 10
179.0
 20
96.0
 30
0.0
  0
VERTEX
  8
0
 10
179.0
 20
101.0
 30
0.0
  0
VERTEX
  8
0
 10
185.0
 20
101.0
 30
0.0
  0
VERTEX
  8
0
 10
185.0
 20
104.0
 30
0.0
  0
VERTEX
  8
0
 10
183.7
 20
104.0
 30
0.0
  0
VERTEX
  8
0
 10
183.7
 20
106.5
 30
0.0
  0
VERTEX
  8
0
 10
185.0
 20
106.5
 30
0.0
  0
VERTEX
  8
0
 10
185.0
 20
109.0
 30
0.0
  0
VERTEX
  8
0
 10
188.0
 20
109.0
 30
0.0
  0
VERTEX
  8
0
 10
188.0
 20
106.5
 30
0.0
  0
VERTEX
  8
0
 10
189.3
 20
106.5
 30
0.0
  0
VERTEX
  8
0
 10
189.3
 20
104.0
 30
0.0
  0
VERTEX
  8
0
 10
188.0
 20
104.0
 30
0.0
  0
VERTEX
  8
0
 10
188.0
 20
101.0
 30
0.0
  0
VERTEX
  8
0
 10
194.0
 20
101.0
 30
0.0
  0
VERTEX
  8
0
 10
194.0
 20
96.0
 30
0.0
  0
VERTEX
  8
0
 10
199.0
 20
96.0
 30
0.0
  0
VERTEX
  8
0
 10
199.0
 20
101.0
 30
0.0
  0
VERTEX
  8
0
 10
203.0
 20
101.0
 30
0.0
  0
VERTEX
  8
0
 10
203.0
 20
110.75
 30
0.0
  0
SEQEND
  8
0
  0
CIRCLE
  8
0
 62
7
 10
179.0
 20
117.0
 30
0.0
 40
1.5
  0
ENDBLK
  0
BLOCK
  8
0
  2
SKETCH101
 70
0
 10
0.0
 20
0.0
 30
0.0
  3
SKETCH101
  0
POLYLINE
  8
0
 62
7
 70
0
 66
1
 10
0.0
 20
0.0
 30
0.0
  0
VERTEX
  8
0
 10
169.0
 20
139.25
 30
0.0
  0
VERTEX
  8
0
 10
169.0
 20
149.0
 30
0.0
 42
0.414213562373
  0
VERTEX
  8
0
 10
167.0
 20
151.0
 30
0.0
  0
VERTEX
  8
0
 10
138.0
 20
151.0
 30
0.0
 42
0.414213562373
  0
VERTEX
  8
0
 10
136.0
 20
149.0
 30
0.0
  0
VERTEX
  8
0
 10
136.0
 20
139.25
 30
0.0
  0
SEQEND
  8
0
  0
POLYLINE
  8
0
 62
7
 70
0
 66
1
 10
0.0
 20
0.0
 30
0.0
  0
VERTEX
  8
0
 10
136.0
 20
138.75
 30
0.0
  0
VERTEX
  8
0
 10
136.0
 20
129.0
 30
0.0
  0
VERTEX
  8
0
 10
140.0
 20
129.0
 30
0.0
  0
VERTEX
  8
0
 10
140.0
 20
124.0
 30
0.0
  0
VERTEX
  8
0
 10
145.0
 20
124.0
 30
0.0
  0
VERTEX
  8
0
 10
145.0
 20
129.0
 30
0.0
  0
VERTEX
  8
0
 10
151.0
 20
129.0
 30
0.0
  0
VERTEX
  8
0
 10
151.0
 20
132.0
 30
0.0
  0
VERTEX
  8
0
 10
149.7
 20
132.0
 30
0.0
  0
VERTEX
  8
0
 10
149.7
 20
134.5
 30
0.0
  0
VERTEX
  8
0
 10
151.0
 20
134.5
 30
0.0
  0
VERTEX
  8
0
 10
151.0
 20
137.0
 30
0.0
  0
VERTEX
  8
0
 10
154.0
 20
137.0
 30
0.0
  0
VERTEX
  8
0
 10
154.0
 20
134.5
 30
0.0
  0
VERTEX
  8
0
 10
155.3
 20
134.5
 30
0.0
  0
VERTEX
  8
0
 10
155.3
 20
132.0
 30
0.0
  0
VERTEX
  8
0
 10
154.0
 20
132.0
 30
0.0
  0
VERTEX
  8
0
 10
154.0
 20
129.0
 30
0.0
  0
VERTEX
  8
0
 10
160.0
 20
129.0
 30
0.0
  0
VERTEX
  8
0
 10
160.0
 20
124.0
 30
0.0
  0
VERTEX
  8
0
 10
165.0
 20
124.0
 30
0.0
  0
VERTEX
  8
0
 10
165.0
 20
129.0
 30
0.0
  0
VERTEX
  8
0
 10
169.0
 20
129.0
 30
0.0
  0
VERTEX
  8
0
 10
169.0
 20
138.75
 30
0.0
  0
SEQEND
  8
0
  0
CIRCLE
  8
0
 62
7
 10
145.0
 20
145.0
 30
0.0
 40
3.4
  0
ENDBLK
  0
BLOCK
  8
0
  2
SKETCH084
 70
0
 10
0.0
 20
0.0
 30
0.0
  3
SKETCH084
  0
POLYLINE
  8
0
 62
7
 70
0
 66
1
 10
0.0
 20
0.0
 30
0.0
  0
VERTEX
  8
0
 10
105.0
 20
123.749999953
 30
0.0
  0
VERTEX
  8
0
 10
105.0
 20
116.999999906
 30
0.0
 42
-0.414213548665
  0
VERTEX
  8
0
 10
103.0
 20
115.0
 30
0.0
  0
VERTEX
  8
0
 10
91.0
 20
115.0
 30
0.0
 42
0.414213562373
  0
VERTEX
  8
0
 10
89.0
 20
113.0
 30
0.0
  0
VERTEX
  8
0
 10
89.0
 20
99.0
 30
0.0
  0
VERTEX
  8
0
 10
86.0
 20
99.0
 30
0.0
  0
VERTEX
  8
0
 10
86.0
 20
96.0
 30
0.0
  0
VERTEX
  8
0
 10
79.0
 20
96.0
 30
0.0
  0
VERTEX
  8
0
 10
79.0
 20
99.0
 30
0.0
  0
VERTEX
  8
0
 10
76.0
 20
99.0
 30
0.0
  0
VERTEX
  8
0
 10
76.0
 20
123.75
 30
0.0
  0
SEQEND
  8
0
  0
POLYLINE
  8
0
 62
7
 70
0
 66
1
 10
0.0
 20
0.0
 30
0.0
  0
VERTEX
  8
0
 10
76.0
 20
124.25
 30
0.0
  0
VERTEX
  8
0
 10
76.0
 20
149.0
 30
0.0
  0
VERTEX
  8
0
 10
79.0
 20
149.0
 30
0.0
  0
VERTEX
  8
0
 10
79.0
 20
152.0
 30
0.0
  0
VERTEX
  8
0
 10
86.0
 20
152.0
 30
0.0
  0
VERTEX
  8
0
 10
86.0
 20
149.0
 30
0.0
  0
VERTEX
  8
0
 10
89.0
 20
149.0
 30
0.0
  0
VERTEX
  8
0
 10
89.0
 20
135.0
 30
0.0
 42
0.414213562373
  0
VERTEX
  8
0
 10
91.0
 20
133.0
 30
0.0
  0
VERTEX
  8
0
 10
103.0
 20
133.0
 30
0.0
 42
-0.414213562373
  0
VERTEX
  8
0
 10
105.0
 20
131.0
 30
0.0
  0
VERTEX
  8
0
 10
105.0
 20
124.249999953
 30
0.0
  0
SEQEND
  8
0
  0
CIRCLE
  8
0
 62
7
 10
96.0
 20
124.0
 30
0.0
 40
1.5
  0
ENDBLK
  0
BLOCK
  8
0
  2
SKETCH098
 70
0
 10
0.0
 20
0.0
 30
0.0
  3
SKETCH098
  0
POLYLINE
  8
0
 62
7
 70
0
 66
1
 10
0.0
 20
0.0
 30
0.0
  0
VERTEX
  8
0
 10
72.0
 20
269.25
 30
0.0
  0
VERTEX
  8
0
 10
72.0
 20
294.0
 30
0.0
  0
VERTEX
  8
0
 10
39.0
 20
294.0
 30
0.0
  0
VERTEX
  8
0
 10
39.0
 20
287.0
 30
0.0
 42
0.414213562373
  0
VERTEX
  8
0
 10
41.0
 20
285.0
 30
0.0
  0
VERTEX
  8
0
 10
56.0
 20
285.0
 30
0.0
 42
-0.414213562373
  0
VERTEX
  8
0
 10
58.0
 20
283.0
 30
0.0
  0
VERTEX
  8
0
 10
58.0
 20
269.25
 30
0.0
  0
SEQEND
  8
0
  0
POLYLINE
  8
0
 62
7
 70
0
 66
1
 10
0.0
 20
0.0
 30
0.0
  0
VERTEX
  8
0
 10
58.0
 20
268.75
 30
0.0
  0
VERTEX
  8
0
 10
58.0
 20
253.0
 30
0.0
 42
-0.414213562373
  0
VERTEX
  8
0
 10
56.0
 20
251.0
 30
0.0
  0
VERTEX
  8
0
 10
41.0
 20
251.0
 30
0.0
 42
0.414213562373
  0
VERTEX
  8
0
 10
39.0
 20
249.0
 30
0.0
  0
VERTEX
  8
0
 10
39.0
 20
244.0
 30
0.0
 42
0.414213562373
  0
VERTEX
  8
0
 10
41.0
 20
242.0
 30
0.0
  0
VERTEX
  8
0
 10
70.0
 20
242.0
 30
0.0
 42
0.414213562373
  0
VERTEX
  8
0
 10
72.0
 20
244.0
 30
0.0
  0
VERTEX
  8
0
 10
72.0
 20
268.75
 30
0.0
  0
SEQEND
  8
0
  0
CIRCLE
  8
0
 62
7
 10
55.5
 20
289.5
 30
0.0
 40
1.5
  0
CIRCLE
  8
0
 62
7
 10
55.5
 20
246.5
 30
0.0
 40
1.5
  0
POLYLINE
  8
0
 62
7
 70
1
 66
1
 10
0.0
 20
0.0
 30
0.0
  0
VERTEX
  8
0
 10
63.0
 20
291.0
 30
0.0
  0
VERTEX
  8
0
 10
68.0
 20
291.0
 30
0.0
  0
VERTEX
  8
0
 10
68.0
 20
288.0
 30
0.0
  0
VERTEX
  8
0
 10
63.0
 20
288.0
 30
0.0
  0
SEQEND
  8
0
  0
POLYLINE
  8
0
 62
7
 70
1
 66
1
 10
0.0
 20
0.0
 30
0.0
  0
VERTEX
  8
0
 10
43.0
 20
291.0
 30
0.0
  0
VERTEX
  8
0
 10
48.0
 20
291.0
 30
0.0
  0
VERTEX
  8
0
 10
48.0
 20
288.0
 30
0.0
  0
VERTEX
  8
0
 10
43.0
 20
288.0
 30
0.0
  0
SEQEND
  8
0
  0
POLYLINE
  8
0
 62
7
 70
1
 66
1
 10
0.0
 20
0.0
 30
0.0
  0
VERTEX
  8
0
 10
43.0
 20
248.0
 30
0.0
  0
VERTEX
  8
0
 10
48.0
 20
248.0
 30
0.0
  0
VERTEX
  8
0
 10
48.0
 20
245.0
 30
0.0
  0
VERTEX
  8
0
 10
43.0
 20
245.0
 30
0.0
  0
SEQEND
  8
0
  0
POLYLINE
  8
0
 62
7
 70
1
 66
1
 10
0.0
 20
0.0
 30
0.0
  0
VERTEX
  8
0
 10
63.0
 20
248.0
 30
0.0
  0
VERTEX
  8
0
 10
68.0
 20
248.0
 30
0.0
  0
VERTEX
  8
0
 10
68.0
 20
245.0
 30
0.0
  0
VERTEX
  8
0
 10
63.0
 20
245.0
 30
0.0
  0
SEQEND
  8
0
  0
POLYLINE
  8
0
 62
7
 70
1
 66
1
 10
0.0
 20
0.0
 30
0.0
  0
VERTEX
  8
0
 10
65.0
 20
257.0
 30
0.0
  0
VERTEX
  8
0
 10
66.0
 20
258.732050808
 30
0.0
  0
VERTEX
  8
0
 10
64.0
 20
258.732050808
 30
0.0
  0
SEQEND
  8
0
  0
ENDBLK
  0
BLOCK
  8
0
  2
SKETCH094
 70
0
 10
0.0
 20
0.0
 30
0.0
  3
SKETCH094
  0
POLYLINE
  8
0
 62
7
 70
0
 66
1
 10
0.0
 20
0.0
 30
0.0
  0
VERTEX
  8
0
 10
159.0
 20
182.0
 30
0.0
  0
VERTEX
  8
0
 10
159.0
 20
172.0
 30
0.0
  0
VERTEX
  8
0
 10
156.0
 20
172.0
 30
0.0
  0
VERTEX
  8
0
 10
156.0
 20
167.0
 30
0.0
  0
VERTEX
  8
0
 10
159.0
 20
167.0
 30
0.0
  0
VERTEX
  8
0
 10
159.0
 20
152.0
 30
0.0
  0
VERTEX
  8
0
 10
163.0
 20
152.0
 30
0.0
  0
VERTEX
  8
0
 10
163.0
 20
155.0
 30
0.0
  0
VERTEX
  8
0
 10
166.5
 20
155.0
 30
0.0
  0
VERTEX
  8
0
 10
166.5
 20
158.0
 30
0.0
  0
VERTEX
  8
0
 10
165.2
 20
158.0
 30
0.0
  0
VERTEX
  8
0
 10
165.2
 20
160.5
 30
0.0
  0
VERTEX
  8
0
 10
166.5
 20
160.5
 30
0.0
  0
VERTEX
  8
0
 10
166.5
 20
163.0
 30
0.0
  0
VERTEX
  8
0
 10
169.5
 20
163.0
 30
0.0
  0
VERTEX
  8
0
 10
169.5
 20
160.5
 30
0.0
  0
VERTEX
  8
0
 10
170.8
 20
160.5
 30
0.0
  0
VERTEX
  8
0
 10
170.8
 20
158.0
 30
0.0
  0
VERTEX
  8
0
 10
169.5
 20
158.0
 30
0.0
  0
VERTEX
  8
0
 10
169.5
 20
155.0
 30
0.0
  0
VERTEX
  8
0
 10
173.0
 20
155.0
 30
0.0
  0
VERTEX
  8
0
 10
173.0
 20
152.0
 30
0.0
  0
VERTEX
  8
0
 10
177.0
 20
152.0
 30
0.0
  0
VERTEX
  8
0
 10
177.0
 20
182.0
 30
0.0
  0
SEQEND
  8
0
  0
POLYLINE
  8
0
 62
7
 70
0
 66
1
 10
0.0
 20
0.0
 30
0.0
  0
VERTEX
  8
0
 10
177.0
 20
182.5
 30
0.0
  0
VERTEX
  8
0
 10
177.0
 20
197.0
 30
0.0
 42
0.414213562373
  0
VERTEX
  8
0
 10
175.0
 20
199.0
 30
0.0
  0
VERTEX
  8
0
 10
161.0
 20
199.0
 30
0.0
 42
0.414213562373
  0
VERTEX
  8
0
 10
159.0
 20
197.0
 30
0.0
  0
VERTEX
  8
0
 10
159.0
 20
182.5
 30
0.0
  0
SEQEND
  8
0
  0
POLYLINE
  8
0
 62
7
 70
1
 66
1
 10
0.0
 20
0.0
 30
0.0
  0
VERTEX
  8
0
 10
161.95
 20
194.0
 30
0.0
  0
VERTEX
  8
0
 10
174.05
 20
194.0
 30
0.0
  0
VERTEX
  8
0
 10
174.05
 20
171.5
 30
0.0
  0
VERTEX
  8
0
 10
161.95
 20
171.5
 30
0.0
  0
SEQEND
  8
0
  0
CIRCLE
  8
0
 62
7
 10
168.0
 20
196.5
 30
0.0
 40
1.0
  0
CIRCLE
  8
0
 62
7
 10
168.0
 20
169.0
 30
0.0
 40
1.0
  0
ENDBLK
  0
BLOCK
  8
0
  2
SKETCH102
 70
0
 10
0.0
 20
0.0
 30
0.0
  3
SKETCH102
  0
POLYLINE
  8
0
 62
7
 70
0
 66
1
 10
0.0
 20
0.0
 30
0.0
  0
VERTEX
  8
0
 10
115.0
 20
265.75
 30
0.0
  0
VERTEX
  8
0
 10
115.0
 20
292.0
 30
0.0
 42
0.414213562373
  0
VERTEX
  8
0
 10
113.0
 20
294.0
 30
0.0
  0
VERTEX
  8
0
 10
75.0
 20
294.0
 30
0.0
 42
0.414213562373
  0
VERTEX
  8
0
 10
73.0
 20
292.0
 30
0.0
  0
VERTEX
  8
0
 10
73.0
 20
265.75
 30
0.0
  0
SEQEND
  8
0
  0
POLYLINE
  8
0
 62
7
 70
0
 66
1
 10
0.0
 20
0.0
 30
0.0
  0
VERTEX
  8
0
 10
73.0
 20
265.25
 30
0.0
  0
VERTEX
  8
0
 10
73.0
 20
239.0
 30
0.0
 42
0.414213562373
  0
VERTEX
  8
0
 10
75.0
 20
237.0
 30
0.0
  0
VERTEX
  8
0
 10
113.0
 20
237.0
 30
0.0
 42
0.414213562373
  0
VERTEX
  8
0
 10
115.0
 20
239.0
 30
0.0
  0
VERTEX
  8
0
 10
115.0
 20
265.25
 30
0.0
  0
SEQEND
  8
0
  0
CIRCLE
  8
0
 62
7
 10
98.5
 20
288.5
 30
0.0
 40
3.0
  0
CIRCLE
  8
0
 62
7
 10
98.5
 20
245.5
 30
0.0
 40
3.0
  0
POLYLINE
  8
0
 62
7
 70
1
 66
1
 10
0.0
 20
0.0
 30
0.0
  0
VERTEX
  8
0
 10
106.0
 20
290.0
 30
0.0
  0
VERTEX
  8
0
 10
111.0
 20
290.0
 30
0.0
  0
VERTEX
  8
0
 10
111.0
 20
287.0
 30
0.0
  0
VERTEX
  8
0
 10
106.0
 20
287.0
 30
0.0
  0
SEQEND
  8
0
  0
POLYLINE
  8
0
 62
7
 70
1
 66
1
 10
0.0
 20
0.0
 30
0.0
  0
VERTEX
  8
0
 10
86.0
 20
290.0
 30
0.0
  0
VERTEX
  8
0
 10
91.0
 20
290.0
 30
0.0
  0
VERTEX
  8
0
 10
91.0
 20
287.0
 30
0.0
  0
VERTEX
  8
0
 10
86.0
 20
287.0
 30
0.0
  0
SEQEND
  8
0
  0
POLYLINE
  8
0
 62
7
 70
1
 66
1
 10
0.0
 20
0.0
 30
0.0
  0
VERTEX
  8
0
 10
86.0
 20
247.0
 30
0.0
  0
VERTEX
  8
0
 10
91.0
 20
247.0
 30
0.0
  0
VERTEX
  8
0
 10
91.0
 20
244.0
 30
0.0
  0
VERTEX
  8
0
 10
86.0
 20
244.0
 30
0.0
  0
SEQEND
  8
0
  0
POLYLINE
  8
0
 62
7
 70
1
 66
1
 10
0.0
 20
0.0
 30
0.0
  0
VERTEX
  8
0
 10
106.0
 20
247.0
 30
0.0
  0
VERTEX
  8
0
 10
111.0
 20
247.0
 30
0.0
  0
VERTEX
  8
0
 10
111.0
 20
244.0
 30
0.0
  0
VERTEX
  8
0
 10
106.0
 20
244.0
 30
0.0
  0
SEQEND
  8
0
  0
POLYLINE
  8
0
 62
7
 70
1
 66
1
 10
0.0
 20
0.0
 30
0.0
  0
VERTEX
  8
0
 10
108.0
 20
256.0
 30
0.0
  0
VERTEX
  8
0
 10
109.0
 20
257.732050808
 30
0.0
  0
VERTEX
  8
0
 10
107.0
 20
257.732050808
 30
0.0
  0
SEQEND
  8
0
  0
ENDBLK
  0
BLOCK
  8
0
  2
SKETCH103
 70
0
 10
0.0
 20
0.0
 30
0.0
  3
SKETCH103
  0
POLYLINE
  8
0
 62
7
 70
0
 66
1
 10
0.0
 20
0.0
 30
0.0
  0
VERTEX
  8
0
 10
158.0
 20
265.75
 30
0.0
  0
VERTEX
  8
0
 10
158.0
 20
292.0
 30
0.0
 42
0.414213562373
  0
VERTEX
  8
0
 10
156.0
 20
294.0
 30
0.0
  0
VERTEX
  8
0
 10
118.0
 20
294.0
 30
0.0
 42
0.414213562373
  0
VERTEX
  8
0
 10
116.0
 20
292.0
 30
0.0
  0
VERTEX
  8
0
 10
116.0
 20
265.75
 30
0.0
  0
SEQEND
  8
0
  0
POLYLINE
  8
0
 62
7
 70
0
 66
1
 10
0.0
 20
0.0
 30
0.0
  0
VERTEX
  8
0
 10
116.0
 20
265.25
 30
0.0
  0
VERTEX
  8
0
 10
116.0
 20
239.0
 30
0.0
 42
0.414213562373
  0
VERTEX
  8
0
 10
118.0
 20
237.0
 30
0.0
  0
VERTEX
  8
0
 10
156.0
 20
237.0
 30
0.0
 42
0.414213562373
  0
VERTEX
  8
0
 10
158.0
 20
239.0
 30
0.0
  0
VERTEX
  8
0
 10
158.0
 20
265.25
 30
0.0
  0
SEQEND
  8
0
  0
CIRCLE
  8
0
 62
7
 10
132.5
 20
288.5
 30
0.0
 40
3.0
  0
CIRCLE
  8
0
 62
7
 10
132.5
 20
245.5
 30
0.0
 40
3.0
  0
POLYLINE
  8
0
 62
7
 70
1
 66
1
 10
0.0
 20
0.0
 30
0.0
  0
VERTEX
  8
0
 10
140.0
 20
290.0
 30
0.0
  0
VERTEX
  8
0
 10
145.0
 20
290.0
 30
0.0
  0
VERTEX
  8
0
 10
145.0
 20
287.0
 30
0.0
  0
VERTEX
  8
0
 10
140.0
 20
287.0
 30
0.0
  0
SEQEND
  8
0
  0
POLYLINE
  8
0
 62
7
 70
1
 66
1
 10
0.0
 20
0.0
 30
0.0
  0
VERTEX
  8
0
 10
120.0
 20
290.0
 30
0.0
  0
VERTEX
  8
0
 10
125.0
 20
290.0
 30
0.0
  0
VERTEX
  8
0
 10
125.0
 20
287.0
 30
0.0
  0
VERTEX
  8
0
 10
120.0
 20
287.0
 30
0.0
  0
SEQEND
  8
0
  0
POLYLINE
  8
0
 62
7
 70
1
 66
1
 10
0.0
 20
0.0
 30
0.0
  0
VERTEX
  8
0
 10
120.0
 20
247.0
 30
0.0
  0
VERTEX
  8
0
 10
125.0
 20
247.0
 30
0.0
  0
VERTEX
  8
0
 10
125.0
 20
244.0
 30
0.0
  0
VERTEX
  8
0
 10
120.0
 20
244.0
 30
0.0
  0
SEQEND
  8
0
  0
POLYLINE
  8
0
 62
7
 70
1
 66
1
 10
0.0
 20
0.0
 30
0.0
  0
VERTEX
  8
0
 10
140.0
 20
247.0
 30
0.0
  0
VERTEX
  8
0
 10
145.0
 20
247.0
 30
0.0
  0
VERTEX
  8
0
 10
145.0
 20
244.0
 30
0.0
  0
VERTEX
  8
0
 10
140.0
 20
244.0
 30
0.0
  0
SEQEND
  8
0
  0
POLYLINE
  8
0
 62
7
 70
1
 66
1
 10
0.0
 20
0.0
 30
0.0
  0
VERTEX
  8
0
 10
123.0
 20
256.0
 30
0.0
  0
VERTEX
  8
0
 10
124.0
 20
257.732050808
 30
0.0
  0
VERTEX
  8
0
 10
122.0
 20
257.732050808
 30
0.0
  0
SEQEND
  8
0
  0
ENDBLK
  0
BLOCK
  8
0
  2
SKETCH104
 70
0
 10
0.0
 20
0.0
 30
0.0
  3
SKETCH104
  0
POLYLINE
  8
0
 62
7
 70
0
 66
1
 10
0.0
 20
0.0
 30
0.0
  0
VERTEX
  8
0
 10
99.0
 20
224.25
 30
0.0
  0
VERTEX
  8
0
 10
99.0
 20
234.0
 30
0.0
 42
0.414213562373
  0
VERTEX
  8
0
 10
97.0
 20
236.0
 30
0.0
  0
VERTEX
  8
0
 10
68.0
 20
236.0
 30
0.0
 42
0.414213562373
  0
VERTEX
  8
0
 10
66.0
 20
234.0
 30
0.0
  0
VERTEX
  8
0
 10
66.0
 20
224.25
 30
0.0
  0
SEQEND
  8
0
  0
POLYLINE
  8
0
 62
7
 70
1
 66
1
 10
0.0
 20
0.0
 30
0.0
  0
VERTEX
  8
0
 10
85.3
 20
217.0
 30
0.0
  0
VERTEX
  8
0
 10
85.3
 20
219.5
 30
0.0
  0
VERTEX
  8
0
 10
79.7
 20
219.5
 30
0.0
  0
VERTEX
  8
0
 10
79.7
 20
217.0
 30
0.0
  0
SEQEND
  8
0
  0
POLYLINE
  8
0
 62
7
 70
0
 66
1
 10
0.0
 20
0.0
 30
0.0
  0
VERTEX
  8
0
 10
66.0
 20
223.75
 30
0.0
  0
VERTEX
  8
0
 10
66.0
 20
214.0
 30
0.0
  0
VERTEX
  8
0
 10
99.0
 20
214.0
 30
0.0
  0
VERTEX
  8
0
 10
99.0
 20
223.75
 30
0.0
  0
SEQEND
  8
0
  0
POLYLINE
  8
0
 62
7
 70
1
 66
1
 10
0.0
 20
0.0
 30
0.0
  0
VERTEX
  8
0
 10
75.3431192661
 20
233.382642335
 30
0.0
  0
VERTEX
  8
0
 10
91.5266055046
 20
231.741065908
 30
0.0
 42
-0.903696114115
  0
VERTEX
  8
0
 10
91.5266055046
 20
228.258934092
 30
0.0
  0
VERTEX
  8
0
 10
75.3431192661
 20
226.617357665
 30
0.0
 42
-1.10656667035
  0
SEQEND
  8
0
  0
ENDBLK
  0
BLOCK
  8
0
  2
SKETCH105
 70
0
 10
0.0
 20
0.0
 30
0.0
  3
SKETCH105
  0
POLYLINE
  8
0
 62
7
 70
0
 66
1
 10
0.0
 20
0.0
 30
0.0
  0
VERTEX
  8
0
 10
133.0
 20
224.25
 30
0.0
  0
VERTEX
  8
0
 10
133.0
 20
234.0
 30
0.0
 42
0.414213562373
  0
VERTEX
  8
0
 10
131.0
 20
236.0
 30
0.0
  0
VERTEX
  8
0
 10
102.0
 20
236.0
 30
0.0
 42
0.414213562373
  0
VERTEX
  8
0
 10
100.0
 20
234.0
 30
0.0
  0
VERTEX
  8
0
 10
100.0
 20
224.25
 30
0.0
  0
SEQEND
  8
0
  0
POLYLINE
  8
0
 62
7
 70
1
 66
1
 10
0.0
 20
0.0
 30
0.0
  0
VERTEX
  8
0
 10
119.3
 20
217.0
 30
0.0
  0
VERTEX
  8
0
 10
119.3
 20
219.5
 30
0.0
  0
VERTEX
  8
0
 10
113.7
 20
219.5
 30
0.0
  0
VERTEX
  8
0
 10
113.7
 20
217.0
 30
0.0
  0
SEQEND
  8
0
  0
POLYLINE
  8
0
 62
7
 70
0
 66
1
 10
0.0
 20
0.0
 30
0.0
  0
VERTEX
  8
0
 10
100.0
 20
223.75
 30
0.0
  0
VERTEX
  8
0
 10
100.0
 20
214.0
 30
0.0
  0
VERTEX
  8
0
 10
133.0
 20
214.0
 30
0.0
  0
VERTEX
  8
0
 10
133.0
 20
223.75
 30
0.0
  0
SEQEND
  8
0
  0
POLYLINE
  8
0
 62
7
 70
1
 66
1
 10
0.0
 20
0.0
 30
0.0
  0
VERTEX
  8
0
 10
123.656880734
 20
233.382642335
 30
0.0
  0
VERTEX
  8
0
 10
107.473394495
 20
231.741065908
 30
0.0
 42
0.903696114115
  0
VERTEX
  8
0
 10
107.473394495
 20
228.258934092
 30
0.0
  0
VERTEX
  8
0
 10
123.656880734
 20
226.617357665
 30
0.0
 42
1.10656667035
  0
SEQEND
  8
0
  0
ENDBLK
  0
BLOCK
  8
0
  2
SKETCH109
 70
0
 10
0.0
 20
0.0
 30
0.0
  3
SKETCH109
  0
POLYLINE
  8
0
 62
7
 70
0
 66
1
 10
0.0
 20
0.0
 30
0.0
  0
VERTEX
  8
0
 10
34.75
 20
241.0
 30
0.0
  0
VERTEX
  8
0
 10
14.0
 20
241.0
 30
0.0
 42
0.414213562373
  0
VERTEX
  8
0
 10
13.0
 20
240.0
 30
0.0
  0
VERTEX
  8
0
 10
13.0
 20
237.0
 30
0.0
 42
0.414213562373
  0
VERTEX
  8
0
 10
14.0
 20
236.0
 30
0.0
  0
VERTEX
  8
0
 10
19.0
 20
236.0
 30
0.0
 42
-0.414213562373
  0
VERTEX
  8
0
 10
20.0
 20
235.0
 30
0.0
  0
VERTEX
  8
0
 10
20.0
 20
234.0
 30
0.0
 42
-0.414213562373
  0
VERTEX
  8
0
 10
19.0
 20
233.0
 30
0.0
  0
VERTEX
  8
0
 10
11.0
 20
233.0
 30
0.0
 42
-0.414213562373
  0
VERTEX
  8
0
 10
10.0
 20
234.0
 30
0.0
  0
VERTEX
  8
0
 10
10.0
 20
240.0
 30
0.0
 42
0.414213562373
  0
VERTEX
  8
0
 10
9.0
 20
241.0
 30
0.0
  0
VERTEX
  8
0
 10
6.0
 20
241.0
 30
0.0
 42
0.414213562373
  0
VERTEX
  8
0
 10
5.0
 20
240.0
 30
0.0
  0
VERTEX
  8
0
 10
5.0
 20
226.0
 30
0.0
  0
VERTEX
  8
0
 10
15.0
 20
226.0
 30
0.0
  0
VERTEX
  8
0
 10
15.0
 20
229.0
 30
0.0
  0
VERTEX
  8
0
 10
25.0
 20
229.0
 30
0.0
  0
VERTEX
  8
0
 10
25.0
 20
226.0
 30
0.0
  0
VERTEX
  8
0
 10
34.75
 20
226.0
 30
0.0
  0
SEQEND
  8
0
  0
POLYLINE
  8
0
 62
7
 70
0
 66
1
 10
0.0
 20
0.0
 30
0.0
  0
VERTEX
  8
0
 10
35.25
 20
241.0
 30
0.0
  0
VERTEX
  8
0
 10
64.0
 20
241.0
 30
0.0
 42
-0.414213562373
  0
VERTEX
  8
0
 10
65.0
 20
240.0
 30
0.0
  0
VERTEX
  8
0
 10
65.0
 20
226.0
 30
0.0
  0
VERTEX
  8
0
 10
55.0
 20
226.0
 30
0.0
  0
VERTEX
  8
0
 10
55.0
 20
229.0
 30
0.0
  0
VERTEX
  8
0
 10
45.0
 20
229.0
 30
0.0
  0
VERTEX
  8
0
 10
45.0
 20
226.0
 30
0.0
  0
VERTEX
  8
0
 10
35.25
 20
226.0
 30
0.0
  0
SEQEND
  8
0
  0
CIRCLE
  8
0
 62
7
 10
53.5
 20
235.0
 30
0.0
 40
1.5
  0
CIRCLE
  8
0
 62
7
 10
33.0
 20
227.5
 30
0.0
 40
1.0
  0
ENDBLK
  0
BLOCK
  8
0
  2
SKETCH107
 70
0
 10
0.0
 20
0.0
 30
0.0
  3
SKETCH107
  0
POLYLINE
  8
0
 62
7
 70
0
 66
1
 10
0.0
 20
0.0
 30
0.0
  0
VERTEX
  8
0
 10
38.75
 20
284.0
 30
0.0
  0
VERTEX
  8
0
 10
56.0
 20
284.0
 30
0.0
  0
VERTEX
  8
0
 10
56.0
 20
279.0
 30
0.0
  0
VERTEX
  8
0
 10
53.0
 20
279.0
 30
0.0
  0
VERTEX
  8
0
 10
53.0
 20
274.0
 30
0.0
  0
VERTEX
  8
0
 10
56.0
 20
274.0
 30
0.0
  0
VERTEX
  8
0
 10
56.0
 20
269.0
 30
0.0
  0
VERTEX
  8
0
 10
38.75
 20
269.0
 30
0.0
  0
SEQEND
  8
0
  0
POLYLINE
  8
0
 62
7
 70
0
 66
1
 10
0.0
 20
0.0
 30
0.0
  0
VERTEX
  8
0
 10
38.25
 20
284.0
 30
0.0
  0
VERTEX
  8
0
 10
21.0
 20
284.0
 30
0.0
  0
VERTEX
  8
0
 10
21.0
 20
279.0
 30
0.0
  0
VERTEX
  8
0
 10
24.0
 20
279.0
 30
0.0
  0
VERTEX
  8
0
 10
24.0
 20
274.0
 30
0.0
  0
VERTEX
  8
0
 10
21.0
 20
274.0
 30
0.0
  0
VERTEX
  8
0
 10
21.0
 20
269.0
 30
0.0
  0
VERTEX
  8
0
 10
38.25
 20
269.0
 30
0.0
  0
SEQEND
  8
0
  0
ENDBLK
  0
BLOCK
  8
0
  2
SKETCH003
 70
0
 10
0.0
 20
0.0
 30
0.0
  3
SKETCH003
  0
POLYLINE
  8
0
 62
7
 70
0
 66
1
 10
0.0
 20
0.0
 30
0.0
  0
VERTEX
  8
0
 10
39.75
 20
152.0
 30
0.0
  0
VERTEX
  8
0
 10
30.0
 20
152.0
 30
0.0
  0
VERTEX
  8
0
 10
30.0
 20
149.0
 30
0.0
  0
VERTEX
  8
0
 10
5.0
 20
149.0
 30
0.0
  0
VERTEX
  8
0
 10
5.0
 20
99.0
 30
0.0
  0
VERTEX
  8
0
 10
30.0
 20
99.0
 30
0.0
  0
VERTEX
  8
0
 10
30.0
 20
96.0
 30
0.0
  0
VERTEX
  8
0
 10
39.75
 20
96.0
 30
0.0
  0
SEQEND
  8
0
  0
POLYLINE
  8
0
 62
7
 70
0
 66
1
 10
0.0
 20
0.0
 30
0.0
  0
VERTEX
  8
0
 10
40.25
 20
96.0
 30
0.0
  0
VERTEX
  8
0
 10
50.0
 20
96.0
 30
0.0
  0
VERTEX
  8
0
 10
50.0
 20
99.0
 30
0.0
  0
VERTEX
  8
0
 10
75.0
 20
99.0
 30
0.0
  0
VERTEX
  8
0
 10
75.0
 20
149.0
 30
0.0
  0
VERTEX
  8
0
 10
50.0
 20
149.0
 30
0.0
  0
VERTEX
  8
0
 10
50.0
 20
152.0
 30
0.0
  0
VERTEX
  8
0
 10
40.25
 20
152.0
 30
0.0
  0
SEQEND
  8
0
  0
CIRCLE
  8
0
 62
7
 10
27.25
 20
129.0
 30
0.0
 40
7.9
  0
CIRCLE
  8
0
 62
7
 10
52.75
 20
129.0
 30
0.0
 40
7.9
  0
POLYLINE
  8
0
 62
7
 70
1
 66
1
 10
0.0
 20
0.0
 30
0.0
  0
VERTEX
  8
0
 10
26.5
 20
115.042997637
 30
0.0
 42
0.305080371283
  0
VERTEX
  8
0
 10
26.8115942029
 20
114.579852676
 30
0.0
 42
0.195615202881
  0
VERTEX
  8
0
 10
53.1884057971
 20
114.579852676
 30
0.0
 42
0.305080371285
  0
VERTEX
  8
0
 10
53.5
 20
115.042997637
 30
0.0
 42
-1.0
  0
VERTEX
  8
0
 10
54.5
 20
115.042997637
 30
0.0
 42
-0.305080371283
  0
VERTEX
  8
0
 10
53.5652173913
 20
113.653562752
 30
0.0
 42
-0.195615202881
  0
VERTEX
  8
0
 10
26.4347826087
 20
113.653562752
 30
0.0
 42
-0.305080371283
  0
VERTEX
  8
0
 10
25.5
 20
115.042997637
 30
0.0
 42
-1.0
  0
SEQEND
  8
0
  0
ENDBLK
  0
BLOCK
  8
0
  2
SKETCH110
 70
0
 10
0.0
 20
0.0
 30
0.0
  3
SKETCH110
  0
POLYLINE
  8
0
 62
7
 70
0
 66
1
 10
0.0
 20
0.0
 30
0.0
  0
VERTEX
  8
0
 10
34.75
 20
225.0
 30
0.0
  0
VERTEX
  8
0
 10
6.0
 20
225.0
 30
0.0
 42
0.414213562373
  0
VERTEX
  8
0
 10
5.0
 20
224.0
 30
0.0
  0
VERTEX
  8
0
 10
5.0
 20
210.0
 30
0.0
  0
VERTEX
  8
0
 10
15.0
 20
210.0
 30
0.0
  0
VERTEX
  8
0
 10
15.0
 20
213.0
 30
0.0
  0
VERTEX
  8
0
 10
25.0
 20
213.0
 30
0.0
  0
VERTEX
  8
0
 10
25.0
 20
210.0
 30
0.0
  0
VERTEX
  8
0
 10
34.75
 20
210.0
 30
0.0
  0
SEQEND
  8
0
  0
POLYLINE
  8
0
 62
7
 70
0
 66
1
 10
0.0
 20
0.0
 30
0.0
  0
VERTEX
  8
0
 10
35.25
 20
225.0
 30
0.0
  0
VERTEX
  8
0
 10
56.0
 20
225.0
 30
0.0
 42
-0.414213562373
  0
VERTEX
  8
0
 10
57.0
 20
224.0
 30
0.0
  0
VERTEX
  8
0
 10
57.0
 20
221.0
 30
0.0
 42
-0.414213562373
  0
VERTEX
  8
0
 10
56.0
 20
220.0
 30
0.0
  0
VERTEX
  8
0
 10
51.0
 20
220.0
 30
0.0
 42
0.414213562373
  0
VERTEX
  8
0
 10
50.0
 20
219.0
 30
0.0
  0
VERTEX
  8
0
 10
50.0
 20
218.0
 30
0.0
 42
0.414213562373
  0
VERTEX
  8
0
 10
51.0
 20
217.0
 30
0.0
  0
VERTEX
  8
0
 10
59.0
 20
217.0
 30
0.0
 42
0.414213562373
  0
VERTEX
  8
0
 10
60.0
 20
218.0
 30
0.0
  0
VERTEX
  8
0
 10
60.0
 20
224.0
 30
0.0
 42
-0.414213562373
  0
VERTEX
  8
0
 10
61.0
 20
225.0
 30
0.0
  0
VERTEX
  8
0
 10
64.0
 20
225.0
 30
0.0
 42
-0.414213562373
  0
VERTEX
  8
0
 10
65.0
 20
224.0
 30
0.0
  0
VERTEX
  8
0
 10
65.0
 20
210.0
 30
0.0
  0
VERTEX
  8
0
 10
55.0
 20
210.0
 30
0.0
  0
VERTEX
  8
0
 10
55.0
 20
213.0
 30
0.0
  0
VERTEX
  8
0
 10
45.0
 20
213.0
 30
0.0
  0
VERTEX
  8
0
 10
45.0
 20
210.0
 30
0.0
  0
VERTEX
  8
0
 10
35.25
 20
210.0
 30
0.0
  0
SEQEND
  8
0
  0
CIRCLE
  8
0
 62
7
 10
16.5
 20
219.0
 30
0.0
 40
1.5
  0
CIRCLE
  8
0
 62
7
 10
37.0
 20
211.5
 30
0.0
 40
1.0
  0
ENDBLK
  0
BLOCK
  8
0
  2
SKETCH116
 70
0
 10
0.0
 20
0.0
 30
0.0
  3
SKETCH116
  0
POLYLINE
  8
0
 62
7
 70
0
 66
1
 10
0.0
 20
0.0
 30
0.0
  0
VERTEX
  8
0
 10
120.0
 20
104.75
 30
0.0
  0
VERTEX
  8
0
 10
120.0
 20
96.0
 30
0.0
  0
VERTEX
  8
0
 10
91.0
 20
96.0
 30
0.0
  0
VERTEX
  8
0
 10
91.0
 20
104.75
 30
0.0
  0
SEQEND
  8
0
  0
POLYLINE
  8
0
 62
7
 70
0
 66
1
 10
0.0
 20
0.0
 30
0.0
  0
VERTEX
  8
0
 10
91.0
 20
105.25
 30
0.0
  0
VERTEX
  8
0
 10
91.0
 20
114.0
 30
0.0
  0
VERTEX
  8
0
 10
120.0
 20
114.0
 30
0.0
  0
VERTEX
  8
0
 10
120.0
 20
105.25
 30
0.0
  0
SEQEND
  8
0
  0
POLYLINE
  8
0
 62
7
 70
1
 66
1
 10
0.0
 20
0.0
 30
0.0
  0
VERTEX
  8
0
 10
99.3431192661
 20
108.382642335
 30
0.0
  0
VERTEX
  8
0
 10
115.526605505
 20
106.741065908
 30
0.0
 42
-0.903696114115
  0
VERTEX
  8
0
 10
115.526605505
 20
103.258934092
 30
0.0
  0
VERTEX
  8
0
 10
99.3431192661
 20
101.617357665
 30
0.0
 42
-1.10656667034
  0
SEQEND
  8
0
  0
ENDBLK
  0
BLOCK
  8
0
  2
SKETCH108
 70
0
 10
0.0
 20
0.0
 30
0.0
  3
SKETCH108
  0
POLYLINE
  8
0
 62
7
 70
0
 66
1
 10
0.0
 20
0.0
 30
0.0
  0
VERTEX
  8
0
 10
38.75
 20
267.0
 30
0.0
  0
VERTEX
  8
0
 10
56.0
 20
267.0
 30
0.0
  0
VERTEX
  8
0
 10
56.0
 20
262.0
 30
0.0
  0
VERTEX
  8
0
 10
53.0
 20
262.0
 30
0.0
  0
VERTEX
  8
0
 10
53.0
 20
257.0
 30
0.0
  0
VERTEX
  8
0
 10
56.0
 20
257.0
 30
0.0
  0
VERTEX
  8
0
 10
56.0
 20
252.0
 30
0.0
  0
VERTEX
  8
0
 10
38.75
 20
252.0
 30
0.0
  0
SEQEND
  8
0
  0
POLYLINE
  8
0
 62
7
 70
0
 66
1
 10
0.0
 20
0.0
 30
0.0
  0
VERTEX
  8
0
 10
38.25
 20
267.0
 30
0.0
  0
VERTEX
  8
0
 10
21.0
 20
267.0
 30
0.0
  0
VERTEX
  8
0
 10
21.0
 20
262.0
 30
0.0
  0
VERTEX
  8
0
 10
24.0
 20
262.0
 30
0.0
  0
VERTEX
  8
0
 10
24.0
 20
257.0
 30
0.0
  0
VERTEX
  8
0
 10
21.0
 20
257.0
 30
0.0
  0
VERTEX
  8
0
 10
21.0
 20
252.0
 30
0.0
  0
VERTEX
  8
0
 10
38.25
 20
252.0
 30
0.0
  0
SEQEND
  8
0
  0
ENDBLK
  0
BLOCK
  8
0
  2
SKETCH112
 70
0
 10
0.0
 20
0.0
 30
0.0
  3
SKETCH112
  0
POLYLINE
  8
0
 62
7
 70
0
 66
1
 10
0.0
 20
0.0
 30
0.0
  0
VERTEX
  8
0
 10
185.0
 20
35.25
 30
0.0
  0
VERTEX
  8
0
 10
185.0
 20
63.0
 30
0.0
 42
-0.414213562373
  0
VERTEX
  8
0
 10
187.0
 20
65.0
 30
0.0
  0
VERTEX
  8
0
 10
205.1
 20
65.0
 30
0.0
  0
VERTEX
  8
0
 10
205.1
 20
55.0
 30
0.0
  0
VERTEX
  8
0
 10
202.1
 20
55.0
 30
0.0
  0
VERTEX
  8
0
 10
202.1
 20
59.0
 30
0.0
  0
VERTEX
  8
0
 10
190.0
 20
59.0
 30
0.0
  0
VERTEX
  8
0
 10
190.0
 20
36.5
 30
0.0
  0
VERTEX
  8
0
 10
202.1
 20
36.5
 30
0.0
  0
VERTEX
  8
0
 10
202.1
 20
45.0
 30
0.0
  0
VERTEX
  8
0
 10
205.1
 20
45.0
 30
0.0
  0
VERTEX
  8
0
 10
205.1
 20
35.25
 30
0.0
  0
SEQEND
  8
0
  0
CIRCLE
  8
0
 62
7
 10
196.05
 20
61.5
 30
0.0
 40
1.0
  0
CIRCLE
  8
0
 62
7
 10
196.05
 20
34.0
 30
0.0
 40
1.0
  0
POLYLINE
  8
0
 62
7
 70
0
 66
1
 10
0.0
 20
0.0
 30
0.0
  0
VERTEX
  8
0
 10
205.1
 20
34.75
 30
0.0
  0
VERTEX
  8
0
 10
205.1
 20
25.0
 30
0.0
  0
VERTEX
  8
0
 10
202.1
 20
25.0
 30
0.0
  0
VERTEX
  8
0
 10
202.1
 20
15.0
 30
0.0
  0
VERTEX
  8
0
 10
205.1
 20
15.0
 30
0.0
  0
VERTEX
  8
0
 10
205.1
 20
5.0
 30
0.0
  0
VERTEX
  8
0
 10
187.0
 20
5.0
 30
0.0
 42
-0.414213562373
  0
VERTEX
  8
0
 10
185.0
 20
7.0
 30
0.0
  0
VERTEX
  8
0
 10
185.0
 20
34.75
 30
0.0
  0
SEQEND
  8
0
  0
CIRCLE
  8
0
 62
7
 10
203.6
 20
33.0
 30
0.0
 40
1.0
  0
ENDBLK
  0
BLOCK
  8
0
  2
SKETCH117
 70
0
 10
0.0
 20
0.0
 30
0.0
  3
SKETCH117
  0
POLYLINE
  8
0
 62
7
 70
0
 66
1
 10
0.0
 20
0.0
 30
0.0
  0
VERTEX
  8
0
 10
120.0
 20
142.75
 30
0.0
  0
VERTEX
  8
0
 10
120.0
 20
134.0
 30
0.0
  0
VERTEX
  8
0
 10
91.0
 20
134.0
 30
0.0
  0
VERTEX
  8
0
 10
91.0
 20
142.75
 30
0.0
  0
SEQEND
  8
0
  0
POLYLINE
  8
0
 62
7
 70
0
 66
1
 10
0.0
 20
0.0
 30
0.0
  0
VERTEX
  8
0
 10
91.0
 20
143.25
 30
0.0
  0
VERTEX
  8
0
 10
91.0
 20
152.0
 30
0.0
  0
VERTEX
  8
0
 10
120.0
 20
152.0
 30
0.0
  0
VERTEX
  8
0
 10
120.0
 20
143.25
 30
0.0
  0
SEQEND
  8
0
  0
POLYLINE
  8
0
 62
7
 70
1
 66
1
 10
0.0
 20
0.0
 30
0.0
  0
VERTEX
  8
0
 10
99.3431192661
 20
146.382642335
 30
0.0
  0
VERTEX
  8
0
 10
115.526605505
 20
144.741065908
 30
0.0
 42
-0.903696114115
  0
VERTEX
  8
0
 10
115.526605505
 20
141.258934092
 30
0.0
  0
VERTEX
  8
0
 10
99.3431192661
 20
139.617357665
 30
0.0
 42
-1.10656667034
  0
SEQEND
  8
0
  0
ENDBLK
  0
BLOCK
  8
0
  2
SKETCH119
 70
0
 10
0.0
 20
0.0
 30
0.0
  3
SKETCH119
  0
POLYLINE
  8
0
 62
7
 70
0
 66
1
 10
0.0
 20
0.0
 30
0.0
  0
VERTEX
  8
0
 10
102.0
 20
183.0
 30
0.0
  0
VERTEX
  8
0
 10
102.0
 20
193.0
 30
0.0
  0
VERTEX
  8
0
 10
99.0
 20
193.0
 30
0.0
  0
VERTEX
  8
0
 10
99.0
 20
203.0
 30
0.0
  0
VERTEX
  8
0
 10
102.0
 20
203.0
 30
0.0
  0
VERTEX
  8
0
 10
102.0
 20
213.0
 30
0.0
  0
VERTEX
  8
0
 10
129.0
 20
213.0
 30
0.0
  0
VERTEX
  8
0
 10
129.0
 20
203.0
 30
0.0
  0
VERTEX
  8
0
 10
132.0
 20
203.0
 30
0.0
  0
VERTEX
  8
0
 10
132.0
 20
193.0
 30
0.0
  0
VERTEX
  8
0
 10
129.0
 20
193.0
 30
0.0
  0
VERTEX
  8
0
 10
129.0
 20
183.0
 30
0.0
  0
SEQEND
  8
0
  0
POLYLINE
  8
0
 62
7
 70
0
 66
1
 10
0.0
 20
0.0
 30
0.0
  0
VERTEX
  8
0
 10
129.0
 20
182.5
 30
0.0
  0
VERTEX
  8
0
 10
129.0
 20
182.0
 30
0.0
  0
VERTEX
  8
0
 10
127.0
 20
182.0
 30
0.0
  0
VERTEX
  8
0
 10
127.0
 20
183.0
 30
0.0
  0
VERTEX
  8
0
 10
125.5
 20
183.0
 30
0.0
  0
VERTEX
  8
0
 10
125.5
 20
182.0
 30
0.0
  0
VERTEX
  8
0
 10
123.5
 20
182.0
 30
0.0
  0
VERTEX
  8
0
 10
123.5
 20
180.0
 30
0.0
  0
VERTEX
  8
0
 10
125.5
 20
180.0
 30
0.0
  0
VERTEX
  8
0
 10
125.5
 20
179.0
 30
0.0
  0
VERTEX
  8
0
 10
127.0
 20
179.0
 30
0.0
  0
VERTEX
  8
0
 10
127.0
 20
180.0
 30
0.0
  0
VERTEX
  8
0
 10
129.0
 20
180.0
 30
0.0
  0
VERTEX
  8
0
 10
129.0
 20
173.0
 30
0.0
  0
VERTEX
  8
0
 10
132.0
 20
173.0
 30
0.0
  0
VERTEX
  8
0
 10
132.0
 20
163.0
 30
0.0
  0
VERTEX
  8
0
 10
129.0
 20
163.0
 30
0.0
  0
VERTEX
  8
0
 10
129.0
 20
153.0
 30
0.0
  0
VERTEX
  8
0
 10
102.0
 20
153.0
 30
0.0
  0
VERTEX
  8
0
 10
102.0
 20
163.0
 30
0.0
  0
VERTEX
  8
0
 10
99.0
 20
163.0
 30
0.0
  0
VERTEX
  8
0
 10
99.0
 20
173.0
 30
0.0
  0
VERTEX
  8
0
 10
102.0
 20
173.0
 30
0.0
  0
VERTEX
  8
0
 10
102.0
 20
180.0
 30
0.0
  0
VERTEX
  8
0
 10
104.0
 20
180.0
 30
0.0
  0
VERTEX
  8
0
 10
104.0
 20
179.0
 30
0.0
  0
VERTEX
  8
0
 10
105.5
 20
179.0
 30
0.0
  0
VERTEX
  8
0
 10
105.5
 20
180.0
 30
0.0
  0
VERTEX
  8
0
 10
107.5
 20
180.0
 30
0.0
  0
VERTEX
  8
0
 10
107.5
 20
182.0
 30
0.0
  0
VERTEX
  8
0
 10
105.5
 20
182.0
 30
0.0
  0
VERTEX
  8
0
 10
105.5
 20
183.0
 30
0.0
  0
VERTEX
  8
0
 10
104.0
 20
183.0
 30
0.0
  0
VERTEX
  8
0
 10
104.0
 20
182.0
 30
0.0
  0
VERTEX
  8
0
 10
102.0
 20
182.0
 30
0.0
  0
VERTEX
  8
0
 10
102.0
 20
182.5
 30
0.0
  0
SEQEND
  8
0
  0
ENDBLK
  0
BLOCK
  8
0
  2
SKETCH088
 70
0
 10
0.0
 20
0.0
 30
0.0
  3
SKETCH088
  0
POLYLINE
  8
0
 62
7
 70
0
 66
1
 10
0.0
 20
0.0
 30
0.0
  0
VERTEX
  8
0
 10
152.438152737
 20
223.194857171
 30
0.0
  0
VERTEX
  8
0
 10
147.554489
 20
217.175171
 30
0.0
  0
VERTEX
  8
0
 10
147.554489
 20
214.175171
 30
0.0
  0
VERTEX
  8
0
 10
144.554489
 20
214.175171
 30
0.0
  0
VERTEX
  8
0
 10
144.554489
 20
217.175171
 30
0.0
  0
VERTEX
  8
0
 10
139.670825263
 20
223.194857171
 30
0.0
  0
SEQEND
  8
0
  0
POLYLINE
  8
0
 62
7
 70
0
 66
1
 10
0.0
 20
0.0
 30
0.0
  0
VERTEX
  8
0
 10
139.313753842
 20
223.544857171
 30
0.0
  0
VERTEX
  8
0
 10
134.430090105
 20
229.564543341
 30
0.0
 42
-0.949394233415
  0
VERTEX
  8
0
 10
135.913773553
 20
230.901672885
 30
0.0
  0
VERTEX
  8
0
 10
145.347382219
 20
221.468064219
 30
0.0
 42
0.414213562373
  0
VERTEX
  8
0
 10
146.761595781
 20
221.468064219
 30
0.0
  0
VERTEX
  8
0
 10
156.195204447
 20
230.901672885
 30
0.0
 42
-0.949394233415
  0
VERTEX
  8
0
 10
157.678887895
 20
229.564543341
 30
0.0
  0
VERTEX
  8
0
 10
152.795224158
 20
223.544857171
 30
0.0
  0
SEQEND
  8
0
  0
ENDBLK
  0
BLOCK
  8
0
  2
SKETCH124
 70
0
 10
0.0
 20
0.0
 30
0.0
  3
SKETCH124
  0
POLYLINE
  8
0
 62
7
 70
0
 66
1
 10
0.0
 20
0.0
 30
0.0
  0
VERTEX
  8
0
 10
178.0
 20
182.0
 30
0.0
  0
VERTEX
  8
0
 10
178.0
 20
152.0
 30
0.0
  0
VERTEX
  8
0
 10
182.0
 20
152.0
 30
0.0
  0
VERTEX
  8
0
 10
182.0
 20
155.0
 30
0.0
  0
VERTEX
  8
0
 10
185.5
 20
155.0
 30
0.0
  0
VERTEX
  8
0
 10
185.5
 20
158.0
 30
0.0
  0
VERTEX
  8
0
 10
184.2
 20
158.0
 30
0.0
  0
VERTEX
  8
0
 10
184.2
 20
160.5
 30
0.0
  0
VERTEX
  8
0
 10
185.5
 20
160.5
 30
0.0
  0
VERTEX
  8
0
 10
185.5
 20
163.0
 30
0.0
  0
VERTEX
  8
0
 10
188.5
 20
163.0
 30
0.0
  0
VERTEX
  8
0
 10
188.5
 20
160.5
 30
0.0
  0
VERTEX
  8
0
 10
189.8
 20
160.5
 30
0.0
  0
VERTEX
  8
0
 10
189.8
 20
158.0
 30
0.0
  0
VERTEX
  8
0
 10
188.5
 20
158.0
 30
0.0
  0
VERTEX
  8
0
 10
188.5
 20
155.0
 30
0.0
  0
VERTEX
  8
0
 10
192.0
 20
155.0
 30
0.0
  0
VERTEX
  8
0
 10
192.0
 20
152.0
 30
0.0
  0
VERTEX
  8
0
 10
196.0
 20
152.0
 30
0.0
  0
VERTEX
  8
0
 10
196.0
 20
167.0
 30
0.0
  0
VERTEX
  8
0
 10
199.0
 20
167.0
 30
0.0
  0
VERTEX
  8
0
 10
199.0
 20
172.0
 30
0.0
  0
VERTEX
  8
0
 10
196.0
 20
172.0
 30
0.0
  0
VERTEX
  8
0
 10
196.0
 20
182.0
 30
0.0
  0
SEQEND
  8
0
  0
POLYLINE
  8
0
 62
7
 70
0
 66
1
 10
0.0
 20
0.0
 30
0.0
  0
VERTEX
  8
0
 10
196.0
 20
182.5
 30
0.0
  0
VERTEX
  8
0
 10
196.0
 20
197.0
 30
0.0
 42
0.414213562373
  0
VERTEX
  8
0
 10
194.0
 20
199.0
 30
0.0
  0
VERTEX
  8
0
 10
180.0
 20
199.0
 30
0.0
 42
0.414213562373
  0
VERTEX
  8
0
 10
178.0
 20
197.0
 30
0.0
  0
VERTEX
  8
0
 10
178.0
 20
182.5
 30
0.0
  0
SEQEND
  8
0
  0
POLYLINE
  8
0
 62
7
 70
1
 66
1
 10
0.0
 20
0.0
 30
0.0
  0
VERTEX
  8
0
 10
180.95
 20
194.0
 30
0.0
  0
VERTEX
  8
0
 10
193.05
 20
194.0
 30
0.0
  0
VERTEX
  8
0
 10
193.05
 20
171.5
 30
0.0
  0
VERTEX
  8
0
 10
180.95
 20
171.5
 30
0.0
  0
SEQEND
  8
0
  0
CIRCLE
  8
0
 62
7
 10
187.0
 20
196.5
 30
0.0
 40
1.0
  0
CIRCLE
  8
0
 62
7
 10
187.0
 20
169.0
 30
0.0
 40
1.0
  0
ENDBLK
  0
BLOCK
  8
0
  2
SKETCH127
 70
0
 10
0.0
 20
0.0
 30
0.0
  3
SKETCH127
  0
POLYLINE
  8
0
 62
7
 70
0
 66
1
 10
0.0
 20
0.0
 30
0.0
  0
VERTEX
  8
0
 10
133.0
 20
183.25
 30
0.0
  0
VERTEX
  8
0
 10
133.0
 20
211.0
 30
0.0
 42
-0.414213562373
  0
VERTEX
  8
0
 10
135.0
 20
213.0
 30
0.0
  0
VERTEX
  8
0
 10
153.1
 20
213.0
 30
0.0
  0
VERTEX
  8
0
 10
153.1
 20
203.0
 30
0.0
  0
VERTEX
  8
0
 10
150.1
 20
203.0
 30
0.0
  0
VERTEX
  8
0
 10
150.1
 20
207.0
 30
0.0
  0
VERTEX
  8
0
 10
138.0
 20
207.0
 30
0.0
  0
VERTEX
  8
0
 10
138.0
 20
184.5
 30
0.0
  0
VERTEX
  8
0
 10
150.1
 20
184.5
 30
0.0
  0
VERTEX
  8
0
 10
150.1
 20
193.0
 30
0.0
  0
VERTEX
  8
0
 10
153.1
 20
193.0
 30
0.0
  0
VERTEX
  8
0
 10
153.1
 20
183.25
 30
0.0
  0
SEQEND
  8
0
  0
CIRCLE
  8
0
 62
7
 10
144.05
 20
209.5
 30
0.0
 40
1.0
  0
CIRCLE
  8
0
 62
7
 10
144.05
 20
182.0
 30
0.0
 40
1.0
  0
POLYLINE
  8
0
 62
7
 70
0
 66
1
 10
0.0
 20
0.0
 30
0.0
  0
VERTEX
  8
0
 10
153.1
 20
182.75
 30
0.0
  0
VERTEX
  8
0
 10
153.1
 20
173.0
 30
0.0
  0
VERTEX
  8
0
 10
150.1
 20
173.0
 30
0.0
  0
VERTEX
  8
0
 10
150.1
 20
163.0
 30
0.0
  0
VERTEX
  8
0
 10
153.1
 20
163.0
 30
0.0
  0
VERTEX
  8
0
 10
153.1
 20
153.0
 30
0.0
  0
VERTEX
  8
0
 10
135.0
 20
153.0
 30
0.0
 42
-0.414213562373
  0
VERTEX
  8
0
 10
133.0
 20
155.0
 30
0.0
  0
VERTEX
  8
0
 10
133.0
 20
182.75
 30
0.0
  0
SEQEND
  8
0
  0
CIRCLE
  8
0
 62
7
 10
151.6
 20
181.0
 30
0.0
 40
1.0
  0
ENDBLK
  0
BLOCK
  8
0
  2
SKETCH125
 70
0
 10
0.0
 20
0.0
 30
0.0
  3
SKETCH125
  0
POLYLINE
  8
0
 62
7
 70
0
 66
1
 10
0.0
 20
0.0
 30
0.0
  0
VERTEX
  8
0
 10
178.0
 20
230.0
 30
0.0
  0
VERTEX
  8
0
 10
178.0
 20
200.0
 30
0.0
  0
VERTEX
  8
0
 10
182.0
 20
200.0
 30
0.0
  0
VERTEX
  8
0
 10
182.0
 20
203.0
 30
0.0
  0
VERTEX
  8
0
 10
185.5
 20
203.0
 30
0.0
  0
VERTEX
  8
0
 10
185.5
 20
206.0
 30
0.0
  0
VERTEX
  8
0
 10
184.2
 20
206.0
 30
0.0
  0
VERTEX
  8
0
 10
184.2
 20
208.5
 30
0.0
  0
VERTEX
  8
0
 10
185.5
 20
208.5
 30
0.0
  0
VERTEX
  8
0
 10
185.5
 20
211.0
 30
0.0
  0
VERTEX
  8
0
 10
188.5
 20
211.0
 30
0.0
  0
VERTEX
  8
0
 10
188.5
 20
208.5
 30
0.0
  0
VERTEX
  8
0
 10
189.8
 20
208.5
 30
0.0
  0
VERTEX
  8
0
 10
189.8
 20
206.0
 30
0.0
  0
VERTEX
  8
0
 10
188.5
 20
206.0
 30
0.0
  0
VERTEX
  8
0
 10
188.5
 20
203.0
 30
0.0
  0
VERTEX
  8
0
 10
192.0
 20
203.0
 30
0.0
  0
VERTEX
  8
0
 10
192.0
 20
200.0
 30
0.0
  0
VERTEX
  8
0
 10
196.0
 20
200.0
 30
0.0
  0
VERTEX
  8
0
 10
196.0
 20
215.0
 30
0.0
  0
VERTEX
  8
0
 10
199.0
 20
215.0
 30
0.0
  0
VERTEX
  8
0
 10
199.0
 20
220.0
 30
0.0
  0
VERTEX
  8
0
 10
196.0
 20
220.0
 30
0.0
  0
VERTEX
  8
0
 10
196.0
 20
230.0
 30
0.0
  0
SEQEND
  8
0
  0
POLYLINE
  8
0
 62
7
 70
0
 66
1
 10
0.0
 20
0.0
 30
0.0
  0
VERTEX
  8
0
 10
196.0
 20
230.5
 30
0.0
  0
VERTEX
  8
0
 10
196.0
 20
240.0
 30
0.0
 42
0.414213562373
  0
VERTEX
  8
0
 10
194.0
 20
242.0
 30
0.0
  0
VERTEX
  8
0
 10
180.0
 20
242.0
 30
0.0
 42
0.414213562373
  0
VERTEX
  8
0
 10
178.0
 20
240.0
 30
0.0
  0
VERTEX
  8
0
 10
178.0
 20
230.5
 30
0.0
  0
SEQEND
  8
0
  0
CIRCLE
  8
0
 62
7
 10
187.0
 20
236.0
 30
0.0
 40
1.5
  0
ENDBLK
  0
BLOCK
  8
0
  2
SKETCH052
 70
0
 10
0.0
 20
0.0
 30
0.0
  3
SKETCH052
  0
POLYLINE
  8
0
 62
7
 70
0
 66
1
 10
0.0
 20
0.0
 30
0.0
  0
VERTEX
  8
0
 10
94.0
 20
50.25
 30
0.0
  0
VERTEX
  8
0
 10
94.0
 20
80.0
 30
0.0
 42
-0.414213562373
  0
VERTEX
  8
0
 10
109.0
 20
95.0
 30
0.0
  0
VERTEX
  8
0
 10
169.0
 20
95.0
 30
0.0
 42
-0.414213562373
  0
VERTEX
  8
0
 10
184.0
 20
80.0
 30
0.0
  0
VERTEX
  8
0
 10
184.0
 20
50.25
 30
0.0
  0
SEQEND
  8
0
  0
POLYLINE
  8
0
 62
7
 70
0
 66
1
 10
0.0
 20
0.0
 30
0.0
  0
VERTEX
  8
0
 10
94.0
 20
49.75
 30
0.0
  0
VERTEX
  8
0
 10
94.0
 20
20.0
 30
0.0
 42
0.414213562373
  0
VERTEX
  8
0
 10
109.0
 20
5.0
 30
0.0
  0
VERTEX
  8
0
 10
169.0
 20
5.0
 30
0.0
 42
0.414213562373
  0
VERTEX
  8
0
 10
184.0
 20
20.0
 30
0.0
  0
VERTEX
  8
0
 10
184.0
 20
49.75
 30
0.0
  0
SEQEND
  8
0
  0
POLYLINE
  8
0
 62
7
 70
1
 66
1
 10
0.0
 20
0.0
 30
0.0
  0
VERTEX
  8
0
 10
129.0
 20
11.0
 30
0.0
  0
VERTEX
  8
0
 10
149.0
 20
11.0
 30
0.0
  0
VERTEX
  8
0
 10
149.0
 20
8.0
 30
0.0
  0
VERTEX
  8
0
 10
129.0
 20
8.0
 30
0.0
  0
SEQEND
  8
0
  0
CIRCLE
  8
0
 62
7
 10
104.0
 20
85.0
 30
0.0
 40
1.5
  0
CIRCLE
  8
0
 62
7
 10
174.0
 20
85.0
 30
0.0
 40
1.5
  0
CIRCLE
  8
0
 62
7
 10
107.0
 20
20.0
 30
0.0
 40
1.5
  0
CIRCLE
  8
0
 62
7
 10
171.0
 20
20.0
 30
0.0
 40
1.5
  0
POLYLINE
  8
0
 62
7
 70
1
 66
1
 10
0.0
 20
0.0
 30
0.0
  0
VERTEX
  8
0
 10
97.0
 20
34.0
 30
0.0
  0
VERTEX
  8
0
 10
104.0
 20
34.0
 30
0.0
  0
VERTEX
  8
0
 10
104.0
 20
31.0
 30
0.0
  0
VERTEX
  8
0
 10
97.0
 20
31.0
 30
0.0
  0
SEQEND
  8
0
  0
POLYLINE
  8
0
 62
7
 70
1
 66
1
 10
0.0
 20
0.0
 30
0.0
  0
VERTEX
  8
0
 10
174.0
 20
34.0
 30
0.0
  0
VERTEX
  8
0
 10
181.0
 20
34.0
 30
0.0
  0
VERTEX
  8
0
 10
181.0
 20
31.0
 30
0.0
  0
VERTEX
  8
0
 10
174.0
 20
31.0
 30
0.0
  0
SEQEND
  8
0
  0
POLYLINE
  8
0
 62
7
 70
1
 66
1
 10
0.0
 20
0.0
 30
0.0
  0
VERTEX
  8
0
 10
129.0
 20
55.0
 30
0.0
  0
VERTEX
  8
0
 10
129.0
 20
45.0
 30
0.0
 42
1.0
  0
VERTEX
  8
0
 10
134.0
 20
45.0
 30
0.0
  0
VERTEX
  8
0
 10
134.0
 20
55.0
 30
0.0
 42
1.0
  0
SEQEND
  8
0
  0
POLYLINE
  8
0
 62
7
 70
1
 66
1
 10
0.0
 20
0.0
 30
0.0
  0
VERTEX
  8
0
 10
144.0
 20
55.0
 30
0.0
  0
VERTEX
  8
0
 10
144.0
 20
45.0
 30
0.0
 42
1.0
  0
VERTEX
  8
0
 10
149.0
 20
45.0
 30
0.0
  0
VERTEX
  8
0
 10
149.0
 20
55.0
 30
0.0
 42
1.0
  0
SEQEND
  8
0
  0
POLYLINE
  8
0
 62
7
 70
1
 66
1
 10
0.0
 20
0.0
 30
0.0
  0
VERTEX
  8
0
 10
104.0
 20
62.5
 30
0.0
  0
VERTEX
  8
0
 10
116.1
 20
62.5
 30
0.0
  0
VERTEX
  8
0
 10
116.1
 20
40.0
 30
0.0
  0
VERTEX
  8
0
 10
104.0
 20
40.0
 30
0.0
  0
SEQEND
  8
0
  0
POLYLINE
  8
0
 62
7
 70
1
 66
1
 10
0.0
 20
0.0
 30
0.0
  0
VERTEX
  8
0
 10
161.9
 20
62.5
 30
0.0
  0
VERTEX
  8
0
 10
174.0
 20
62.5
 30
0.0
  0
VERTEX
  8
0
 10
174.0
 20
40.0
 30
0.0
  0
VERTEX
  8
0
 10
161.9
 20
40.0
 30
0.0
  0
SEQEND
  8
0
  0
CIRCLE
  8
0
 62
7
 10
110.05
 20
65.0
 30
0.0
 40
1.0
  0
CIRCLE
  8
0
 62
7
 10
110.05
 20
37.5
 30
0.0
 40
1.0
  0
CIRCLE
  8
0
 62
7
 10
167.95
 20
37.5
 30
0.0
 40
1.0
  0
CIRCLE
  8
0
 62
7
 10
167.95
 20
65.0
 30
0.0
 40
1.0
  0
POLYLINE
  8
0
 62
7
 70
1
 66
1
 10
0.0
 20
0.0
 30
0.0
  0
VERTEX
  8
0
 10
138.0
 20
36.7320508076
 30
0.0
  0
VERTEX
  8
0
 10
139.0
 20
35.0
 30
0.0
  0
VERTEX
  8
0
 10
140.0
 20
36.7320508076
 30
0.0
  0
SEQEND
  8
0
  0
POLYLINE
  8
0
 62
7
 70
1
 66
1
 10
0.0
 20
0.0
 30
0.0
  0
VERTEX
  8
0
 10
97.0
 20
75.0
 30
0.0
  0
VERTEX
  8
0
 10
104.0
 20
75.0
 30
0.0
  0
VERTEX
  8
0
 10
104.0
 20
72.0
 30
0.0
  0
VERTEX
  8
0
 10
97.0
 20
72.0
 30
0.0
  0
SEQEND
  8
0
  0
POLYLINE
  8
0
 62
7
 70
1
 66
1
 10
0.0
 20
0.0
 30
0.0
  0
VERTEX
  8
0
 10
174.0
 20
75.0
 30
0.0
  0
VERTEX
  8
0
 10
181.0
 20
75.0
 30
0.0
  0
VERTEX
  8
0
 10
181.0
 20
72.0
 30
0.0
  0
VERTEX
  8
0
 10
174.0
 20
72.0
 30
0.0
  0
SEQEND
  8
0
  0
ENDBLK
  0
BLOCK
  8
0
  2
SKETCH062
 70
0
 10
0.0
 20
0.0
 30
0.0
  3
SKETCH062
  0
POLYLINE
  8
0
 62
7
 70
0
 66
1
 10
0.0
 20
0.0
 30
0.0
  0
VERTEX
  8
0
 10
34.0
 20
180.749999817
 30
0.0
  0
VERTEX
  8
0
 10
34.0
 20
173.999999634
 30
0.0
 42
-0.414213508722
  0
VERTEX
  8
0
 10
32.0
 20
172.0
 30
0.0
  0
VERTEX
  8
0
 10
20.0
 20
172.0
 30
0.0
 42
0.414213562373
  0
VERTEX
  8
0
 10
18.0
 20
170.0
 30
0.0
  0
VERTEX
  8
0
 10
18.0
 20
156.0
 30
0.0
  0
VERTEX
  8
0
 10
15.0
 20
156.0
 30
0.0
  0
VERTEX
  8
0
 10
15.0
 20
153.0
 30
0.0
  0
VERTEX
  8
0
 10
8.0
 20
153.0
 30
0.0
  0
VERTEX
  8
0
 10
8.0
 20
156.0
 30
0.0
  0
VERTEX
  8
0
 10
5.0
 20
156.0
 30
0.0
  0
VERTEX
  8
0
 10
5.0
 20
180.75
 30
0.0
  0
SEQEND
  8
0
  0
POLYLINE
  8
0
 62
7
 70
0
 66
1
 10
0.0
 20
0.0
 30
0.0
  0
VERTEX
  8
0
 10
5.0
 20
181.25
 30
0.0
  0
VERTEX
  8
0
 10
5.0
 20
206.0
 30
0.0
  0
VERTEX
  8
0
 10
8.0
 20
206.0
 30
0.0
  0
VERTEX
  8
0
 10
8.0
 20
209.0
 30
0.0
  0
VERTEX
  8
0
 10
15.0
 20
209.0
 30
0.0
  0
VERTEX
  8
0
 10
15.0
 20
206.0
 30
0.0
  0
VERTEX
  8
0
 10
18.0
 20
206.0
 30
0.0
  0
VERTEX
  8
0
 10
18.0
 20
192.0
 30
0.0
 42
0.414213562373
  0
VERTEX
  8
0
 10
20.0
 20
190.0
 30
0.0
  0
VERTEX
  8
0
 10
32.0
 20
190.0
 30
0.0
 42
-0.414213562373
  0
VERTEX
  8
0
 10
34.0
 20
188.0
 30
0.0
  0
VERTEX
  8
0
 10
34.0
 20
181.249999817
 30
0.0
  0
SEQEND
  8
0
  0
CIRCLE
  8
0
 62
7
 10
25.0
 20
181.0
 30
0.0
 40
3.4
  0
ENDBLK
  0
BLOCK
  8
0
  2
SKETCH025
 70
0
 10
0.0
 20
0.0
 30
0.0
  3
SKETCH025
  0
POLYLINE
  8
0
 62
7
 70
0
 66
1
 10
0.0
 20
0.0
 30
0.0
  0
VERTEX
  8
0
 10
19.0
 20
269.25
 30
0.0
  0
VERTEX
  8
0
 10
19.0
 20
283.0
 30
0.0
 42
-0.414213562373
  0
VERTEX
  8
0
 10
21.0
 20
285.0
 30
0.0
  0
VERTEX
  8
0
 10
36.0
 20
285.0
 30
0.0
 42
0.414213562373
  0
VERTEX
  8
0
 10
38.0
 20
287.0
 30
0.0
  0
VERTEX
  8
0
 10
38.0
 20
294.0
 30
0.0
  0
VERTEX
  8
0
 10
5.0
 20
294.0
 30
0.0
  0
VERTEX
  8
0
 10
5.0
 20
269.25
 30
0.0
  0
SEQEND
  8
0
  0
POLYLINE
  8
0
 62
7
 70
0
 66
1
 10
0.0
 20
0.0
 30
0.0
  0
VERTEX
  8
0
 10
5.0
 20
268.75
 30
0.0
  0
VERTEX
  8
0
 10
5.0
 20
244.0
 30
0.0
 42
0.414213562373
  0
VERTEX
  8
0
 10
7.0
 20
242.0
 30
0.0
  0
VERTEX
  8
0
 10
36.0
 20
242.0
 30
0.0
 42
0.414213562373
  0
VERTEX
  8
0
 10
38.0
 20
244.0
 30
0.0
  0
VERTEX
  8
0
 10
38.0
 20
249.0
 30
0.0
 42
0.414213562373
  0
VERTEX
  8
0
 10
36.0
 20
251.0
 30
0.0
  0
VERTEX
  8
0
 10
21.0
 20
251.0
 30
0.0
 42
-0.414213562373
  0
VERTEX
  8
0
 10
19.0
 20
253.0
 30
0.0
  0
VERTEX
  8
0
 10
19.0
 20
268.75
 30
0.0
  0
SEQEND
  8
0
  0
CIRCLE
  8
0
 62
7
 10
21.5
 20
289.5
 30
0.0
 40
1.5
  0
CIRCLE
  8
0
 62
7
 10
21.5
 20
246.5
 30
0.0
 40
1.5
  0
POLYLINE
  8
0
 62
7
 70
1
 66
1
 10
0.0
 20
0.0
 30
0.0
  0
VERTEX
  8
0
 10
29.0
 20
291.0
 30
0.0
  0
VERTEX
  8
0
 10
34.0
 20
291.0
 30
0.0
  0
VERTEX
  8
0
 10
34.0
 20
288.0
 30
0.0
  0
VERTEX
  8
0
 10
29.0
 20
288.0
 30
0.0
  0
SEQEND
  8
0
  0
POLYLINE
  8
0
 62
7
 70
1
 66
1
 10
0.0
 20
0.0
 30
0.0
  0
VERTEX
  8
0
 10
9.0
 20
291.0
 30
0.0
  0
VERTEX
  8
0
 10
14.0
 20
291.0
 30
0.0
  0
VERTEX
  8
0
 10
14.0
 20
288.0
 30
0.0
  0
VERTEX
  8
0
 10
9.0
 20
288.0
 30
0.0
  0
SEQEND
  8
0
  0
POLYLINE
  8
0
 62
7
 70
1
 66
1
 10
0.0
 20
0.0
 30
0.0
  0
VERTEX
  8
0
 10
9.0
 20
248.0
 30
0.0
  0
VERTEX
  8
0
 10
14.0
 20
248.0
 30
0.0
  0
VERTEX
  8
0
 10
14.0
 20
245.0
 30
0.0
  0
VERTEX
  8
0
 10
9.0
 20
245.0
 30
0.0
  0
SEQEND
  8
0
  0
POLYLINE
  8
0
 62
7
 70
1
 66
1
 10
0.0
 20
0.0
 30
0.0
  0
VERTEX
  8
0
 10
29.0
 20
248.0
 30
0.0
  0
VERTEX
  8
0
 10
34.0
 20
248.0
 30
0.0
  0
VERTEX
  8
0
 10
34.0
 20
245.0
 30
0.0
  0
VERTEX
  8
0
 10
29.0
 20
245.0
 30
0.0
  0
SEQEND
  8
0
  0
POLYLINE
  8
0
 62
7
 70
1
 66
1
 10
0.0
 20
0.0
 30
0.0
  0
VERTEX
  8
0
 10
12.0
 20
257.0
 30
0.0
  0
VERTEX
  8
0
 10
13.0
 20
258.732050808
 30
0.0
  0
VERTEX
  8
0
 10
11.0
 20
258.732050808
 30
0.0
  0
SEQEND
  8
0
  0
ENDBLK
  0
BLOCK
  8
0
  2
SKETCH039
 70
0
 10
0.0
 20
0.0
 30
0.0
  3
SKETCH039
  0
POLYLINE
  8
0
 62
7
 70
0
 66
1
 10
0.0
 20
0.0
 30
0.0
  0
VERTEX
  8
0
 10
196.0
 20
265.75
 30
0.0
  0
VERTEX
  8
0
 10
196.0
 20
280.0
 30
0.0
  0
VERTEX
  8
0
 10
192.0
 20
280.0
 30
0.0
  0
VERTEX
  8
0
 10
192.0
 20
283.0
 30
0.0
  0
VERTEX
  8
0
 10
196.0
 20
283.0
 30
0.0
  0
VERTEX
  8
0
 10
196.0
 20
286.0
 30
0.0
 42
0.414213562373
  0
VERTEX
  8
0
 10
194.0
 20
288.0
 30
0.0
  0
VERTEX
  8
0
 10
180.0
 20
288.0
 30
0.0
 42
0.414213562373
  0
VERTEX
  8
0
 10
178.0
 20
286.0
 30
0.0
  0
VERTEX
  8
0
 10
178.0
 20
283.0
 30
0.0
  0
VERTEX
  8
0
 10
182.0
 20
283.0
 30
0.0
  0
VERTEX
  8
0
 10
182.0
 20
280.0
 30
0.0
  0
VERTEX
  8
0
 10
178.0
 20
280.0
 30
0.0
  0
VERTEX
  8
0
 10
178.0
 20
265.75
 30
0.0
  0
SEQEND
  8
0
  0
POLYLINE
  8
0
 62
7
 70
0
 66
1
 10
0.0
 20
0.0
 30
0.0
  0
VERTEX
  8
0
 10
178.0
 20
265.25
 30
0.0
  0
VERTEX
  8
0
 10
178.0
 20
251.0
 30
0.0
  0
VERTEX
  8
0
 10
182.0
 20
251.0
 30
0.0
  0
VERTEX
  8
0
 10
182.0
 20
248.0
 30
0.0
  0
VERTEX
  8
0
 10
178.0
 20
248.0
 30
0.0
  0
VERTEX
  8
0
 10
178.0
 20
245.0
 30
0.0
 42
0.414213562373
  0
VERTEX
  8
0
 10
180.0
 20
243.0
 30
0.0
  0
VERTEX
  8
0
 10
194.0
 20
243.0
 30
0.0
 42
0.414213562373
  0
VERTEX
  8
0
 10
196.0
 20
245.0
 30
0.0
  0
VERTEX
  8
0
 10
196.0
 20
248.0
 30
0.0
  0
VERTEX
  8
0
 10
192.0
 20
248.0
 30
0.0
  0
VERTEX
  8
0
 10
192.0
 20
251.0
 30
0.0
  0
VERTEX
  8
0
 10
196.0
 20
251.0
 30
0.0
  0
VERTEX
  8
0
 10
196.0
 20
265.25
 30
0.0
  0
SEQEND
  8
0
  0
CIRCLE
  8
0
 62
7
 10
187.0
 20
249.5
 30
0.0
 40
1.5
  0
CIRCLE
  8
0
 62
7
 10
187.0
 20
281.5
 30
0.0
 40
1.5
  0
CIRCLE
  8
0
 62
7
 10
187.0
 20
271.0
 30
0.0
 40
3.4
  0
ENDBLK
  0
BLOCK
  8
0
  2
SKETCH046
 70
0
 10
0.0
 20
0.0
 30
0.0
  3
SKETCH046
  0
POLYLINE
  8
0
 62
7
 70
0
 66
1
 10
0.0
 20
0.0
 30
0.0
  0
VERTEX
  8
0
 10
169.0
 20
111.25
 30
0.0
  0
VERTEX
  8
0
 10
169.0
 20
121.0
 30
0.0
 42
0.414213562373
  0
VERTEX
  8
0
 10
167.0
 20
123.0
 30
0.0
  0
VERTEX
  8
0
 10
138.0
 20
123.0
 30
0.0
 42
0.414213562373
  0
VERTEX
  8
0
 10
136.0
 20
121.0
 30
0.0
  0
VERTEX
  8
0
 10
136.0
 20
111.25
 30
0.0
  0
SEQEND
  8
0
  0
POLYLINE
  8
0
 62
7
 70
0
 66
1
 10
0.0
 20
0.0
 30
0.0
  0
VERTEX
  8
0
 10
136.0
 20
110.75
 30
0.0
  0
VERTEX
  8
0
 10
136.0
 20
101.0
 30
0.0
  0
VERTEX
  8
0
 10
140.0
 20
101.0
 30
0.0
  0
VERTEX
  8
0
 10
140.0
 20
96.0
 30
0.0
  0
VERTEX
  8
0
 10
145.0
 20
96.0
 30
0.0
  0
VERTEX
  8
0
 10
145.0
 20
101.0
 30
0.0
  0
VERTEX
  8
0
 10
151.0
 20
101.0
 30
0.0
  0
VERTEX
  8
0
 10
151.0
 20
104.0
 30
0.0
  0
VERTEX
  8
0
 10
149.7
 20
104.0
 30
0.0
  0
VERTEX
  8
0
 10
149.7
 20
106.5
 30
0.0
  0
VERTEX
  8
0
 10
151.0
 20
106.5
 30
0.0
  0
VERTEX
  8
0
 10
151.0
 20
109.0
 30
0.0
  0
VERTEX
  8
0
 10
154.0
 20
109.0
 30
0.0
  0
VERTEX
  8
0
 10
154.0
 20
106.5
 30
0.0
  0
VERTEX
  8
0
 10
155.3
 20
106.5
 30
0.0
  0
VERTEX
  8
0
 10
155.3
 20
104.0
 30
0.0
  0
VERTEX
  8
0
 10
154.0
 20
104.0
 30
0.0
  0
VERTEX
  8
0
 10
154.0
 20
101.0
 30
0.0
  0
VERTEX
  8
0
 10
160.0
 20
101.0
 30
0.0
  0
VERTEX
  8
0
 10
160.0
 20
96.0
 30
0.0
  0
VERTEX
  8
0
 10
165.0
 20
96.0
 30
0.0
  0
VERTEX
  8
0
 10
165.0
 20
101.0
 30
0.0
  0
VERTEX
  8
0
 10
169.0
 20
101.0
 30
0.0
  0
VERTEX
  8
0
 10
169.0
 20
110.75
 30
0.0
  0
SEQEND
  8
0
  0
CIRCLE
  8
0
 62
7
 10
160.0
 20
117.0
 30
0.0
 40
1.5
  0
ENDBLK
  0
BLOCK
  8
0
  2
SKETCH051
 70
0
 10
0.0
 20
0.0
 30
0.0
  3
SKETCH051
  0
POLYLINE
  8
0
 62
7
 70
0
 66
1
 10
0.0
 20
0.0
 30
0.0
  0
VERTEX
  8
0
 10
3.0
 20
50.25
 30
0.0
  0
VERTEX
  8
0
 10
3.0
 20
80.0
 30
0.0
 42
-0.414213562373
  0
VERTEX
  8
0
 10
18.0
 20
95.0
 30
0.0
  0
VERTEX
  8
0
 10
78.0
 20
95.0
 30
0.0
 42
-0.414213562373
  0
VERTEX
  8
0
 10
93.0
 20
80.0
 30
0.0
  0
VERTEX
  8
0
 10
93.0
 20
50.25
 30
0.0
  0
SEQEND
  8
0
  0
POLYLINE
  8
0
 62
7
 70
0
 66
1
 10
0.0
 20
0.0
 30
0.0
  0
VERTEX
  8
0
 10
3.0
 20
49.75
 30
0.0
  0
VERTEX
  8
0
 10
3.0
 20
20.0
 30
0.0
 42
0.414213562373
  0
VERTEX
  8
0
 10
18.0
 20
5.0
 30
0.0
  0
VERTEX
  8
0
 10
78.0
 20
5.0
 30
0.0
 42
0.414213562373
  0
VERTEX
  8
0
 10
93.0
 20
20.0
 30
0.0
  0
VERTEX
  8
0
 10
93.0
 20
49.75
 30
0.0
  0
SEQEND
  8
0
  0
POLYLINE
  8
0
 62
7
 70
1
 66
1
 10
0.0
 20
0.0
 30
0.0
  0
VERTEX
  8
0
 10
38.0
 20
11.0
 30
0.0
  0
VERTEX
  8
0
 10
58.0
 20
11.0
 30
0.0
  0
VERTEX
  8
0
 10
58.0
 20
8.0
 30
0.0
  0
VERTEX
  8
0
 10
38.0
 20
8.0
 30
0.0
  0
SEQEND
  8
0
  0
CIRCLE
  8
0
 62
7
 10
38.5
 20
21.0
 30
0.0
 40
1.5
  0
CIRCLE
  8
0
 62
7
 10
23.6
 20
72.0
 30
0.0
 40
1.5
  0
CIRCLE
  8
0
 62
7
 10
72.1
 20
73.0
 30
0.0
 40
1.5
  0
CIRCLE
  8
0
 62
7
 10
13.0
 20
85.0
 30
0.0
 40
1.5
  0
CIRCLE
  8
0
 62
7
 10
83.0
 20
85.0
 30
0.0
 40
1.5
  0
CIRCLE
  8
0
 62
7
 10
16.0
 20
20.0
 30
0.0
 40
1.5
  0
CIRCLE
  8
0
 62
7
 10
80.0
 20
20.0
 30
0.0
 40
1.5
  0
POLYLINE
  8
0
 62
7
 70
1
 66
1
 10
0.0
 20
0.0
 30
0.0
  0
VERTEX
  8
0
 10
6.0
 20
34.0
 30
0.0
  0
VERTEX
  8
0
 10
13.0
 20
34.0
 30
0.0
  0
VERTEX
  8
0
 10
13.0
 20
31.0
 30
0.0
  0
VERTEX
  8
0
 10
6.0
 20
31.0
 30
0.0
  0
SEQEND
  8
0
  0
POLYLINE
  8
0
 62
7
 70
1
 66
1
 10
0.0
 20
0.0
 30
0.0
  0
VERTEX
  8
0
 10
83.0
 20
34.0
 30
0.0
  0
VERTEX
  8
0
 10
90.0
 20
34.0
 30
0.0
  0
VERTEX
  8
0
 10
90.0
 20
31.0
 30
0.0
  0
VERTEX
  8
0
 10
83.0
 20
31.0
 30
0.0
  0
SEQEND
  8
0
  0
POLYLINE
  8
0
 62
7
 70
1
 66
1
 10
0.0
 20
0.0
 30
0.0
  0
VERTEX
  8
0
 10
44.5
 20
90.0
 30
0.0
  0
VERTEX
  8
0
 10
51.5
 20
90.0
 30
0.0
 42
-1.0
  0
VERTEX
  8
0
 10
51.5
 20
86.0
 30
0.0
  0
VERTEX
  8
0
 10
44.5
 20
86.0
 30
0.0
 42
-1.0
  0
SEQEND
  8
0
  0
POLYLINE
  8
0
 62
7
 70
1
 66
1
 10
0.0
 20
0.0
 30
0.0
  0
VERTEX
  8
0
 10
47.0
 20
36.7320508076
 30
0.0
  0
VERTEX
  8
0
 10
49.0
 20
36.7320508076
 30
0.0
  0
VERTEX
  8
0
 10
48.0
 20
35.0
 30
0.0
  0
SEQEND
  8
0
  0
POLYLINE
  8
0
 62
7
 70
1
 66
1
 10
0.0
 20
0.0
 30
0.0
  0
VERTEX
  8
0
 10
83.0
 20
75.0
 30
0.0
  0
VERTEX
  8
0
 10
90.0
 20
75.0
 30
0.0
  0
VERTEX
  8
0
 10
90.0
 20
72.0
 30
0.0
  0
VERTEX
  8
0
 10
83.0
 20
72.0
 30
0.0
  0
SEQEND
  8
0
  0
POLYLINE
  8
0
 62
7
 70
1
 66
1
 10
0.0
 20
0.0
 30
0.0
  0
VERTEX
  8
0
 10
6.0
 20
75.0
 30
0.0
  0
VERTEX
  8
0
 10
13.0
 20
75.0
 30
0.0
  0
VERTEX
  8
0
 10
13.0
 20
72.0
 30
0.0
  0
VERTEX
  8
0
 10
6.0
 20
72.0
 30
0.0
  0
SEQEND
  8
0
  0
POLYLINE
  8
0
 62
7
 70
1
 66
1
 10
0.0
 20
0.0
 30
0.0
  0
VERTEX
  8
0
 10
46.55
 20
18.9
 30
0.0
  0
VERTEX
  8
0
 10
49.45
 20
18.9
 30
0.0
  0
VERTEX
  8
0
 10
49.45
 20
16.0
 30
0.0
  0
VERTEX
  8
0
 10
46.55
 20
16.0
 30
0.0
  0
SEQEND
  8
0
  0
ENDBLK
  0
BLOCK
  8
0
  2
SKETCH067
 70
0
 10
0.0
 20
0.0
 30
0.0
  3
SKETCH067
  0
POLYLINE
  8
0
 62
7
 70
0
 66
1
 10
0.0
 20
0.0
 30
0.0
  0
VERTEX
  8
0
 10
49.0
 20
199.75
 30
0.0
  0
VERTEX
  8
0
 10
49.0
 20
191.0
 30
0.0
  0
VERTEX
  8
0
 10
22.0
 20
191.0
 30
0.0
 42
-0.414213562373
  0
VERTEX
  8
0
 10
20.0
 20
193.0
 30
0.0
  0
VERTEX
  8
0
 10
20.0
 20
199.75
 30
0.0
  0
SEQEND
  8
0
  0
POLYLINE
  8
0
 62
7
 70
0
 66
1
 10
0.0
 20
0.0
 30
0.0
  0
VERTEX
  8
0
 10
20.0
 20
200.25
 30
0.0
  0
VERTEX
  8
0
 10
20.0
 20
207.0
 30
0.0
 42
-0.414213562373
  0
VERTEX
  8
0
 10
22.0
 20
209.0
 30
0.0
  0
VERTEX
  8
0
 10
49.0
 20
209.0
 30
0.0
  0
VERTEX
  8
0
 10
49.0
 20
200.25
 30
0.0
  0
SEQEND
  8
0
  0
POLYLINE
  8
0
 62
7
 70
1
 66
1
 10
0.0
 20
0.0
 30
0.0
  0
VERTEX
  8
0
 10
29.3431192661
 20
203.382642335
 30
0.0
  0
VERTEX
  8
0
 10
45.5266055046
 20
201.741065908
 30
0.0
 42
-0.903696114115
  0
VERTEX
  8
0
 10
45.5266055046
 20
198.258934092
 30
0.0
  0
VERTEX
  8
0
 10
29.3431192661
 20
196.617357665
 30
0.0
 42
-1.10656667035
  0
SEQEND
  8
0
  0
ENDBLK
  0
BLOCK
  8
0
  2
SKETCH063
 70
0
 10
0.0
 20
0.0
 30
0.0
  3
SKETCH063
  0
POLYLINE
  8
0
 62
7
 70
0
 66
1
 10
0.0
 20
0.0
 30
0.0
  0
VERTEX
  8
0
 10
35.0
 20
181.250000625
 30
0.0
  0
VERTEX
  8
0
 10
35.0
 20
188.0
 30
0.0
 42
-0.414213562373
  0
VERTEX
  8
0
 10
37.0
 20
190.0
 30
0.0
  0
VERTEX
  8
0
 10
49.0
 20
190.0
 30
0.0
 42
0.414213562373
  0
VERTEX
  8
0
 10
51.0
 20
192.0
 30
0.0
  0
VERTEX
  8
0
 10
51.0
 20
206.0
 30
0.0
  0
VERTEX
  8
0
 10
54.0
 20
206.0
 30
0.0
  0
VERTEX
  8
0
 10
54.0
 20
209.0
 30
0.0
  0
VERTEX
  8
0
 10
61.0
 20
209.0
 30
0.0
  0
VERTEX
  8
0
 10
61.0
 20
206.0
 30
0.0
  0
VERTEX
  8
0
 10
64.0
 20
206.0
 30
0.0
  0
VERTEX
  8
0
 10
64.0
 20
181.25
 30
0.0
  0
SEQEND
  8
0
  0
POLYLINE
  8
0
 62
7
 70
0
 66
1
 10
0.0
 20
0.0
 30
0.0
  0
VERTEX
  8
0
 10
64.0
 20
180.75
 30
0.0
  0
VERTEX
  8
0
 10
64.0
 20
156.0
 30
0.0
  0
VERTEX
  8
0
 10
61.0
 20
156.0
 30
0.0
  0
VERTEX
  8
0
 10
61.0
 20
153.0
 30
0.0
  0
VERTEX
  8
0
 10
54.0
 20
153.0
 30
0.0
  0
VERTEX
  8
0
 10
54.0
 20
156.0
 30
0.0
  0
VERTEX
  8
0
 10
51.0
 20
156.0
 30
0.0
  0
VERTEX
  8
0
 10
51.0
 20
170.0
 30
0.0
 42
0.414213562373
  0
VERTEX
  8
0
 10
49.0
 20
172.0
 30
0.0
  0
VERTEX
  8
0
 10
37.0
 20
172.0
 30
0.0
 42
-0.414213745352
  0
VERTEX
  8
0
 10
35.0
 20
174.000001249
 30
0.0
  0
VERTEX
  8
0
 10
35.0
 20
180.750000625
 30
0.0
  0
SEQEND
  8
0
  0
CIRCLE
  8
0
 62
7
 10
44.0
 20
181.0
 30
0.0
 40
3.4
  0
ENDBLK
  0
BLOCK
  8
0
  2
SKETCH064
 70
0
 10
0.0
 20
0.0
 30
0.0
  3
SKETCH064
  0
POLYLINE
  8
0
 62
7
 70
0
 66
1
 10
0.0
 20
0.0
 30
0.0
  0
VERTEX
  8
0
 10
49.0
 20
161.75
 30
0.0
  0
VERTEX
  8
0
 10
49.0
 20
153.0
 30
0.0
  0
VERTEX
  8
0
 10
22.0
 20
153.0
 30
0.0
 42
-0.414213562373
  0
VERTEX
  8
0
 10
20.0
 20
155.0
 30
0.0
  0
VERTEX
  8
0
 10
20.0
 20
161.75
 30
0.0
  0
SEQEND
  8
0
  0
POLYLINE
  8
0
 62
7
 70
0
 66
1
 10
0.0
 20
0.0
 30
0.0
  0
VERTEX
  8
0
 10
20.0
 20
162.25
 30
0.0
  0
VERTEX
  8
0
 10
20.0
 20
169.0
 30
0.0
 42
-0.414213562373
  0
VERTEX
  8
0
 10
22.0
 20
171.0
 30
0.0
  0
VERTEX
  8
0
 10
49.0
 20
171.0
 30
0.0
  0
VERTEX
  8
0
 10
49.0
 20
162.25
 30
0.0
  0
SEQEND
  8
0
  0
POLYLINE
  8
0
 62
7
 70
1
 66
1
 10
0.0
 20
0.0
 30
0.0
  0
VERTEX
  8
0
 10
29.3431192661
 20
165.382642335
 30
0.0
  0
VERTEX
  8
0
 10
45.5266055046
 20
163.741065908
 30
0.0
 42
-0.903696114115
  0
VERTEX
  8
0
 10
45.5266055046
 20
160.258934092
 30
0.0
  0
VERTEX
  8
0
 10
29.3431192661
 20
158.617357665
 30
0.0
 42
-1.10656667035
  0
SEQEND
  8
0
  0
ENDBLK
  0
BLOCK
  8
0
  2
SKETCH083
 70
0
 10
0.0
 20
0.0
 30
0.0
  3
SKETCH083
  0
POLYLINE
  8
0
 62
7
 70
0
 66
1
 10
0.0
 20
0.0
 30
0.0
  0
VERTEX
  8
0
 10
106.0
 20
124.249999034
 30
0.0
  0
VERTEX
  8
0
 10
106.0
 20
131.0
 30
0.0
 42
-0.414213562373
  0
VERTEX
  8
0
 10
108.0
 20
133.0
 30
0.0
  0
VERTEX
  8
0
 10
120.0
 20
133.0
 30
0.0
 42
0.414213562373
  0
VERTEX
  8
0
 10
122.0
 20
135.0
 30
0.0
  0
VERTEX
  8
0
 10
122.0
 20
149.0
 30
0.0
  0
VERTEX
  8
0
 10
125.0
 20
149.0
 30
0.0
  0
VERTEX
  8
0
 10
125.0
 20
152.0
 30
0.0
  0
VERTEX
  8
0
 10
132.0
 20
152.0
 30
0.0
  0
VERTEX
  8
0
 10
132.0
 20
149.0
 30
0.0
  0
VERTEX
  8
0
 10
135.0
 20
149.0
 30
0.0
  0
VERTEX
  8
0
 10
135.0
 20
124.25
 30
0.0
  0
SEQEND
  8
0
  0
POLYLINE
  8
0
 62
7
 70
0
 66
1
 10
0.0
 20
0.0
 30
0.0
  0
VERTEX
  8
0
 10
135.0
 20
123.75
 30
0.0
  0
VERTEX
  8
0
 10
135.0
 20
99.0
 30
0.0
  0
VERTEX
  8
0
 10
132.0
 20
99.0
 30
0.0
  0
VERTEX
  8
0
 10
132.0
 20
96.0
 30
0.0
  0
VERTEX
  8
0
 10
125.0
 20
96.0
 30
0.0
  0
VERTEX
  8
0
 10
125.0
 20
99.0
 30
0.0
  0
VERTEX
  8
0
 10
122.0
 20
99.0
 30
0.0
  0
VERTEX
  8
0
 10
122.0
 20
113.0
 30
0.0
 42
0.414213562373
  0
VERTEX
  8
0
 10
120.0
 20
115.0
 30
0.0
  0
VERTEX
  8
0
 10
108.0
 20
115.0
 30
0.0
 42
-0.414213279355
  0
VERTEX
  8
0
 10
106.0
 20
116.999998067
 30
0.0
  0
VERTEX
  8
0
 10
106.0
 20
123.749999034
 30
0.0
  0
SEQEND
  8
0
  0
CIRCLE
  8
0
 62
7
 10
115.0
 20
124.0
 30
0.0
 40
1.5
  0
ENDBLK
  0
ENDSEC
  0
SECTION
  2
ENTITIES
  0
INSERT
  2
SKETCH128
  8
0
 62
7
 10
0.0
 20
0.0
 30
0.0
  0
INSERT
  2
SKETCH093
  8
0
 62
7
 10
0.0
 20
0.0
 30
0.0
  0
INSERT
  2
SKETCH100
  8
0
 62
7
 10
0.0
 20
0.0
 30
0.0
  0
INSERT
  2
SKETCH095
  8
0
 62
7
 10
0.0
 20
0.0
 30
0.0
  0
INSERT
  2
SKETCH099
  8
0
 62
7
 10
0.0
 20
0.0
 30
0.0
  0
INSERT
  2
SKETCH101
  8
0
 62
7
 10
0.0
 20
0.0
 30
0.0
  0
INSERT
  2
SKETCH084
  8
0
 62
7
 10
0.0
 20
0.0
 30
0.0
  0
INSERT
  2
SKETCH098
  8
0
 62
7
 10
0.0
 20
0.0
 30
0.0
  0
INSERT
  2
SKETCH094
  8
0
 62
7
 10
0.0
 20
0.0
 30
0.0
  0
INSERT
  2
SKETCH102
  8
0
 62
7
 10
0.0
 20
0.0
 30
0.0
  0
INSERT
  2
SKETCH103
  8
0
 62
7
 10
0.0
 20
0.0
 30
0.0
  0
INSERT
  2
SKETCH104
  8
0
 62
7
 10
0.0
 20
0.0
 30
0.0
  0
INSERT
  2
SKETCH105
  8
0
 62
7
 10
0.0
 20
0.0
 30
0.0
  0
INSERT
  2
SKETCH109
  8
0
 62
7
 10
0.0
 20
0.0
 30
0.0
  0
INSERT
  2
SKETCH107
  8
0
 62
7
 10
0.0
 20
0.0
 30
0.0
  0
INSERT
  2
SKETCH003
  8
0
 62
7
 10
0.0
 20
0.0
 30
0.0
  0
INSERT
  2
SKETCH110
  8
0
 62
7
 10
0.0
 20
0.0
 30
0.0
  0
INSERT
  2
SKETCH116
  8
0
 62
7
 10
0.0
 20
0.0
 30
0.0
  0
INSERT
  2
SKETCH108
  8
0
 62
7
 10
0.0
 20
0.0
 30
0.0
  0
INSERT
  2
SKETCH112
  8
0
 62
7
 10
0.0
 20
0.0
 30
0.0
  0
INSERT
  2
SKETCH117
  8
0
 62
7
 10
0.0
 20
0.0
 30
0.0
  0
INSERT
  2
SKETCH119
  8
0
 62
7
 10
0.0
 20
0.0
 30
0.0
  0
POLYLINE
  8
0
 62
7
 70
0
 66
1
 10
0.0
 20
0.0
 30
0.0
  0
VERTEX
  8
0
 10
196.75
 20
69.0
 30
0.0
  0
VERTEX
  8
0
 10
194.0
 20
69.0
 30
0.0
  0
VERTEX
  8
0
 10
194.0
 20
66.0
 30
0.0
  0
VERTEX
  8
0
 10
191.0
 20
66.0
 30
0.0
  0
VERTEX
  8
0
 10
191.0
 20
69.0
 30
0.0
  0
VERTEX
  8
0
 10
185.0
 20
69.0
 30
0.0
  0
VERTEX
  8
0
 10
198.567731326
 20
92.5
 30
0.0
 42
-0.267949192431
  0
VERTEX
  8
0
 10
201.165807537
 20
94.0
 30
0.0
  0
VERTEX
  8
0
 10
203.165807537
 20
94.0
 30
0.0
 42
-0.493145426031
  0
VERTEX
  8
0
 10
204.131733364
 20
92.7411809549
 30
0.0
  0
VERTEX
  8
0
 10
199.961302372
 20
77.1769206055
 30
0.0
 42
-0.339454258863
  0
VERTEX
  8
0
 10
198.995376546
 20
76.4357396506
 30
0.0
  0
VERTEX
  8
0
 10
197.995376546
 20
76.4357396506
 30
0.0
 42
0.553353269233
  0
VERTEX
  8
0
 10
197.095303795
 20
75.0
 30
0.0
  0
VERTEX
  8
0
 10
200.0
 20
69.0
 30
0.0
  0
VERTEX
  8
0
 10
197.25
 20
69.0
 30
0.0
  0
SEQEND
  8
0
  0
INSERT
  2
SKETCH088
  8
0
 62
7
 10
0.0
 20
0.0
 30
0.0
  0
INSERT
  2
SKETCH124
  8
0
 62
7
 10
0.0
 20
0.0
 30
0.0
  0
INSERT
  2
SKETCH127
  8
0
 62
7
 10
0.0
 20
0.0
 30
0.0
  0
INSERT
  2
SKETCH125
  8
0
 62
7
 10
0.0
 20
0.0
 30
0.0
  0
INSERT
  2
SKETCH052
  8
0
 62
7
 10
0.0
 20
0.0
 30
0.0
  0
INSERT
  2
SKETCH062
  8
0
 62
7
 10
0.0
 20
0.0
 30
0.0
  0
INSERT
  2
SKETCH025
  8
0
 62
7
 10
0.0
 20
0.0
 30
0.0
  0
INSERT
  2
SKETCH039
  8
0
 62
7
 10
0.0
 20
0.0
 30
0.0
  0
INSERT
  2
SKETCH046
  8
0
 62
7
 10
0.0
 20
0.0
 30
0.0
  0
INSERT
  2
SKETCH051
  8
0
 62
7
 10
0.0
 20
0.0
 30
0.0
  0
INSERT
  2
SKETCH067
  8
0
 62
7
 10
0.0
 20
0.0
 30
0.0
  0
INSERT
  2
SKETCH063
  8
0
 62
7
 10
0.0
 20
0.0
 30
0.0
  0
INSERT
  2
SKETCH064
  8
0
 62
7
 10
0.0
 20
0.0
 30
0.0
  0
INSERT
  2
SKETCH083
  8
0
 62
7
 10
0.0
 20
0.0
 30
0.0
  0
ENDSEC
  0
EOF
