  0
SECTION
  2
HEADER
  9
$ACADVER
  1
AC1009
  9
$INSBASE
 10
0.0
 20
0.0
 30
0.0
  9
$EXTMIN
 10
0.0
 20
0.0
 30
0.0
  9
$EXTMAX
 10
0.0
 20
0.0
 30
0.0
  0
ENDSEC
  0
SECTION
  2
TABLES
  0
TABLE
  2
VPORT
 70
0
  0
ENDTAB
  0
TABLE
  2
LTYPE
 70
1
  0
LTYPE
  2
CONTINUOUS
 70
0
  3
Solid line
 72
65
 73
0
 40
0.0
  0
ENDTAB
  0
TABLE
  2
LAYER
 70
1
  0
LAYER
  2
0
 70
64
 62
7
  6
continuous
  0
ENDTAB
  0
TABLE
  2
STYLE
 70
1
  0
STYLE
  2
STANDARD
 70
0
 40
0
 41
1.0
 50
0.0
 71
0
 42
1
 3
ARIAL.TTF
 4

  0
ENDTAB
  0
TABLE
  2
VIEW
 70
0
  0
ENDTAB
  0
ENDSEC
  0
SECTION
  2
BLOCKS
  0
BLOCK
  8
0
  2
SKETCH025
 70
0
 10
0.0
 20
0.0
 30
0.0
  3
SKETCH025
  0
POLYLINE
  8
0
 62
7
 70
0
 66
1
 10
0.0
 20
0.0
 30
0.0
  0
VERTEX
  8
0
 10
19.0
 20
269.25
 30
0.0
  0
VERTEX
  8
0
 10
19.0
 20
283.0
 30
0.0
 42
-0.414213562373
  0
VERTEX
  8
0
 10
21.0
 20
285.0
 30
0.0
  0
VERTEX
  8
0
 10
36.0
 20
285.0
 30
0.0
 42
0.414213562373
  0
VERTEX
  8
0
 10
38.0
 20
287.0
 30
0.0
  0
VERTEX
  8
0
 10
38.0
 20
294.0
 30
0.0
  0
VERTEX
  8
0
 10
5.0
 20
294.0
 30
0.0
  0
VERTEX
  8
0
 10
5.0
 20
269.25
 30
0.0
  0
SEQEND
  8
0
  0
POLYLINE
  8
0
 62
7
 70
0
 66
1
 10
0.0
 20
0.0
 30
0.0
  0
VERTEX
  8
0
 10
5.0
 20
268.75
 30
0.0
  0
VERTEX
  8
0
 10
5.0
 20
244.0
 30
0.0
 42
0.414213562373
  0
VERTEX
  8
0
 10
7.0
 20
242.0
 30
0.0
  0
VERTEX
  8
0
 10
36.0
 20
242.0
 30
0.0
 42
0.414213562373
  0
VERTEX
  8
0
 10
38.0
 20
244.0
 30
0.0
  0
VERTEX
  8
0
 10
38.0
 20
249.0
 30
0.0
 42
0.414213562373
  0
VERTEX
  8
0
 10
36.0
 20
251.0
 30
0.0
  0
VERTEX
  8
0
 10
21.0
 20
251.0
 30
0.0
 42
-0.414213562373
  0
VERTEX
  8
0
 10
19.0
 20
253.0
 30
0.0
  0
VERTEX
  8
0
 10
19.0
 20
268.75
 30
0.0
  0
SEQEND
  8
0
  0
CIRCLE
  8
0
 62
7
 10
21.5
 20
289.5
 30
0.0
 40
1.5
  0
CIRCLE
  8
0
 62
7
 10
21.5
 20
246.5
 30
0.0
 40
1.5
  0
POLYLINE
  8
0
 62
7
 70
1
 66
1
 10
0.0
 20
0.0
 30
0.0
  0
VERTEX
  8
0
 10
29.0
 20
291.0
 30
0.0
  0
VERTEX
  8
0
 10
34.0
 20
291.0
 30
0.0
  0
VERTEX
  8
0
 10
34.0
 20
288.0
 30
0.0
  0
VERTEX
  8
0
 10
29.0
 20
288.0
 30
0.0
  0
SEQEND
  8
0
  0
POLYLINE
  8
0
 62
7
 70
1
 66
1
 10
0.0
 20
0.0
 30
0.0
  0
VERTEX
  8
0
 10
9.0
 20
291.0
 30
0.0
  0
VERTEX
  8
0
 10
14.0
 20
291.0
 30
0.0
  0
VERTEX
  8
0
 10
14.0
 20
288.0
 30
0.0
  0
VERTEX
  8
0
 10
9.0
 20
288.0
 30
0.0
  0
SEQEND
  8
0
  0
POLYLINE
  8
0
 62
7
 70
1
 66
1
 10
0.0
 20
0.0
 30
0.0
  0
VERTEX
  8
0
 10
9.0
 20
248.0
 30
0.0
  0
VERTEX
  8
0
 10
14.0
 20
248.0
 30
0.0
  0
VERTEX
  8
0
 10
14.0
 20
245.0
 30
0.0
  0
VERTEX
  8
0
 10
9.0
 20
245.0
 30
0.0
  0
SEQEND
  8
0
  0
POLYLINE
  8
0
 62
7
 70
1
 66
1
 10
0.0
 20
0.0
 30
0.0
  0
VERTEX
  8
0
 10
29.0
 20
248.0
 30
0.0
  0
VERTEX
  8
0
 10
34.0
 20
248.0
 30
0.0
  0
VERTEX
  8
0
 10
34.0
 20
245.0
 30
0.0
  0
VERTEX
  8
0
 10
29.0
 20
245.0
 30
0.0
  0
SEQEND
  8
0
  0
POLYLINE
  8
0
 62
7
 70
1
 66
1
 10
0.0
 20
0.0
 30
0.0
  0
VERTEX
  8
0
 10
12.0
 20
257.0
 30
0.0
  0
VERTEX
  8
0
 10
13.0
 20
258.732050808
 30
0.0
  0
VERTEX
  8
0
 10
11.0
 20
258.732050808
 30
0.0
  0
SEQEND
  8
0
  0
ENDBLK
  0
BLOCK
  8
0
  2
SKETCH083
 70
0
 10
0.0
 20
0.0
 30
0.0
  3
SKETCH083
  0
POLYLINE
  8
0
 62
7
 70
0
 66
1
 10
0.0
 20
0.0
 30
0.0
  0
VERTEX
  8
0
 10
97.0
 20
124.250000637
 30
0.0
  0
VERTEX
  8
0
 10
97.0
 20
131.0
 30
0.0
 42
-0.414213562373
  0
VERTEX
  8
0
 10
99.0
 20
133.0
 30
0.0
  0
VERTEX
  8
0
 10
111.0
 20
133.0
 30
0.0
 42
0.414213562373
  0
VERTEX
  8
0
 10
113.0
 20
135.0
 30
0.0
  0
VERTEX
  8
0
 10
113.0
 20
149.0
 30
0.0
  0
VERTEX
  8
0
 10
116.0
 20
149.0
 30
0.0
  0
VERTEX
  8
0
 10
116.0
 20
152.0
 30
0.0
  0
VERTEX
  8
0
 10
123.0
 20
152.0
 30
0.0
  0
VERTEX
  8
0
 10
123.0
 20
149.0
 30
0.0
  0
VERTEX
  8
0
 10
126.0
 20
149.0
 30
0.0
  0
VERTEX
  8
0
 10
126.0
 20
124.25
 30
0.0
  0
SEQEND
  8
0
  0
POLYLINE
  8
0
 62
7
 70
0
 66
1
 10
0.0
 20
0.0
 30
0.0
  0
VERTEX
  8
0
 10
126.0
 20
123.75
 30
0.0
  0
VERTEX
  8
0
 10
126.0
 20
99.0
 30
0.0
  0
VERTEX
  8
0
 10
123.0
 20
99.0
 30
0.0
  0
VERTEX
  8
0
 10
123.0
 20
96.0
 30
0.0
  0
VERTEX
  8
0
 10
116.0
 20
96.0
 30
0.0
  0
VERTEX
  8
0
 10
116.0
 20
99.0
 30
0.0
  0
VERTEX
  8
0
 10
113.0
 20
99.0
 30
0.0
  0
VERTEX
  8
0
 10
113.0
 20
113.0
 30
0.0
 42
0.414213562374
  0
VERTEX
  8
0
 10
111.0
 20
115.0
 30
0.0
  0
VERTEX
  8
0
 10
99.0
 20
115.0
 30
0.0
 42
-0.414213748818
  0
VERTEX
  8
0
 10
97.0
 20
117.000001273
 30
0.0
  0
VERTEX
  8
0
 10
97.0
 20
123.750000637
 30
0.0
  0
SEQEND
  8
0
  0
CIRCLE
  8
0
 62
7
 10
106.0
 20
124.0
 30
0.0
 40
1.5
  0
ENDBLK
  0
BLOCK
  8
0
  2
SKETCH062
 70
0
 10
0.0
 20
0.0
 30
0.0
  3
SKETCH062
  0
POLYLINE
  8
0
 62
7
 70
0
 66
1
 10
0.0
 20
0.0
 30
0.0
  0
VERTEX
  8
0
 10
34.0
 20
180.749999817
 30
0.0
  0
VERTEX
  8
0
 10
34.0
 20
173.999999634
 30
0.0
 42
-0.414213508722
  0
VERTEX
  8
0
 10
32.0
 20
172.0
 30
0.0
  0
VERTEX
  8
0
 10
20.0
 20
172.0
 30
0.0
 42
0.414213562373
  0
VERTEX
  8
0
 10
18.0
 20
170.0
 30
0.0
  0
VERTEX
  8
0
 10
18.0
 20
156.0
 30
0.0
  0
VERTEX
  8
0
 10
15.0
 20
156.0
 30
0.0
  0
VERTEX
  8
0
 10
15.0
 20
153.0
 30
0.0
  0
VERTEX
  8
0
 10
8.0
 20
153.0
 30
0.0
  0
VERTEX
  8
0
 10
8.0
 20
156.0
 30
0.0
  0
VERTEX
  8
0
 10
5.0
 20
156.0
 30
0.0
  0
VERTEX
  8
0
 10
5.0
 20
180.75
 30
0.0
  0
SEQEND
  8
0
  0
POLYLINE
  8
0
 62
7
 70
0
 66
1
 10
0.0
 20
0.0
 30
0.0
  0
VERTEX
  8
0
 10
5.0
 20
181.25
 30
0.0
  0
VERTEX
  8
0
 10
5.0
 20
206.0
 30
0.0
  0
VERTEX
  8
0
 10
8.0
 20
206.0
 30
0.0
  0
VERTEX
  8
0
 10
8.0
 20
209.0
 30
0.0
  0
VERTEX
  8
0
 10
15.0
 20
209.0
 30
0.0
  0
VERTEX
  8
0
 10
15.0
 20
206.0
 30
0.0
  0
VERTEX
  8
0
 10
18.0
 20
206.0
 30
0.0
  0
VERTEX
  8
0
 10
18.0
 20
192.0
 30
0.0
 42
0.414213562373
  0
VERTEX
  8
0
 10
20.0
 20
190.0
 30
0.0
  0
VERTEX
  8
0
 10
32.0
 20
190.0
 30
0.0
 42
-0.414213562373
  0
VERTEX
  8
0
 10
34.0
 20
188.0
 30
0.0
  0
VERTEX
  8
0
 10
34.0
 20
181.249999817
 30
0.0
  0
SEQEND
  8
0
  0
CIRCLE
  8
0
 62
7
 10
25.0
 20
181.0
 30
0.0
 40
3.4
  0
ENDBLK
  0
BLOCK
  8
0
  2
SKETCH063
 70
0
 10
0.0
 20
0.0
 30
0.0
  3
SKETCH063
  0
POLYLINE
  8
0
 62
7
 70
0
 66
1
 10
0.0
 20
0.0
 30
0.0
  0
VERTEX
  8
0
 10
35.0
 20
181.250000625
 30
0.0
  0
VERTEX
  8
0
 10
35.0
 20
188.0
 30
0.0
 42
-0.414213562373
  0
VERTEX
  8
0
 10
37.0
 20
190.0
 30
0.0
  0
VERTEX
  8
0
 10
49.0
 20
190.0
 30
0.0
 42
0.414213562373
  0
VERTEX
  8
0
 10
51.0
 20
192.0
 30
0.0
  0
VERTEX
  8
0
 10
51.0
 20
206.0
 30
0.0
  0
VERTEX
  8
0
 10
54.0
 20
206.0
 30
0.0
  0
VERTEX
  8
0
 10
54.0
 20
209.0
 30
0.0
  0
VERTEX
  8
0
 10
61.0
 20
209.0
 30
0.0
  0
VERTEX
  8
0
 10
61.0
 20
206.0
 30
0.0
  0
VERTEX
  8
0
 10
64.0
 20
206.0
 30
0.0
  0
VERTEX
  8
0
 10
64.0
 20
181.25
 30
0.0
  0
SEQEND
  8
0
  0
POLYLINE
  8
0
 62
7
 70
0
 66
1
 10
0.0
 20
0.0
 30
0.0
  0
VERTEX
  8
0
 10
64.0
 20
180.75
 30
0.0
  0
VERTEX
  8
0
 10
64.0
 20
156.0
 30
0.0
  0
VERTEX
  8
0
 10
61.0
 20
156.0
 30
0.0
  0
VERTEX
  8
0
 10
61.0
 20
153.0
 30
0.0
  0
VERTEX
  8
0
 10
54.0
 20
153.0
 30
0.0
  0
VERTEX
  8
0
 10
54.0
 20
156.0
 30
0.0
  0
VERTEX
  8
0
 10
51.0
 20
156.0
 30
0.0
  0
VERTEX
  8
0
 10
51.0
 20
170.0
 30
0.0
 42
0.414213562373
  0
VERTEX
  8
0
 10
49.0
 20
172.0
 30
0.0
  0
VERTEX
  8
0
 10
37.0
 20
172.0
 30
0.0
 42
-0.414213745352
  0
VERTEX
  8
0
 10
35.0
 20
174.000001249
 30
0.0
  0
VERTEX
  8
0
 10
35.0
 20
180.750000625
 30
0.0
  0
SEQEND
  8
0
  0
CIRCLE
  8
0
 62
7
 10
44.0
 20
181.0
 30
0.0
 40
3.4
  0
ENDBLK
  0
BLOCK
  8
0
  2
SKETCH067
 70
0
 10
0.0
 20
0.0
 30
0.0
  3
SKETCH067
  0
POLYLINE
  8
0
 62
7
 70
0
 66
1
 10
0.0
 20
0.0
 30
0.0
  0
VERTEX
  8
0
 10
49.0
 20
199.75
 30
0.0
  0
VERTEX
  8
0
 10
49.0
 20
191.0
 30
0.0
  0
VERTEX
  8
0
 10
22.0
 20
191.0
 30
0.0
 42
-0.414213562373
  0
VERTEX
  8
0
 10
20.0
 20
193.0
 30
0.0
  0
VERTEX
  8
0
 10
20.0
 20
199.75
 30
0.0
  0
SEQEND
  8
0
  0
POLYLINE
  8
0
 62
7
 70
0
 66
1
 10
0.0
 20
0.0
 30
0.0
  0
VERTEX
  8
0
 10
20.0
 20
200.25
 30
0.0
  0
VERTEX
  8
0
 10
20.0
 20
207.0
 30
0.0
 42
-0.414213562373
  0
VERTEX
  8
0
 10
22.0
 20
209.0
 30
0.0
  0
VERTEX
  8
0
 10
49.0
 20
209.0
 30
0.0
  0
VERTEX
  8
0
 10
49.0
 20
200.25
 30
0.0
  0
SEQEND
  8
0
  0
POLYLINE
  8
0
 62
7
 70
1
 66
1
 10
0.0
 20
0.0
 30
0.0
  0
VERTEX
  8
0
 10
29.3431192661
 20
203.382642335
 30
0.0
  0
VERTEX
  8
0
 10
45.5266055046
 20
201.741065908
 30
0.0
 42
-0.903696114115
  0
VERTEX
  8
0
 10
45.5266055046
 20
198.258934092
 30
0.0
  0
VERTEX
  8
0
 10
29.3431192661
 20
196.617357665
 30
0.0
 42
-1.10656667035
  0
SEQEND
  8
0
  0
ENDBLK
  0
BLOCK
  8
0
  2
SKETCH064
 70
0
 10
0.0
 20
0.0
 30
0.0
  3
SKETCH064
  0
POLYLINE
  8
0
 62
7
 70
0
 66
1
 10
0.0
 20
0.0
 30
0.0
  0
VERTEX
  8
0
 10
49.0
 20
161.75
 30
0.0
  0
VERTEX
  8
0
 10
49.0
 20
153.0
 30
0.0
  0
VERTEX
  8
0
 10
22.0
 20
153.0
 30
0.0
 42
-0.414213562373
  0
VERTEX
  8
0
 10
20.0
 20
155.0
 30
0.0
  0
VERTEX
  8
0
 10
20.0
 20
161.75
 30
0.0
  0
SEQEND
  8
0
  0
POLYLINE
  8
0
 62
7
 70
0
 66
1
 10
0.0
 20
0.0
 30
0.0
  0
VERTEX
  8
0
 10
20.0
 20
162.25
 30
0.0
  0
VERTEX
  8
0
 10
20.0
 20
169.0
 30
0.0
 42
-0.414213562373
  0
VERTEX
  8
0
 10
22.0
 20
171.0
 30
0.0
  0
VERTEX
  8
0
 10
49.0
 20
171.0
 30
0.0
  0
VERTEX
  8
0
 10
49.0
 20
162.25
 30
0.0
  0
SEQEND
  8
0
  0
POLYLINE
  8
0
 62
7
 70
1
 66
1
 10
0.0
 20
0.0
 30
0.0
  0
VERTEX
  8
0
 10
29.3431192661
 20
165.382642335
 30
0.0
  0
VERTEX
  8
0
 10
45.5266055046
 20
163.741065908
 30
0.0
 42
-0.903696114115
  0
VERTEX
  8
0
 10
45.5266055046
 20
160.258934092
 30
0.0
  0
VERTEX
  8
0
 10
29.3431192661
 20
158.617357665
 30
0.0
 42
-1.10656667035
  0
SEQEND
  8
0
  0
ENDBLK
  0
BLOCK
  8
0
  2
SKETCH084
 70
0
 10
0.0
 20
0.0
 30
0.0
  3
SKETCH084
  0
POLYLINE
  8
0
 62
7
 70
0
 66
1
 10
0.0
 20
0.0
 30
0.0
  0
VERTEX
  8
0
 10
105.0
 20
142.750000042
 30
0.0
  0
VERTEX
  8
0
 10
105.0
 20
136.000000085
 30
0.0
 42
-0.414213574748
  0
VERTEX
  8
0
 10
103.0
 20
134.0
 30
0.0
  0
VERTEX
  8
0
 10
91.0
 20
134.0
 30
0.0
 42
0.414213562373
  0
VERTEX
  8
0
 10
89.0
 20
132.0
 30
0.0
  0
VERTEX
  8
0
 10
89.0
 20
118.0
 30
0.0
  0
VERTEX
  8
0
 10
86.0
 20
118.0
 30
0.0
  0
VERTEX
  8
0
 10
86.0
 20
115.0
 30
0.0
  0
VERTEX
  8
0
 10
79.0
 20
115.0
 30
0.0
  0
VERTEX
  8
0
 10
79.0
 20
118.0
 30
0.0
  0
VERTEX
  8
0
 10
76.0
 20
118.0
 30
0.0
  0
VERTEX
  8
0
 10
76.0
 20
142.75
 30
0.0
  0
SEQEND
  8
0
  0
POLYLINE
  8
0
 62
7
 70
0
 66
1
 10
0.0
 20
0.0
 30
0.0
  0
VERTEX
  8
0
 10
76.0
 20
143.25
 30
0.0
  0
VERTEX
  8
0
 10
76.0
 20
168.0
 30
0.0
  0
VERTEX
  8
0
 10
79.0
 20
168.0
 30
0.0
  0
VERTEX
  8
0
 10
79.0
 20
171.0
 30
0.0
  0
VERTEX
  8
0
 10
86.0
 20
171.0
 30
0.0
  0
VERTEX
  8
0
 10
86.0
 20
168.0
 30
0.0
  0
VERTEX
  8
0
 10
89.0
 20
168.0
 30
0.0
  0
VERTEX
  8
0
 10
89.0
 20
154.0
 30
0.0
 42
0.414213562373
  0
VERTEX
  8
0
 10
91.0
 20
152.0
 30
0.0
  0
VERTEX
  8
0
 10
103.0
 20
152.0
 30
0.0
 42
-0.414213562373
  0
VERTEX
  8
0
 10
105.0
 20
150.0
 30
0.0
  0
VERTEX
  8
0
 10
105.0
 20
143.250000042
 30
0.0
  0
SEQEND
  8
0
  0
CIRCLE
  8
0
 62
7
 10
96.0
 20
143.0
 30
0.0
 40
1.5
  0
ENDBLK
  0
BLOCK
  8
0
  2
SKETCH093
 70
0
 10
0.0
 20
0.0
 30
0.0
  3
SKETCH093
  0
POLYLINE
  8
0
 62
7
 70
0
 66
1
 10
0.0
 20
0.0
 30
0.0
  0
VERTEX
  8
0
 10
203.0
 20
124.25
 30
0.0
  0
VERTEX
  8
0
 10
203.0
 20
139.0
 30
0.0
  0
VERTEX
  8
0
 10
199.0
 20
139.0
 30
0.0
  0
VERTEX
  8
0
 10
199.0
 20
142.0
 30
0.0
  0
VERTEX
  8
0
 10
203.0
 20
142.0
 30
0.0
  0
VERTEX
  8
0
 10
203.0
 20
145.0
 30
0.0
 42
0.414213562373
  0
VERTEX
  8
0
 10
201.0
 20
147.0
 30
0.0
  0
VERTEX
  8
0
 10
187.0
 20
147.0
 30
0.0
 42
0.414213562373
  0
VERTEX
  8
0
 10
185.0
 20
145.0
 30
0.0
  0
VERTEX
  8
0
 10
185.0
 20
142.0
 30
0.0
  0
VERTEX
  8
0
 10
189.0
 20
142.0
 30
0.0
  0
VERTEX
  8
0
 10
189.0
 20
139.0
 30
0.0
  0
VERTEX
  8
0
 10
185.0
 20
139.0
 30
0.0
  0
VERTEX
  8
0
 10
185.0
 20
124.25
 30
0.0
  0
SEQEND
  8
0
  0
POLYLINE
  8
0
 62
7
 70
0
 66
1
 10
0.0
 20
0.0
 30
0.0
  0
VERTEX
  8
0
 10
185.0
 20
123.75
 30
0.0
  0
VERTEX
  8
0
 10
185.0
 20
109.0
 30
0.0
  0
VERTEX
  8
0
 10
189.0
 20
109.0
 30
0.0
  0
VERTEX
  8
0
 10
189.0
 20
106.0
 30
0.0
  0
VERTEX
  8
0
 10
185.0
 20
106.0
 30
0.0
  0
VERTEX
  8
0
 10
185.0
 20
103.0
 30
0.0
 42
0.414213562373
  0
VERTEX
  8
0
 10
187.0
 20
101.0
 30
0.0
  0
VERTEX
  8
0
 10
201.0
 20
101.0
 30
0.0
 42
0.414213562373
  0
VERTEX
  8
0
 10
203.0
 20
103.0
 30
0.0
  0
VERTEX
  8
0
 10
203.0
 20
106.0
 30
0.0
  0
VERTEX
  8
0
 10
199.0
 20
106.0
 30
0.0
  0
VERTEX
  8
0
 10
199.0
 20
109.0
 30
0.0
  0
VERTEX
  8
0
 10
203.0
 20
109.0
 30
0.0
  0
VERTEX
  8
0
 10
203.0
 20
123.75
 30
0.0
  0
SEQEND
  8
0
  0
CIRCLE
  8
0
 62
7
 10
194.0
 20
107.5
 30
0.0
 40
1.5
  0
CIRCLE
  8
0
 62
7
 10
194.0
 20
140.5
 30
0.0
 40
1.5
  0
CIRCLE
  8
0
 62
7
 10
194.0
 20
130.0
 30
0.0
 40
3.4
  0
ENDBLK
  0
BLOCK
  8
0
  2
SKETCH094
 70
0
 10
0.0
 20
0.0
 30
0.0
  3
SKETCH094
  0
POLYLINE
  8
0
 62
7
 70
0
 66
1
 10
0.0
 20
0.0
 30
0.0
  0
VERTEX
  8
0
 10
206.0
 20
27.25
 30
0.0
  0
VERTEX
  8
0
 10
206.0
 20
5.0
 30
0.0
  0
VERTEX
  8
0
 10
202.0
 20
5.0
 30
0.0
  0
VERTEX
  8
0
 10
202.0
 20
8.0
 30
0.0
  0
VERTEX
  8
0
 10
198.5
 20
8.0
 30
0.0
  0
VERTEX
  8
0
 10
198.5
 20
11.0
 30
0.0
  0
VERTEX
  8
0
 10
199.8
 20
11.0
 30
0.0
  0
VERTEX
  8
0
 10
199.8
 20
13.5
 30
0.0
  0
VERTEX
  8
0
 10
198.5
 20
13.5
 30
0.0
  0
VERTEX
  8
0
 10
198.5
 20
16.0
 30
0.0
  0
VERTEX
  8
0
 10
195.5
 20
16.0
 30
0.0
  0
VERTEX
  8
0
 10
195.5
 20
13.5
 30
0.0
  0
VERTEX
  8
0
 10
194.2
 20
13.5
 30
0.0
  0
VERTEX
  8
0
 10
194.2
 20
11.0
 30
0.0
  0
VERTEX
  8
0
 10
195.5
 20
11.0
 30
0.0
  0
VERTEX
  8
0
 10
195.5
 20
8.0
 30
0.0
  0
VERTEX
  8
0
 10
192.0
 20
8.0
 30
0.0
  0
VERTEX
  8
0
 10
192.0
 20
5.0
 30
0.0
  0
VERTEX
  8
0
 10
188.0
 20
5.0
 30
0.0
  0
VERTEX
  8
0
 10
188.0
 20
27.25
 30
0.0
  0
SEQEND
  8
0
  0
POLYLINE
  8
0
 62
7
 70
0
 66
1
 10
0.0
 20
0.0
 30
0.0
  0
VERTEX
  8
0
 10
206.0
 20
27.75
 30
0.0
  0
VERTEX
  8
0
 10
206.0
 20
50.0
 30
0.0
 42
0.414213562373
  0
VERTEX
  8
0
 10
204.0
 20
52.0
 30
0.0
  0
VERTEX
  8
0
 10
190.0
 20
52.0
 30
0.0
 42
0.414213562373
  0
VERTEX
  8
0
 10
188.0
 20
50.0
 30
0.0
  0
VERTEX
  8
0
 10
188.0
 20
34.5
 30
0.0
  0
VERTEX
  8
0
 10
185.0
 20
34.5
 30
0.0
  0
VERTEX
  8
0
 10
185.0
 20
29.5
 30
0.0
  0
VERTEX
  8
0
 10
188.0
 20
29.5
 30
0.0
  0
VERTEX
  8
0
 10
188.0
 20
27.75
 30
0.0
  0
SEQEND
  8
0
  0
POLYLINE
  8
0
 62
7
 70
1
 66
1
 10
0.0
 20
0.0
 30
0.0
  0
VERTEX
  8
0
 10
190.95
 20
47.0
 30
0.0
  0
VERTEX
  8
0
 10
203.05
 20
47.0
 30
0.0
  0
VERTEX
  8
0
 10
203.05
 20
24.5
 30
0.0
  0
VERTEX
  8
0
 10
190.95
 20
24.5
 30
0.0
  0
SEQEND
  8
0
  0
CIRCLE
  8
0
 62
7
 10
197.0
 20
49.5
 30
0.0
 40
1.0
  0
CIRCLE
  8
0
 62
7
 10
197.0
 20
22.0
 30
0.0
 40
1.0
  0
ENDBLK
  0
BLOCK
  8
0
  2
SKETCH096
 70
0
 10
0.0
 20
0.0
 30
0.0
  3
SKETCH096
  0
POLYLINE
  8
0
 62
7
 70
1
 66
1
 10
0.0
 20
0.0
 30
0.0
  0
VERTEX
  8
0
 10
170.617357665
 20
116.656880734
 30
0.0
  0
VERTEX
  8
0
 10
172.258934092
 20
100.473394495
 30
0.0
 42
0.903696114115
  0
VERTEX
  8
0
 10
175.741065908
 20
100.473394495
 30
0.0
  0
VERTEX
  8
0
 10
177.382642335
 20
116.656880734
 30
0.0
 42
1.10656667035
  0
SEQEND
  8
0
  0
POLYLINE
  8
0
 62
7
 70
0
 66
1
 10
0.0
 20
0.0
 30
0.0
  0
VERTEX
  8
0
 10
165.0
 20
106.75
 30
0.0
  0
VERTEX
  8
0
 10
165.0
 20
117.0
 30
0.0
  0
VERTEX
  8
0
 10
165.0
 20
126.0
 30
0.0
  0
VERTEX
  8
0
 10
183.0
 20
126.0
 30
0.0
  0
VERTEX
  8
0
 10
183.0
 20
117.0
 30
0.0
  0
VERTEX
  8
0
 10
183.0
 20
106.75
 30
0.0
  0
SEQEND
  8
0
  0
POLYLINE
  8
0
 62
7
 70
0
 66
1
 10
0.0
 20
0.0
 30
0.0
  0
VERTEX
  8
0
 10
165.0
 20
106.25
 30
0.0
  0
VERTEX
  8
0
 10
165.0
 20
96.0
 30
0.0
  0
VERTEX
  8
0
 10
183.0
 20
96.0
 30
0.0
  0
VERTEX
  8
0
 10
183.0
 20
106.25
 30
0.0
  0
SEQEND
  8
0
  0
ENDBLK
  0
BLOCK
  8
0
  2
SKETCH097
 70
0
 10
0.0
 20
0.0
 30
0.0
  3
SKETCH097
  0
POLYLINE
  8
0
 62
7
 70
0
 66
1
 10
0.0
 20
0.0
 30
0.0
  0
VERTEX
  8
0
 10
200.0
 20
210.75
 30
0.0
  0
VERTEX
  8
0
 10
200.0
 20
191.0
 30
0.0
  0
VERTEX
  8
0
 10
196.0
 20
191.0
 30
0.0
  0
VERTEX
  8
0
 10
196.0
 20
194.0
 30
0.0
  0
VERTEX
  8
0
 10
192.5
 20
194.0
 30
0.0
  0
VERTEX
  8
0
 10
192.5
 20
197.0
 30
0.0
  0
VERTEX
  8
0
 10
193.8
 20
197.0
 30
0.0
  0
VERTEX
  8
0
 10
193.8
 20
199.5
 30
0.0
  0
VERTEX
  8
0
 10
192.5
 20
199.5
 30
0.0
  0
VERTEX
  8
0
 10
192.5
 20
202.0
 30
0.0
  0
VERTEX
  8
0
 10
189.5
 20
202.0
 30
0.0
  0
VERTEX
  8
0
 10
189.5
 20
199.5
 30
0.0
  0
VERTEX
  8
0
 10
188.2
 20
199.5
 30
0.0
  0
VERTEX
  8
0
 10
188.2
 20
197.0
 30
0.0
  0
VERTEX
  8
0
 10
189.5
 20
197.0
 30
0.0
  0
VERTEX
  8
0
 10
189.5
 20
194.0
 30
0.0
  0
VERTEX
  8
0
 10
186.0
 20
194.0
 30
0.0
  0
VERTEX
  8
0
 10
186.0
 20
191.0
 30
0.0
  0
VERTEX
  8
0
 10
182.0
 20
191.0
 30
0.0
  0
VERTEX
  8
0
 10
182.0
 20
210.75
 30
0.0
  0
SEQEND
  8
0
  0
POLYLINE
  8
0
 62
7
 70
0
 66
1
 10
0.0
 20
0.0
 30
0.0
  0
VERTEX
  8
0
 10
182.0
 20
211.25
 30
0.0
  0
VERTEX
  8
0
 10
182.0
 20
231.0
 30
0.0
 42
-0.414213562373
  0
VERTEX
  8
0
 10
184.0
 20
233.0
 30
0.0
  0
VERTEX
  8
0
 10
198.0
 20
233.0
 30
0.0
 42
-0.414213562373
  0
VERTEX
  8
0
 10
200.0
 20
231.0
 30
0.0
  0
VERTEX
  8
0
 10
200.0
 20
220.5
 30
0.0
  0
VERTEX
  8
0
 10
203.0
 20
220.5
 30
0.0
  0
VERTEX
  8
0
 10
203.0
 20
215.5
 30
0.0
  0
VERTEX
  8
0
 10
200.0
 20
215.5
 30
0.0
  0
VERTEX
  8
0
 10
200.0
 20
211.25
 30
0.0
  0
SEQEND
  8
0
  0
CIRCLE
  8
0
 62
7
 10
191.0
 20
227.0
 30
0.0
 40
1.5
  0
ENDBLK
  0
BLOCK
  8
0
  2
SKETCH098
 70
0
 10
0.0
 20
0.0
 30
0.0
  3
SKETCH098
  0
POLYLINE
  8
0
 62
7
 70
0
 66
1
 10
0.0
 20
0.0
 30
0.0
  0
VERTEX
  8
0
 10
72.0
 20
269.25
 30
0.0
  0
VERTEX
  8
0
 10
72.0
 20
294.0
 30
0.0
  0
VERTEX
  8
0
 10
39.0
 20
294.0
 30
0.0
  0
VERTEX
  8
0
 10
39.0
 20
287.0
 30
0.0
 42
0.414213562373
  0
VERTEX
  8
0
 10
41.0
 20
285.0
 30
0.0
  0
VERTEX
  8
0
 10
56.0
 20
285.0
 30
0.0
 42
-0.414213562373
  0
VERTEX
  8
0
 10
58.0
 20
283.0
 30
0.0
  0
VERTEX
  8
0
 10
58.0
 20
269.25
 30
0.0
  0
SEQEND
  8
0
  0
POLYLINE
  8
0
 62
7
 70
0
 66
1
 10
0.0
 20
0.0
 30
0.0
  0
VERTEX
  8
0
 10
58.0
 20
268.75
 30
0.0
  0
VERTEX
  8
0
 10
58.0
 20
253.0
 30
0.0
 42
-0.414213562373
  0
VERTEX
  8
0
 10
56.0
 20
251.0
 30
0.0
  0
VERTEX
  8
0
 10
41.0
 20
251.0
 30
0.0
 42
0.414213562373
  0
VERTEX
  8
0
 10
39.0
 20
249.0
 30
0.0
  0
VERTEX
  8
0
 10
39.0
 20
244.0
 30
0.0
 42
0.414213562373
  0
VERTEX
  8
0
 10
41.0
 20
242.0
 30
0.0
  0
VERTEX
  8
0
 10
70.0
 20
242.0
 30
0.0
 42
0.414213562373
  0
VERTEX
  8
0
 10
72.0
 20
244.0
 30
0.0
  0
VERTEX
  8
0
 10
72.0
 20
268.75
 30
0.0
  0
SEQEND
  8
0
  0
CIRCLE
  8
0
 62
7
 10
55.5
 20
289.5
 30
0.0
 40
1.5
  0
CIRCLE
  8
0
 62
7
 10
55.5
 20
246.5
 30
0.0
 40
1.5
  0
POLYLINE
  8
0
 62
7
 70
1
 66
1
 10
0.0
 20
0.0
 30
0.0
  0
VERTEX
  8
0
 10
63.0
 20
291.0
 30
0.0
  0
VERTEX
  8
0
 10
68.0
 20
291.0
 30
0.0
  0
VERTEX
  8
0
 10
68.0
 20
288.0
 30
0.0
  0
VERTEX
  8
0
 10
63.0
 20
288.0
 30
0.0
  0
SEQEND
  8
0
  0
POLYLINE
  8
0
 62
7
 70
1
 66
1
 10
0.0
 20
0.0
 30
0.0
  0
VERTEX
  8
0
 10
43.0
 20
291.0
 30
0.0
  0
VERTEX
  8
0
 10
48.0
 20
291.0
 30
0.0
  0
VERTEX
  8
0
 10
48.0
 20
288.0
 30
0.0
  0
VERTEX
  8
0
 10
43.0
 20
288.0
 30
0.0
  0
SEQEND
  8
0
  0
POLYLINE
  8
0
 62
7
 70
1
 66
1
 10
0.0
 20
0.0
 30
0.0
  0
VERTEX
  8
0
 10
43.0
 20
248.0
 30
0.0
  0
VERTEX
  8
0
 10
48.0
 20
248.0
 30
0.0
  0
VERTEX
  8
0
 10
48.0
 20
245.0
 30
0.0
  0
VERTEX
  8
0
 10
43.0
 20
245.0
 30
0.0
  0
SEQEND
  8
0
  0
POLYLINE
  8
0
 62
7
 70
1
 66
1
 10
0.0
 20
0.0
 30
0.0
  0
VERTEX
  8
0
 10
63.0
 20
248.0
 30
0.0
  0
VERTEX
  8
0
 10
68.0
 20
248.0
 30
0.0
  0
VERTEX
  8
0
 10
68.0
 20
245.0
 30
0.0
  0
VERTEX
  8
0
 10
63.0
 20
245.0
 30
0.0
  0
SEQEND
  8
0
  0
POLYLINE
  8
0
 62
7
 70
1
 66
1
 10
0.0
 20
0.0
 30
0.0
  0
VERTEX
  8
0
 10
65.0
 20
257.0
 30
0.0
  0
VERTEX
  8
0
 10
66.0
 20
258.732050808
 30
0.0
  0
VERTEX
  8
0
 10
64.0
 20
258.732050808
 30
0.0
  0
SEQEND
  8
0
  0
ENDBLK
  0
BLOCK
  8
0
  2
SKETCH095
 70
0
 10
0.0
 20
0.0
 30
0.0
  3
SKETCH095
  0
POLYLINE
  8
0
 62
7
 70
0
 66
1
 10
0.0
 20
0.0
 30
0.0
  0
VERTEX
  8
0
 10
203.0
 20
167.75
 30
0.0
  0
VERTEX
  8
0
 10
203.0
 20
148.0
 30
0.0
  0
VERTEX
  8
0
 10
199.0
 20
148.0
 30
0.0
  0
VERTEX
  8
0
 10
199.0
 20
151.0
 30
0.0
  0
VERTEX
  8
0
 10
195.5
 20
151.0
 30
0.0
  0
VERTEX
  8
0
 10
195.5
 20
154.0
 30
0.0
  0
VERTEX
  8
0
 10
196.8
 20
154.0
 30
0.0
  0
VERTEX
  8
0
 10
196.8
 20
156.5
 30
0.0
  0
VERTEX
  8
0
 10
195.5
 20
156.5
 30
0.0
  0
VERTEX
  8
0
 10
195.5
 20
159.0
 30
0.0
  0
VERTEX
  8
0
 10
192.5
 20
159.0
 30
0.0
  0
VERTEX
  8
0
 10
192.5
 20
156.5
 30
0.0
  0
VERTEX
  8
0
 10
191.2
 20
156.5
 30
0.0
  0
VERTEX
  8
0
 10
191.2
 20
154.0
 30
0.0
  0
VERTEX
  8
0
 10
192.5
 20
154.0
 30
0.0
  0
VERTEX
  8
0
 10
192.5
 20
151.0
 30
0.0
  0
VERTEX
  8
0
 10
189.0
 20
151.0
 30
0.0
  0
VERTEX
  8
0
 10
189.0
 20
148.0
 30
0.0
  0
VERTEX
  8
0
 10
185.0
 20
148.0
 30
0.0
  0
VERTEX
  8
0
 10
185.0
 20
167.75
 30
0.0
  0
SEQEND
  8
0
  0
POLYLINE
  8
0
 62
7
 70
0
 66
1
 10
0.0
 20
0.0
 30
0.0
  0
VERTEX
  8
0
 10
203.0
 20
168.25
 30
0.0
  0
VERTEX
  8
0
 10
203.0
 20
188.0
 30
0.0
 42
0.414213562373
  0
VERTEX
  8
0
 10
201.0
 20
190.0
 30
0.0
  0
VERTEX
  8
0
 10
187.0
 20
190.0
 30
0.0
 42
0.414213562373
  0
VERTEX
  8
0
 10
185.0
 20
188.0
 30
0.0
  0
VERTEX
  8
0
 10
185.0
 20
177.5
 30
0.0
  0
VERTEX
  8
0
 10
182.0
 20
177.5
 30
0.0
  0
VERTEX
  8
0
 10
182.0
 20
172.5
 30
0.0
  0
VERTEX
  8
0
 10
185.0
 20
172.5
 30
0.0
  0
VERTEX
  8
0
 10
185.0
 20
168.25
 30
0.0
  0
SEQEND
  8
0
  0
CIRCLE
  8
0
 62
7
 10
194.0
 20
184.0
 30
0.0
 40
1.5
  0
ENDBLK
  0
BLOCK
  8
0
  2
SKETCH100
 70
0
 10
0.0
 20
0.0
 30
0.0
  3
SKETCH100
  0
POLYLINE
  8
0
 62
7
 70
0
 66
1
 10
0.0
 20
0.0
 30
0.0
  0
VERTEX
  8
0
 10
181.0
 20
198.25
 30
0.0
  0
VERTEX
  8
0
 10
181.0
 20
208.0
 30
0.0
 42
0.414213562373
  0
VERTEX
  8
0
 10
179.0
 20
210.0
 30
0.0
  0
VERTEX
  8
0
 10
150.0
 20
210.0
 30
0.0
 42
0.414213562373
  0
VERTEX
  8
0
 10
148.0
 20
208.0
 30
0.0
  0
VERTEX
  8
0
 10
148.0
 20
198.25
 30
0.0
  0
SEQEND
  8
0
  0
POLYLINE
  8
0
 62
7
 70
0
 66
1
 10
0.0
 20
0.0
 30
0.0
  0
VERTEX
  8
0
 10
148.0
 20
197.75
 30
0.0
  0
VERTEX
  8
0
 10
148.0
 20
188.0
 30
0.0
  0
VERTEX
  8
0
 10
152.0
 20
188.0
 30
0.0
  0
VERTEX
  8
0
 10
152.0
 20
183.0
 30
0.0
  0
VERTEX
  8
0
 10
157.0
 20
183.0
 30
0.0
  0
VERTEX
  8
0
 10
157.0
 20
188.0
 30
0.0
  0
VERTEX
  8
0
 10
163.0
 20
188.0
 30
0.0
  0
VERTEX
  8
0
 10
163.0
 20
191.0
 30
0.0
  0
VERTEX
  8
0
 10
161.7
 20
191.0
 30
0.0
  0
VERTEX
  8
0
 10
161.7
 20
193.5
 30
0.0
  0
VERTEX
  8
0
 10
163.0
 20
193.5
 30
0.0
  0
VERTEX
  8
0
 10
163.0
 20
196.0
 30
0.0
  0
VERTEX
  8
0
 10
166.0
 20
196.0
 30
0.0
  0
VERTEX
  8
0
 10
166.0
 20
193.5
 30
0.0
  0
VERTEX
  8
0
 10
167.3
 20
193.5
 30
0.0
  0
VERTEX
  8
0
 10
167.3
 20
191.0
 30
0.0
  0
VERTEX
  8
0
 10
166.0
 20
191.0
 30
0.0
  0
VERTEX
  8
0
 10
166.0
 20
188.0
 30
0.0
  0
VERTEX
  8
0
 10
172.0
 20
188.0
 30
0.0
  0
VERTEX
  8
0
 10
172.0
 20
183.0
 30
0.0
  0
VERTEX
  8
0
 10
177.0
 20
183.0
 30
0.0
  0
VERTEX
  8
0
 10
177.0
 20
188.0
 30
0.0
  0
VERTEX
  8
0
 10
181.0
 20
188.0
 30
0.0
  0
VERTEX
  8
0
 10
181.0
 20
197.75
 30
0.0
  0
SEQEND
  8
0
  0
CIRCLE
  8
0
 62
7
 10
172.0
 20
204.0
 30
0.0
 40
3.4
  0
ENDBLK
  0
BLOCK
  8
0
  2
SKETCH105
 70
0
 10
0.0
 20
0.0
 30
0.0
  3
SKETCH105
  0
POLYLINE
  8
0
 62
7
 70
0
 66
1
 10
0.0
 20
0.0
 30
0.0
  0
VERTEX
  8
0
 10
196.0
 20
250.25
 30
0.0
  0
VERTEX
  8
0
 10
196.0
 20
260.0
 30
0.0
 42
0.414213562373
  0
VERTEX
  8
0
 10
194.0
 20
262.0
 30
0.0
  0
VERTEX
  8
0
 10
165.0
 20
262.0
 30
0.0
 42
0.414213562373
  0
VERTEX
  8
0
 10
163.0
 20
260.0
 30
0.0
  0
VERTEX
  8
0
 10
163.0
 20
250.25
 30
0.0
  0
SEQEND
  8
0
  0
POLYLINE
  8
0
 62
7
 70
1
 66
1
 10
0.0
 20
0.0
 30
0.0
  0
VERTEX
  8
0
 10
182.3
 20
243.0
 30
0.0
  0
VERTEX
  8
0
 10
182.3
 20
245.5
 30
0.0
  0
VERTEX
  8
0
 10
176.7
 20
245.5
 30
0.0
  0
VERTEX
  8
0
 10
176.7
 20
243.0
 30
0.0
  0
SEQEND
  8
0
  0
POLYLINE
  8
0
 62
7
 70
0
 66
1
 10
0.0
 20
0.0
 30
0.0
  0
VERTEX
  8
0
 10
163.0
 20
249.75
 30
0.0
  0
VERTEX
  8
0
 10
163.0
 20
240.0
 30
0.0
  0
VERTEX
  8
0
 10
196.0
 20
240.0
 30
0.0
  0
VERTEX
  8
0
 10
196.0
 20
249.75
 30
0.0
  0
SEQEND
  8
0
  0
POLYLINE
  8
0
 62
7
 70
1
 66
1
 10
0.0
 20
0.0
 30
0.0
  0
VERTEX
  8
0
 10
186.656880734
 20
259.382642335
 30
0.0
  0
VERTEX
  8
0
 10
170.473394495
 20
257.741065908
 30
0.0
 42
0.903696114115
  0
VERTEX
  8
0
 10
170.473394495
 20
254.258934092
 30
0.0
  0
VERTEX
  8
0
 10
186.656880734
 20
252.617357665
 30
0.0
 42
1.10656667035
  0
SEQEND
  8
0
  0
ENDBLK
  0
BLOCK
  8
0
  2
SKETCH102
 70
0
 10
0.0
 20
0.0
 30
0.0
  3
SKETCH102
  0
POLYLINE
  8
0
 62
7
 70
0
 66
1
 10
0.0
 20
0.0
 30
0.0
  0
VERTEX
  8
0
 10
117.0
 20
267.25
 30
0.0
  0
VERTEX
  8
0
 10
117.0
 20
292.0
 30
0.0
 42
0.414213562373
  0
VERTEX
  8
0
 10
115.0
 20
294.0
 30
0.0
  0
VERTEX
  8
0
 10
75.0
 20
294.0
 30
0.0
 42
0.414213562373
  0
VERTEX
  8
0
 10
73.0
 20
292.0
 30
0.0
  0
VERTEX
  8
0
 10
73.0
 20
267.25
 30
0.0
  0
SEQEND
  8
0
  0
POLYLINE
  8
0
 62
7
 70
0
 66
1
 10
0.0
 20
0.0
 30
0.0
  0
VERTEX
  8
0
 10
73.0
 20
266.75
 30
0.0
  0
VERTEX
  8
0
 10
73.0
 20
242.0
 30
0.0
 42
0.414213562373
  0
VERTEX
  8
0
 10
75.0
 20
240.0
 30
0.0
  0
VERTEX
  8
0
 10
115.0
 20
240.0
 30
0.0
 42
0.414213562373
  0
VERTEX
  8
0
 10
117.0
 20
242.0
 30
0.0
  0
VERTEX
  8
0
 10
117.0
 20
266.75
 30
0.0
  0
SEQEND
  8
0
  0
CIRCLE
  8
0
 62
7
 10
100.5
 20
288.5
 30
0.0
 40
3.0
  0
CIRCLE
  8
0
 62
7
 10
100.5
 20
245.5
 30
0.0
 40
3.0
  0
POLYLINE
  8
0
 62
7
 70
1
 66
1
 10
0.0
 20
0.0
 30
0.0
  0
VERTEX
  8
0
 10
108.0
 20
290.0
 30
0.0
  0
VERTEX
  8
0
 10
113.0
 20
290.0
 30
0.0
  0
VERTEX
  8
0
 10
113.0
 20
287.0
 30
0.0
  0
VERTEX
  8
0
 10
108.0
 20
287.0
 30
0.0
  0
SEQEND
  8
0
  0
POLYLINE
  8
0
 62
7
 70
1
 66
1
 10
0.0
 20
0.0
 30
0.0
  0
VERTEX
  8
0
 10
88.0
 20
290.0
 30
0.0
  0
VERTEX
  8
0
 10
93.0
 20
290.0
 30
0.0
  0
VERTEX
  8
0
 10
93.0
 20
287.0
 30
0.0
  0
VERTEX
  8
0
 10
88.0
 20
287.0
 30
0.0
  0
SEQEND
  8
0
  0
POLYLINE
  8
0
 62
7
 70
1
 66
1
 10
0.0
 20
0.0
 30
0.0
  0
VERTEX
  8
0
 10
88.0
 20
247.0
 30
0.0
  0
VERTEX
  8
0
 10
93.0
 20
247.0
 30
0.0
  0
VERTEX
  8
0
 10
93.0
 20
244.0
 30
0.0
  0
VERTEX
  8
0
 10
88.0
 20
244.0
 30
0.0
  0
SEQEND
  8
0
  0
POLYLINE
  8
0
 62
7
 70
1
 66
1
 10
0.0
 20
0.0
 30
0.0
  0
VERTEX
  8
0
 10
108.0
 20
247.0
 30
0.0
  0
VERTEX
  8
0
 10
113.0
 20
247.0
 30
0.0
  0
VERTEX
  8
0
 10
113.0
 20
244.0
 30
0.0
  0
VERTEX
  8
0
 10
108.0
 20
244.0
 30
0.0
  0
SEQEND
  8
0
  0
POLYLINE
  8
0
 62
7
 70
1
 66
1
 10
0.0
 20
0.0
 30
0.0
  0
VERTEX
  8
0
 10
110.0
 20
255.0
 30
0.0
  0
VERTEX
  8
0
 10
111.0
 20
256.732050808
 30
0.0
  0
VERTEX
  8
0
 10
109.0
 20
256.732050808
 30
0.0
  0
SEQEND
  8
0
  0
ENDBLK
  0
BLOCK
  8
0
  2
SKETCH103
 70
0
 10
0.0
 20
0.0
 30
0.0
  3
SKETCH103
  0
POLYLINE
  8
0
 62
7
 70
0
 66
1
 10
0.0
 20
0.0
 30
0.0
  0
VERTEX
  8
0
 10
162.0
 20
267.25
 30
0.0
  0
VERTEX
  8
0
 10
162.0
 20
292.0
 30
0.0
 42
0.414213562373
  0
VERTEX
  8
0
 10
160.0
 20
294.0
 30
0.0
  0
VERTEX
  8
0
 10
120.0
 20
294.0
 30
0.0
 42
0.414213562373
  0
VERTEX
  8
0
 10
118.0
 20
292.0
 30
0.0
  0
VERTEX
  8
0
 10
118.0
 20
267.25
 30
0.0
  0
SEQEND
  8
0
  0
POLYLINE
  8
0
 62
7
 70
0
 66
1
 10
0.0
 20
0.0
 30
0.0
  0
VERTEX
  8
0
 10
118.0
 20
266.75
 30
0.0
  0
VERTEX
  8
0
 10
118.0
 20
242.0
 30
0.0
 42
0.414213562373
  0
VERTEX
  8
0
 10
120.0
 20
240.0
 30
0.0
  0
VERTEX
  8
0
 10
160.0
 20
240.0
 30
0.0
 42
0.414213562373
  0
VERTEX
  8
0
 10
162.0
 20
242.0
 30
0.0
  0
VERTEX
  8
0
 10
162.0
 20
266.75
 30
0.0
  0
SEQEND
  8
0
  0
CIRCLE
  8
0
 62
7
 10
134.5
 20
288.5
 30
0.0
 40
3.0
  0
CIRCLE
  8
0
 62
7
 10
134.5
 20
245.5
 30
0.0
 40
3.0
  0
POLYLINE
  8
0
 62
7
 70
1
 66
1
 10
0.0
 20
0.0
 30
0.0
  0
VERTEX
  8
0
 10
142.0
 20
290.0
 30
0.0
  0
VERTEX
  8
0
 10
147.0
 20
290.0
 30
0.0
  0
VERTEX
  8
0
 10
147.0
 20
287.0
 30
0.0
  0
VERTEX
  8
0
 10
142.0
 20
287.0
 30
0.0
  0
SEQEND
  8
0
  0
POLYLINE
  8
0
 62
7
 70
1
 66
1
 10
0.0
 20
0.0
 30
0.0
  0
VERTEX
  8
0
 10
122.0
 20
290.0
 30
0.0
  0
VERTEX
  8
0
 10
127.0
 20
290.0
 30
0.0
  0
VERTEX
  8
0
 10
127.0
 20
287.0
 30
0.0
  0
VERTEX
  8
0
 10
122.0
 20
287.0
 30
0.0
  0
SEQEND
  8
0
  0
POLYLINE
  8
0
 62
7
 70
1
 66
1
 10
0.0
 20
0.0
 30
0.0
  0
VERTEX
  8
0
 10
122.0
 20
247.0
 30
0.0
  0
VERTEX
  8
0
 10
127.0
 20
247.0
 30
0.0
  0
VERTEX
  8
0
 10
127.0
 20
244.0
 30
0.0
  0
VERTEX
  8
0
 10
122.0
 20
244.0
 30
0.0
  0
SEQEND
  8
0
  0
POLYLINE
  8
0
 62
7
 70
1
 66
1
 10
0.0
 20
0.0
 30
0.0
  0
VERTEX
  8
0
 10
142.0
 20
247.0
 30
0.0
  0
VERTEX
  8
0
 10
147.0
 20
247.0
 30
0.0
  0
VERTEX
  8
0
 10
147.0
 20
244.0
 30
0.0
  0
VERTEX
  8
0
 10
142.0
 20
244.0
 30
0.0
  0
SEQEND
  8
0
  0
POLYLINE
  8
0
 62
7
 70
1
 66
1
 10
0.0
 20
0.0
 30
0.0
  0
VERTEX
  8
0
 10
125.0
 20
255.0
 30
0.0
  0
VERTEX
  8
0
 10
126.0
 20
256.732050808
 30
0.0
  0
VERTEX
  8
0
 10
124.0
 20
256.732050808
 30
0.0
  0
SEQEND
  8
0
  0
ENDBLK
  0
BLOCK
  8
0
  2
SKETCH099
 70
0
 10
0.0
 20
0.0
 30
0.0
  3
SKETCH099
  0
POLYLINE
  8
0
 62
7
 70
0
 66
1
 10
0.0
 20
0.0
 30
0.0
  0
VERTEX
  8
0
 10
181.0
 20
142.25
 30
0.0
  0
VERTEX
  8
0
 10
181.0
 20
152.0
 30
0.0
 42
0.414213562373
  0
VERTEX
  8
0
 10
179.0
 20
154.0
 30
0.0
  0
VERTEX
  8
0
 10
150.0
 20
154.0
 30
0.0
 42
0.414213562373
  0
VERTEX
  8
0
 10
148.0
 20
152.0
 30
0.0
  0
VERTEX
  8
0
 10
148.0
 20
142.25
 30
0.0
  0
SEQEND
  8
0
  0
POLYLINE
  8
0
 62
7
 70
0
 66
1
 10
0.0
 20
0.0
 30
0.0
  0
VERTEX
  8
0
 10
148.0
 20
141.75
 30
0.0
  0
VERTEX
  8
0
 10
148.0
 20
132.0
 30
0.0
  0
VERTEX
  8
0
 10
152.0
 20
132.0
 30
0.0
  0
VERTEX
  8
0
 10
152.0
 20
127.0
 30
0.0
  0
VERTEX
  8
0
 10
157.0
 20
127.0
 30
0.0
  0
VERTEX
  8
0
 10
157.0
 20
132.0
 30
0.0
  0
VERTEX
  8
0
 10
163.0
 20
132.0
 30
0.0
  0
VERTEX
  8
0
 10
163.0
 20
135.0
 30
0.0
  0
VERTEX
  8
0
 10
161.7
 20
135.0
 30
0.0
  0
VERTEX
  8
0
 10
161.7
 20
137.5
 30
0.0
  0
VERTEX
  8
0
 10
163.0
 20
137.5
 30
0.0
  0
VERTEX
  8
0
 10
163.0
 20
140.0
 30
0.0
  0
VERTEX
  8
0
 10
166.0
 20
140.0
 30
0.0
  0
VERTEX
  8
0
 10
166.0
 20
137.5
 30
0.0
  0
VERTEX
  8
0
 10
167.3
 20
137.5
 30
0.0
  0
VERTEX
  8
0
 10
167.3
 20
135.0
 30
0.0
  0
VERTEX
  8
0
 10
166.0
 20
135.0
 30
0.0
  0
VERTEX
  8
0
 10
166.0
 20
132.0
 30
0.0
  0
VERTEX
  8
0
 10
172.0
 20
132.0
 30
0.0
  0
VERTEX
  8
0
 10
172.0
 20
127.0
 30
0.0
  0
VERTEX
  8
0
 10
177.0
 20
127.0
 30
0.0
  0
VERTEX
  8
0
 10
177.0
 20
132.0
 30
0.0
  0
VERTEX
  8
0
 10
181.0
 20
132.0
 30
0.0
  0
VERTEX
  8
0
 10
181.0
 20
141.75
 30
0.0
  0
SEQEND
  8
0
  0
CIRCLE
  8
0
 62
7
 10
157.0
 20
148.0
 30
0.0
 40
1.5
  0
ENDBLK
  0
BLOCK
  8
0
  2
SKETCH101
 70
0
 10
0.0
 20
0.0
 30
0.0
  3
SKETCH101
  0
POLYLINE
  8
0
 62
7
 70
0
 66
1
 10
0.0
 20
0.0
 30
0.0
  0
VERTEX
  8
0
 10
181.0
 20
226.25
 30
0.0
  0
VERTEX
  8
0
 10
181.0
 20
236.0
 30
0.0
 42
0.414213562373
  0
VERTEX
  8
0
 10
179.0
 20
238.0
 30
0.0
  0
VERTEX
  8
0
 10
150.0
 20
238.0
 30
0.0
 42
0.414213562373
  0
VERTEX
  8
0
 10
148.0
 20
236.0
 30
0.0
  0
VERTEX
  8
0
 10
148.0
 20
226.25
 30
0.0
  0
SEQEND
  8
0
  0
POLYLINE
  8
0
 62
7
 70
0
 66
1
 10
0.0
 20
0.0
 30
0.0
  0
VERTEX
  8
0
 10
148.0
 20
225.75
 30
0.0
  0
VERTEX
  8
0
 10
148.0
 20
216.0
 30
0.0
  0
VERTEX
  8
0
 10
152.0
 20
216.0
 30
0.0
  0
VERTEX
  8
0
 10
152.0
 20
211.0
 30
0.0
  0
VERTEX
  8
0
 10
157.0
 20
211.0
 30
0.0
  0
VERTEX
  8
0
 10
157.0
 20
216.0
 30
0.0
  0
VERTEX
  8
0
 10
163.0
 20
216.0
 30
0.0
  0
VERTEX
  8
0
 10
163.0
 20
219.0
 30
0.0
  0
VERTEX
  8
0
 10
161.7
 20
219.0
 30
0.0
  0
VERTEX
  8
0
 10
161.7
 20
221.5
 30
0.0
  0
VERTEX
  8
0
 10
163.0
 20
221.5
 30
0.0
  0
VERTEX
  8
0
 10
163.0
 20
224.0
 30
0.0
  0
VERTEX
  8
0
 10
166.0
 20
224.0
 30
0.0
  0
VERTEX
  8
0
 10
166.0
 20
221.5
 30
0.0
  0
VERTEX
  8
0
 10
167.3
 20
221.5
 30
0.0
  0
VERTEX
  8
0
 10
167.3
 20
219.0
 30
0.0
  0
VERTEX
  8
0
 10
166.0
 20
219.0
 30
0.0
  0
VERTEX
  8
0
 10
166.0
 20
216.0
 30
0.0
  0
VERTEX
  8
0
 10
172.0
 20
216.0
 30
0.0
  0
VERTEX
  8
0
 10
172.0
 20
211.0
 30
0.0
  0
VERTEX
  8
0
 10
177.0
 20
211.0
 30
0.0
  0
VERTEX
  8
0
 10
177.0
 20
216.0
 30
0.0
  0
VERTEX
  8
0
 10
181.0
 20
216.0
 30
0.0
  0
VERTEX
  8
0
 10
181.0
 20
225.75
 30
0.0
  0
SEQEND
  8
0
  0
CIRCLE
  8
0
 62
7
 10
157.0
 20
232.0
 30
0.0
 40
3.4
  0
ENDBLK
  0
BLOCK
  8
0
  2
SKETCH104
 70
0
 10
0.0
 20
0.0
 30
0.0
  3
SKETCH104
  0
POLYLINE
  8
0
 62
7
 70
0
 66
1
 10
0.0
 20
0.0
 30
0.0
  0
VERTEX
  8
0
 10
196.0
 20
273.25
 30
0.0
  0
VERTEX
  8
0
 10
196.0
 20
283.0
 30
0.0
 42
0.414213562373
  0
VERTEX
  8
0
 10
194.0
 20
285.0
 30
0.0
  0
VERTEX
  8
0
 10
165.0
 20
285.0
 30
0.0
 42
0.414213562373
  0
VERTEX
  8
0
 10
163.0
 20
283.0
 30
0.0
  0
VERTEX
  8
0
 10
163.0
 20
273.25
 30
0.0
  0
SEQEND
  8
0
  0
POLYLINE
  8
0
 62
7
 70
1
 66
1
 10
0.0
 20
0.0
 30
0.0
  0
VERTEX
  8
0
 10
182.3
 20
266.0
 30
0.0
  0
VERTEX
  8
0
 10
182.3
 20
268.5
 30
0.0
  0
VERTEX
  8
0
 10
176.7
 20
268.5
 30
0.0
  0
VERTEX
  8
0
 10
176.7
 20
266.0
 30
0.0
  0
SEQEND
  8
0
  0
POLYLINE
  8
0
 62
7
 70
0
 66
1
 10
0.0
 20
0.0
 30
0.0
  0
VERTEX
  8
0
 10
163.0
 20
272.75
 30
0.0
  0
VERTEX
  8
0
 10
163.0
 20
263.0
 30
0.0
  0
VERTEX
  8
0
 10
196.0
 20
263.0
 30
0.0
  0
VERTEX
  8
0
 10
196.0
 20
272.75
 30
0.0
  0
SEQEND
  8
0
  0
POLYLINE
  8
0
 62
7
 70
1
 66
1
 10
0.0
 20
0.0
 30
0.0
  0
VERTEX
  8
0
 10
172.343119266
 20
282.382642335
 30
0.0
  0
VERTEX
  8
0
 10
188.526605505
 20
280.741065908
 30
0.0
 42
-0.903696114115
  0
VERTEX
  8
0
 10
188.526605505
 20
277.258934092
 30
0.0
  0
VERTEX
  8
0
 10
172.343119266
 20
275.617357665
 30
0.0
 42
-1.10656667035
  0
SEQEND
  8
0
  0
ENDBLK
  0
BLOCK
  8
0
  2
SKETCH108
 70
0
 10
0.0
 20
0.0
 30
0.0
  3
SKETCH108
  0
POLYLINE
  8
0
 62
7
 70
0
 66
1
 10
0.0
 20
0.0
 30
0.0
  0
VERTEX
  8
0
 10
38.75
 20
267.0
 30
0.0
  0
VERTEX
  8
0
 10
56.5
 20
267.0
 30
0.0
  0
VERTEX
  8
0
 10
56.5
 20
262.0
 30
0.0
  0
VERTEX
  8
0
 10
53.5
 20
262.0
 30
0.0
  0
VERTEX
  8
0
 10
53.5
 20
257.0
 30
0.0
  0
VERTEX
  8
0
 10
56.5
 20
257.0
 30
0.0
  0
VERTEX
  8
0
 10
56.5
 20
252.0
 30
0.0
  0
VERTEX
  8
0
 10
38.75
 20
252.0
 30
0.0
  0
SEQEND
  8
0
  0
POLYLINE
  8
0
 62
7
 70
0
 66
1
 10
0.0
 20
0.0
 30
0.0
  0
VERTEX
  8
0
 10
38.25
 20
267.0
 30
0.0
  0
VERTEX
  8
0
 10
20.5
 20
267.0
 30
0.0
  0
VERTEX
  8
0
 10
20.5
 20
262.0
 30
0.0
  0
VERTEX
  8
0
 10
23.5
 20
262.0
 30
0.0
  0
VERTEX
  8
0
 10
23.5
 20
257.0
 30
0.0
  0
VERTEX
  8
0
 10
20.5
 20
257.0
 30
0.0
  0
VERTEX
  8
0
 10
20.5
 20
252.0
 30
0.0
  0
VERTEX
  8
0
 10
38.25
 20
252.0
 30
0.0
  0
SEQEND
  8
0
  0
ENDBLK
  0
BLOCK
  8
0
  2
SKETCH003
 70
0
 10
0.0
 20
0.0
 30
0.0
  3
SKETCH003
  0
POLYLINE
  8
0
 62
7
 70
0
 66
1
 10
0.0
 20
0.0
 30
0.0
  0
VERTEX
  8
0
 10
39.75
 20
152.0
 30
0.0
  0
VERTEX
  8
0
 10
30.0
 20
152.0
 30
0.0
  0
VERTEX
  8
0
 10
30.0
 20
149.0
 30
0.0
  0
VERTEX
  8
0
 10
5.0
 20
149.0
 30
0.0
  0
VERTEX
  8
0
 10
5.0
 20
99.0
 30
0.0
  0
VERTEX
  8
0
 10
30.0
 20
99.0
 30
0.0
  0
VERTEX
  8
0
 10
30.0
 20
96.0
 30
0.0
  0
VERTEX
  8
0
 10
39.75
 20
96.0
 30
0.0
  0
SEQEND
  8
0
  0
POLYLINE
  8
0
 62
7
 70
0
 66
1
 10
0.0
 20
0.0
 30
0.0
  0
VERTEX
  8
0
 10
40.25
 20
96.0
 30
0.0
  0
VERTEX
  8
0
 10
50.0
 20
96.0
 30
0.0
  0
VERTEX
  8
0
 10
50.0
 20
99.0
 30
0.0
  0
VERTEX
  8
0
 10
75.0
 20
99.0
 30
0.0
  0
VERTEX
  8
0
 10
75.0
 20
149.0
 30
0.0
  0
VERTEX
  8
0
 10
50.0
 20
149.0
 30
0.0
  0
VERTEX
  8
0
 10
50.0
 20
152.0
 30
0.0
  0
VERTEX
  8
0
 10
40.25
 20
152.0
 30
0.0
  0
SEQEND
  8
0
  0
CIRCLE
  8
0
 62
7
 10
27.25
 20
129.0
 30
0.0
 40
7.9
  0
CIRCLE
  8
0
 62
7
 10
52.75
 20
129.0
 30
0.0
 40
7.9
  0
POLYLINE
  8
0
 62
7
 70
1
 66
1
 10
0.0
 20
0.0
 30
0.0
  0
VERTEX
  8
0
 10
26.5
 20
115.042997637
 30
0.0
 42
0.305080371283
  0
VERTEX
  8
0
 10
26.8115942029
 20
114.579852676
 30
0.0
 42
0.195615202881
  0
VERTEX
  8
0
 10
53.1884057971
 20
114.579852676
 30
0.0
 42
0.305080371284
  0
VERTEX
  8
0
 10
53.5
 20
115.042997637
 30
0.0
 42
-1.0
  0
VERTEX
  8
0
 10
54.5
 20
115.042997637
 30
0.0
 42
-0.305080371283
  0
VERTEX
  8
0
 10
53.5652173913
 20
113.653562752
 30
0.0
 42
-0.195615202881
  0
VERTEX
  8
0
 10
26.4347826087
 20
113.653562752
 30
0.0
 42
-0.305080371283
  0
VERTEX
  8
0
 10
25.5
 20
115.042997637
 30
0.0
 42
-1.0
  0
SEQEND
  8
0
  0
ENDBLK
  0
BLOCK
  8
0
  2
SKETCH080
 70
0
 10
0.0
 20
0.0
 30
0.0
  3
SKETCH080
  0
POLYLINE
  8
0
 62
7
 70
0
 66
1
 10
0.0
 20
0.0
 30
0.0
  0
VERTEX
  8
0
 10
126.8
 20
157.25
 30
0.0
  0
VERTEX
  8
0
 10
126.8
 20
170.0
 30
0.0
 42
-1.0
  0
VERTEX
  8
0
 10
130.8
 20
170.0
 30
0.0
 42
0.414213562373
  0
VERTEX
  8
0
 10
132.8
 20
168.0
 30
0.0
  0
VERTEX
  8
0
 10
138.8
 20
168.0
 30
0.0
 42
-0.414213562373
  0
VERTEX
  8
0
 10
140.8
 20
166.0
 30
0.0
  0
VERTEX
  8
0
 10
140.8
 20
157.25
 30
0.0
  0
SEQEND
  8
0
  0
POLYLINE
  8
0
 62
7
 70
0
 66
1
 10
0.0
 20
0.0
 30
0.0
  0
VERTEX
  8
0
 10
140.8
 20
156.75
 30
0.0
  0
VERTEX
  8
0
 10
140.8
 20
148.0
 30
0.0
 42
-0.414213562373
  0
VERTEX
  8
0
 10
138.8
 20
146.0
 30
0.0
  0
VERTEX
  8
0
 10
138.8
 20
143.0
 30
0.0
  0
VERTEX
  8
0
 10
129.0
 20
143.0
 30
0.0
  0
VERTEX
  8
0
 10
129.0
 20
146.0
 30
0.0
 42
-0.443865691193
  0
VERTEX
  8
0
 10
126.8
 20
147.989974874
 30
0.0
  0
VERTEX
  8
0
 10
126.8
 20
156.75
 30
0.0
  0
SEQEND
  8
0
  0
POLYLINE
  8
0
 62
7
 70
1
 66
1
 10
0.0
 20
0.0
 30
0.0
  0
VERTEX
  8
0
 10
128.9
 20
165.0
 30
0.0
  0
VERTEX
  8
0
 10
138.9
 20
165.0
 30
0.0
  0
VERTEX
  8
0
 10
138.9
 20
162.0
 30
0.0
  0
VERTEX
  8
0
 10
128.9
 20
162.0
 30
0.0
  0
SEQEND
  8
0
  0
CIRCLE
  8
0
 62
7
 10
129.9
 20
158.0
 30
0.0
 40
1.0
  0
CIRCLE
  8
0
 62
7
 10
133.9
 20
158.0
 30
0.0
 40
1.0
  0
CIRCLE
  8
0
 62
7
 10
137.9
 20
158.0
 30
0.0
 40
1.0
  0
CIRCLE
  8
0
 62
7
 10
129.9
 20
154.0
 30
0.0
 40
1.0
  0
CIRCLE
  8
0
 62
7
 10
133.9
 20
154.0
 30
0.0
 40
1.0
  0
CIRCLE
  8
0
 62
7
 10
137.9
 20
154.0
 30
0.0
 40
1.0
  0
CIRCLE
  8
0
 62
7
 10
129.9
 20
150.0
 30
0.0
 40
1.0
  0
CIRCLE
  8
0
 62
7
 10
133.9
 20
150.0
 30
0.0
 40
1.0
  0
CIRCLE
  8
0
 62
7
 10
137.9
 20
150.0
 30
0.0
 40
1.0
  0
ENDBLK
  0
BLOCK
  8
0
  2
SKETCH107
 70
0
 10
0.0
 20
0.0
 30
0.0
  3
SKETCH107
  0
POLYLINE
  8
0
 62
7
 70
0
 66
1
 10
0.0
 20
0.0
 30
0.0
  0
VERTEX
  8
0
 10
38.75
 20
284.0
 30
0.0
  0
VERTEX
  8
0
 10
56.5
 20
284.0
 30
0.0
  0
VERTEX
  8
0
 10
56.5
 20
279.0
 30
0.0
  0
VERTEX
  8
0
 10
53.5
 20
279.0
 30
0.0
  0
VERTEX
  8
0
 10
53.5
 20
274.0
 30
0.0
  0
VERTEX
  8
0
 10
56.5
 20
274.0
 30
0.0
  0
VERTEX
  8
0
 10
56.5
 20
269.0
 30
0.0
  0
VERTEX
  8
0
 10
38.75
 20
269.0
 30
0.0
  0
SEQEND
  8
0
  0
POLYLINE
  8
0
 62
7
 70
0
 66
1
 10
0.0
 20
0.0
 30
0.0
  0
VERTEX
  8
0
 10
38.25
 20
284.0
 30
0.0
  0
VERTEX
  8
0
 10
20.5
 20
284.0
 30
0.0
  0
VERTEX
  8
0
 10
20.5
 20
279.0
 30
0.0
  0
VERTEX
  8
0
 10
23.5
 20
279.0
 30
0.0
  0
VERTEX
  8
0
 10
23.5
 20
274.0
 30
0.0
  0
VERTEX
  8
0
 10
20.5
 20
274.0
 30
0.0
  0
VERTEX
  8
0
 10
20.5
 20
269.0
 30
0.0
  0
VERTEX
  8
0
 10
38.25
 20
269.0
 30
0.0
  0
SEQEND
  8
0
  0
ENDBLK
  0
BLOCK
  8
0
  2
SKETCH070
 70
0
 10
0.0
 20
0.0
 30
0.0
  3
SKETCH070
  0
POLYLINE
  8
0
 62
7
 70
0
 66
1
 10
0.0
 20
0.0
 30
0.0
  0
VERTEX
  8
0
 10
93.0
 20
175.0
 30
0.0
  0
VERTEX
  8
0
 10
86.0
 20
175.0
 30
0.0
  0
VERTEX
  8
0
 10
86.0
 20
172.0
 30
0.0
  0
VERTEX
  8
0
 10
76.0
 20
172.0
 30
0.0
  0
VERTEX
  8
0
 10
76.0
 20
175.0
 30
0.0
  0
VERTEX
  8
0
 10
66.0
 20
175.0
 30
0.0
  0
VERTEX
  8
0
 10
66.0
 20
200.0
 30
0.0
 42
-0.414213562373
  0
VERTEX
  8
0
 10
68.0
 20
202.0
 30
0.0
  0
VERTEX
  8
0
 10
93.0
 20
202.0
 30
0.0
  0
SEQEND
  8
0
  0
POLYLINE
  8
0
 62
7
 70
0
 66
1
 10
0.0
 20
0.0
 30
0.0
  0
VERTEX
  8
0
 10
93.5
 20
202.0
 30
0.0
  0
VERTEX
  8
0
 10
103.5
 20
202.0
 30
0.0
  0
VERTEX
  8
0
 10
103.5
 20
205.0
 30
0.0
  0
VERTEX
  8
0
 10
116.0
 20
205.0
 30
0.0
  0
VERTEX
  8
0
 10
116.0
 20
202.0
 30
0.0
  0
VERTEX
  8
0
 10
126.0
 20
202.0
 30
0.0
  0
VERTEX
  8
0
 10
126.0
 20
175.0
 30
0.0
  0
VERTEX
  8
0
 10
116.0
 20
175.0
 30
0.0
  0
VERTEX
  8
0
 10
116.0
 20
172.0
 30
0.0
  0
VERTEX
  8
0
 10
106.0
 20
172.0
 30
0.0
  0
VERTEX
  8
0
 10
106.0
 20
175.0
 30
0.0
  0
VERTEX
  8
0
 10
93.5
 20
175.0
 30
0.0
  0
SEQEND
  8
0
  0
POLYLINE
  8
0
 62
7
 70
1
 66
1
 10
0.0
 20
0.0
 30
0.0
  0
VERTEX
  8
0
 10
111.0
 20
188.0
 30
0.0
  0
VERTEX
  8
0
 10
112.0
 20
189.732050808
 30
0.0
  0
VERTEX
  8
0
 10
110.0
 20
189.732050808
 30
0.0
  0
SEQEND
  8
0
  0
ENDBLK
  0
BLOCK
  8
0
  2
SKETCH113
 70
0
 10
0.0
 20
0.0
 30
0.0
  3
SKETCH113
  0
POLYLINE
  8
0
 62
7
 70
0
 66
1
 10
0.0
 20
0.0
 30
0.0
  0
VERTEX
  8
0
 10
90.0
 20
167.0
 30
0.0
  0
VERTEX
  8
0
 10
90.0
 20
170.0
 30
0.0
 42
-0.414213562373
  0
VERTEX
  8
0
 10
91.0
 20
171.0
 30
0.0
  0
VERTEX
  8
0
 10
121.1
 20
171.0
 30
0.0
 42
-0.414213562373
  0
VERTEX
  8
0
 10
122.1
 20
170.0
 30
0.0
  0
VERTEX
  8
0
 10
122.1
 20
167.0
 30
0.0
  0
SEQEND
  8
0
  0
POLYLINE
  8
0
 62
7
 70
0
 66
1
 10
0.0
 20
0.0
 30
0.0
  0
VERTEX
  8
0
 10
90.0
 20
166.5
 30
0.0
  0
VERTEX
  8
0
 10
90.0
 20
163.5
 30
0.0
 42
0.414213562373
  0
VERTEX
  8
0
 10
91.0
 20
162.5
 30
0.0
  0
VERTEX
  8
0
 10
103.55
 20
162.5
 30
0.0
 42
-1.0
  0
VERTEX
  8
0
 10
108.55
 20
162.5
 30
0.0
  0
VERTEX
  8
0
 10
121.1
 20
162.5
 30
0.0
 42
0.414213562373
  0
VERTEX
  8
0
 10
122.1
 20
163.5
 30
0.0
  0
VERTEX
  8
0
 10
122.1
 20
166.5
 30
0.0
  0
SEQEND
  8
0
  0
ENDBLK
  0
BLOCK
  8
0
  2
SKETCH110
 70
0
 10
0.0
 20
0.0
 30
0.0
  3
SKETCH110
  0
POLYLINE
  8
0
 62
7
 70
0
 66
1
 10
0.0
 20
0.0
 30
0.0
  0
VERTEX
  8
0
 10
34.75
 20
225.0
 30
0.0
  0
VERTEX
  8
0
 10
6.0
 20
225.0
 30
0.0
 42
0.414213562373
  0
VERTEX
  8
0
 10
5.0
 20
224.0
 30
0.0
  0
VERTEX
  8
0
 10
5.0
 20
210.0
 30
0.0
  0
VERTEX
  8
0
 10
15.0
 20
210.0
 30
0.0
  0
VERTEX
  8
0
 10
15.0
 20
213.0
 30
0.0
  0
VERTEX
  8
0
 10
25.0
 20
213.0
 30
0.0
  0
VERTEX
  8
0
 10
25.0
 20
210.0
 30
0.0
  0
VERTEX
  8
0
 10
34.75
 20
210.0
 30
0.0
  0
SEQEND
  8
0
  0
POLYLINE
  8
0
 62
7
 70
0
 66
1
 10
0.0
 20
0.0
 30
0.0
  0
VERTEX
  8
0
 10
35.25
 20
225.0
 30
0.0
  0
VERTEX
  8
0
 10
56.0
 20
225.0
 30
0.0
 42
-0.414213562373
  0
VERTEX
  8
0
 10
57.0
 20
224.0
 30
0.0
  0
VERTEX
  8
0
 10
57.0
 20
221.0
 30
0.0
 42
-0.414213562373
  0
VERTEX
  8
0
 10
56.0
 20
220.0
 30
0.0
  0
VERTEX
  8
0
 10
51.0
 20
220.0
 30
0.0
 42
0.414213562373
  0
VERTEX
  8
0
 10
50.0
 20
219.0
 30
0.0
  0
VERTEX
  8
0
 10
50.0
 20
218.0
 30
0.0
 42
0.414213562373
  0
VERTEX
  8
0
 10
51.0
 20
217.0
 30
0.0
  0
VERTEX
  8
0
 10
59.0
 20
217.0
 30
0.0
 42
0.414213562373
  0
VERTEX
  8
0
 10
60.0
 20
218.0
 30
0.0
  0
VERTEX
  8
0
 10
60.0
 20
224.0
 30
0.0
 42
-0.414213562373
  0
VERTEX
  8
0
 10
61.0
 20
225.0
 30
0.0
  0
VERTEX
  8
0
 10
64.0
 20
225.0
 30
0.0
 42
-0.414213562373
  0
VERTEX
  8
0
 10
65.0
 20
224.0
 30
0.0
  0
VERTEX
  8
0
 10
65.0
 20
210.0
 30
0.0
  0
VERTEX
  8
0
 10
55.0
 20
210.0
 30
0.0
  0
VERTEX
  8
0
 10
55.0
 20
213.0
 30
0.0
  0
VERTEX
  8
0
 10
45.0
 20
213.0
 30
0.0
  0
VERTEX
  8
0
 10
45.0
 20
210.0
 30
0.0
  0
VERTEX
  8
0
 10
35.25
 20
210.0
 30
0.0
  0
SEQEND
  8
0
  0
CIRCLE
  8
0
 62
7
 10
14.0
 20
219.0
 30
0.0
 40
1.5
  0
ENDBLK
  0
BLOCK
  8
0
  2
SKETCH075
 70
0
 10
0.0
 20
0.0
 30
0.0
  3
SKETCH075
  0
POLYLINE
  8
0
 62
7
 70
0
 66
1
 10
0.0
 20
0.0
 30
0.0
  0
VERTEX
  8
0
 10
98.5
 20
236.0
 30
0.0
  0
VERTEX
  8
0
 10
88.5
 20
236.0
 30
0.0
  0
VERTEX
  8
0
 10
88.5
 20
239.0
 30
0.0
  0
VERTEX
  8
0
 10
76.0
 20
239.0
 30
0.0
  0
VERTEX
  8
0
 10
76.0
 20
236.0
 30
0.0
  0
VERTEX
  8
0
 10
66.0
 20
236.0
 30
0.0
  0
VERTEX
  8
0
 10
66.0
 20
209.0
 30
0.0
  0
VERTEX
  8
0
 10
76.0
 20
209.0
 30
0.0
  0
VERTEX
  8
0
 10
76.0
 20
206.0
 30
0.0
  0
VERTEX
  8
0
 10
86.0
 20
206.0
 30
0.0
  0
VERTEX
  8
0
 10
86.0
 20
209.0
 30
0.0
  0
VERTEX
  8
0
 10
98.5
 20
209.0
 30
0.0
  0
SEQEND
  8
0
  0
POLYLINE
  8
0
 62
7
 70
0
 66
1
 10
0.0
 20
0.0
 30
0.0
  0
VERTEX
  8
0
 10
99.0
 20
236.0
 30
0.0
  0
VERTEX
  8
0
 10
124.0
 20
236.0
 30
0.0
 42
-0.414213562373
  0
VERTEX
  8
0
 10
126.0
 20
234.0
 30
0.0
  0
VERTEX
  8
0
 10
126.0
 20
209.0
 30
0.0
  0
VERTEX
  8
0
 10
116.0
 20
209.0
 30
0.0
  0
VERTEX
  8
0
 10
116.0
 20
206.0
 30
0.0
  0
VERTEX
  8
0
 10
106.0
 20
206.0
 30
0.0
  0
VERTEX
  8
0
 10
106.0
 20
209.0
 30
0.0
  0
VERTEX
  8
0
 10
99.0
 20
209.0
 30
0.0
  0
SEQEND
  8
0
  0
POLYLINE
  8
0
 62
7
 70
1
 66
1
 10
0.0
 20
0.0
 30
0.0
  0
VERTEX
  8
0
 10
81.0
 20
222.0
 30
0.0
  0
VERTEX
  8
0
 10
82.0
 20
223.732050808
 30
0.0
  0
VERTEX
  8
0
 10
80.0
 20
223.732050808
 30
0.0
  0
SEQEND
  8
0
  0
ENDBLK
  0
BLOCK
  8
0
  2
SKETCH109
 70
0
 10
0.0
 20
0.0
 30
0.0
  3
SKETCH109
  0
POLYLINE
  8
0
 62
7
 70
0
 66
1
 10
0.0
 20
0.0
 30
0.0
  0
VERTEX
  8
0
 10
34.75
 20
241.0
 30
0.0
  0
VERTEX
  8
0
 10
14.0
 20
241.0
 30
0.0
 42
0.414213562373
  0
VERTEX
  8
0
 10
13.0
 20
240.0
 30
0.0
  0
VERTEX
  8
0
 10
13.0
 20
237.0
 30
0.0
 42
0.414213562373
  0
VERTEX
  8
0
 10
14.0
 20
236.0
 30
0.0
  0
VERTEX
  8
0
 10
19.0
 20
236.0
 30
0.0
 42
-0.414213562373
  0
VERTEX
  8
0
 10
20.0
 20
235.0
 30
0.0
  0
VERTEX
  8
0
 10
20.0
 20
234.0
 30
0.0
 42
-0.414213562373
  0
VERTEX
  8
0
 10
19.0
 20
233.0
 30
0.0
  0
VERTEX
  8
0
 10
11.0
 20
233.0
 30
0.0
 42
-0.414213562373
  0
VERTEX
  8
0
 10
10.0
 20
234.0
 30
0.0
  0
VERTEX
  8
0
 10
10.0
 20
240.0
 30
0.0
 42
0.414213562373
  0
VERTEX
  8
0
 10
9.0
 20
241.0
 30
0.0
  0
VERTEX
  8
0
 10
6.0
 20
241.0
 30
0.0
 42
0.414213562373
  0
VERTEX
  8
0
 10
5.0
 20
240.0
 30
0.0
  0
VERTEX
  8
0
 10
5.0
 20
226.0
 30
0.0
  0
VERTEX
  8
0
 10
15.0
 20
226.0
 30
0.0
  0
VERTEX
  8
0
 10
15.0
 20
229.0
 30
0.0
  0
VERTEX
  8
0
 10
25.0
 20
229.0
 30
0.0
  0
VERTEX
  8
0
 10
25.0
 20
226.0
 30
0.0
  0
VERTEX
  8
0
 10
34.75
 20
226.0
 30
0.0
  0
SEQEND
  8
0
  0
POLYLINE
  8
0
 62
7
 70
0
 66
1
 10
0.0
 20
0.0
 30
0.0
  0
VERTEX
  8
0
 10
35.25
 20
241.0
 30
0.0
  0
VERTEX
  8
0
 10
64.0
 20
241.0
 30
0.0
 42
-0.414213562373
  0
VERTEX
  8
0
 10
65.0
 20
240.0
 30
0.0
  0
VERTEX
  8
0
 10
65.0
 20
226.0
 30
0.0
  0
VERTEX
  8
0
 10
55.0
 20
226.0
 30
0.0
  0
VERTEX
  8
0
 10
55.0
 20
229.0
 30
0.0
  0
VERTEX
  8
0
 10
45.0
 20
229.0
 30
0.0
  0
VERTEX
  8
0
 10
45.0
 20
226.0
 30
0.0
  0
VERTEX
  8
0
 10
35.25
 20
226.0
 30
0.0
  0
SEQEND
  8
0
  0
CIRCLE
  8
0
 62
7
 10
56.0
 20
235.0
 30
0.0
 40
1.5
  0
ENDBLK
  0
BLOCK
  8
0
  2
SKETCH111
 70
0
 10
0.0
 20
0.0
 30
0.0
  3
SKETCH111
  0
POLYLINE
  8
0
 62
7
 70
0
 66
1
 10
0.0
 20
0.0
 30
0.0
  0
VERTEX
  8
0
 10
127.0
 20
223.0
 30
0.0
  0
VERTEX
  8
0
 10
127.0
 20
237.0
 30
0.0
 42
-0.414213562373
  0
VERTEX
  8
0
 10
129.0
 20
239.0
 30
0.0
  0
VERTEX
  8
0
 10
147.1
 20
239.0
 30
0.0
  0
VERTEX
  8
0
 10
147.1
 20
229.0
 30
0.0
  0
VERTEX
  8
0
 10
144.1
 20
229.0
 30
0.0
  0
VERTEX
  8
0
 10
144.1
 20
234.0
 30
0.0
  0
VERTEX
  8
0
 10
132.0
 20
234.0
 30
0.0
  0
VERTEX
  8
0
 10
132.0
 20
223.0
 30
0.0
  0
SEQEND
  8
0
  0
POLYLINE
  8
0
 62
7
 70
0
 66
1
 10
0.0
 20
0.0
 30
0.0
  0
VERTEX
  8
0
 10
132.0
 20
222.5
 30
0.0
  0
VERTEX
  8
0
 10
132.0
 20
211.5
 30
0.0
  0
VERTEX
  8
0
 10
144.1
 20
211.5
 30
0.0
  0
VERTEX
  8
0
 10
144.1
 20
216.5
 30
0.0
  0
VERTEX
  8
0
 10
147.1
 20
216.5
 30
0.0
  0
VERTEX
  8
0
 10
147.1
 20
206.5
 30
0.0
  0
VERTEX
  8
0
 10
129.0
 20
206.5
 30
0.0
 42
-0.414213562373
  0
VERTEX
  8
0
 10
127.0
 20
208.5
 30
0.0
  0
VERTEX
  8
0
 10
127.0
 20
222.5
 30
0.0
  0
SEQEND
  8
0
  0
CIRCLE
  8
0
 62
7
 10
138.05
 20
236.5
 30
0.0
 40
1.0
  0
CIRCLE
  8
0
 62
7
 10
138.05
 20
209.0
 30
0.0
 40
1.0
  0
ENDBLK
  0
BLOCK
  8
0
  2
SKETCH112
 70
0
 10
0.0
 20
0.0
 30
0.0
  3
SKETCH112
  0
POLYLINE
  8
0
 62
7
 70
0
 66
1
 10
0.0
 20
0.0
 30
0.0
  0
VERTEX
  8
0
 10
127.0
 20
189.5
 30
0.0
  0
VERTEX
  8
0
 10
127.0
 20
203.5
 30
0.0
 42
-0.414213562373
  0
VERTEX
  8
0
 10
129.0
 20
205.5
 30
0.0
  0
VERTEX
  8
0
 10
147.1
 20
205.5
 30
0.0
  0
VERTEX
  8
0
 10
147.1
 20
195.5
 30
0.0
  0
VERTEX
  8
0
 10
144.1
 20
195.5
 30
0.0
  0
VERTEX
  8
0
 10
144.1
 20
200.5
 30
0.0
  0
VERTEX
  8
0
 10
132.0
 20
200.5
 30
0.0
  0
VERTEX
  8
0
 10
132.0
 20
189.5
 30
0.0
  0
SEQEND
  8
0
  0
POLYLINE
  8
0
 62
7
 70
0
 66
1
 10
0.0
 20
0.0
 30
0.0
  0
VERTEX
  8
0
 10
132.0
 20
189.0
 30
0.0
  0
VERTEX
  8
0
 10
132.0
 20
178.0
 30
0.0
  0
VERTEX
  8
0
 10
144.1
 20
178.0
 30
0.0
  0
VERTEX
  8
0
 10
144.1
 20
183.0
 30
0.0
  0
VERTEX
  8
0
 10
147.1
 20
183.0
 30
0.0
  0
VERTEX
  8
0
 10
147.1
 20
173.0
 30
0.0
  0
VERTEX
  8
0
 10
129.0
 20
173.0
 30
0.0
 42
-0.414213562373
  0
VERTEX
  8
0
 10
127.0
 20
175.0
 30
0.0
  0
VERTEX
  8
0
 10
127.0
 20
189.0
 30
0.0
  0
SEQEND
  8
0
  0
CIRCLE
  8
0
 62
7
 10
138.05
 20
203.0
 30
0.0
 40
1.0
  0
CIRCLE
  8
0
 62
7
 10
138.05
 20
175.5
 30
0.0
 40
1.0
  0
ENDBLK
  0
BLOCK
  8
0
  2
SKETCH114
 70
0
 10
0.0
 20
0.0
 30
0.0
  3
SKETCH114
  0
POLYLINE
  8
0
 62
7
 70
0
 66
1
 10
0.0
 20
0.0
 30
0.0
  0
VERTEX
  8
0
 10
90.0
 20
157.5
 30
0.0
  0
VERTEX
  8
0
 10
90.0
 20
160.5
 30
0.0
 42
-0.414213562373
  0
VERTEX
  8
0
 10
91.0
 20
161.5
 30
0.0
  0
VERTEX
  8
0
 10
121.1
 20
161.5
 30
0.0
 42
-0.414213562373
  0
VERTEX
  8
0
 10
122.1
 20
160.5
 30
0.0
  0
VERTEX
  8
0
 10
122.1
 20
157.5
 30
0.0
  0
SEQEND
  8
0
  0
POLYLINE
  8
0
 62
7
 70
0
 66
1
 10
0.0
 20
0.0
 30
0.0
  0
VERTEX
  8
0
 10
90.0
 20
157.0
 30
0.0
  0
VERTEX
  8
0
 10
90.0
 20
154.0
 30
0.0
 42
0.414213562373
  0
VERTEX
  8
0
 10
91.0
 20
153.0
 30
0.0
  0
VERTEX
  8
0
 10
103.55
 20
153.0
 30
0.0
 42
-1.0
  0
VERTEX
  8
0
 10
108.55
 20
153.0
 30
0.0
  0
VERTEX
  8
0
 10
121.1
 20
153.0
 30
0.0
 42
0.414213562373
  0
VERTEX
  8
0
 10
122.1
 20
154.0
 30
0.0
  0
VERTEX
  8
0
 10
122.1
 20
157.0
 30
0.0
  0
SEQEND
  8
0
  0
ENDBLK
  0
BLOCK
  8
0
  2
SKETCH115
 70
0
 10
0.0
 20
0.0
 30
0.0
  3
SKETCH115
  0
POLYLINE
  8
0
 62
7
 70
0
 66
1
 10
0.0
 20
0.0
 30
0.0
  0
VERTEX
  8
0
 10
93.15
 20
92.0
 30
0.0
  0
VERTEX
  8
0
 10
88.5
 20
92.0
 30
0.0
  0
VERTEX
  8
0
 10
88.5
 20
96.0
 30
0.0
 42
-0.414213562373
  0
VERTEX
  8
0
 10
89.5
 20
97.0
 30
0.0
  0
VERTEX
  8
0
 10
89.9
 20
97.0
 30
0.0
 42
0.414213562373
  0
VERTEX
  8
0
 10
90.9
 20
98.0
 30
0.0
  0
VERTEX
  8
0
 10
90.9
 20
100.559045199
 30
0.0
  0
VERTEX
  8
0
 10
87.9834714893
 20
98.4400632017
 30
0.0
 42
-1.37638192047
  0
VERTEX
  8
0
 10
85.7498875306
 20
105.31432778
 30
0.0
  0
VERTEX
  8
0
 10
89.3549150281
 20
105.31432778
 30
0.0
  0
VERTEX
  8
0
 10
86.4383865174
 20
107.433309777
 30
0.0
 42
-1.37638192047
  0
VERTEX
  8
0
 10
92.2859852381
 20
111.681838935
 30
0.0
  0
VERTEX
  8
0
 10
93.4
 20
108.253254042
 30
0.0
  0
VERTEX
  8
0
 10
94.5140147619
 20
111.681838935
 30
0.0
 42
-1.37638192047
  0
VERTEX
  8
0
 10
100.361613483
 20
107.433309777
 30
0.0
  0
VERTEX
  8
0
 10
97.4450849719
 20
105.31432778
 30
0.0
  0
VERTEX
  8
0
 10
101.050112469
 20
105.31432778
 30
0.0
 42
-1.37638192047
  0
VERTEX
  8
0
 10
98.8165285107
 20
98.4400632017
 30
0.0
  0
VERTEX
  8
0
 10
95.9
 20
100.559045199
 30
0.0
  0
VERTEX
  8
0
 10
95.9
 20
98.0
 30
0.0
 42
0.414213562373
  0
VERTEX
  8
0
 10
96.9
 20
97.0
 30
0.0
  0
VERTEX
  8
0
 10
97.3
 20
97.0
 30
0.0
 42
-0.414213562373
  0
VERTEX
  8
0
 10
98.3
 20
96.0
 30
0.0
  0
VERTEX
  8
0
 10
98.3
 20
92.0
 30
0.0
  0
VERTEX
  8
0
 10
93.65
 20
92.0
 30
0.0
  0
SEQEND
  8
0
  0
CIRCLE
  8
0
 62
7
 10
93.4
 20
104.0
 30
0.0
 40
1.0
  0
ENDBLK
  0
BLOCK
  8
0
  2
SKETCH052
 70
0
 10
0.0
 20
0.0
 30
0.0
  3
SKETCH052
  0
POLYLINE
  8
0
 62
7
 70
0
 66
1
 10
0.0
 20
0.0
 30
0.0
  0
VERTEX
  8
0
 10
94.0
 20
50.25
 30
0.0
  0
VERTEX
  8
0
 10
94.0
 20
80.0
 30
0.0
 42
-0.414213562373
  0
VERTEX
  8
0
 10
109.0
 20
95.0
 30
0.0
  0
VERTEX
  8
0
 10
169.0
 20
95.0
 30
0.0
 42
-0.414213562373
  0
VERTEX
  8
0
 10
184.0
 20
80.0
 30
0.0
  0
VERTEX
  8
0
 10
184.0
 20
50.25
 30
0.0
  0
SEQEND
  8
0
  0
POLYLINE
  8
0
 62
7
 70
0
 66
1
 10
0.0
 20
0.0
 30
0.0
  0
VERTEX
  8
0
 10
94.0
 20
49.75
 30
0.0
  0
VERTEX
  8
0
 10
94.0
 20
20.0
 30
0.0
 42
0.414213562373
  0
VERTEX
  8
0
 10
109.0
 20
5.0
 30
0.0
  0
VERTEX
  8
0
 10
169.0
 20
5.0
 30
0.0
 42
0.414213562373
  0
VERTEX
  8
0
 10
184.0
 20
20.0
 30
0.0
  0
VERTEX
  8
0
 10
184.0
 20
49.75
 30
0.0
  0
SEQEND
  8
0
  0
POLYLINE
  8
0
 62
7
 70
1
 66
1
 10
0.0
 20
0.0
 30
0.0
  0
VERTEX
  8
0
 10
129.0
 20
11.0
 30
0.0
  0
VERTEX
  8
0
 10
149.0
 20
11.0
 30
0.0
  0
VERTEX
  8
0
 10
149.0
 20
8.0
 30
0.0
  0
VERTEX
  8
0
 10
129.0
 20
8.0
 30
0.0
  0
SEQEND
  8
0
  0
CIRCLE
  8
0
 62
7
 10
104.0
 20
85.0
 30
0.0
 40
1.5
  0
CIRCLE
  8
0
 62
7
 10
174.0
 20
85.0
 30
0.0
 40
1.5
  0
CIRCLE
  8
0
 62
7
 10
104.0
 20
15.0
 30
0.0
 40
1.5
  0
CIRCLE
  8
0
 62
7
 10
174.0
 20
15.0
 30
0.0
 40
1.5
  0
POLYLINE
  8
0
 62
7
 70
1
 66
1
 10
0.0
 20
0.0
 30
0.0
  0
VERTEX
  8
0
 10
97.0
 20
29.0
 30
0.0
  0
VERTEX
  8
0
 10
104.0
 20
29.0
 30
0.0
  0
VERTEX
  8
0
 10
104.0
 20
26.0
 30
0.0
  0
VERTEX
  8
0
 10
97.0
 20
26.0
 30
0.0
  0
SEQEND
  8
0
  0
POLYLINE
  8
0
 62
7
 70
1
 66
1
 10
0.0
 20
0.0
 30
0.0
  0
VERTEX
  8
0
 10
174.0
 20
29.0
 30
0.0
  0
VERTEX
  8
0
 10
181.0
 20
29.0
 30
0.0
  0
VERTEX
  8
0
 10
181.0
 20
26.0
 30
0.0
  0
VERTEX
  8
0
 10
174.0
 20
26.0
 30
0.0
  0
SEQEND
  8
0
  0
POLYLINE
  8
0
 62
7
 70
1
 66
1
 10
0.0
 20
0.0
 30
0.0
  0
VERTEX
  8
0
 10
129.0
 20
55.0
 30
0.0
  0
VERTEX
  8
0
 10
129.0
 20
45.0
 30
0.0
 42
1.0
  0
VERTEX
  8
0
 10
134.0
 20
45.0
 30
0.0
  0
VERTEX
  8
0
 10
134.0
 20
55.0
 30
0.0
 42
1.0
  0
SEQEND
  8
0
  0
POLYLINE
  8
0
 62
7
 70
1
 66
1
 10
0.0
 20
0.0
 30
0.0
  0
VERTEX
  8
0
 10
144.0
 20
55.0
 30
0.0
  0
VERTEX
  8
0
 10
144.0
 20
45.0
 30
0.0
 42
1.0
  0
VERTEX
  8
0
 10
149.0
 20
45.0
 30
0.0
  0
VERTEX
  8
0
 10
149.0
 20
55.0
 30
0.0
 42
1.0
  0
SEQEND
  8
0
  0
POLYLINE
  8
0
 62
7
 70
1
 66
1
 10
0.0
 20
0.0
 30
0.0
  0
VERTEX
  8
0
 10
104.0
 20
57.5
 30
0.0
  0
VERTEX
  8
0
 10
116.1
 20
57.5
 30
0.0
  0
VERTEX
  8
0
 10
116.1
 20
35.0
 30
0.0
  0
VERTEX
  8
0
 10
104.0
 20
35.0
 30
0.0
  0
SEQEND
  8
0
  0
POLYLINE
  8
0
 62
7
 70
1
 66
1
 10
0.0
 20
0.0
 30
0.0
  0
VERTEX
  8
0
 10
161.9
 20
57.5
 30
0.0
  0
VERTEX
  8
0
 10
174.0
 20
57.5
 30
0.0
  0
VERTEX
  8
0
 10
174.0
 20
35.0
 30
0.0
  0
VERTEX
  8
0
 10
161.9
 20
35.0
 30
0.0
  0
SEQEND
  8
0
  0
CIRCLE
  8
0
 62
7
 10
110.05
 20
60.0
 30
0.0
 40
1.0
  0
CIRCLE
  8
0
 62
7
 10
110.05
 20
32.5
 30
0.0
 40
1.0
  0
CIRCLE
  8
0
 62
7
 10
167.95
 20
32.5
 30
0.0
 40
1.0
  0
CIRCLE
  8
0
 62
7
 10
167.95
 20
60.0
 30
0.0
 40
1.0
  0
POLYLINE
  8
0
 62
7
 70
1
 66
1
 10
0.0
 20
0.0
 30
0.0
  0
VERTEX
  8
0
 10
138.0
 20
36.7320508076
 30
0.0
  0
VERTEX
  8
0
 10
139.0
 20
35.0
 30
0.0
  0
VERTEX
  8
0
 10
140.0
 20
36.7320508076
 30
0.0
  0
SEQEND
  8
0
  0
POLYLINE
  8
0
 62
7
 70
1
 66
1
 10
0.0
 20
0.0
 30
0.0
  0
VERTEX
  8
0
 10
97.0
 20
70.0
 30
0.0
  0
VERTEX
  8
0
 10
104.0
 20
70.0
 30
0.0
  0
VERTEX
  8
0
 10
104.0
 20
67.0
 30
0.0
  0
VERTEX
  8
0
 10
97.0
 20
67.0
 30
0.0
  0
SEQEND
  8
0
  0
POLYLINE
  8
0
 62
7
 70
1
 66
1
 10
0.0
 20
0.0
 30
0.0
  0
VERTEX
  8
0
 10
174.0
 20
70.0
 30
0.0
  0
VERTEX
  8
0
 10
181.0
 20
70.0
 30
0.0
  0
VERTEX
  8
0
 10
181.0
 20
67.0
 30
0.0
  0
VERTEX
  8
0
 10
174.0
 20
67.0
 30
0.0
  0
SEQEND
  8
0
  0
ENDBLK
  0
BLOCK
  8
0
  2
SKETCH051
 70
0
 10
0.0
 20
0.0
 30
0.0
  3
SKETCH051
  0
POLYLINE
  8
0
 62
7
 70
0
 66
1
 10
0.0
 20
0.0
 30
0.0
  0
VERTEX
  8
0
 10
3.0
 20
50.25
 30
0.0
  0
VERTEX
  8
0
 10
3.0
 20
80.0
 30
0.0
 42
-0.414213562373
  0
VERTEX
  8
0
 10
18.0
 20
95.0
 30
0.0
  0
VERTEX
  8
0
 10
78.0
 20
95.0
 30
0.0
 42
-0.414213562373
  0
VERTEX
  8
0
 10
93.0
 20
80.0
 30
0.0
  0
VERTEX
  8
0
 10
93.0
 20
50.25
 30
0.0
  0
SEQEND
  8
0
  0
POLYLINE
  8
0
 62
7
 70
0
 66
1
 10
0.0
 20
0.0
 30
0.0
  0
VERTEX
  8
0
 10
3.0
 20
49.75
 30
0.0
  0
VERTEX
  8
0
 10
3.0
 20
20.0
 30
0.0
 42
0.414213562373
  0
VERTEX
  8
0
 10
18.0
 20
5.0
 30
0.0
  0
VERTEX
  8
0
 10
78.0
 20
5.00000000001
 30
0.0
 42
0.414213562373
  0
VERTEX
  8
0
 10
93.0
 20
20.0
 30
0.0
  0
VERTEX
  8
0
 10
93.0
 20
49.75
 30
0.0
  0
SEQEND
  8
0
  0
POLYLINE
  8
0
 62
7
 70
1
 66
1
 10
0.0
 20
0.0
 30
0.0
  0
VERTEX
  8
0
 10
38.0
 20
11.0
 30
0.0
  0
VERTEX
  8
0
 10
58.0
 20
11.0
 30
0.0
  0
VERTEX
  8
0
 10
58.0
 20
8.0
 30
0.0
  0
VERTEX
  8
0
 10
38.0
 20
8.0
 30
0.0
  0
SEQEND
  8
0
  0
CIRCLE
  8
0
 62
7
 10
38.5
 20
21.0
 30
0.0
 40
1.5
  0
CIRCLE
  8
0
 62
7
 10
23.6
 20
72.0
 30
0.0
 40
1.5
  0
CIRCLE
  8
0
 62
7
 10
72.1
 20
73.0
 30
0.0
 40
1.5
  0
CIRCLE
  8
0
 62
7
 10
13.0
 20
85.0
 30
0.0
 40
1.5
  0
CIRCLE
  8
0
 62
7
 10
83.0
 20
85.0
 30
0.0
 40
1.5
  0
CIRCLE
  8
0
 62
7
 10
13.0
 20
15.0
 30
0.0
 40
1.5
  0
CIRCLE
  8
0
 62
7
 10
83.0
 20
15.0
 30
0.0
 40
1.5
  0
POLYLINE
  8
0
 62
7
 70
1
 66
1
 10
0.0
 20
0.0
 30
0.0
  0
VERTEX
  8
0
 10
6.0
 20
29.0
 30
0.0
  0
VERTEX
  8
0
 10
13.0
 20
29.0
 30
0.0
  0
VERTEX
  8
0
 10
13.0
 20
26.0
 30
0.0
  0
VERTEX
  8
0
 10
6.0
 20
26.0
 30
0.0
  0
SEQEND
  8
0
  0
POLYLINE
  8
0
 62
7
 70
1
 66
1
 10
0.0
 20
0.0
 30
0.0
  0
VERTEX
  8
0
 10
83.0
 20
29.0
 30
0.0
  0
VERTEX
  8
0
 10
90.0
 20
29.0
 30
0.0
  0
VERTEX
  8
0
 10
90.0
 20
26.0
 30
0.0
  0
VERTEX
  8
0
 10
83.0
 20
26.0
 30
0.0
  0
SEQEND
  8
0
  0
POLYLINE
  8
0
 62
7
 70
1
 66
1
 10
0.0
 20
0.0
 30
0.0
  0
VERTEX
  8
0
 10
45.5
 20
89.0
 30
0.0
  0
VERTEX
  8
0
 10
50.5
 20
89.0
 30
0.0
 42
-1.0
  0
VERTEX
  8
0
 10
50.5
 20
85.0
 30
0.0
  0
VERTEX
  8
0
 10
45.5
 20
85.0
 30
0.0
 42
-1.0
  0
SEQEND
  8
0
  0
POLYLINE
  8
0
 62
7
 70
1
 66
1
 10
0.0
 20
0.0
 30
0.0
  0
VERTEX
  8
0
 10
47.0
 20
36.7320508076
 30
0.0
  0
VERTEX
  8
0
 10
49.0
 20
36.7320508076
 30
0.0
  0
VERTEX
  8
0
 10
48.0
 20
35.0
 30
0.0
  0
SEQEND
  8
0
  0
POLYLINE
  8
0
 62
7
 70
1
 66
1
 10
0.0
 20
0.0
 30
0.0
  0
VERTEX
  8
0
 10
83.0
 20
70.0
 30
0.0
  0
VERTEX
  8
0
 10
90.0
 20
70.0
 30
0.0
  0
VERTEX
  8
0
 10
90.0
 20
67.0
 30
0.0
  0
VERTEX
  8
0
 10
83.0
 20
67.0
 30
0.0
  0
SEQEND
  8
0
  0
POLYLINE
  8
0
 62
7
 70
1
 66
1
 10
0.0
 20
0.0
 30
0.0
  0
VERTEX
  8
0
 10
6.0
 20
70.0
 30
0.0
  0
VERTEX
  8
0
 10
13.0
 20
70.0
 30
0.0
  0
VERTEX
  8
0
 10
13.0
 20
67.0
 30
0.0
  0
VERTEX
  8
0
 10
6.0
 20
67.0
 30
0.0
  0
SEQEND
  8
0
  0
ENDBLK
  0
BLOCK
  8
0
  2
SKETCH042
 70
0
 10
0.0
 20
0.0
 30
0.0
  3
SKETCH042
  0
POLYLINE
  8
0
 62
7
 70
0
 66
1
 10
0.0
 20
0.0
 30
0.0
  0
VERTEX
  8
0
 10
203.0
 20
75.25
 30
0.0
  0
VERTEX
  8
0
 10
203.0
 20
53.0
 30
0.0
  0
VERTEX
  8
0
 10
199.0
 20
53.0
 30
0.0
  0
VERTEX
  8
0
 10
199.0
 20
56.0
 30
0.0
  0
VERTEX
  8
0
 10
195.5
 20
56.0
 30
0.0
  0
VERTEX
  8
0
 10
195.5
 20
59.0
 30
0.0
  0
VERTEX
  8
0
 10
196.8
 20
59.0
 30
0.0
  0
VERTEX
  8
0
 10
196.8
 20
61.5
 30
0.0
  0
VERTEX
  8
0
 10
195.5
 20
61.5
 30
0.0
  0
VERTEX
  8
0
 10
195.5
 20
64.0
 30
0.0
  0
VERTEX
  8
0
 10
192.5
 20
64.0
 30
0.0
  0
VERTEX
  8
0
 10
192.5
 20
61.5
 30
0.0
  0
VERTEX
  8
0
 10
191.2
 20
61.5
 30
0.0
  0
VERTEX
  8
0
 10
191.2
 20
59.0
 30
0.0
  0
VERTEX
  8
0
 10
192.5
 20
59.0
 30
0.0
  0
VERTEX
  8
0
 10
192.5
 20
56.0
 30
0.0
  0
VERTEX
  8
0
 10
189.0
 20
56.0
 30
0.0
  0
VERTEX
  8
0
 10
189.0
 20
53.0
 30
0.0
  0
VERTEX
  8
0
 10
185.0
 20
53.0
 30
0.0
  0
VERTEX
  8
0
 10
185.0
 20
75.25
 30
0.0
  0
SEQEND
  8
0
  0
POLYLINE
  8
0
 62
7
 70
0
 66
1
 10
0.0
 20
0.0
 30
0.0
  0
VERTEX
  8
0
 10
203.0
 20
75.75
 30
0.0
  0
VERTEX
  8
0
 10
203.0
 20
77.5
 30
0.0
  0
VERTEX
  8
0
 10
206.0
 20
77.5
 30
0.0
  0
VERTEX
  8
0
 10
206.0
 20
82.5
 30
0.0
  0
VERTEX
  8
0
 10
203.0
 20
82.5
 30
0.0
  0
VERTEX
  8
0
 10
203.0
 20
98.0
 30
0.0
 42
0.414213562373
  0
VERTEX
  8
0
 10
201.0
 20
100.0
 30
0.0
  0
VERTEX
  8
0
 10
187.0
 20
100.0
 30
0.0
 42
0.414213562373
  0
VERTEX
  8
0
 10
185.0
 20
98.0
 30
0.0
  0
VERTEX
  8
0
 10
185.0
 20
75.75
 30
0.0
  0
SEQEND
  8
0
  0
POLYLINE
  8
0
 62
7
 70
1
 66
1
 10
0.0
 20
0.0
 30
0.0
  0
VERTEX
  8
0
 10
187.95
 20
95.0
 30
0.0
  0
VERTEX
  8
0
 10
200.05
 20
95.0
 30
0.0
  0
VERTEX
  8
0
 10
200.05
 20
72.5
 30
0.0
  0
VERTEX
  8
0
 10
187.95
 20
72.5
 30
0.0
  0
SEQEND
  8
0
  0
CIRCLE
  8
0
 62
7
 10
194.0
 20
97.5
 30
0.0
 40
1.0
  0
CIRCLE
  8
0
 62
7
 10
194.0
 20
70.0
 30
0.0
 40
1.0
  0
ENDBLK
  0
BLOCK
  8
0
  2
SKETCH039
 70
0
 10
0.0
 20
0.0
 30
0.0
  3
SKETCH039
  0
POLYLINE
  8
0
 62
7
 70
0
 66
1
 10
0.0
 20
0.0
 30
0.0
  0
VERTEX
  8
0
 10
145.0
 20
119.25
 30
0.0
  0
VERTEX
  8
0
 10
145.0
 20
134.0
 30
0.0
  0
VERTEX
  8
0
 10
141.0
 20
134.0
 30
0.0
  0
VERTEX
  8
0
 10
141.0
 20
137.0
 30
0.0
  0
VERTEX
  8
0
 10
145.0
 20
137.0
 30
0.0
  0
VERTEX
  8
0
 10
145.0
 20
140.0
 30
0.0
 42
0.414213562373
  0
VERTEX
  8
0
 10
143.0
 20
142.0
 30
0.0
  0
VERTEX
  8
0
 10
129.0
 20
142.0
 30
0.0
 42
0.414213562373
  0
VERTEX
  8
0
 10
127.0
 20
140.0
 30
0.0
  0
VERTEX
  8
0
 10
127.0
 20
137.0
 30
0.0
  0
VERTEX
  8
0
 10
131.0
 20
137.0
 30
0.0
  0
VERTEX
  8
0
 10
131.0
 20
134.0
 30
0.0
  0
VERTEX
  8
0
 10
127.0
 20
134.0
 30
0.0
  0
VERTEX
  8
0
 10
127.0
 20
119.25
 30
0.0
  0
SEQEND
  8
0
  0
POLYLINE
  8
0
 62
7
 70
0
 66
1
 10
0.0
 20
0.0
 30
0.0
  0
VERTEX
  8
0
 10
127.0
 20
118.75
 30
0.0
  0
VERTEX
  8
0
 10
127.0
 20
104.0
 30
0.0
  0
VERTEX
  8
0
 10
131.0
 20
104.0
 30
0.0
  0
VERTEX
  8
0
 10
131.0
 20
101.0
 30
0.0
  0
VERTEX
  8
0
 10
127.0
 20
101.0
 30
0.0
  0
VERTEX
  8
0
 10
127.0
 20
98.0
 30
0.0
 42
0.414213562373
  0
VERTEX
  8
0
 10
129.0
 20
96.0
 30
0.0
  0
VERTEX
  8
0
 10
143.0
 20
96.0
 30
0.0
 42
0.414213562373
  0
VERTEX
  8
0
 10
145.0
 20
98.0
 30
0.0
  0
VERTEX
  8
0
 10
145.0
 20
101.0
 30
0.0
  0
VERTEX
  8
0
 10
141.0
 20
101.0
 30
0.0
  0
VERTEX
  8
0
 10
141.0
 20
104.0
 30
0.0
  0
VERTEX
  8
0
 10
145.0
 20
104.0
 30
0.0
  0
VERTEX
  8
0
 10
145.0
 20
118.75
 30
0.0
  0
SEQEND
  8
0
  0
CIRCLE
  8
0
 62
7
 10
136.0
 20
102.5
 30
0.0
 40
1.5
  0
CIRCLE
  8
0
 62
7
 10
136.0
 20
135.5
 30
0.0
 40
1.5
  0
CIRCLE
  8
0
 62
7
 10
136.0
 20
125.0
 30
0.0
 40
3.4
  0
ENDBLK
  0
BLOCK
  8
0
  2
SKETCH046
 70
0
 10
0.0
 20
0.0
 30
0.0
  3
SKETCH046
  0
POLYLINE
  8
0
 62
7
 70
0
 66
1
 10
0.0
 20
0.0
 30
0.0
  0
VERTEX
  8
0
 10
181.0
 20
170.25
 30
0.0
  0
VERTEX
  8
0
 10
181.0
 20
180.0
 30
0.0
 42
0.414213562373
  0
VERTEX
  8
0
 10
179.0
 20
182.0
 30
0.0
  0
VERTEX
  8
0
 10
150.0
 20
182.0
 30
0.0
 42
0.414213562373
  0
VERTEX
  8
0
 10
148.0
 20
180.0
 30
0.0
  0
VERTEX
  8
0
 10
148.0
 20
170.25
 30
0.0
  0
SEQEND
  8
0
  0
POLYLINE
  8
0
 62
7
 70
0
 66
1
 10
0.0
 20
0.0
 30
0.0
  0
VERTEX
  8
0
 10
148.0
 20
169.75
 30
0.0
  0
VERTEX
  8
0
 10
148.0
 20
160.0
 30
0.0
  0
VERTEX
  8
0
 10
152.0
 20
160.0
 30
0.0
  0
VERTEX
  8
0
 10
152.0
 20
155.0
 30
0.0
  0
VERTEX
  8
0
 10
157.0
 20
155.0
 30
0.0
  0
VERTEX
  8
0
 10
157.0
 20
160.0
 30
0.0
  0
VERTEX
  8
0
 10
163.0
 20
160.0
 30
0.0
  0
VERTEX
  8
0
 10
163.0
 20
163.0
 30
0.0
  0
VERTEX
  8
0
 10
161.7
 20
163.0
 30
0.0
  0
VERTEX
  8
0
 10
161.7
 20
165.5
 30
0.0
  0
VERTEX
  8
0
 10
163.0
 20
165.5
 30
0.0
  0
VERTEX
  8
0
 10
163.0
 20
168.0
 30
0.0
  0
VERTEX
  8
0
 10
166.0
 20
168.0
 30
0.0
  0
VERTEX
  8
0
 10
166.0
 20
165.5
 30
0.0
  0
VERTEX
  8
0
 10
167.3
 20
165.5
 30
0.0
  0
VERTEX
  8
0
 10
167.3
 20
163.0
 30
0.0
  0
VERTEX
  8
0
 10
166.0
 20
163.0
 30
0.0
  0
VERTEX
  8
0
 10
166.0
 20
160.0
 30
0.0
  0
VERTEX
  8
0
 10
172.0
 20
160.0
 30
0.0
  0
VERTEX
  8
0
 10
172.0
 20
155.0
 30
0.0
  0
VERTEX
  8
0
 10
177.0
 20
155.0
 30
0.0
  0
VERTEX
  8
0
 10
177.0
 20
160.0
 30
0.0
  0
VERTEX
  8
0
 10
181.0
 20
160.0
 30
0.0
  0
VERTEX
  8
0
 10
181.0
 20
169.75
 30
0.0
  0
SEQEND
  8
0
  0
CIRCLE
  8
0
 62
7
 10
172.0
 20
176.0
 30
0.0
 40
1.5
  0
ENDBLK
  0
BLOCK
  8
0
  2
SKETCH018
 70
0
 10
0.0
 20
0.0
 30
0.0
  3
SKETCH018
  0
POLYLINE
  8
0
 62
7
 70
1
 66
1
 10
0.0
 20
0.0
 30
0.0
  0
VERTEX
  8
0
 10
151.617357665
 20
116.656880734
 30
0.0
  0
VERTEX
  8
0
 10
153.258934092
 20
100.473394495
 30
0.0
 42
0.903696114115
  0
VERTEX
  8
0
 10
156.741065908
 20
100.473394495
 30
0.0
  0
VERTEX
  8
0
 10
158.382642335
 20
116.656880734
 30
0.0
 42
1.10656667035
  0
SEQEND
  8
0
  0
POLYLINE
  8
0
 62
7
 70
0
 66
1
 10
0.0
 20
0.0
 30
0.0
  0
VERTEX
  8
0
 10
146.0
 20
106.75
 30
0.0
  0
VERTEX
  8
0
 10
146.0
 20
117.0
 30
0.0
  0
VERTEX
  8
0
 10
146.0
 20
126.0
 30
0.0
  0
VERTEX
  8
0
 10
164.0
 20
126.0
 30
0.0
  0
VERTEX
  8
0
 10
164.0
 20
117.0
 30
0.0
  0
VERTEX
  8
0
 10
164.0
 20
106.75
 30
0.0
  0
SEQEND
  8
0
  0
POLYLINE
  8
0
 62
7
 70
0
 66
1
 10
0.0
 20
0.0
 30
0.0
  0
VERTEX
  8
0
 10
146.0
 20
106.25
 30
0.0
  0
VERTEX
  8
0
 10
146.0
 20
96.0
 30
0.0
  0
VERTEX
  8
0
 10
164.0
 20
96.0
 30
0.0
  0
VERTEX
  8
0
 10
164.0
 20
106.25
 30
0.0
  0
SEQEND
  8
0
  0
ENDBLK
  0
ENDSEC
  0
SECTION
  2
ENTITIES
  0
INSERT
  2
SKETCH025
  8
0
 62
7
 10
0.0
 20
0.0
 30
0.0
  0
INSERT
  2
SKETCH083
  8
0
 62
7
 10
0.0
 20
0.0
 30
0.0
  0
INSERT
  2
SKETCH062
  8
0
 62
7
 10
0.0
 20
0.0
 30
0.0
  0
INSERT
  2
SKETCH063
  8
0
 62
7
 10
0.0
 20
0.0
 30
0.0
  0
INSERT
  2
SKETCH067
  8
0
 62
7
 10
0.0
 20
0.0
 30
0.0
  0
INSERT
  2
SKETCH064
  8
0
 62
7
 10
0.0
 20
0.0
 30
0.0
  0
INSERT
  2
SKETCH084
  8
0
 62
7
 10
0.0
 20
0.0
 30
0.0
  0
INSERT
  2
SKETCH093
  8
0
 62
7
 10
0.0
 20
0.0
 30
0.0
  0
INSERT
  2
SKETCH094
  8
0
 62
7
 10
0.0
 20
0.0
 30
0.0
  0
INSERT
  2
SKETCH096
  8
0
 62
7
 10
0.0
 20
0.0
 30
0.0
  0
INSERT
  2
SKETCH097
  8
0
 62
7
 10
0.0
 20
0.0
 30
0.0
  0
INSERT
  2
SKETCH098
  8
0
 62
7
 10
0.0
 20
0.0
 30
0.0
  0
INSERT
  2
SKETCH095
  8
0
 62
7
 10
0.0
 20
0.0
 30
0.0
  0
INSERT
  2
SKETCH100
  8
0
 62
7
 10
0.0
 20
0.0
 30
0.0
  0
INSERT
  2
SKETCH105
  8
0
 62
7
 10
0.0
 20
0.0
 30
0.0
  0
INSERT
  2
SKETCH102
  8
0
 62
7
 10
0.0
 20
0.0
 30
0.0
  0
INSERT
  2
SKETCH103
  8
0
 62
7
 10
0.0
 20
0.0
 30
0.0
  0
INSERT
  2
SKETCH099
  8
0
 62
7
 10
0.0
 20
0.0
 30
0.0
  0
INSERT
  2
SKETCH101
  8
0
 62
7
 10
0.0
 20
0.0
 30
0.0
  0
INSERT
  2
SKETCH104
  8
0
 62
7
 10
0.0
 20
0.0
 30
0.0
  0
INSERT
  2
SKETCH108
  8
0
 62
7
 10
0.0
 20
0.0
 30
0.0
  0
INSERT
  2
SKETCH003
  8
0
 62
7
 10
0.0
 20
0.0
 30
0.0
  0
INSERT
  2
SKETCH080
  8
0
 62
7
 10
0.0
 20
0.0
 30
0.0
  0
INSERT
  2
SKETCH107
  8
0
 62
7
 10
0.0
 20
0.0
 30
0.0
  0
INSERT
  2
SKETCH070
  8
0
 62
7
 10
0.0
 20
0.0
 30
0.0
  0
INSERT
  2
SKETCH113
  8
0
 62
7
 10
0.0
 20
0.0
 30
0.0
  0
INSERT
  2
SKETCH110
  8
0
 62
7
 10
0.0
 20
0.0
 30
0.0
  0
INSERT
  2
SKETCH075
  8
0
 62
7
 10
0.0
 20
0.0
 30
0.0
  0
INSERT
  2
SKETCH109
  8
0
 62
7
 10
0.0
 20
0.0
 30
0.0
  0
INSERT
  2
SKETCH111
  8
0
 62
7
 10
0.0
 20
0.0
 30
0.0
  0
INSERT
  2
SKETCH112
  8
0
 62
7
 10
0.0
 20
0.0
 30
0.0
  0
INSERT
  2
SKETCH114
  8
0
 62
7
 10
0.0
 20
0.0
 30
0.0
  0
INSERT
  2
SKETCH115
  8
0
 62
7
 10
0.0
 20
0.0
 30
0.0
  0
INSERT
  2
SKETCH052
  8
0
 62
7
 10
0.0
 20
0.0
 30
0.0
  0
INSERT
  2
SKETCH051
  8
0
 62
7
 10
0.0
 20
0.0
 30
0.0
  0
INSERT
  2
SKETCH042
  8
0
 62
7
 10
0.0
 20
0.0
 30
0.0
  0
INSERT
  2
SKETCH039
  8
0
 62
7
 10
0.0
 20
0.0
 30
0.0
  0
INSERT
  2
SKETCH046
  8
0
 62
7
 10
0.0
 20
0.0
 30
0.0
  0
INSERT
  2
SKETCH018
  8
0
 62
7
 10
0.0
 20
0.0
 30
0.0
  0
ENDSEC
  0
EOF
