  0
SECTION
  2
HEADER
  9
$ACADVER
  1
AC1009
  9
$INSBASE
 10
0.0
 20
0.0
 30
0.0
  9
$EXTMIN
 10
0.0
 20
0.0
 30
0.0
  9
$EXTMAX
 10
0.0
 20
0.0
 30
0.0
  0
ENDSEC
  0
SECTION
  2
TABLES
  0
TABLE
  2
VPORT
 70
0
  0
ENDTAB
  0
TABLE
  2
LTYPE
 70
1
  0
LTYPE
  2
CONTINUOUS
 70
0
  3
Solid line
 72
65
 73
0
 40
0.0
  0
ENDTAB
  0
TABLE
  2
LAYER
 70
1
  0
LAYER
  2
0
 70
64
 62
7
  6
continuous
  0
ENDTAB
  0
TABLE
  2
STYLE
 70
1
  0
STYLE
  2
STANDARD
 70
0
 40
0
 41
1.0
 50
0.0
 71
0
 42
1
 3
ARIAL.TTF
 4

  0
ENDTAB
  0
TABLE
  2
VIEW
 70
0
  0
ENDTAB
  0
ENDSEC
  0
SECTION
  2
BLOCKS
  0
BLOCK
  8
0
  2
SKETCH025
 70
0
 10
0.0
 20
0.0
 30
0.0
  3
SKETCH025
  0
POLYLINE
  8
0
 62
7
 70
0
 66
1
 10
0.0
 20
0.0
 30
0.0
  0
VERTEX
  8
0
 10
117.0
 20
263.25
 30
0.0
  0
VERTEX
  8
0
 10
117.0
 20
288.0
 30
0.0
  0
VERTEX
  8
0
 10
84.0
 20
288.0
 30
0.0
  0
VERTEX
  8
0
 10
84.0
 20
263.25
 30
0.0
  0
SEQEND
  8
0
  0
POLYLINE
  8
0
 62
7
 70
0
 66
1
 10
0.0
 20
0.0
 30
0.0
  0
VERTEX
  8
0
 10
84.0
 20
262.75
 30
0.0
  0
VERTEX
  8
0
 10
84.0
 20
238.0
 30
0.0
 42
0.414213562373
  0
VERTEX
  8
0
 10
86.0
 20
236.0
 30
0.0
  0
VERTEX
  8
0
 10
115.0
 20
236.0
 30
0.0
 42
0.414213562373
  0
VERTEX
  8
0
 10
117.0
 20
238.0
 30
0.0
  0
VERTEX
  8
0
 10
117.0
 20
262.75
 30
0.0
  0
SEQEND
  8
0
  0
CIRCLE
  8
0
 62
7
 10
100.5
 20
283.5
 30
0.0
 40
1.5
  0
CIRCLE
  8
0
 62
7
 10
100.5
 20
240.5
 30
0.0
 40
1.5
  0
POLYLINE
  8
0
 62
7
 70
1
 66
1
 10
0.0
 20
0.0
 30
0.0
  0
VERTEX
  8
0
 10
108.0
 20
285.0
 30
0.0
  0
VERTEX
  8
0
 10
113.0
 20
285.0
 30
0.0
  0
VERTEX
  8
0
 10
113.0
 20
282.0
 30
0.0
  0
VERTEX
  8
0
 10
108.0
 20
282.0
 30
0.0
  0
SEQEND
  8
0
  0
POLYLINE
  8
0
 62
7
 70
1
 66
1
 10
0.0
 20
0.0
 30
0.0
  0
VERTEX
  8
0
 10
88.0
 20
285.0
 30
0.0
  0
VERTEX
  8
0
 10
93.0
 20
285.0
 30
0.0
  0
VERTEX
  8
0
 10
93.0
 20
282.0
 30
0.0
  0
VERTEX
  8
0
 10
88.0
 20
282.0
 30
0.0
  0
SEQEND
  8
0
  0
POLYLINE
  8
0
 62
7
 70
1
 66
1
 10
0.0
 20
0.0
 30
0.0
  0
VERTEX
  8
0
 10
88.0
 20
242.0
 30
0.0
  0
VERTEX
  8
0
 10
93.0
 20
242.0
 30
0.0
  0
VERTEX
  8
0
 10
93.0
 20
239.0
 30
0.0
  0
VERTEX
  8
0
 10
88.0
 20
239.0
 30
0.0
  0
SEQEND
  8
0
  0
POLYLINE
  8
0
 62
7
 70
1
 66
1
 10
0.0
 20
0.0
 30
0.0
  0
VERTEX
  8
0
 10
108.0
 20
242.0
 30
0.0
  0
VERTEX
  8
0
 10
113.0
 20
242.0
 30
0.0
  0
VERTEX
  8
0
 10
113.0
 20
239.0
 30
0.0
  0
VERTEX
  8
0
 10
108.0
 20
239.0
 30
0.0
  0
SEQEND
  8
0
  0
POLYLINE
  8
0
 62
7
 70
1
 66
1
 10
0.0
 20
0.0
 30
0.0
  0
VERTEX
  8
0
 10
100.5
 20
251.0
 30
0.0
  0
VERTEX
  8
0
 10
101.5
 20
252.732050808
 30
0.0
  0
VERTEX
  8
0
 10
99.5
 20
252.732050808
 30
0.0
  0
SEQEND
  8
0
  0
ENDBLK
  0
BLOCK
  8
0
  2
SKETCH099
 70
0
 10
0.0
 20
0.0
 30
0.0
  3
SKETCH099
  0
POLYLINE
  8
0
 62
7
 70
0
 66
1
 10
0.0
 20
0.0
 30
0.0
  0
VERTEX
  8
0
 10
72.0
 20
158.25
 30
0.0
  0
VERTEX
  8
0
 10
72.0
 20
168.0
 30
0.0
 42
0.414213562373
  0
VERTEX
  8
0
 10
70.0
 20
170.0
 30
0.0
  0
VERTEX
  8
0
 10
41.0
 20
170.0
 30
0.0
 42
0.414213562373
  0
VERTEX
  8
0
 10
39.0
 20
168.0
 30
0.0
  0
VERTEX
  8
0
 10
39.0
 20
158.25
 30
0.0
  0
SEQEND
  8
0
  0
POLYLINE
  8
0
 62
7
 70
0
 66
1
 10
0.0
 20
0.0
 30
0.0
  0
VERTEX
  8
0
 10
39.0
 20
157.75
 30
0.0
  0
VERTEX
  8
0
 10
39.0
 20
148.0
 30
0.0
  0
VERTEX
  8
0
 10
43.0
 20
148.0
 30
0.0
  0
VERTEX
  8
0
 10
43.0
 20
143.0
 30
0.0
  0
VERTEX
  8
0
 10
48.0
 20
143.0
 30
0.0
  0
VERTEX
  8
0
 10
48.0
 20
148.0
 30
0.0
  0
VERTEX
  8
0
 10
54.0
 20
148.0
 30
0.0
  0
VERTEX
  8
0
 10
54.0
 20
152.0
 30
0.0
  0
VERTEX
  8
0
 10
52.7
 20
152.0
 30
0.0
  0
VERTEX
  8
0
 10
52.7
 20
154.5
 30
0.0
  0
VERTEX
  8
0
 10
54.0
 20
154.5
 30
0.0
  0
VERTEX
  8
0
 10
54.0
 20
156.0
 30
0.0
  0
VERTEX
  8
0
 10
57.0
 20
156.0
 30
0.0
  0
VERTEX
  8
0
 10
57.0
 20
154.5
 30
0.0
  0
VERTEX
  8
0
 10
58.3
 20
154.5
 30
0.0
  0
VERTEX
  8
0
 10
58.3
 20
152.0
 30
0.0
  0
VERTEX
  8
0
 10
57.0
 20
152.0
 30
0.0
  0
VERTEX
  8
0
 10
57.0
 20
148.0
 30
0.0
  0
VERTEX
  8
0
 10
63.0
 20
148.0
 30
0.0
  0
VERTEX
  8
0
 10
63.0
 20
143.0
 30
0.0
  0
VERTEX
  8
0
 10
68.0
 20
143.0
 30
0.0
  0
VERTEX
  8
0
 10
68.0
 20
148.0
 30
0.0
  0
VERTEX
  8
0
 10
72.0
 20
148.0
 30
0.0
  0
VERTEX
  8
0
 10
72.0
 20
157.75
 30
0.0
  0
SEQEND
  8
0
  0
CIRCLE
  8
0
 62
7
 10
48.0
 20
164.0
 30
0.0
 40
1.5
  0
ENDBLK
  0
BLOCK
  8
0
  2
SKETCH102
 70
0
 10
0.0
 20
0.0
 30
0.0
  3
SKETCH102
  0
POLYLINE
  8
0
 62
7
 70
0
 66
1
 10
0.0
 20
0.0
 30
0.0
  0
VERTEX
  8
0
 10
46.9999999999
 20
260.75
 30
0.0
  0
VERTEX
  8
0
 10
46.9999999999
 20
287.0
 30
0.0
 42
0.414213562373
  0
VERTEX
  8
0
 10
44.9999999999
 20
289.0
 30
0.0
  0
VERTEX
  8
0
 10
7.0
 20
289.0
 30
0.0
 42
0.414213562373
  0
VERTEX
  8
0
 10
4.99999999997
 20
287.0
 30
0.0
  0
VERTEX
  8
0
 10
4.99999999993
 20
260.75
 30
0.0
  0
SEQEND
  8
0
  0
POLYLINE
  8
0
 62
7
 70
0
 66
1
 10
0.0
 20
0.0
 30
0.0
  0
VERTEX
  8
0
 10
4.99999999993
 20
260.25
 30
0.0
  0
VERTEX
  8
0
 10
4.99999999997
 20
234.0
 30
0.0
 42
0.414213562374
  0
VERTEX
  8
0
 10
7.0
 20
232.0
 30
0.0
  0
VERTEX
  8
0
 10
44.9999999999
 20
232.0
 30
0.0
 42
0.414213562373
  0
VERTEX
  8
0
 10
46.9999999999
 20
234.0
 30
0.0
  0
VERTEX
  8
0
 10
46.9999999999
 20
260.25
 30
0.0
  0
SEQEND
  8
0
  0
CIRCLE
  8
0
 62
7
 10
30.4999999999
 20
283.5
 30
0.0
 40
3.0
  0
CIRCLE
  8
0
 62
7
 10
30.4999999999
 20
240.5
 30
0.0
 40
3.0
  0
POLYLINE
  8
0
 62
7
 70
1
 66
1
 10
0.0
 20
0.0
 30
0.0
  0
VERTEX
  8
0
 10
37.9999999999
 20
285.0
 30
0.0
  0
VERTEX
  8
0
 10
42.9999999999
 20
285.0
 30
0.0
  0
VERTEX
  8
0
 10
42.9999999999
 20
282.0
 30
0.0
  0
VERTEX
  8
0
 10
37.9999999999
 20
282.0
 30
0.0
  0
SEQEND
  8
0
  0
POLYLINE
  8
0
 62
7
 70
1
 66
1
 10
0.0
 20
0.0
 30
0.0
  0
VERTEX
  8
0
 10
17.9999999999
 20
285.0
 30
0.0
  0
VERTEX
  8
0
 10
22.9999999999
 20
285.0
 30
0.0
  0
VERTEX
  8
0
 10
22.9999999999
 20
282.0
 30
0.0
  0
VERTEX
  8
0
 10
17.9999999999
 20
282.0
 30
0.0
  0
SEQEND
  8
0
  0
POLYLINE
  8
0
 62
7
 70
1
 66
1
 10
0.0
 20
0.0
 30
0.0
  0
VERTEX
  8
0
 10
17.9999999999
 20
242.0
 30
0.0
  0
VERTEX
  8
0
 10
22.9999999999
 20
242.0
 30
0.0
  0
VERTEX
  8
0
 10
22.9999999999
 20
239.0
 30
0.0
  0
VERTEX
  8
0
 10
17.9999999999
 20
239.0
 30
0.0
  0
SEQEND
  8
0
  0
POLYLINE
  8
0
 62
7
 70
1
 66
1
 10
0.0
 20
0.0
 30
0.0
  0
VERTEX
  8
0
 10
37.9999999999
 20
242.0
 30
0.0
  0
VERTEX
  8
0
 10
42.9999999999
 20
242.0
 30
0.0
  0
VERTEX
  8
0
 10
42.9999999999
 20
239.0
 30
0.0
  0
VERTEX
  8
0
 10
37.9999999999
 20
239.0
 30
0.0
  0
SEQEND
  8
0
  0
POLYLINE
  8
0
 62
7
 70
1
 66
1
 10
0.0
 20
0.0
 30
0.0
  0
VERTEX
  8
0
 10
30.4999999999
 20
251.0
 30
0.0
  0
VERTEX
  8
0
 10
31.4999999999
 20
252.732050808
 30
0.0
  0
VERTEX
  8
0
 10
29.4999999999
 20
252.732050808
 30
0.0
  0
SEQEND
  8
0
  0
ENDBLK
  0
BLOCK
  8
0
  2
SKETCH100
 70
0
 10
0.0
 20
0.0
 30
0.0
  3
SKETCH100
  0
POLYLINE
  8
0
 62
7
 70
0
 66
1
 10
0.0
 20
0.0
 30
0.0
  0
VERTEX
  8
0
 10
140.0
 20
200.25
 30
0.0
  0
VERTEX
  8
0
 10
140.0
 20
210.0
 30
0.0
 42
0.414213562373
  0
VERTEX
  8
0
 10
138.0
 20
212.0
 30
0.0
  0
VERTEX
  8
0
 10
109.0
 20
212.0
 30
0.0
 42
0.414213562373
  0
VERTEX
  8
0
 10
107.0
 20
210.0
 30
0.0
  0
VERTEX
  8
0
 10
107.0
 20
200.25
 30
0.0
  0
SEQEND
  8
0
  0
POLYLINE
  8
0
 62
7
 70
0
 66
1
 10
0.0
 20
0.0
 30
0.0
  0
VERTEX
  8
0
 10
107.0
 20
199.75
 30
0.0
  0
VERTEX
  8
0
 10
107.0
 20
190.0
 30
0.0
  0
VERTEX
  8
0
 10
111.0
 20
190.0
 30
0.0
  0
VERTEX
  8
0
 10
111.0
 20
185.0
 30
0.0
  0
VERTEX
  8
0
 10
116.0
 20
185.0
 30
0.0
  0
VERTEX
  8
0
 10
116.0
 20
190.0
 30
0.0
  0
VERTEX
  8
0
 10
122.0
 20
190.0
 30
0.0
  0
VERTEX
  8
0
 10
122.0
 20
194.0
 30
0.0
  0
VERTEX
  8
0
 10
120.7
 20
194.0
 30
0.0
  0
VERTEX
  8
0
 10
120.7
 20
196.5
 30
0.0
  0
VERTEX
  8
0
 10
122.0
 20
196.5
 30
0.0
  0
VERTEX
  8
0
 10
122.0
 20
198.0
 30
0.0
  0
VERTEX
  8
0
 10
125.0
 20
198.0
 30
0.0
  0
VERTEX
  8
0
 10
125.0
 20
196.5
 30
0.0
  0
VERTEX
  8
0
 10
126.3
 20
196.5
 30
0.0
  0
VERTEX
  8
0
 10
126.3
 20
194.0
 30
0.0
  0
VERTEX
  8
0
 10
125.0
 20
194.0
 30
0.0
  0
VERTEX
  8
0
 10
125.0
 20
190.0
 30
0.0
  0
VERTEX
  8
0
 10
131.0
 20
190.0
 30
0.0
  0
VERTEX
  8
0
 10
131.0
 20
185.0
 30
0.0
  0
VERTEX
  8
0
 10
136.0
 20
185.0
 30
0.0
  0
VERTEX
  8
0
 10
136.0
 20
190.0
 30
0.0
  0
VERTEX
  8
0
 10
140.0
 20
190.0
 30
0.0
  0
VERTEX
  8
0
 10
140.0
 20
199.75
 30
0.0
  0
SEQEND
  8
0
  0
CIRCLE
  8
0
 62
7
 10
131.0
 20
206.0
 30
0.0
 40
3.4
  0
ENDBLK
  0
BLOCK
  8
0
  2
SKETCH095
 70
0
 10
0.0
 20
0.0
 30
0.0
  3
SKETCH095
  0
POLYLINE
  8
0
 62
7
 70
0
 66
1
 10
0.0
 20
0.0
 30
0.0
  0
VERTEX
  8
0
 10
144.0
 20
226.0
 30
0.0
  0
VERTEX
  8
0
 10
144.0
 20
216.0
 30
0.0
  0
VERTEX
  8
0
 10
141.0
 20
216.0
 30
0.0
  0
VERTEX
  8
0
 10
141.0
 20
211.0
 30
0.0
  0
VERTEX
  8
0
 10
144.0
 20
211.0
 30
0.0
  0
VERTEX
  8
0
 10
144.0
 20
191.0
 30
0.0
  0
VERTEX
  8
0
 10
148.0
 20
191.0
 30
0.0
  0
VERTEX
  8
0
 10
148.0
 20
194.0
 30
0.0
  0
VERTEX
  8
0
 10
151.5
 20
194.0
 30
0.0
  0
VERTEX
  8
0
 10
151.5
 20
198.0
 30
0.0
  0
VERTEX
  8
0
 10
150.2
 20
198.0
 30
0.0
  0
VERTEX
  8
0
 10
150.2
 20
200.5
 30
0.0
  0
VERTEX
  8
0
 10
151.5
 20
200.5
 30
0.0
  0
VERTEX
  8
0
 10
151.5
 20
202.0
 30
0.0
  0
VERTEX
  8
0
 10
154.5
 20
202.0
 30
0.0
  0
VERTEX
  8
0
 10
154.5
 20
200.5
 30
0.0
  0
VERTEX
  8
0
 10
155.8
 20
200.5
 30
0.0
  0
VERTEX
  8
0
 10
155.8
 20
198.0
 30
0.0
  0
VERTEX
  8
0
 10
154.5
 20
198.0
 30
0.0
  0
VERTEX
  8
0
 10
154.5
 20
194.0
 30
0.0
  0
VERTEX
  8
0
 10
158.0
 20
194.0
 30
0.0
  0
VERTEX
  8
0
 10
158.0
 20
191.0
 30
0.0
  0
VERTEX
  8
0
 10
162.0
 20
191.0
 30
0.0
  0
VERTEX
  8
0
 10
162.0
 20
226.0
 30
0.0
  0
SEQEND
  8
0
  0
POLYLINE
  8
0
 62
7
 70
0
 66
1
 10
0.0
 20
0.0
 30
0.0
  0
VERTEX
  8
0
 10
162.0
 20
226.5
 30
0.0
  0
VERTEX
  8
0
 10
162.0
 20
231.0
 30
0.0
 42
0.414213562373
  0
VERTEX
  8
0
 10
160.0
 20
233.0
 30
0.0
  0
VERTEX
  8
0
 10
146.0
 20
233.0
 30
0.0
 42
0.414213562374
  0
VERTEX
  8
0
 10
144.0
 20
231.0
 30
0.0
  0
VERTEX
  8
0
 10
144.0
 20
226.5
 30
0.0
  0
SEQEND
  8
0
  0
CIRCLE
  8
0
 62
7
 10
153.0
 20
227.0
 30
0.0
 40
1.5
  0
ENDBLK
  0
BLOCK
  8
0
  2
SKETCH101
 70
0
 10
0.0
 20
0.0
 30
0.0
  3
SKETCH101
  0
POLYLINE
  8
0
 62
7
 70
0
 66
1
 10
0.0
 20
0.0
 30
0.0
  0
VERTEX
  8
0
 10
106.0
 20
200.25
 30
0.0
  0
VERTEX
  8
0
 10
106.0
 20
210.0
 30
0.0
 42
0.414213562373
  0
VERTEX
  8
0
 10
104.0
 20
212.0
 30
0.0
  0
VERTEX
  8
0
 10
75.0
 20
212.0
 30
0.0
 42
0.414213562373
  0
VERTEX
  8
0
 10
73.0
 20
210.0
 30
0.0
  0
VERTEX
  8
0
 10
73.0
 20
200.25
 30
0.0
  0
SEQEND
  8
0
  0
POLYLINE
  8
0
 62
7
 70
0
 66
1
 10
0.0
 20
0.0
 30
0.0
  0
VERTEX
  8
0
 10
73.0
 20
199.75
 30
0.0
  0
VERTEX
  8
0
 10
73.0
 20
190.0
 30
0.0
  0
VERTEX
  8
0
 10
77.0
 20
190.0
 30
0.0
  0
VERTEX
  8
0
 10
77.0
 20
185.0
 30
0.0
  0
VERTEX
  8
0
 10
82.0
 20
185.0
 30
0.0
  0
VERTEX
  8
0
 10
82.0
 20
190.0
 30
0.0
  0
VERTEX
  8
0
 10
88.0
 20
190.0
 30
0.0
  0
VERTEX
  8
0
 10
88.0
 20
194.0
 30
0.0
  0
VERTEX
  8
0
 10
86.7
 20
194.0
 30
0.0
  0
VERTEX
  8
0
 10
86.7
 20
196.5
 30
0.0
  0
VERTEX
  8
0
 10
88.0
 20
196.5
 30
0.0
  0
VERTEX
  8
0
 10
88.0
 20
198.0
 30
0.0
  0
VERTEX
  8
0
 10
91.0
 20
198.0
 30
0.0
  0
VERTEX
  8
0
 10
91.0
 20
196.5
 30
0.0
  0
VERTEX
  8
0
 10
92.3
 20
196.5
 30
0.0
  0
VERTEX
  8
0
 10
92.3
 20
194.0
 30
0.0
  0
VERTEX
  8
0
 10
91.0
 20
194.0
 30
0.0
  0
VERTEX
  8
0
 10
91.0
 20
190.0
 30
0.0
  0
VERTEX
  8
0
 10
97.0
 20
190.0
 30
0.0
  0
VERTEX
  8
0
 10
97.0
 20
185.0
 30
0.0
  0
VERTEX
  8
0
 10
102.0
 20
185.0
 30
0.0
  0
VERTEX
  8
0
 10
102.0
 20
190.0
 30
0.0
  0
VERTEX
  8
0
 10
106.0
 20
190.0
 30
0.0
  0
VERTEX
  8
0
 10
106.0
 20
199.75
 30
0.0
  0
SEQEND
  8
0
  0
CIRCLE
  8
0
 62
7
 10
82.0
 20
206.0
 30
0.0
 40
3.4
  0
ENDBLK
  0
BLOCK
  8
0
  2
SKETCH103
 70
0
 10
0.0
 20
0.0
 30
0.0
  3
SKETCH103
  0
POLYLINE
  8
0
 62
7
 70
0
 66
1
 10
0.0
 20
0.0
 30
0.0
  0
VERTEX
  8
0
 10
194.0
 20
262.75
 30
0.0
  0
VERTEX
  8
0
 10
194.0
 20
289.0
 30
0.0
 42
0.414213562373
  0
VERTEX
  8
0
 10
192.0
 20
291.0
 30
0.0
  0
VERTEX
  8
0
 10
154.0
 20
291.0
 30
0.0
 42
0.414213562373
  0
VERTEX
  8
0
 10
152.0
 20
289.0
 30
0.0
  0
VERTEX
  8
0
 10
152.0
 20
262.75
 30
0.0
  0
SEQEND
  8
0
  0
POLYLINE
  8
0
 62
7
 70
0
 66
1
 10
0.0
 20
0.0
 30
0.0
  0
VERTEX
  8
0
 10
152.0
 20
262.25
 30
0.0
  0
VERTEX
  8
0
 10
152.0
 20
236.0
 30
0.0
 42
0.414213562373
  0
VERTEX
  8
0
 10
154.0
 20
234.0
 30
0.0
  0
VERTEX
  8
0
 10
192.0
 20
234.0
 30
0.0
 42
0.414213562373
  0
VERTEX
  8
0
 10
194.0
 20
236.0
 30
0.0
  0
VERTEX
  8
0
 10
194.0
 20
262.25
 30
0.0
  0
SEQEND
  8
0
  0
CIRCLE
  8
0
 62
7
 10
168.5
 20
285.5
 30
0.0
 40
3.0
  0
CIRCLE
  8
0
 62
7
 10
168.5
 20
242.5
 30
0.0
 40
3.0
  0
POLYLINE
  8
0
 62
7
 70
1
 66
1
 10
0.0
 20
0.0
 30
0.0
  0
VERTEX
  8
0
 10
176.0
 20
287.0
 30
0.0
  0
VERTEX
  8
0
 10
181.0
 20
287.0
 30
0.0
  0
VERTEX
  8
0
 10
181.0
 20
284.0
 30
0.0
  0
VERTEX
  8
0
 10
176.0
 20
284.0
 30
0.0
  0
SEQEND
  8
0
  0
POLYLINE
  8
0
 62
7
 70
1
 66
1
 10
0.0
 20
0.0
 30
0.0
  0
VERTEX
  8
0
 10
156.0
 20
287.0
 30
0.0
  0
VERTEX
  8
0
 10
161.0
 20
287.0
 30
0.0
  0
VERTEX
  8
0
 10
161.0
 20
284.0
 30
0.0
  0
VERTEX
  8
0
 10
156.0
 20
284.0
 30
0.0
  0
SEQEND
  8
0
  0
POLYLINE
  8
0
 62
7
 70
1
 66
1
 10
0.0
 20
0.0
 30
0.0
  0
VERTEX
  8
0
 10
156.0
 20
244.0
 30
0.0
  0
VERTEX
  8
0
 10
161.0
 20
244.0
 30
0.0
  0
VERTEX
  8
0
 10
161.0
 20
241.0
 30
0.0
  0
VERTEX
  8
0
 10
156.0
 20
241.0
 30
0.0
  0
SEQEND
  8
0
  0
POLYLINE
  8
0
 62
7
 70
1
 66
1
 10
0.0
 20
0.0
 30
0.0
  0
VERTEX
  8
0
 10
176.0
 20
244.0
 30
0.0
  0
VERTEX
  8
0
 10
181.0
 20
244.0
 30
0.0
  0
VERTEX
  8
0
 10
181.0
 20
241.0
 30
0.0
  0
VERTEX
  8
0
 10
176.0
 20
241.0
 30
0.0
  0
SEQEND
  8
0
  0
POLYLINE
  8
0
 62
7
 70
1
 66
1
 10
0.0
 20
0.0
 30
0.0
  0
VERTEX
  8
0
 10
168.5
 20
253.0
 30
0.0
  0
VERTEX
  8
0
 10
169.5
 20
254.732050808
 30
0.0
  0
VERTEX
  8
0
 10
167.5
 20
254.732050808
 30
0.0
  0
SEQEND
  8
0
  0
ENDBLK
  0
BLOCK
  8
0
  2
SKETCH104
 70
0
 10
0.0
 20
0.0
 30
0.0
  3
SKETCH104
  0
POLYLINE
  8
0
 62
7
 70
0
 66
1
 10
0.0
 20
0.0
 30
0.0
  0
VERTEX
  8
0
 10
106.0
 20
223.25
 30
0.0
  0
VERTEX
  8
0
 10
106.0
 20
233.0
 30
0.0
 42
0.414213562373
  0
VERTEX
  8
0
 10
104.0
 20
235.0
 30
0.0
  0
VERTEX
  8
0
 10
75.0
 20
235.0
 30
0.0
 42
0.414213562373
  0
VERTEX
  8
0
 10
73.0
 20
233.0
 30
0.0
  0
VERTEX
  8
0
 10
73.0
 20
223.25
 30
0.0
  0
SEQEND
  8
0
  0
POLYLINE
  8
0
 62
7
 70
1
 66
1
 10
0.0
 20
0.0
 30
0.0
  0
VERTEX
  8
0
 10
92.3
 20
217.0
 30
0.0
  0
VERTEX
  8
0
 10
92.3
 20
219.5
 30
0.0
  0
VERTEX
  8
0
 10
86.7
 20
219.5
 30
0.0
  0
VERTEX
  8
0
 10
86.7
 20
217.0
 30
0.0
  0
SEQEND
  8
0
  0
POLYLINE
  8
0
 62
7
 70
0
 66
1
 10
0.0
 20
0.0
 30
0.0
  0
VERTEX
  8
0
 10
73.0
 20
222.75
 30
0.0
  0
VERTEX
  8
0
 10
73.0
 20
213.0
 30
0.0
  0
VERTEX
  8
0
 10
106.0
 20
213.0
 30
0.0
  0
VERTEX
  8
0
 10
106.0
 20
222.75
 30
0.0
  0
SEQEND
  8
0
  0
POLYLINE
  8
0
 62
7
 70
1
 66
1
 10
0.0
 20
0.0
 30
0.0
  0
VERTEX
  8
0
 10
82.2287461774
 20
232.392296447
 30
0.0
  0
VERTEX
  8
0
 10
98.5047400612
 20
231.294788773
 30
0.0
 42
-0.934839826619
  0
VERTEX
  8
0
 10
98.5047400612
 20
226.705211227
 30
0.0
  0
VERTEX
  8
0
 10
82.2287461774
 20
225.607703553
 30
0.0
 42
-1.06970196554
  0
SEQEND
  8
0
  0
ENDBLK
  0
BLOCK
  8
0
  2
SKETCH003
 70
0
 10
0.0
 20
0.0
 30
0.0
  3
SKETCH003
  0
POLYLINE
  8
0
 62
7
 70
0
 66
1
 10
0.0
 20
0.0
 30
0.0
  0
VERTEX
  8
0
 10
34.75
 20
142.0
 30
0.0
  0
VERTEX
  8
0
 10
25.0
 20
142.0
 30
0.0
  0
VERTEX
  8
0
 10
25.0
 20
139.0
 30
0.0
  0
VERTEX
  8
0
 10
5.0
 20
139.0
 30
0.0
  0
VERTEX
  8
0
 10
5.0
 20
79.0
 30
0.0
  0
VERTEX
  8
0
 10
25.0
 20
79.0
 30
0.0
  0
VERTEX
  8
0
 10
25.0
 20
76.0
 30
0.0
  0
VERTEX
  8
0
 10
34.75
 20
76.0
 30
0.0
  0
SEQEND
  8
0
  0
POLYLINE
  8
0
 62
7
 70
0
 66
1
 10
0.0
 20
0.0
 30
0.0
  0
VERTEX
  8
0
 10
35.25
 20
76.0
 30
0.0
  0
VERTEX
  8
0
 10
45.0
 20
76.0
 30
0.0
  0
VERTEX
  8
0
 10
45.0
 20
79.0
 30
0.0
  0
VERTEX
  8
0
 10
65.0
 20
79.0
 30
0.0
  0
VERTEX
  8
0
 10
65.0
 20
139.0
 30
0.0
  0
VERTEX
  8
0
 10
45.0
 20
139.0
 30
0.0
  0
VERTEX
  8
0
 10
45.0
 20
142.0
 30
0.0
  0
VERTEX
  8
0
 10
35.25
 20
142.0
 30
0.0
  0
SEQEND
  8
0
  0
CIRCLE
  8
0
 62
7
 10
22.25
 20
109.0
 30
0.0
 40
7.9
  0
CIRCLE
  8
0
 62
7
 10
47.75
 20
109.0
 30
0.0
 40
7.9
  0
ENDBLK
  0
BLOCK
  8
0
  2
SKETCH107
 70
0
 10
0.0
 20
0.0
 30
0.0
  3
SKETCH107
  0
POLYLINE
  8
0
 62
7
 70
0
 66
1
 10
0.0
 20
0.0
 30
0.0
  0
VERTEX
  8
0
 10
65.75
 20
267.0
 30
0.0
  0
VERTEX
  8
0
 10
83.0
 20
267.0
 30
0.0
  0
VERTEX
  8
0
 10
83.0
 20
262.0
 30
0.0
  0
VERTEX
  8
0
 10
80.0
 20
262.0
 30
0.0
  0
VERTEX
  8
0
 10
80.0
 20
257.0
 30
0.0
  0
VERTEX
  8
0
 10
83.0
 20
257.0
 30
0.0
  0
VERTEX
  8
0
 10
83.0
 20
252.0
 30
0.0
  0
VERTEX
  8
0
 10
65.75
 20
252.0
 30
0.0
  0
SEQEND
  8
0
  0
POLYLINE
  8
0
 62
7
 70
0
 66
1
 10
0.0
 20
0.0
 30
0.0
  0
VERTEX
  8
0
 10
65.25
 20
267.0
 30
0.0
  0
VERTEX
  8
0
 10
48.0
 20
267.0
 30
0.0
  0
VERTEX
  8
0
 10
48.0
 20
262.0
 30
0.0
  0
VERTEX
  8
0
 10
51.0
 20
262.0
 30
0.0
  0
VERTEX
  8
0
 10
51.0
 20
257.0
 30
0.0
  0
VERTEX
  8
0
 10
48.0
 20
257.0
 30
0.0
  0
VERTEX
  8
0
 10
48.0
 20
252.0
 30
0.0
  0
VERTEX
  8
0
 10
65.25
 20
252.0
 30
0.0
  0
SEQEND
  8
0
  0
ENDBLK
  0
BLOCK
  8
0
  2
SKETCH105
 70
0
 10
0.0
 20
0.0
 30
0.0
  3
SKETCH105
  0
POLYLINE
  8
0
 62
7
 70
0
 66
1
 10
0.0
 20
0.0
 30
0.0
  0
VERTEX
  8
0
 10
140.0
 20
223.25
 30
0.0
  0
VERTEX
  8
0
 10
140.0
 20
233.0
 30
0.0
 42
0.414213562373
  0
VERTEX
  8
0
 10
138.0
 20
235.0
 30
0.0
  0
VERTEX
  8
0
 10
109.0
 20
235.0
 30
0.0
 42
0.414213562373
  0
VERTEX
  8
0
 10
107.0
 20
233.0
 30
0.0
  0
VERTEX
  8
0
 10
107.0
 20
223.25
 30
0.0
  0
SEQEND
  8
0
  0
POLYLINE
  8
0
 62
7
 70
1
 66
1
 10
0.0
 20
0.0
 30
0.0
  0
VERTEX
  8
0
 10
126.3
 20
217.0
 30
0.0
  0
VERTEX
  8
0
 10
126.3
 20
219.5
 30
0.0
  0
VERTEX
  8
0
 10
120.7
 20
219.5
 30
0.0
  0
VERTEX
  8
0
 10
120.7
 20
217.0
 30
0.0
  0
SEQEND
  8
0
  0
POLYLINE
  8
0
 62
7
 70
0
 66
1
 10
0.0
 20
0.0
 30
0.0
  0
VERTEX
  8
0
 10
107.0
 20
222.75
 30
0.0
  0
VERTEX
  8
0
 10
107.0
 20
213.0
 30
0.0
  0
VERTEX
  8
0
 10
140.0
 20
213.0
 30
0.0
  0
VERTEX
  8
0
 10
140.0
 20
222.75
 30
0.0
  0
SEQEND
  8
0
  0
POLYLINE
  8
0
 62
7
 70
1
 66
1
 10
0.0
 20
0.0
 30
0.0
  0
VERTEX
  8
0
 10
130.771253823
 20
232.392296447
 30
0.0
  0
VERTEX
  8
0
 10
114.495259939
 20
231.294788773
 30
0.0
 42
0.934839826619
  0
VERTEX
  8
0
 10
114.495259939
 20
226.705211227
 30
0.0
  0
VERTEX
  8
0
 10
130.771253823
 20
225.607703553
 30
0.0
 42
1.06970196554
  0
SEQEND
  8
0
  0
ENDBLK
  0
BLOCK
  8
0
  2
SKETCH108
 70
0
 10
0.0
 20
0.0
 30
0.0
  3
SKETCH108
  0
POLYLINE
  8
0
 62
7
 70
0
 66
1
 10
0.0
 20
0.0
 30
0.0
  0
VERTEX
  8
0
 10
65.75
 20
251.0
 30
0.0
  0
VERTEX
  8
0
 10
83.0
 20
251.0
 30
0.0
  0
VERTEX
  8
0
 10
83.0
 20
246.0
 30
0.0
  0
VERTEX
  8
0
 10
80.0
 20
246.0
 30
0.0
  0
VERTEX
  8
0
 10
80.0
 20
241.0
 30
0.0
  0
VERTEX
  8
0
 10
83.0
 20
241.0
 30
0.0
  0
VERTEX
  8
0
 10
83.0
 20
236.0
 30
0.0
  0
VERTEX
  8
0
 10
65.75
 20
236.0
 30
0.0
  0
SEQEND
  8
0
  0
POLYLINE
  8
0
 62
7
 70
0
 66
1
 10
0.0
 20
0.0
 30
0.0
  0
VERTEX
  8
0
 10
65.25
 20
251.0
 30
0.0
  0
VERTEX
  8
0
 10
48.0
 20
251.0
 30
0.0
  0
VERTEX
  8
0
 10
48.0
 20
246.0
 30
0.0
  0
VERTEX
  8
0
 10
51.0
 20
246.0
 30
0.0
  0
VERTEX
  8
0
 10
51.0
 20
241.0
 30
0.0
  0
VERTEX
  8
0
 10
48.0
 20
241.0
 30
0.0
  0
VERTEX
  8
0
 10
48.0
 20
236.0
 30
0.0
  0
VERTEX
  8
0
 10
65.25
 20
236.0
 30
0.0
  0
SEQEND
  8
0
  0
ENDBLK
  0
BLOCK
  8
0
  2
SKETCH109
 70
0
 10
0.0
 20
0.0
 30
0.0
  3
SKETCH109
  0
POLYLINE
  8
0
 62
7
 70
0
 66
1
 10
0.0
 20
0.0
 30
0.0
  0
VERTEX
  8
0
 10
102.75
 20
184.1
 30
0.0
  0
VERTEX
  8
0
 10
82.0
 20
184.1
 30
0.0
 42
0.414213562373
  0
VERTEX
  8
0
 10
81.0
 20
183.1
 30
0.0
  0
VERTEX
  8
0
 10
81.0
 20
180.1
 30
0.0
 42
0.414213562373
  0
VERTEX
  8
0
 10
82.0
 20
179.1
 30
0.0
  0
VERTEX
  8
0
 10
87.0
 20
179.1
 30
0.0
 42
-0.414213562373
  0
VERTEX
  8
0
 10
88.0
 20
178.1
 30
0.0
  0
VERTEX
  8
0
 10
88.0
 20
177.1
 30
0.0
 42
-0.414213562373
  0
VERTEX
  8
0
 10
87.0
 20
176.1
 30
0.0
  0
VERTEX
  8
0
 10
79.0
 20
176.1
 30
0.0
 42
-0.414213562373
  0
VERTEX
  8
0
 10
78.0
 20
177.1
 30
0.0
  0
VERTEX
  8
0
 10
78.0
 20
183.1
 30
0.0
 42
0.414213562373
  0
VERTEX
  8
0
 10
77.0
 20
184.1
 30
0.0
  0
VERTEX
  8
0
 10
74.0
 20
184.1
 30
0.0
 42
0.414213562373
  0
VERTEX
  8
0
 10
73.0
 20
183.1
 30
0.0
  0
VERTEX
  8
0
 10
73.0
 20
164.0
 30
0.0
  0
VERTEX
  8
0
 10
83.0
 20
164.0
 30
0.0
  0
VERTEX
  8
0
 10
83.0
 20
167.0
 30
0.0
  0
VERTEX
  8
0
 10
93.0
 20
167.0
 30
0.0
  0
VERTEX
  8
0
 10
93.0
 20
164.0
 30
0.0
  0
VERTEX
  8
0
 10
102.75
 20
164.0
 30
0.0
  0
SEQEND
  8
0
  0
POLYLINE
  8
0
 62
7
 70
0
 66
1
 10
0.0
 20
0.0
 30
0.0
  0
VERTEX
  8
0
 10
103.25
 20
184.1
 30
0.0
  0
VERTEX
  8
0
 10
132.0
 20
184.1
 30
0.0
 42
-0.414213562373
  0
VERTEX
  8
0
 10
133.0
 20
183.1
 30
0.0
  0
VERTEX
  8
0
 10
133.0
 20
164.0
 30
0.0
  0
VERTEX
  8
0
 10
123.0
 20
164.0
 30
0.0
  0
VERTEX
  8
0
 10
123.0
 20
167.0
 30
0.0
  0
VERTEX
  8
0
 10
113.0
 20
167.0
 30
0.0
  0
VERTEX
  8
0
 10
113.0
 20
164.0
 30
0.0
  0
VERTEX
  8
0
 10
103.25
 20
164.0
 30
0.0
  0
SEQEND
  8
0
  0
CIRCLE
  8
0
 62
7
 10
121.5
 20
173.05
 30
0.0
 40
1.5
  0
CIRCLE
  8
0
 62
7
 10
98.0
 20
165.5
 30
0.0
 40
1.0
  0
ENDBLK
  0
BLOCK
  8
0
  2
SKETCH110
 70
0
 10
0.0
 20
0.0
 30
0.0
  3
SKETCH110
  0
POLYLINE
  8
0
 62
7
 70
0
 66
1
 10
0.0
 20
0.0
 30
0.0
  0
VERTEX
  8
0
 10
102.75
 20
163.1
 30
0.0
  0
VERTEX
  8
0
 10
74.0
 20
163.1
 30
0.0
 42
0.414213562373
  0
VERTEX
  8
0
 10
73.0
 20
162.1
 30
0.0
  0
VERTEX
  8
0
 10
73.0
 20
143.0
 30
0.0
  0
VERTEX
  8
0
 10
83.0
 20
143.0
 30
0.0
  0
VERTEX
  8
0
 10
83.0
 20
146.0
 30
0.0
  0
VERTEX
  8
0
 10
93.0
 20
146.0
 30
0.0
  0
VERTEX
  8
0
 10
93.0
 20
143.0
 30
0.0
  0
VERTEX
  8
0
 10
102.75
 20
143.0
 30
0.0
  0
SEQEND
  8
0
  0
POLYLINE
  8
0
 62
7
 70
0
 66
1
 10
0.0
 20
0.0
 30
0.0
  0
VERTEX
  8
0
 10
103.25
 20
163.1
 30
0.0
  0
VERTEX
  8
0
 10
124.0
 20
163.1
 30
0.0
 42
-0.414213562373
  0
VERTEX
  8
0
 10
125.0
 20
162.1
 30
0.0
  0
VERTEX
  8
0
 10
125.0
 20
159.1
 30
0.0
 42
-0.414213562373
  0
VERTEX
  8
0
 10
124.0
 20
158.1
 30
0.0
  0
VERTEX
  8
0
 10
119.0
 20
158.1
 30
0.0
 42
0.414213562373
  0
VERTEX
  8
0
 10
118.0
 20
157.1
 30
0.0
  0
VERTEX
  8
0
 10
118.0
 20
156.1
 30
0.0
 42
0.414213562373
  0
VERTEX
  8
0
 10
119.0
 20
155.1
 30
0.0
  0
VERTEX
  8
0
 10
127.0
 20
155.1
 30
0.0
 42
0.414213562373
  0
VERTEX
  8
0
 10
128.0
 20
156.1
 30
0.0
  0
VERTEX
  8
0
 10
128.0
 20
162.1
 30
0.0
 42
-0.414213562373
  0
VERTEX
  8
0
 10
129.0
 20
163.1
 30
0.0
  0
VERTEX
  8
0
 10
132.0
 20
163.1
 30
0.0
 42
-0.414213562373
  0
VERTEX
  8
0
 10
133.0
 20
162.1
 30
0.0
  0
VERTEX
  8
0
 10
133.0
 20
143.0
 30
0.0
  0
VERTEX
  8
0
 10
123.0
 20
143.0
 30
0.0
  0
VERTEX
  8
0
 10
123.0
 20
146.0
 30
0.0
  0
VERTEX
  8
0
 10
113.0
 20
146.0
 30
0.0
  0
VERTEX
  8
0
 10
113.0
 20
143.0
 30
0.0
  0
VERTEX
  8
0
 10
103.25
 20
143.0
 30
0.0
  0
SEQEND
  8
0
  0
CIRCLE
  8
0
 62
7
 10
84.5
 20
152.05
 30
0.0
 40
1.5
  0
CIRCLE
  8
0
 62
7
 10
108.0
 20
144.5
 30
0.0
 40
1.0
  0
ENDBLK
  0
BLOCK
  8
0
  2
SKETCH116
 70
0
 10
0.0
 20
0.0
 30
0.0
  3
SKETCH116
  0
POLYLINE
  8
0
 62
7
 70
0
 66
1
 10
0.0
 20
0.0
 30
0.0
  0
VERTEX
  8
0
 10
109.0
 20
84.75
 30
0.0
  0
VERTEX
  8
0
 10
109.0
 20
76.0
 30
0.0
  0
VERTEX
  8
0
 10
80.0
 20
76.0
 30
0.0
  0
VERTEX
  8
0
 10
80.0
 20
84.75
 30
0.0
  0
SEQEND
  8
0
  0
POLYLINE
  8
0
 62
7
 70
0
 66
1
 10
0.0
 20
0.0
 30
0.0
  0
VERTEX
  8
0
 10
80.0
 20
85.25
 30
0.0
  0
VERTEX
  8
0
 10
80.0
 20
94.0
 30
0.0
  0
VERTEX
  8
0
 10
109.0
 20
94.0
 30
0.0
  0
VERTEX
  8
0
 10
109.0
 20
85.25
 30
0.0
  0
SEQEND
  8
0
  0
POLYLINE
  8
0
 62
7
 70
1
 66
1
 10
0.0
 20
0.0
 30
0.0
  0
VERTEX
  8
0
 10
88.2287461774
 20
88.3922964473
 30
0.0
  0
VERTEX
  8
0
 10
104.504740061
 20
87.2947887732
 30
0.0
 42
-0.93483982662
  0
VERTEX
  8
0
 10
104.504740061
 20
82.7052112268
 30
0.0
  0
VERTEX
  8
0
 10
88.2287461774
 20
81.6077035527
 30
0.0
 42
-1.06970196554
  0
SEQEND
  8
0
  0
ENDBLK
  0
BLOCK
  8
0
  2
SKETCH112
 70
0
 10
0.0
 20
0.0
 30
0.0
  3
SKETCH112
  0
POLYLINE
  8
0
 62
7
 70
0
 66
1
 10
0.0
 20
0.0
 30
0.0
  0
VERTEX
  8
0
 10
185.0
 20
35.25
 30
0.0
  0
VERTEX
  8
0
 10
185.0
 20
63.0
 30
0.0
 42
-0.414213562373
  0
VERTEX
  8
0
 10
187.0
 20
65.0
 30
0.0
  0
VERTEX
  8
0
 10
205.1
 20
65.0
 30
0.0
  0
VERTEX
  8
0
 10
205.1
 20
55.0
 30
0.0
  0
VERTEX
  8
0
 10
202.1
 20
55.0
 30
0.0
  0
VERTEX
  8
0
 10
202.1
 20
59.0
 30
0.0
  0
VERTEX
  8
0
 10
190.0
 20
59.0
 30
0.0
  0
VERTEX
  8
0
 10
190.0
 20
36.5
 30
0.0
  0
VERTEX
  8
0
 10
202.1
 20
36.5
 30
0.0
  0
VERTEX
  8
0
 10
202.1
 20
45.0
 30
0.0
  0
VERTEX
  8
0
 10
205.1
 20
45.0
 30
0.0
  0
VERTEX
  8
0
 10
205.1
 20
35.25
 30
0.0
  0
SEQEND
  8
0
  0
CIRCLE
  8
0
 62
7
 10
196.05
 20
61.5
 30
0.0
 40
1.0
  0
CIRCLE
  8
0
 62
7
 10
196.05
 20
34.0
 30
0.0
 40
1.0
  0
POLYLINE
  8
0
 62
7
 70
0
 66
1
 10
0.0
 20
0.0
 30
0.0
  0
VERTEX
  8
0
 10
205.1
 20
34.75
 30
0.0
  0
VERTEX
  8
0
 10
205.1
 20
25.0
 30
0.0
  0
VERTEX
  8
0
 10
202.1
 20
25.0
 30
0.0
  0
VERTEX
  8
0
 10
202.1
 20
15.0
 30
0.0
  0
VERTEX
  8
0
 10
205.1
 20
15.0
 30
0.0
  0
VERTEX
  8
0
 10
205.1
 20
5.0
 30
0.0
  0
VERTEX
  8
0
 10
187.0
 20
5.0
 30
0.0
 42
-0.414213562373
  0
VERTEX
  8
0
 10
185.0
 20
7.0
 30
0.0
  0
VERTEX
  8
0
 10
185.0
 20
34.75
 30
0.0
  0
SEQEND
  8
0
  0
CIRCLE
  8
0
 62
7
 10
203.6
 20
30.0
 30
0.0
 40
1.0
  0
ENDBLK
  0
BLOCK
  8
0
  2
SKETCH119
 70
0
 10
0.0
 20
0.0
 30
0.0
  3
SKETCH119
  0
POLYLINE
  8
0
 62
7
 70
0
 66
1
 10
0.0
 20
0.0
 30
0.0
  0
VERTEX
  8
0
 10
42.0
 20
198.0
 30
0.0
  0
VERTEX
  8
0
 10
42.0
 20
211.0
 30
0.0
  0
VERTEX
  8
0
 10
39.0
 20
211.0
 30
0.0
  0
VERTEX
  8
0
 10
39.0
 20
221.0
 30
0.0
  0
VERTEX
  8
0
 10
42.0
 20
221.0
 30
0.0
  0
VERTEX
  8
0
 10
42.0
 20
231.0
 30
0.0
  0
VERTEX
  8
0
 10
69.0
 20
231.0
 30
0.0
  0
VERTEX
  8
0
 10
69.0
 20
221.0
 30
0.0
  0
VERTEX
  8
0
 10
72.0
 20
221.0
 30
0.0
  0
VERTEX
  8
0
 10
72.0
 20
211.0
 30
0.0
  0
VERTEX
  8
0
 10
69.0
 20
211.0
 30
0.0
  0
VERTEX
  8
0
 10
69.0
 20
198.0
 30
0.0
  0
SEQEND
  8
0
  0
POLYLINE
  8
0
 62
7
 70
0
 66
1
 10
0.0
 20
0.0
 30
0.0
  0
VERTEX
  8
0
 10
69.0
 20
197.5
 30
0.0
  0
VERTEX
  8
0
 10
69.0
 20
197.0
 30
0.0
  0
VERTEX
  8
0
 10
65.5
 20
197.0
 30
0.0
  0
VERTEX
  8
0
 10
65.5
 20
198.0
 30
0.0
  0
VERTEX
  8
0
 10
64.0
 20
198.0
 30
0.0
  0
VERTEX
  8
0
 10
64.0
 20
197.0
 30
0.0
  0
VERTEX
  8
0
 10
63.5
 20
197.0
 30
0.0
  0
VERTEX
  8
0
 10
63.5
 20
195.0
 30
0.0
  0
VERTEX
  8
0
 10
64.0
 20
195.0
 30
0.0
  0
VERTEX
  8
0
 10
64.0
 20
194.0
 30
0.0
  0
VERTEX
  8
0
 10
65.5
 20
194.0
 30
0.0
  0
VERTEX
  8
0
 10
65.5
 20
195.0
 30
0.0
  0
VERTEX
  8
0
 10
69.0
 20
195.0
 30
0.0
  0
VERTEX
  8
0
 10
69.0
 20
191.0
 30
0.0
  0
VERTEX
  8
0
 10
72.0
 20
191.0
 30
0.0
  0
VERTEX
  8
0
 10
72.0
 20
181.0
 30
0.0
  0
VERTEX
  8
0
 10
69.0
 20
181.0
 30
0.0
  0
VERTEX
  8
0
 10
69.0
 20
171.0
 30
0.0
  0
VERTEX
  8
0
 10
42.0
 20
171.0
 30
0.0
  0
VERTEX
  8
0
 10
42.0
 20
181.0
 30
0.0
  0
VERTEX
  8
0
 10
39.0
 20
181.0
 30
0.0
  0
VERTEX
  8
0
 10
39.0
 20
191.0
 30
0.0
  0
VERTEX
  8
0
 10
42.0
 20
191.0
 30
0.0
  0
VERTEX
  8
0
 10
42.0
 20
195.0
 30
0.0
  0
VERTEX
  8
0
 10
45.5
 20
195.0
 30
0.0
  0
VERTEX
  8
0
 10
45.5
 20
194.0
 30
0.0
  0
VERTEX
  8
0
 10
47.0
 20
194.0
 30
0.0
  0
VERTEX
  8
0
 10
47.0
 20
195.0
 30
0.0
  0
VERTEX
  8
0
 10
47.5
 20
195.0
 30
0.0
  0
VERTEX
  8
0
 10
47.5
 20
197.0
 30
0.0
  0
VERTEX
  8
0
 10
47.0
 20
197.0
 30
0.0
  0
VERTEX
  8
0
 10
47.0
 20
198.0
 30
0.0
  0
VERTEX
  8
0
 10
45.5
 20
198.0
 30
0.0
  0
VERTEX
  8
0
 10
45.5
 20
197.0
 30
0.0
  0
VERTEX
  8
0
 10
42.0
 20
197.0
 30
0.0
  0
VERTEX
  8
0
 10
42.0
 20
197.5
 30
0.0
  0
SEQEND
  8
0
  0
ENDBLK
  0
BLOCK
  8
0
  2
SKETCH117
 70
0
 10
0.0
 20
0.0
 30
0.0
  3
SKETCH117
  0
POLYLINE
  8
0
 62
7
 70
0
 66
1
 10
0.0
 20
0.0
 30
0.0
  0
VERTEX
  8
0
 10
109.0
 20
132.75
 30
0.0
  0
VERTEX
  8
0
 10
109.0
 20
124.0
 30
0.0
  0
VERTEX
  8
0
 10
80.0
 20
124.0
 30
0.0
  0
VERTEX
  8
0
 10
80.0
 20
132.75
 30
0.0
  0
SEQEND
  8
0
  0
POLYLINE
  8
0
 62
7
 70
0
 66
1
 10
0.0
 20
0.0
 30
0.0
  0
VERTEX
  8
0
 10
80.0
 20
133.25
 30
0.0
  0
VERTEX
  8
0
 10
80.0
 20
142.0
 30
0.0
  0
VERTEX
  8
0
 10
109.0
 20
142.0
 30
0.0
  0
VERTEX
  8
0
 10
109.0
 20
133.25
 30
0.0
  0
SEQEND
  8
0
  0
POLYLINE
  8
0
 62
7
 70
1
 66
1
 10
0.0
 20
0.0
 30
0.0
  0
VERTEX
  8
0
 10
88.2287461774
 20
136.392296447
 30
0.0
  0
VERTEX
  8
0
 10
104.504740061
 20
135.294788773
 30
0.0
 42
-0.93483982662
  0
VERTEX
  8
0
 10
104.504740061
 20
130.705211227
 30
0.0
  0
VERTEX
  8
0
 10
88.2287461774
 20
129.607703553
 30
0.0
 42
-1.06970196554
  0
SEQEND
  8
0
  0
ENDBLK
  0
BLOCK
  8
0
  2
SKETCH131
 70
0
 10
0.0
 20
0.0
 30
0.0
  3
SKETCH131
  0
POLYLINE
  8
0
 62
7
 70
0
 66
1
 10
0.0
 20
0.0
 30
0.0
  0
VERTEX
  8
0
 10
166.0
 20
132.75
 30
0.0
  0
VERTEX
  8
0
 10
166.0
 20
124.0
 30
0.0
  0
VERTEX
  8
0
 10
140.0
 20
124.0
 30
0.0
 42
-0.414213562373
  0
VERTEX
  8
0
 10
138.0
 20
126.0
 30
0.0
  0
VERTEX
  8
0
 10
138.0
 20
132.75
 30
0.0
  0
SEQEND
  8
0
  0
POLYLINE
  8
0
 62
7
 70
0
 66
1
 10
0.0
 20
0.0
 30
0.0
  0
VERTEX
  8
0
 10
138.0
 20
133.25
 30
0.0
  0
VERTEX
  8
0
 10
138.0
 20
140.0
 30
0.0
 42
-0.414213562373
  0
VERTEX
  8
0
 10
140.0
 20
142.0
 30
0.0
  0
VERTEX
  8
0
 10
166.0
 20
142.0
 30
0.0
  0
VERTEX
  8
0
 10
166.0
 20
133.25
 30
0.0
  0
SEQEND
  8
0
  0
POLYLINE
  8
0
 62
7
 70
1
 66
1
 10
0.0
 20
0.0
 30
0.0
  0
VERTEX
  8
0
 10
147.228746177
 20
136.392296447
 30
0.0
  0
VERTEX
  8
0
 10
163.504740061
 20
135.294788773
 30
0.0
 42
-0.934839826619
  0
VERTEX
  8
0
 10
163.504740061
 20
130.705211227
 30
0.0
  0
VERTEX
  8
0
 10
147.228746177
 20
129.607703553
 30
0.0
 42
-1.06970196554
  0
SEQEND
  8
0
  0
ENDBLK
  0
BLOCK
  8
0
  2
SKETCH129
 70
0
 10
0.0
 20
0.0
 30
0.0
  3
SKETCH129
  0
POLYLINE
  8
0
 62
7
 70
0
 66
1
 10
0.0
 20
0.0
 30
0.0
  0
VERTEX
  8
0
 10
152.0
 20
108.75000881
 30
0.0
  0
VERTEX
  8
0
 10
152.0
 20
102.00001762
 30
0.0
 42
-0.414216142827
  0
VERTEX
  8
0
 10
150.0
 20
100.0
 30
0.0
  0
VERTEX
  8
0
 10
138.0
 20
100.0
 30
0.0
 42
0.414213562373
  0
VERTEX
  8
0
 10
136.0
 20
98.0
 30
0.0
  0
VERTEX
  8
0
 10
136.0
 20
76.0
 30
0.0
  0
VERTEX
  8
0
 10
133.0
 20
76.0
 30
0.0
  0
VERTEX
  8
0
 10
133.0
 20
79.0
 30
0.0
  0
VERTEX
  8
0
 10
131.5
 20
79.0
 30
0.0
  0
VERTEX
  8
0
 10
131.5
 20
83.0
 30
0.0
  0
VERTEX
  8
0
 10
132.8
 20
83.0
 30
0.0
  0
VERTEX
  8
0
 10
132.8
 20
85.5
 30
0.0
  0
VERTEX
  8
0
 10
131.5
 20
85.5
 30
0.0
  0
VERTEX
  8
0
 10
131.5
 20
87.0
 30
0.0
  0
VERTEX
  8
0
 10
128.5
 20
87.0
 30
0.0
  0
VERTEX
  8
0
 10
128.5
 20
85.5
 30
0.0
  0
VERTEX
  8
0
 10
127.2
 20
85.5
 30
0.0
  0
VERTEX
  8
0
 10
127.2
 20
83.0
 30
0.0
  0
VERTEX
  8
0
 10
128.5
 20
83.0
 30
0.0
  0
VERTEX
  8
0
 10
128.5
 20
79.0
 30
0.0
  0
VERTEX
  8
0
 10
127.0
 20
79.0
 30
0.0
  0
VERTEX
  8
0
 10
127.0
 20
76.0
 30
0.0
  0
VERTEX
  8
0
 10
124.0
 20
76.0
 30
0.0
  0
VERTEX
  8
0
 10
124.0
 20
108.75
 30
0.0
  0
SEQEND
  8
0
  0
POLYLINE
  8
0
 62
7
 70
0
 66
1
 10
0.0
 20
0.0
 30
0.0
  0
VERTEX
  8
0
 10
124.0
 20
109.25
 30
0.0
  0
VERTEX
  8
0
 10
124.0
 20
142.0
 30
0.0
  0
VERTEX
  8
0
 10
127.0
 20
142.0
 30
0.0
  0
VERTEX
  8
0
 10
127.0
 20
139.0
 30
0.0
  0
VERTEX
  8
0
 10
128.5
 20
139.0
 30
0.0
  0
VERTEX
  8
0
 10
128.5
 20
135.0
 30
0.0
  0
VERTEX
  8
0
 10
127.2
 20
135.0
 30
0.0
  0
VERTEX
  8
0
 10
127.2
 20
132.5
 30
0.0
  0
VERTEX
  8
0
 10
128.5
 20
132.5
 30
0.0
  0
VERTEX
  8
0
 10
128.5
 20
131.0
 30
0.0
  0
VERTEX
  8
0
 10
131.5
 20
131.0
 30
0.0
  0
VERTEX
  8
0
 10
131.5
 20
132.5
 30
0.0
  0
VERTEX
  8
0
 10
132.8
 20
132.5
 30
0.0
  0
VERTEX
  8
0
 10
132.8
 20
135.0
 30
0.0
  0
VERTEX
  8
0
 10
131.5
 20
135.0
 30
0.0
  0
VERTEX
  8
0
 10
131.5
 20
139.0
 30
0.0
  0
VERTEX
  8
0
 10
133.0
 20
139.0
 30
0.0
  0
VERTEX
  8
0
 10
133.0
 20
142.0
 30
0.0
  0
VERTEX
  8
0
 10
136.0
 20
142.0
 30
0.0
  0
VERTEX
  8
0
 10
136.0
 20
120.0
 30
0.0
 42
0.414213562373
  0
VERTEX
  8
0
 10
138.0
 20
118.0
 30
0.0
  0
VERTEX
  8
0
 10
150.0
 20
118.0
 30
0.0
 42
-0.414213562373
  0
VERTEX
  8
0
 10
152.0
 20
116.0
 30
0.0
  0
VERTEX
  8
0
 10
152.0
 20
109.25000881
 30
0.0
  0
SEQEND
  8
0
  0
CIRCLE
  8
0
 62
7
 10
143.0
 20
109.0
 30
0.0
 40
3.4
  0
ENDBLK
  0
BLOCK
  8
0
  2
SKETCH128
 70
0
 10
0.0
 20
0.0
 30
0.0
  3
SKETCH128
  0
POLYLINE
  8
0
 62
7
 70
0
 66
1
 10
0.0
 20
0.0
 30
0.0
  0
VERTEX
  8
0
 10
8.0
 20
198.0
 30
0.0
  0
VERTEX
  8
0
 10
8.0
 20
211.0
 30
0.0
  0
VERTEX
  8
0
 10
5.0
 20
211.0
 30
0.0
  0
VERTEX
  8
0
 10
5.0
 20
221.0
 30
0.0
  0
VERTEX
  8
0
 10
8.0
 20
221.0
 30
0.0
  0
VERTEX
  8
0
 10
8.0
 20
231.0
 30
0.0
  0
VERTEX
  8
0
 10
35.0
 20
231.0
 30
0.0
  0
VERTEX
  8
0
 10
35.0
 20
221.0
 30
0.0
  0
VERTEX
  8
0
 10
38.0
 20
221.0
 30
0.0
  0
VERTEX
  8
0
 10
38.0
 20
211.0
 30
0.0
  0
VERTEX
  8
0
 10
35.0
 20
211.0
 30
0.0
  0
VERTEX
  8
0
 10
35.0
 20
198.0
 30
0.0
  0
SEQEND
  8
0
  0
POLYLINE
  8
0
 62
7
 70
0
 66
1
 10
0.0
 20
0.0
 30
0.0
  0
VERTEX
  8
0
 10
35.0
 20
197.5
 30
0.0
  0
VERTEX
  8
0
 10
35.0
 20
197.0
 30
0.0
  0
VERTEX
  8
0
 10
31.5
 20
197.0
 30
0.0
  0
VERTEX
  8
0
 10
31.5
 20
198.0
 30
0.0
  0
VERTEX
  8
0
 10
30.0
 20
198.0
 30
0.0
  0
VERTEX
  8
0
 10
30.0
 20
197.0
 30
0.0
  0
VERTEX
  8
0
 10
29.5
 20
197.0
 30
0.0
  0
VERTEX
  8
0
 10
29.5
 20
195.0
 30
0.0
  0
VERTEX
  8
0
 10
30.0
 20
195.0
 30
0.0
  0
VERTEX
  8
0
 10
30.0
 20
194.0
 30
0.0
  0
VERTEX
  8
0
 10
31.5
 20
194.0
 30
0.0
  0
VERTEX
  8
0
 10
31.5
 20
195.0
 30
0.0
  0
VERTEX
  8
0
 10
35.0
 20
195.0
 30
0.0
  0
VERTEX
  8
0
 10
35.0
 20
191.0
 30
0.0
  0
VERTEX
  8
0
 10
38.0
 20
191.0
 30
0.0
  0
VERTEX
  8
0
 10
38.0
 20
181.0
 30
0.0
  0
VERTEX
  8
0
 10
35.0
 20
181.0
 30
0.0
  0
VERTEX
  8
0
 10
35.0
 20
171.0
 30
0.0
  0
VERTEX
  8
0
 10
8.0
 20
171.0
 30
0.0
  0
VERTEX
  8
0
 10
8.0
 20
181.0
 30
0.0
  0
VERTEX
  8
0
 10
5.0
 20
181.0
 30
0.0
  0
VERTEX
  8
0
 10
5.0
 20
191.0
 30
0.0
  0
VERTEX
  8
0
 10
8.0
 20
191.0
 30
0.0
  0
VERTEX
  8
0
 10
8.0
 20
195.0
 30
0.0
  0
VERTEX
  8
0
 10
11.5
 20
195.0
 30
0.0
  0
VERTEX
  8
0
 10
11.5
 20
194.0
 30
0.0
  0
VERTEX
  8
0
 10
13.0
 20
194.0
 30
0.0
  0
VERTEX
  8
0
 10
13.0
 20
195.0
 30
0.0
  0
VERTEX
  8
0
 10
13.5
 20
195.0
 30
0.0
  0
VERTEX
  8
0
 10
13.5
 20
197.0
 30
0.0
  0
VERTEX
  8
0
 10
13.0
 20
197.0
 30
0.0
  0
VERTEX
  8
0
 10
13.0
 20
198.0
 30
0.0
  0
VERTEX
  8
0
 10
11.5
 20
198.0
 30
0.0
  0
VERTEX
  8
0
 10
11.5
 20
197.0
 30
0.0
  0
VERTEX
  8
0
 10
8.0
 20
197.0
 30
0.0
  0
VERTEX
  8
0
 10
8.0
 20
197.5
 30
0.0
  0
SEQEND
  8
0
  0
ENDBLK
  0
BLOCK
  8
0
  2
SKETCH130
 70
0
 10
0.0
 20
0.0
 30
0.0
  3
SKETCH130
  0
POLYLINE
  8
0
 62
7
 70
0
 66
1
 10
0.0
 20
0.0
 30
0.0
  0
VERTEX
  8
0
 10
153.0
 20
109.25
 30
0.0
  0
VERTEX
  8
0
 10
153.0
 20
115.999991808
 30
0.0
 42
-0.414213562373
  0
VERTEX
  8
0
 10
155.0
 20
117.999991808
 30
0.0
  0
VERTEX
  8
0
 10
167.0
 20
117.999991808
 30
0.0
 42
0.414213562373
  0
VERTEX
  8
0
 10
169.0
 20
119.999991808
 30
0.0
  0
VERTEX
  8
0
 10
169.0
 20
142.0
 30
0.0
  0
VERTEX
  8
0
 10
172.0
 20
142.0
 30
0.0
  0
VERTEX
  8
0
 10
172.0
 20
139.0
 30
0.0
  0
VERTEX
  8
0
 10
173.5
 20
139.0
 30
0.0
  0
VERTEX
  8
0
 10
173.5
 20
135.0
 30
0.0
  0
VERTEX
  8
0
 10
172.2
 20
135.0
 30
0.0
  0
VERTEX
  8
0
 10
172.2
 20
132.5
 30
0.0
  0
VERTEX
  8
0
 10
173.5
 20
132.5
 30
0.0
  0
VERTEX
  8
0
 10
173.5
 20
131.0
 30
0.0
  0
VERTEX
  8
0
 10
176.5
 20
131.0
 30
0.0
  0
VERTEX
  8
0
 10
176.5
 20
132.5
 30
0.0
  0
VERTEX
  8
0
 10
177.8
 20
132.5
 30
0.0
  0
VERTEX
  8
0
 10
177.8
 20
135.0
 30
0.0
  0
VERTEX
  8
0
 10
176.5
 20
135.0
 30
0.0
  0
VERTEX
  8
0
 10
176.5
 20
139.0
 30
0.0
  0
VERTEX
  8
0
 10
178.0
 20
139.0
 30
0.0
  0
VERTEX
  8
0
 10
178.0
 20
142.0
 30
0.0
  0
VERTEX
  8
0
 10
181.0
 20
142.0
 30
0.0
  0
VERTEX
  8
0
 10
181.0
 20
109.25
 30
0.0
  0
SEQEND
  8
0
  0
POLYLINE
  8
0
 62
7
 70
0
 66
1
 10
0.0
 20
0.0
 30
0.0
  0
VERTEX
  8
0
 10
181.0
 20
108.75
 30
0.0
  0
VERTEX
  8
0
 10
181.0
 20
76.0
 30
0.0
  0
VERTEX
  8
0
 10
178.0
 20
76.0
 30
0.0
  0
VERTEX
  8
0
 10
178.0
 20
79.0
 30
0.0
  0
VERTEX
  8
0
 10
176.5
 20
79.0
 30
0.0
  0
VERTEX
  8
0
 10
176.5
 20
83.0
 30
0.0
  0
VERTEX
  8
0
 10
177.8
 20
83.0
 30
0.0
  0
VERTEX
  8
0
 10
177.8
 20
85.5
 30
0.0
  0
VERTEX
  8
0
 10
176.5
 20
85.5
 30
0.0
  0
VERTEX
  8
0
 10
176.5
 20
87.0
 30
0.0
  0
VERTEX
  8
0
 10
173.5
 20
87.0
 30
0.0
  0
VERTEX
  8
0
 10
173.5
 20
85.5
 30
0.0
  0
VERTEX
  8
0
 10
172.2
 20
85.5
 30
0.0
  0
VERTEX
  8
0
 10
172.2
 20
83.0
 30
0.0
  0
VERTEX
  8
0
 10
173.5
 20
83.0
 30
0.0
  0
VERTEX
  8
0
 10
173.5
 20
79.0
 30
0.0
  0
VERTEX
  8
0
 10
172.0
 20
79.0
 30
0.0
  0
VERTEX
  8
0
 10
172.0
 20
76.0
 30
0.0
  0
VERTEX
  8
0
 10
169.0
 20
76.0
 30
0.0
  0
VERTEX
  8
0
 10
169.0
 20
97.9999918084
 30
0.0
 42
0.414213562373
  0
VERTEX
  8
0
 10
167.0
 20
99.9999918084
 30
0.0
  0
VERTEX
  8
0
 10
155.0
 20
99.9999918084
 30
0.0
 42
-0.414215961632
  0
VERTEX
  8
0
 10
153.0
 20
102.000008192
 30
0.0
  0
VERTEX
  8
0
 10
153.0
 20
108.75
 30
0.0
  0
SEQEND
  8
0
  0
CIRCLE
  8
0
 62
7
 10
162.0
 20
108.999991808
 30
0.0
 40
3.4
  0
ENDBLK
  0
BLOCK
  8
0
  2
SKETCH124
 70
0
 10
0.0
 20
0.0
 30
0.0
  3
SKETCH124
  0
POLYLINE
  8
0
 62
7
 70
0
 66
1
 10
0.0
 20
0.0
 30
0.0
  0
VERTEX
  8
0
 10
163.0
 20
178.0
 30
0.0
  0
VERTEX
  8
0
 10
163.0
 20
143.0
 30
0.0
  0
VERTEX
  8
0
 10
167.0
 20
143.0
 30
0.0
  0
VERTEX
  8
0
 10
167.0
 20
146.0
 30
0.0
  0
VERTEX
  8
0
 10
170.5
 20
146.0
 30
0.0
  0
VERTEX
  8
0
 10
170.5
 20
150.0
 30
0.0
  0
VERTEX
  8
0
 10
169.2
 20
150.0
 30
0.0
  0
VERTEX
  8
0
 10
169.2
 20
152.5
 30
0.0
  0
VERTEX
  8
0
 10
170.5
 20
152.5
 30
0.0
  0
VERTEX
  8
0
 10
170.5
 20
154.0
 30
0.0
  0
VERTEX
  8
0
 10
173.5
 20
154.0
 30
0.0
  0
VERTEX
  8
0
 10
173.5
 20
152.5
 30
0.0
  0
VERTEX
  8
0
 10
174.8
 20
152.5
 30
0.0
  0
VERTEX
  8
0
 10
174.8
 20
150.0
 30
0.0
  0
VERTEX
  8
0
 10
173.5
 20
150.0
 30
0.0
  0
VERTEX
  8
0
 10
173.5
 20
146.0
 30
0.0
  0
VERTEX
  8
0
 10
177.0
 20
146.0
 30
0.0
  0
VERTEX
  8
0
 10
177.0
 20
143.0
 30
0.0
  0
VERTEX
  8
0
 10
181.0
 20
143.0
 30
0.0
  0
VERTEX
  8
0
 10
181.0
 20
163.0
 30
0.0
  0
VERTEX
  8
0
 10
184.0
 20
163.0
 30
0.0
  0
VERTEX
  8
0
 10
184.0
 20
168.0
 30
0.0
  0
VERTEX
  8
0
 10
181.0
 20
168.0
 30
0.0
  0
VERTEX
  8
0
 10
181.0
 20
178.0
 30
0.0
  0
SEQEND
  8
0
  0
POLYLINE
  8
0
 62
7
 70
0
 66
1
 10
0.0
 20
0.0
 30
0.0
  0
VERTEX
  8
0
 10
181.0
 20
178.5
 30
0.0
  0
VERTEX
  8
0
 10
181.0
 20
188.0
 30
0.0
 42
0.414213562373
  0
VERTEX
  8
0
 10
179.0
 20
190.0
 30
0.0
  0
VERTEX
  8
0
 10
165.0
 20
190.0
 30
0.0
 42
0.414213562373
  0
VERTEX
  8
0
 10
163.0
 20
188.0
 30
0.0
  0
VERTEX
  8
0
 10
163.0
 20
178.5
 30
0.0
  0
SEQEND
  8
0
  0
POLYLINE
  8
0
 62
7
 70
1
 66
1
 10
0.0
 20
0.0
 30
0.0
  0
VERTEX
  8
0
 10
165.95
 20
185.0
 30
0.0
  0
VERTEX
  8
0
 10
178.05
 20
185.0
 30
0.0
  0
VERTEX
  8
0
 10
178.05
 20
162.5
 30
0.0
  0
VERTEX
  8
0
 10
165.95
 20
162.5
 30
0.0
  0
SEQEND
  8
0
  0
CIRCLE
  8
0
 62
7
 10
172.0
 20
187.5
 30
0.0
 40
1.0
  0
CIRCLE
  8
0
 62
7
 10
172.0
 20
160.0
 30
0.0
 40
1.0
  0
ENDBLK
  0
BLOCK
  8
0
  2
SKETCH127
 70
0
 10
0.0
 20
0.0
 30
0.0
  3
SKETCH127
  0
POLYLINE
  8
0
 62
7
 70
0
 66
1
 10
0.0
 20
0.0
 30
0.0
  0
VERTEX
  8
0
 10
185.0
 20
96.25
 30
0.0
  0
VERTEX
  8
0
 10
185.0
 20
124.0
 30
0.0
 42
-0.414213562373
  0
VERTEX
  8
0
 10
187.0
 20
126.0
 30
0.0
  0
VERTEX
  8
0
 10
205.1
 20
126.0
 30
0.0
  0
VERTEX
  8
0
 10
205.1
 20
116.0
 30
0.0
  0
VERTEX
  8
0
 10
202.1
 20
116.0
 30
0.0
  0
VERTEX
  8
0
 10
202.1
 20
120.0
 30
0.0
  0
VERTEX
  8
0
 10
190.0
 20
120.0
 30
0.0
  0
VERTEX
  8
0
 10
190.0
 20
97.5
 30
0.0
  0
VERTEX
  8
0
 10
202.1
 20
97.5
 30
0.0
  0
VERTEX
  8
0
 10
202.1
 20
106.0
 30
0.0
  0
VERTEX
  8
0
 10
205.1
 20
106.0
 30
0.0
  0
VERTEX
  8
0
 10
205.1
 20
96.25
 30
0.0
  0
SEQEND
  8
0
  0
CIRCLE
  8
0
 62
7
 10
196.05
 20
122.5
 30
0.0
 40
1.0
  0
CIRCLE
  8
0
 62
7
 10
196.05
 20
95.0
 30
0.0
 40
1.0
  0
POLYLINE
  8
0
 62
7
 70
0
 66
1
 10
0.0
 20
0.0
 30
0.0
  0
VERTEX
  8
0
 10
205.1
 20
95.75
 30
0.0
  0
VERTEX
  8
0
 10
205.1
 20
86.0
 30
0.0
  0
VERTEX
  8
0
 10
202.1
 20
86.0
 30
0.0
  0
VERTEX
  8
0
 10
202.1
 20
76.0
 30
0.0
  0
VERTEX
  8
0
 10
205.1
 20
76.0
 30
0.0
  0
VERTEX
  8
0
 10
205.1
 20
66.0
 30
0.0
  0
VERTEX
  8
0
 10
187.0
 20
66.0
 30
0.0
 42
-0.414213562373
  0
VERTEX
  8
0
 10
185.0
 20
68.0
 30
0.0
  0
VERTEX
  8
0
 10
185.0
 20
95.75
 30
0.0
  0
SEQEND
  8
0
  0
CIRCLE
  8
0
 62
7
 10
203.6
 20
91.0
 30
0.0
 40
1.0
  0
ENDBLK
  0
BLOCK
  8
0
  2
SKETCH125
 70
0
 10
0.0
 20
0.0
 30
0.0
  3
SKETCH125
  0
POLYLINE
  8
0
 62
7
 70
0
 66
1
 10
0.0
 20
0.0
 30
0.0
  0
VERTEX
  8
0
 10
163.0
 20
226.0
 30
0.0
  0
VERTEX
  8
0
 10
163.0
 20
191.0
 30
0.0
  0
VERTEX
  8
0
 10
167.0
 20
191.0
 30
0.0
  0
VERTEX
  8
0
 10
167.0
 20
194.0
 30
0.0
  0
VERTEX
  8
0
 10
170.5
 20
194.0
 30
0.0
  0
VERTEX
  8
0
 10
170.5
 20
198.0
 30
0.0
  0
VERTEX
  8
0
 10
169.2
 20
198.0
 30
0.0
  0
VERTEX
  8
0
 10
169.2
 20
200.5
 30
0.0
  0
VERTEX
  8
0
 10
170.5
 20
200.5
 30
0.0
  0
VERTEX
  8
0
 10
170.5
 20
202.0
 30
0.0
  0
VERTEX
  8
0
 10
173.5
 20
202.0
 30
0.0
  0
VERTEX
  8
0
 10
173.5
 20
200.5
 30
0.0
  0
VERTEX
  8
0
 10
174.8
 20
200.5
 30
0.0
  0
VERTEX
  8
0
 10
174.8
 20
198.0
 30
0.0
  0
VERTEX
  8
0
 10
173.5
 20
198.0
 30
0.0
  0
VERTEX
  8
0
 10
173.5
 20
194.0
 30
0.0
  0
VERTEX
  8
0
 10
177.0
 20
194.0
 30
0.0
  0
VERTEX
  8
0
 10
177.0
 20
191.0
 30
0.0
  0
VERTEX
  8
0
 10
181.0
 20
191.0
 30
0.0
  0
VERTEX
  8
0
 10
181.0
 20
211.0
 30
0.0
  0
VERTEX
  8
0
 10
184.0
 20
211.0
 30
0.0
  0
VERTEX
  8
0
 10
184.0
 20
216.0
 30
0.0
  0
VERTEX
  8
0
 10
181.0
 20
216.0
 30
0.0
  0
VERTEX
  8
0
 10
181.0
 20
226.0
 30
0.0
  0
SEQEND
  8
0
  0
POLYLINE
  8
0
 62
7
 70
0
 66
1
 10
0.0
 20
0.0
 30
0.0
  0
VERTEX
  8
0
 10
181.0
 20
226.5
 30
0.0
  0
VERTEX
  8
0
 10
181.0
 20
231.0
 30
0.0
 42
0.414213562373
  0
VERTEX
  8
0
 10
179.0
 20
233.0
 30
0.0
  0
VERTEX
  8
0
 10
165.0
 20
233.0
 30
0.0
 42
0.414213562377
  0
VERTEX
  8
0
 10
163.0
 20
231.0
 30
0.0
  0
VERTEX
  8
0
 10
163.0
 20
226.5
 30
0.0
  0
SEQEND
  8
0
  0
CIRCLE
  8
0
 62
7
 10
172.0
 20
227.0
 30
0.0
 40
1.5
  0
ENDBLK
  0
BLOCK
  8
0
  2
SKETCH132
 70
0
 10
0.0
 20
0.0
 30
0.0
  3
SKETCH132
  0
POLYLINE
  8
0
 62
7
 70
0
 66
1
 10
0.0
 20
0.0
 30
0.0
  0
VERTEX
  8
0
 10
151.0
 20
263.25
 30
0.0
  0
VERTEX
  8
0
 10
151.0
 20
288.0
 30
0.0
  0
VERTEX
  8
0
 10
118.0
 20
288.0
 30
0.0
  0
VERTEX
  8
0
 10
118.0
 20
263.25
 30
0.0
  0
SEQEND
  8
0
  0
POLYLINE
  8
0
 62
7
 70
0
 66
1
 10
0.0
 20
0.0
 30
0.0
  0
VERTEX
  8
0
 10
118.0
 20
262.75
 30
0.0
  0
VERTEX
  8
0
 10
118.0
 20
238.0
 30
0.0
 42
0.414213562373
  0
VERTEX
  8
0
 10
120.0
 20
236.0
 30
0.0
  0
VERTEX
  8
0
 10
149.0
 20
236.0
 30
0.0
 42
0.414213562373
  0
VERTEX
  8
0
 10
151.0
 20
238.0
 30
0.0
  0
VERTEX
  8
0
 10
151.0
 20
262.75
 30
0.0
  0
SEQEND
  8
0
  0
CIRCLE
  8
0
 62
7
 10
134.5
 20
283.5
 30
0.0
 40
1.5
  0
CIRCLE
  8
0
 62
7
 10
134.5
 20
240.5
 30
0.0
 40
1.5
  0
POLYLINE
  8
0
 62
7
 70
1
 66
1
 10
0.0
 20
0.0
 30
0.0
  0
VERTEX
  8
0
 10
142.0
 20
285.0
 30
0.0
  0
VERTEX
  8
0
 10
147.0
 20
285.0
 30
0.0
  0
VERTEX
  8
0
 10
147.0
 20
282.0
 30
0.0
  0
VERTEX
  8
0
 10
142.0
 20
282.0
 30
0.0
  0
SEQEND
  8
0
  0
POLYLINE
  8
0
 62
7
 70
1
 66
1
 10
0.0
 20
0.0
 30
0.0
  0
VERTEX
  8
0
 10
122.0
 20
285.0
 30
0.0
  0
VERTEX
  8
0
 10
127.0
 20
285.0
 30
0.0
  0
VERTEX
  8
0
 10
127.0
 20
282.0
 30
0.0
  0
VERTEX
  8
0
 10
122.0
 20
282.0
 30
0.0
  0
SEQEND
  8
0
  0
POLYLINE
  8
0
 62
7
 70
1
 66
1
 10
0.0
 20
0.0
 30
0.0
  0
VERTEX
  8
0
 10
122.0
 20
242.0
 30
0.0
  0
VERTEX
  8
0
 10
127.0
 20
242.0
 30
0.0
  0
VERTEX
  8
0
 10
127.0
 20
239.0
 30
0.0
  0
VERTEX
  8
0
 10
122.0
 20
239.0
 30
0.0
  0
SEQEND
  8
0
  0
POLYLINE
  8
0
 62
7
 70
1
 66
1
 10
0.0
 20
0.0
 30
0.0
  0
VERTEX
  8
0
 10
142.0
 20
242.0
 30
0.0
  0
VERTEX
  8
0
 10
147.0
 20
242.0
 30
0.0
  0
VERTEX
  8
0
 10
147.0
 20
239.0
 30
0.0
  0
VERTEX
  8
0
 10
142.0
 20
239.0
 30
0.0
  0
SEQEND
  8
0
  0
POLYLINE
  8
0
 62
7
 70
1
 66
1
 10
0.0
 20
0.0
 30
0.0
  0
VERTEX
  8
0
 10
134.5
 20
251.0
 30
0.0
  0
VERTEX
  8
0
 10
135.5
 20
252.732050808
 30
0.0
  0
VERTEX
  8
0
 10
133.5
 20
252.732050808
 30
0.0
  0
SEQEND
  8
0
  0
ENDBLK
  0
BLOCK
  8
0
  2
SKETCH133
 70
0
 10
0.0
 20
0.0
 30
0.0
  3
SKETCH133
  0
POLYLINE
  8
0
 62
7
 70
0
 66
1
 10
0.0
 20
0.0
 30
0.0
  0
VERTEX
  8
0
 10
74.6419840923
 20
278.560597586
 30
0.0
  0
VERTEX
  8
0
 10
67.0
 20
271.0
 30
0.0
  0
VERTEX
  8
0
 10
67.0
 20
268.0
 30
0.0
  0
VERTEX
  8
0
 10
64.0
 20
268.0
 30
0.0
  0
VERTEX
  8
0
 10
64.0
 20
271.0
 30
0.0
  0
VERTEX
  8
0
 10
56.3580159077
 20
278.560597586
 30
0.0
  0
SEQEND
  8
0
  0
POLYLINE
  8
0
 62
7
 70
0
 66
1
 10
0.0
 20
0.0
 30
0.0
  0
VERTEX
  8
0
 10
56.0009444863
 20
278.910597586
 30
0.0
  0
VERTEX
  8
0
 10
48.358960394
 20
286.471195172
 30
0.0
 42
-0.959859865196
  0
VERTEX
  8
0
 10
49.7050592344
 20
287.948121682
 30
0.0
  0
VERTEX
  8
0
 10
64.8572123903
 20
275.233955557
 30
0.0
 42
0.363970234266
  0
VERTEX
  8
0
 10
66.1427876097
 20
275.233955557
 30
0.0
  0
VERTEX
  8
0
 10
81.2949407656
 20
287.948121682
 30
0.0
 42
-0.959859865196
  0
VERTEX
  8
0
 10
82.641039606
 20
286.471195172
 30
0.0
  0
VERTEX
  8
0
 10
74.9990555137
 20
278.910597586
 30
0.0
  0
SEQEND
  8
0
  0
ENDBLK
  0
BLOCK
  8
0
  2
SKETCH051
 70
0
 10
0.0
 20
0.0
 30
0.0
  3
SKETCH051
  0
POLYLINE
  8
0
 62
7
 70
0
 66
1
 10
0.0
 20
0.0
 30
0.0
  0
VERTEX
  8
0
 10
5.0
 20
40.0
 30
0.0
  0
VERTEX
  8
0
 10
5.0
 20
57.0
 30
0.0
  0
VERTEX
  8
0
 10
8.0
 20
57.0
 30
0.0
  0
VERTEX
  8
0
 10
8.0
 20
60.0
 30
0.0
  0
VERTEX
  8
0
 10
5.0
 20
60.0
 30
0.0
  0
VERTEX
  8
0
 10
5.0
 20
65.0
 30
0.0
 42
-0.414213562373
  0
VERTEX
  8
0
 10
15.0
 20
75.0
 30
0.0
  0
VERTEX
  8
0
 10
75.0
 20
75.0
 30
0.0
 42
-0.414213562373
  0
VERTEX
  8
0
 10
85.0
 20
65.0
 30
0.0
  0
VERTEX
  8
0
 10
85.0
 20
60.0
 30
0.0
  0
VERTEX
  8
0
 10
82.0
 20
60.0
 30
0.0
  0
VERTEX
  8
0
 10
82.0
 20
57.0
 30
0.0
  0
VERTEX
  8
0
 10
85.0
 20
57.0
 30
0.0
  0
VERTEX
  8
0
 10
85.0
 20
40.0
 30
0.0
  0
SEQEND
  8
0
  0
POLYLINE
  8
0
 62
7
 70
0
 66
1
 10
0.0
 20
0.0
 30
0.0
  0
VERTEX
  8
0
 10
85.0
 20
39.5
 30
0.0
  0
VERTEX
  8
0
 10
85.0
 20
19.0
 30
0.0
  0
VERTEX
  8
0
 10
82.0
 20
19.0
 30
0.0
  0
VERTEX
  8
0
 10
82.0
 20
16.0
 30
0.0
  0
VERTEX
  8
0
 10
85.0
 20
16.0
 30
0.0
  0
VERTEX
  8
0
 10
85.0
 20
15.0
 30
0.0
 42
-0.414213562373
  0
VERTEX
  8
0
 10
75.0
 20
5.0
 30
0.0
  0
VERTEX
  8
0
 10
15.0
 20
5.0
 30
0.0
 42
-0.414213562373
  0
VERTEX
  8
0
 10
5.0
 20
15.0
 30
0.0
  0
VERTEX
  8
0
 10
5.0
 20
16.0
 30
0.0
  0
VERTEX
  8
0
 10
8.0
 20
16.0
 30
0.0
  0
VERTEX
  8
0
 10
8.0
 20
19.0
 30
0.0
  0
VERTEX
  8
0
 10
5.0
 20
19.0
 30
0.0
  0
VERTEX
  8
0
 10
5.0
 20
39.5
 30
0.0
  0
SEQEND
  8
0
  0
POLYLINE
  8
0
 62
7
 70
1
 66
1
 10
0.0
 20
0.0
 30
0.0
  0
VERTEX
  8
0
 10
35.0
 20
11.0
 30
0.0
  0
VERTEX
  8
0
 10
55.0
 20
11.0
 30
0.0
  0
VERTEX
  8
0
 10
55.0
 20
8.0
 30
0.0
  0
VERTEX
  8
0
 10
35.0
 20
8.0
 30
0.0
  0
SEQEND
  8
0
  0
CIRCLE
  8
0
 62
7
 10
35.5
 20
16.0
 30
0.0
 40
1.5
  0
CIRCLE
  8
0
 62
7
 10
20.6
 20
67.0
 30
0.0
 40
1.5
  0
CIRCLE
  8
0
 62
7
 10
69.1
 20
68.0
 30
0.0
 40
1.5
  0
POLYLINE
  8
0
 62
7
 70
1
 66
1
 10
0.0
 20
0.0
 30
0.0
  0
VERTEX
  8
0
 10
43.55
 20
19.9
 30
0.0
  0
VERTEX
  8
0
 10
46.45
 20
19.9
 30
0.0
  0
VERTEX
  8
0
 10
46.45
 20
17.0
 30
0.0
  0
VERTEX
  8
0
 10
43.55
 20
17.0
 30
0.0
  0
SEQEND
  8
0
  0
CIRCLE
  8
0
 62
7
 10
11.0
 20
58.5
 30
0.0
 40
1.5
  0
POLYLINE
  8
0
 62
7
 70
1
 66
1
 10
0.0
 20
0.0
 30
0.0
  0
VERTEX
  8
0
 10
14.0
 20
60.0
 30
0.0
  0
VERTEX
  8
0
 10
17.0
 20
60.0
 30
0.0
  0
VERTEX
  8
0
 10
17.0
 20
57.0
 30
0.0
  0
VERTEX
  8
0
 10
14.0
 20
57.0
 30
0.0
  0
SEQEND
  8
0
  0
CIRCLE
  8
0
 62
7
 10
79.0
 20
58.5
 30
0.0
 40
1.5
  0
POLYLINE
  8
0
 62
7
 70
1
 66
1
 10
0.0
 20
0.0
 30
0.0
  0
VERTEX
  8
0
 10
73.0
 20
60.0
 30
0.0
  0
VERTEX
  8
0
 10
76.0
 20
60.0
 30
0.0
  0
VERTEX
  8
0
 10
76.0
 20
57.0
 30
0.0
  0
VERTEX
  8
0
 10
73.0
 20
57.0
 30
0.0
  0
SEQEND
  8
0
  0
CIRCLE
  8
0
 62
7
 10
79.0
 20
17.5
 30
0.0
 40
1.5
  0
POLYLINE
  8
0
 62
7
 70
1
 66
1
 10
0.0
 20
0.0
 30
0.0
  0
VERTEX
  8
0
 10
73.0
 20
19.0
 30
0.0
  0
VERTEX
  8
0
 10
76.0
 20
19.0
 30
0.0
  0
VERTEX
  8
0
 10
76.0
 20
16.0
 30
0.0
  0
VERTEX
  8
0
 10
73.0
 20
16.0
 30
0.0
  0
SEQEND
  8
0
  0
CIRCLE
  8
0
 62
7
 10
11.0
 20
17.5
 30
0.0
 40
1.5
  0
POLYLINE
  8
0
 62
7
 70
1
 66
1
 10
0.0
 20
0.0
 30
0.0
  0
VERTEX
  8
0
 10
14.0
 20
19.0
 30
0.0
  0
VERTEX
  8
0
 10
17.0
 20
19.0
 30
0.0
  0
VERTEX
  8
0
 10
17.0
 20
16.0
 30
0.0
  0
VERTEX
  8
0
 10
14.0
 20
16.0
 30
0.0
  0
SEQEND
  8
0
  0
ENDBLK
  0
BLOCK
  8
0
  2
SKETCH046
 70
0
 10
0.0
 20
0.0
 30
0.0
  3
SKETCH046
  0
POLYLINE
  8
0
 62
7
 70
0
 66
1
 10
0.0
 20
0.0
 30
0.0
  0
VERTEX
  8
0
 10
38.0
 20
158.25
 30
0.0
  0
VERTEX
  8
0
 10
38.0
 20
168.0
 30
0.0
 42
0.414213562373
  0
VERTEX
  8
0
 10
36.0
 20
170.0
 30
0.0
  0
VERTEX
  8
0
 10
7.00000000001
 20
170.0
 30
0.0
 42
0.414213562373
  0
VERTEX
  8
0
 10
5.0
 20
168.0
 30
0.0
  0
VERTEX
  8
0
 10
5.0
 20
158.25
 30
0.0
  0
SEQEND
  8
0
  0
POLYLINE
  8
0
 62
7
 70
0
 66
1
 10
0.0
 20
0.0
 30
0.0
  0
VERTEX
  8
0
 10
5.0
 20
157.75
 30
0.0
  0
VERTEX
  8
0
 10
5.0
 20
148.0
 30
0.0
  0
VERTEX
  8
0
 10
9.0
 20
148.0
 30
0.0
  0
VERTEX
  8
0
 10
9.0
 20
143.0
 30
0.0
  0
VERTEX
  8
0
 10
14.0
 20
143.0
 30
0.0
  0
VERTEX
  8
0
 10
14.0
 20
148.0
 30
0.0
  0
VERTEX
  8
0
 10
20.0
 20
148.0
 30
0.0
  0
VERTEX
  8
0
 10
20.0
 20
152.0
 30
0.0
  0
VERTEX
  8
0
 10
18.7
 20
152.0
 30
0.0
  0
VERTEX
  8
0
 10
18.7
 20
154.5
 30
0.0
  0
VERTEX
  8
0
 10
20.0
 20
154.5
 30
0.0
  0
VERTEX
  8
0
 10
20.0
 20
156.0
 30
0.0
  0
VERTEX
  8
0
 10
23.0
 20
156.0
 30
0.0
  0
VERTEX
  8
0
 10
23.0
 20
154.5
 30
0.0
  0
VERTEX
  8
0
 10
24.3
 20
154.5
 30
0.0
  0
VERTEX
  8
0
 10
24.3
 20
152.0
 30
0.0
  0
VERTEX
  8
0
 10
23.0
 20
152.0
 30
0.0
  0
VERTEX
  8
0
 10
23.0
 20
148.0
 30
0.0
  0
VERTEX
  8
0
 10
29.0
 20
148.0
 30
0.0
  0
VERTEX
  8
0
 10
29.0
 20
143.0
 30
0.0
  0
VERTEX
  8
0
 10
34.0
 20
143.0
 30
0.0
  0
VERTEX
  8
0
 10
34.0
 20
148.0
 30
0.0
  0
VERTEX
  8
0
 10
38.0
 20
148.0
 30
0.0
  0
VERTEX
  8
0
 10
38.0
 20
157.75
 30
0.0
  0
SEQEND
  8
0
  0
CIRCLE
  8
0
 62
7
 10
29.0
 20
164.0
 30
0.0
 40
1.5
  0
ENDBLK
  0
BLOCK
  8
0
  2
SKETCH039
 70
0
 10
0.0
 20
0.0
 30
0.0
  3
SKETCH039
  0
POLYLINE
  8
0
 62
7
 70
0
 66
1
 10
0.0
 20
0.0
 30
0.0
  0
VERTEX
  8
0
 10
203.0
 20
164.75
 30
0.0
  0
VERTEX
  8
0
 10
203.0
 20
179.0
 30
0.0
  0
VERTEX
  8
0
 10
199.0
 20
179.0
 30
0.0
  0
VERTEX
  8
0
 10
199.0
 20
182.0
 30
0.0
  0
VERTEX
  8
0
 10
203.0
 20
182.0
 30
0.0
  0
VERTEX
  8
0
 10
203.0
 20
185.0
 30
0.0
 42
0.414213562373
  0
VERTEX
  8
0
 10
201.0
 20
187.0
 30
0.0
  0
VERTEX
  8
0
 10
187.0
 20
187.0
 30
0.0
 42
0.414213562373
  0
VERTEX
  8
0
 10
185.0
 20
185.0
 30
0.0
  0
VERTEX
  8
0
 10
185.0
 20
182.0
 30
0.0
  0
VERTEX
  8
0
 10
189.0
 20
182.0
 30
0.0
  0
VERTEX
  8
0
 10
189.0
 20
179.0
 30
0.0
  0
VERTEX
  8
0
 10
185.0
 20
179.0
 30
0.0
  0
VERTEX
  8
0
 10
185.0
 20
164.75
 30
0.0
  0
SEQEND
  8
0
  0
POLYLINE
  8
0
 62
7
 70
0
 66
1
 10
0.0
 20
0.0
 30
0.0
  0
VERTEX
  8
0
 10
185.0
 20
164.25
 30
0.0
  0
VERTEX
  8
0
 10
185.0
 20
150.0
 30
0.0
  0
VERTEX
  8
0
 10
189.0
 20
150.0
 30
0.0
  0
VERTEX
  8
0
 10
189.0
 20
147.0
 30
0.0
  0
VERTEX
  8
0
 10
185.0
 20
147.0
 30
0.0
  0
VERTEX
  8
0
 10
185.0
 20
144.0
 30
0.0
 42
0.414213562373
  0
VERTEX
  8
0
 10
187.0
 20
142.0
 30
0.0
  0
VERTEX
  8
0
 10
201.0
 20
142.0
 30
0.0
 42
0.414213562373
  0
VERTEX
  8
0
 10
203.0
 20
144.0
 30
0.0
  0
VERTEX
  8
0
 10
203.0
 20
147.0
 30
0.0
  0
VERTEX
  8
0
 10
199.0
 20
147.0
 30
0.0
  0
VERTEX
  8
0
 10
199.0
 20
150.0
 30
0.0
  0
VERTEX
  8
0
 10
203.0
 20
150.0
 30
0.0
  0
VERTEX
  8
0
 10
203.0
 20
164.25
 30
0.0
  0
SEQEND
  8
0
  0
CIRCLE
  8
0
 62
7
 10
194.0
 20
148.5
 30
0.0
 40
1.5
  0
CIRCLE
  8
0
 62
7
 10
194.0
 20
180.5
 30
0.0
 40
1.5
  0
CIRCLE
  8
0
 62
7
 10
194.0
 20
171.0
 30
0.0
 40
3.4
  0
ENDBLK
  0
BLOCK
  8
0
  2
SKETCH052
 70
0
 10
0.0
 20
0.0
 30
0.0
  3
SKETCH052
  0
POLYLINE
  8
0
 62
7
 70
0
 66
1
 10
0.0
 20
0.0
 30
0.0
  0
VERTEX
  8
0
 10
86.0
 20
38.25
 30
0.0
  0
VERTEX
  8
0
 10
86.0
 20
57.0
 30
0.0
  0
VERTEX
  8
0
 10
89.0
 20
57.0
 30
0.0
  0
VERTEX
  8
0
 10
89.0
 20
60.0
 30
0.0
  0
VERTEX
  8
0
 10
86.0
 20
60.0
 30
0.0
  0
VERTEX
  8
0
 10
86.0
 20
65.0
 30
0.0
 42
-0.414213562373
  0
VERTEX
  8
0
 10
96.0
 20
75.0
 30
0.0
  0
VERTEX
  8
0
 10
156.0
 20
75.0
 30
0.0
 42
-0.414213562373
  0
VERTEX
  8
0
 10
166.0
 20
65.0
 30
0.0
  0
VERTEX
  8
0
 10
166.0
 20
60.0
 30
0.0
  0
VERTEX
  8
0
 10
163.0
 20
60.0
 30
0.0
  0
VERTEX
  8
0
 10
163.0
 20
57.0
 30
0.0
  0
VERTEX
  8
0
 10
166.0
 20
57.0
 30
0.0
  0
VERTEX
  8
0
 10
166.0
 20
38.25
 30
0.0
  0
SEQEND
  8
0
  0
POLYLINE
  8
0
 62
7
 70
0
 66
1
 10
0.0
 20
0.0
 30
0.0
  0
VERTEX
  8
0
 10
166.0
 20
37.75
 30
0.0
  0
VERTEX
  8
0
 10
166.0
 20
19.0
 30
0.0
  0
VERTEX
  8
0
 10
163.0
 20
19.0
 30
0.0
  0
VERTEX
  8
0
 10
163.0
 20
16.0
 30
0.0
  0
VERTEX
  8
0
 10
166.0
 20
16.0
 30
0.0
  0
VERTEX
  8
0
 10
166.0
 20
15.0
 30
0.0
 42
-0.414213562373
  0
VERTEX
  8
0
 10
156.0
 20
5.0
 30
0.0
  0
VERTEX
  8
0
 10
96.0
 20
5.0
 30
0.0
 42
-0.414213562373
  0
VERTEX
  8
0
 10
86.0
 20
15.0
 30
0.0
  0
VERTEX
  8
0
 10
86.0
 20
16.0
 30
0.0
  0
VERTEX
  8
0
 10
89.0
 20
16.0
 30
0.0
  0
VERTEX
  8
0
 10
89.0
 20
19.0
 30
0.0
  0
VERTEX
  8
0
 10
86.0
 20
19.0
 30
0.0
  0
VERTEX
  8
0
 10
86.0
 20
37.75
 30
0.0
  0
SEQEND
  8
0
  0
POLYLINE
  8
0
 62
7
 70
1
 66
1
 10
0.0
 20
0.0
 30
0.0
  0
VERTEX
  8
0
 10
116.0
 20
11.0
 30
0.0
  0
VERTEX
  8
0
 10
136.0
 20
11.0
 30
0.0
  0
VERTEX
  8
0
 10
136.0
 20
8.0
 30
0.0
  0
VERTEX
  8
0
 10
116.0
 20
8.0
 30
0.0
  0
SEQEND
  8
0
  0
POLYLINE
  8
0
 62
7
 70
1
 66
1
 10
0.0
 20
0.0
 30
0.0
  0
VERTEX
  8
0
 10
122.0
 20
50.0
 30
0.0
  0
VERTEX
  8
0
 10
122.0
 20
30.0
 30
0.0
 42
1.0
  0
VERTEX
  8
0
 10
125.0
 20
30.0
 30
0.0
  0
VERTEX
  8
0
 10
125.0
 20
50.0
 30
0.0
 42
1.0
  0
SEQEND
  8
0
  0
POLYLINE
  8
0
 62
7
 70
1
 66
1
 10
0.0
 20
0.0
 30
0.0
  0
VERTEX
  8
0
 10
127.0
 20
50.0
 30
0.0
  0
VERTEX
  8
0
 10
127.0
 20
30.0
 30
0.0
 42
1.0
  0
VERTEX
  8
0
 10
130.0
 20
30.0
 30
0.0
  0
VERTEX
  8
0
 10
130.0
 20
50.0
 30
0.0
 42
1.0
  0
SEQEND
  8
0
  0
POLYLINE
  8
0
 62
7
 70
1
 66
1
 10
0.0
 20
0.0
 30
0.0
  0
VERTEX
  8
0
 10
98.0
 20
47.5
 30
0.0
  0
VERTEX
  8
0
 10
110.1
 20
47.5
 30
0.0
  0
VERTEX
  8
0
 10
110.1
 20
25.0
 30
0.0
  0
VERTEX
  8
0
 10
98.0
 20
25.0
 30
0.0
  0
SEQEND
  8
0
  0
POLYLINE
  8
0
 62
7
 70
1
 66
1
 10
0.0
 20
0.0
 30
0.0
  0
VERTEX
  8
0
 10
141.9
 20
47.5
 30
0.0
  0
VERTEX
  8
0
 10
154.0
 20
47.5
 30
0.0
  0
VERTEX
  8
0
 10
154.0
 20
25.0
 30
0.0
  0
VERTEX
  8
0
 10
141.9
 20
25.0
 30
0.0
  0
SEQEND
  8
0
  0
CIRCLE
  8
0
 62
7
 10
104.05
 20
50.0
 30
0.0
 40
1.0
  0
CIRCLE
  8
0
 62
7
 10
104.05
 20
22.5
 30
0.0
 40
1.0
  0
CIRCLE
  8
0
 62
7
 10
147.95
 20
22.5
 30
0.0
 40
1.0
  0
CIRCLE
  8
0
 62
7
 10
147.95
 20
50.0
 30
0.0
 40
1.0
  0
CIRCLE
  8
0
 62
7
 10
92.0
 20
58.5
 30
0.0
 40
1.5
  0
POLYLINE
  8
0
 62
7
 70
1
 66
1
 10
0.0
 20
0.0
 30
0.0
  0
VERTEX
  8
0
 10
95.0
 20
60.0
 30
0.0
  0
VERTEX
  8
0
 10
98.0
 20
60.0
 30
0.0
  0
VERTEX
  8
0
 10
98.0
 20
57.0
 30
0.0
  0
VERTEX
  8
0
 10
95.0
 20
57.0
 30
0.0
  0
SEQEND
  8
0
  0
CIRCLE
  8
0
 62
7
 10
160.0
 20
58.5
 30
0.0
 40
1.5
  0
POLYLINE
  8
0
 62
7
 70
1
 66
1
 10
0.0
 20
0.0
 30
0.0
  0
VERTEX
  8
0
 10
154.0
 20
60.0
 30
0.0
  0
VERTEX
  8
0
 10
157.0
 20
60.0
 30
0.0
  0
VERTEX
  8
0
 10
157.0
 20
57.0
 30
0.0
  0
VERTEX
  8
0
 10
154.0
 20
57.0
 30
0.0
  0
SEQEND
  8
0
  0
CIRCLE
  8
0
 62
7
 10
92.0
 20
17.5
 30
0.0
 40
1.5
  0
POLYLINE
  8
0
 62
7
 70
1
 66
1
 10
0.0
 20
0.0
 30
0.0
  0
VERTEX
  8
0
 10
95.0
 20
19.0
 30
0.0
  0
VERTEX
  8
0
 10
98.0
 20
19.0
 30
0.0
  0
VERTEX
  8
0
 10
98.0
 20
16.0
 30
0.0
  0
VERTEX
  8
0
 10
95.0
 20
16.0
 30
0.0
  0
SEQEND
  8
0
  0
CIRCLE
  8
0
 62
7
 10
160.0
 20
17.5
 30
0.0
 40
1.5
  0
POLYLINE
  8
0
 62
7
 70
1
 66
1
 10
0.0
 20
0.0
 30
0.0
  0
VERTEX
  8
0
 10
154.0
 20
19.0
 30
0.0
  0
VERTEX
  8
0
 10
157.0
 20
19.0
 30
0.0
  0
VERTEX
  8
0
 10
157.0
 20
16.0
 30
0.0
  0
VERTEX
  8
0
 10
154.0
 20
16.0
 30
0.0
  0
SEQEND
  8
0
  0
ENDBLK
  0
BLOCK
  8
0
  2
SKETCH084
 70
0
 10
0.0
 20
0.0
 30
0.0
  3
SKETCH084
  0
POLYLINE
  8
0
 62
7
 70
0
 66
1
 10
0.0
 20
0.0
 30
0.0
  0
VERTEX
  8
0
 10
94.0
 20
108.750009873
 30
0.0
  0
VERTEX
  8
0
 10
93.9999999999
 20
102.000019745
 30
0.0
 42
-0.414216454007
  0
VERTEX
  8
0
 10
92.0
 20
100.0
 30
0.0
  0
VERTEX
  8
0
 10
80.0
 20
100.0
 30
0.0
 42
0.414213562373
  0
VERTEX
  8
0
 10
78.0
 20
98.0
 30
0.0
  0
VERTEX
  8
0
 10
78.0
 20
76.0
 30
0.0
  0
VERTEX
  8
0
 10
75.0
 20
76.0
 30
0.0
  0
VERTEX
  8
0
 10
75.0
 20
79.0
 30
0.0
  0
VERTEX
  8
0
 10
73.5
 20
79.0
 30
0.0
  0
VERTEX
  8
0
 10
73.5
 20
83.0
 30
0.0
  0
VERTEX
  8
0
 10
74.8
 20
83.0
 30
0.0
  0
VERTEX
  8
0
 10
74.8
 20
85.5
 30
0.0
  0
VERTEX
  8
0
 10
73.5
 20
85.5
 30
0.0
  0
VERTEX
  8
0
 10
73.5
 20
87.0
 30
0.0
  0
VERTEX
  8
0
 10
70.5
 20
87.0
 30
0.0
  0
VERTEX
  8
0
 10
70.5
 20
85.5
 30
0.0
  0
VERTEX
  8
0
 10
69.2
 20
85.5
 30
0.0
  0
VERTEX
  8
0
 10
69.2
 20
83.0
 30
0.0
  0
VERTEX
  8
0
 10
70.5
 20
83.0
 30
0.0
  0
VERTEX
  8
0
 10
70.5
 20
79.0
 30
0.0
  0
VERTEX
  8
0
 10
69.0
 20
79.0
 30
0.0
  0
VERTEX
  8
0
 10
69.0
 20
76.0
 30
0.0
  0
VERTEX
  8
0
 10
66.0
 20
76.0
 30
0.0
  0
VERTEX
  8
0
 10
66.0
 20
108.75
 30
0.0
  0
SEQEND
  8
0
  0
POLYLINE
  8
0
 62
7
 70
0
 66
1
 10
0.0
 20
0.0
 30
0.0
  0
VERTEX
  8
0
 10
66.0
 20
109.25
 30
0.0
  0
VERTEX
  8
0
 10
66.0
 20
142.0
 30
0.0
  0
VERTEX
  8
0
 10
69.0
 20
142.0
 30
0.0
  0
VERTEX
  8
0
 10
69.0
 20
139.0
 30
0.0
  0
VERTEX
  8
0
 10
70.5
 20
139.0
 30
0.0
  0
VERTEX
  8
0
 10
70.5
 20
135.0
 30
0.0
  0
VERTEX
  8
0
 10
69.2
 20
135.0
 30
0.0
  0
VERTEX
  8
0
 10
69.2
 20
132.5
 30
0.0
  0
VERTEX
  8
0
 10
70.5
 20
132.5
 30
0.0
  0
VERTEX
  8
0
 10
70.5
 20
131.0
 30
0.0
  0
VERTEX
  8
0
 10
73.5
 20
131.0
 30
0.0
  0
VERTEX
  8
0
 10
73.5
 20
132.5
 30
0.0
  0
VERTEX
  8
0
 10
74.8
 20
132.5
 30
0.0
  0
VERTEX
  8
0
 10
74.8
 20
135.0
 30
0.0
  0
VERTEX
  8
0
 10
73.5
 20
135.0
 30
0.0
  0
VERTEX
  8
0
 10
73.5
 20
139.0
 30
0.0
  0
VERTEX
  8
0
 10
75.0
 20
139.0
 30
0.0
  0
VERTEX
  8
0
 10
75.0
 20
142.0
 30
0.0
  0
VERTEX
  8
0
 10
78.0
 20
142.0
 30
0.0
  0
VERTEX
  8
0
 10
78.0
 20
120.0
 30
0.0
 42
0.414213562373
  0
VERTEX
  8
0
 10
80.0
 20
118.0
 30
0.0
  0
VERTEX
  8
0
 10
92.0
 20
118.0
 30
0.0
 42
-0.414213562373
  0
VERTEX
  8
0
 10
94.0
 20
116.0
 30
0.0
  0
VERTEX
  8
0
 10
94.0
 20
109.250009873
 30
0.0
  0
SEQEND
  8
0
  0
CIRCLE
  8
0
 62
7
 10
85.0
 20
109.0
 30
0.0
 40
1.5
  0
ENDBLK
  0
BLOCK
  8
0
  2
SKETCH093
 70
0
 10
0.0
 20
0.0
 30
0.0
  3
SKETCH093
  0
POLYLINE
  8
0
 62
7
 70
0
 66
1
 10
0.0
 20
0.0
 30
0.0
  0
VERTEX
  8
0
 10
203.0
 20
210.75
 30
0.0
  0
VERTEX
  8
0
 10
203.0
 20
225.0
 30
0.0
  0
VERTEX
  8
0
 10
199.0
 20
225.0
 30
0.0
  0
VERTEX
  8
0
 10
199.0
 20
228.0
 30
0.0
  0
VERTEX
  8
0
 10
203.0
 20
228.0
 30
0.0
  0
VERTEX
  8
0
 10
203.0
 20
231.0
 30
0.0
 42
0.414213562373
  0
VERTEX
  8
0
 10
201.0
 20
233.0
 30
0.0
  0
VERTEX
  8
0
 10
187.0
 20
233.0
 30
0.0
 42
0.414213562373
  0
VERTEX
  8
0
 10
185.0
 20
231.0
 30
0.0
  0
VERTEX
  8
0
 10
185.0
 20
228.0
 30
0.0
  0
VERTEX
  8
0
 10
189.0
 20
228.0
 30
0.0
  0
VERTEX
  8
0
 10
189.0
 20
225.0
 30
0.0
  0
VERTEX
  8
0
 10
185.0
 20
225.0
 30
0.0
  0
VERTEX
  8
0
 10
185.0
 20
210.75
 30
0.0
  0
SEQEND
  8
0
  0
POLYLINE
  8
0
 62
7
 70
0
 66
1
 10
0.0
 20
0.0
 30
0.0
  0
VERTEX
  8
0
 10
185.0
 20
210.25
 30
0.0
  0
VERTEX
  8
0
 10
185.0
 20
196.0
 30
0.0
  0
VERTEX
  8
0
 10
189.0
 20
196.0
 30
0.0
  0
VERTEX
  8
0
 10
189.0
 20
193.0
 30
0.0
  0
VERTEX
  8
0
 10
185.0
 20
193.0
 30
0.0
  0
VERTEX
  8
0
 10
185.0
 20
190.0
 30
0.0
 42
0.414213562373
  0
VERTEX
  8
0
 10
187.0
 20
188.0
 30
0.0
  0
VERTEX
  8
0
 10
201.0
 20
188.0
 30
0.0
 42
0.414213562373
  0
VERTEX
  8
0
 10
203.0
 20
190.0
 30
0.0
  0
VERTEX
  8
0
 10
203.0
 20
193.0
 30
0.0
  0
VERTEX
  8
0
 10
199.0
 20
193.0
 30
0.0
  0
VERTEX
  8
0
 10
199.0
 20
196.0
 30
0.0
  0
VERTEX
  8
0
 10
203.0
 20
196.0
 30
0.0
  0
VERTEX
  8
0
 10
203.0
 20
210.25
 30
0.0
  0
SEQEND
  8
0
  0
CIRCLE
  8
0
 62
7
 10
194.0
 20
194.5
 30
0.0
 40
1.5
  0
CIRCLE
  8
0
 62
7
 10
194.0
 20
226.5
 30
0.0
 40
1.5
  0
CIRCLE
  8
0
 62
7
 10
194.0
 20
217.0
 30
0.0
 40
3.4
  0
ENDBLK
  0
BLOCK
  8
0
  2
SKETCH094
 70
0
 10
0.0
 20
0.0
 30
0.0
  3
SKETCH094
  0
POLYLINE
  8
0
 62
7
 70
0
 66
1
 10
0.0
 20
0.0
 30
0.0
  0
VERTEX
  8
0
 10
144.0
 20
178.0
 30
0.0
  0
VERTEX
  8
0
 10
144.0
 20
168.0
 30
0.0
  0
VERTEX
  8
0
 10
141.0
 20
168.0
 30
0.0
  0
VERTEX
  8
0
 10
141.0
 20
163.0
 30
0.0
  0
VERTEX
  8
0
 10
144.0
 20
163.0
 30
0.0
  0
VERTEX
  8
0
 10
144.0
 20
143.0
 30
0.0
  0
VERTEX
  8
0
 10
148.0
 20
143.0
 30
0.0
  0
VERTEX
  8
0
 10
148.0
 20
146.0
 30
0.0
  0
VERTEX
  8
0
 10
151.5
 20
146.0
 30
0.0
  0
VERTEX
  8
0
 10
151.5
 20
150.0
 30
0.0
  0
VERTEX
  8
0
 10
150.2
 20
150.0
 30
0.0
  0
VERTEX
  8
0
 10
150.2
 20
152.5
 30
0.0
  0
VERTEX
  8
0
 10
151.5
 20
152.5
 30
0.0
  0
VERTEX
  8
0
 10
151.5
 20
154.0
 30
0.0
  0
VERTEX
  8
0
 10
154.5
 20
154.0
 30
0.0
  0
VERTEX
  8
0
 10
154.5
 20
152.5
 30
0.0
  0
VERTEX
  8
0
 10
155.8
 20
152.5
 30
0.0
  0
VERTEX
  8
0
 10
155.8
 20
150.0
 30
0.0
  0
VERTEX
  8
0
 10
154.5
 20
150.0
 30
0.0
  0
VERTEX
  8
0
 10
154.5
 20
146.0
 30
0.0
  0
VERTEX
  8
0
 10
158.0
 20
146.0
 30
0.0
  0
VERTEX
  8
0
 10
158.0
 20
143.0
 30
0.0
  0
VERTEX
  8
0
 10
162.0
 20
143.0
 30
0.0
  0
VERTEX
  8
0
 10
162.0
 20
178.0
 30
0.0
  0
SEQEND
  8
0
  0
POLYLINE
  8
0
 62
7
 70
0
 66
1
 10
0.0
 20
0.0
 30
0.0
  0
VERTEX
  8
0
 10
162.0
 20
178.5
 30
0.0
  0
VERTEX
  8
0
 10
162.0
 20
188.0
 30
0.0
 42
0.414213562373
  0
VERTEX
  8
0
 10
160.0
 20
190.0
 30
0.0
  0
VERTEX
  8
0
 10
146.0
 20
190.0
 30
0.0
 42
0.414213562373
  0
VERTEX
  8
0
 10
144.0
 20
188.0
 30
0.0
  0
VERTEX
  8
0
 10
144.0
 20
178.5
 30
0.0
  0
SEQEND
  8
0
  0
POLYLINE
  8
0
 62
7
 70
1
 66
1
 10
0.0
 20
0.0
 30
0.0
  0
VERTEX
  8
0
 10
146.95
 20
185.0
 30
0.0
  0
VERTEX
  8
0
 10
159.05
 20
185.0
 30
0.0
  0
VERTEX
  8
0
 10
159.05
 20
162.5
 30
0.0
  0
VERTEX
  8
0
 10
146.95
 20
162.5
 30
0.0
  0
SEQEND
  8
0
  0
CIRCLE
  8
0
 62
7
 10
153.0
 20
187.5
 30
0.0
 40
1.0
  0
CIRCLE
  8
0
 62
7
 10
153.0
 20
160.0
 30
0.0
 40
1.0
  0
ENDBLK
  0
BLOCK
  8
0
  2
SKETCH064
 70
0
 10
0.0
 20
0.0
 30
0.0
  3
SKETCH064
  0
POLYLINE
  8
0
 62
7
 70
0
 66
1
 10
0.0
 20
0.0
 30
0.0
  0
VERTEX
  8
0
 10
166.0
 20
84.75
 30
0.0
  0
VERTEX
  8
0
 10
166.0
 20
76.0
 30
0.0
  0
VERTEX
  8
0
 10
140.0
 20
76.0
 30
0.0
 42
-0.414213562373
  0
VERTEX
  8
0
 10
138.0
 20
78.0
 30
0.0
  0
VERTEX
  8
0
 10
138.0
 20
84.75
 30
0.0
  0
SEQEND
  8
0
  0
POLYLINE
  8
0
 62
7
 70
0
 66
1
 10
0.0
 20
0.0
 30
0.0
  0
VERTEX
  8
0
 10
138.0
 20
85.25
 30
0.0
  0
VERTEX
  8
0
 10
138.0
 20
92.0
 30
0.0
 42
-0.414213562373
  0
VERTEX
  8
0
 10
140.0
 20
94.0
 30
0.0
  0
VERTEX
  8
0
 10
166.0
 20
94.0
 30
0.0
  0
VERTEX
  8
0
 10
166.0
 20
85.25
 30
0.0
  0
SEQEND
  8
0
  0
POLYLINE
  8
0
 62
7
 70
1
 66
1
 10
0.0
 20
0.0
 30
0.0
  0
VERTEX
  8
0
 10
147.228746177
 20
88.3922964473
 30
0.0
  0
VERTEX
  8
0
 10
163.504740061
 20
87.2947887732
 30
0.0
 42
-0.934839826619
  0
VERTEX
  8
0
 10
163.504740061
 20
82.7052112268
 30
0.0
  0
VERTEX
  8
0
 10
147.228746177
 20
81.6077035527
 30
0.0
 42
-1.06970196554
  0
SEQEND
  8
0
  0
ENDBLK
  0
BLOCK
  8
0
  2
SKETCH083
 70
0
 10
0.0
 20
0.0
 30
0.0
  3
SKETCH083
  0
POLYLINE
  8
0
 62
7
 70
0
 66
1
 10
0.0
 20
0.0
 30
0.0
  0
VERTEX
  8
0
 10
95.0
 20
109.25
 30
0.0
  0
VERTEX
  8
0
 10
95.0
 20
115.999991816
 30
0.0
 42
-0.414213562373
  0
VERTEX
  8
0
 10
97.0
 20
117.999991816
 30
0.0
  0
VERTEX
  8
0
 10
109.0
 20
117.999991816
 30
0.0
 42
0.414213562373
  0
VERTEX
  8
0
 10
111.0
 20
119.999991816
 30
0.0
  0
VERTEX
  8
0
 10
111.0
 20
142.0
 30
0.0
  0
VERTEX
  8
0
 10
114.0
 20
142.0
 30
0.0
  0
VERTEX
  8
0
 10
114.0
 20
139.0
 30
0.0
  0
VERTEX
  8
0
 10
115.5
 20
139.0
 30
0.0
  0
VERTEX
  8
0
 10
115.5
 20
135.0
 30
0.0
  0
VERTEX
  8
0
 10
114.2
 20
135.0
 30
0.0
  0
VERTEX
  8
0
 10
114.2
 20
132.5
 30
0.0
  0
VERTEX
  8
0
 10
115.5
 20
132.5
 30
0.0
  0
VERTEX
  8
0
 10
115.5
 20
131.0
 30
0.0
  0
VERTEX
  8
0
 10
118.5
 20
131.0
 30
0.0
  0
VERTEX
  8
0
 10
118.5
 20
132.5
 30
0.0
  0
VERTEX
  8
0
 10
119.8
 20
132.5
 30
0.0
  0
VERTEX
  8
0
 10
119.8
 20
135.0
 30
0.0
  0
VERTEX
  8
0
 10
118.5
 20
135.0
 30
0.0
  0
VERTEX
  8
0
 10
118.5
 20
139.0
 30
0.0
  0
VERTEX
  8
0
 10
120.0
 20
139.0
 30
0.0
  0
VERTEX
  8
0
 10
120.0
 20
142.0
 30
0.0
  0
VERTEX
  8
0
 10
123.0
 20
142.0
 30
0.0
  0
VERTEX
  8
0
 10
123.0
 20
109.25
 30
0.0
  0
SEQEND
  8
0
  0
POLYLINE
  8
0
 62
7
 70
0
 66
1
 10
0.0
 20
0.0
 30
0.0
  0
VERTEX
  8
0
 10
123.0
 20
108.75
 30
0.0
  0
VERTEX
  8
0
 10
123.0
 20
76.0
 30
0.0
  0
VERTEX
  8
0
 10
120.0
 20
76.0
 30
0.0
  0
VERTEX
  8
0
 10
120.0
 20
79.0
 30
0.0
  0
VERTEX
  8
0
 10
118.5
 20
79.0
 30
0.0
  0
VERTEX
  8
0
 10
118.5
 20
83.0
 30
0.0
  0
VERTEX
  8
0
 10
119.8
 20
83.0
 30
0.0
  0
VERTEX
  8
0
 10
119.8
 20
85.5
 30
0.0
  0
VERTEX
  8
0
 10
118.5
 20
85.5
 30
0.0
  0
VERTEX
  8
0
 10
118.5
 20
87.0
 30
0.0
  0
VERTEX
  8
0
 10
115.5
 20
87.0
 30
0.0
  0
VERTEX
  8
0
 10
115.5
 20
85.5
 30
0.0
  0
VERTEX
  8
0
 10
114.2
 20
85.5
 30
0.0
  0
VERTEX
  8
0
 10
114.2
 20
83.0
 30
0.0
  0
VERTEX
  8
0
 10
115.5
 20
83.0
 30
0.0
  0
VERTEX
  8
0
 10
115.5
 20
79.0
 30
0.0
  0
VERTEX
  8
0
 10
114.0
 20
79.0
 30
0.0
  0
VERTEX
  8
0
 10
114.0
 20
76.0
 30
0.0
  0
VERTEX
  8
0
 10
111.0
 20
76.0
 30
0.0
  0
VERTEX
  8
0
 10
111.0
 20
97.9999918156
 30
0.0
 42
0.414213562373
  0
VERTEX
  8
0
 10
109.0
 20
99.9999918156
 30
0.0
  0
VERTEX
  8
0
 10
97.0
 20
99.9999918156
 30
0.0
 42
-0.414215959539
  0
VERTEX
  8
0
 10
95.0
 20
102.000008184
 30
0.0
  0
VERTEX
  8
0
 10
95.0
 20
108.75
 30
0.0
  0
SEQEND
  8
0
  0
CIRCLE
  8
0
 62
7
 10
104.0
 20
108.999991816
 30
0.0
 40
1.5
  0
ENDBLK
  0
ENDSEC
  0
SECTION
  2
ENTITIES
  0
INSERT
  2
SKETCH025
  8
0
 62
7
 10
0.0
 20
0.0
 30
0.0
  0
INSERT
  2
SKETCH099
  8
0
 62
7
 10
0.0
 20
0.0
 30
0.0
  0
INSERT
  2
SKETCH102
  8
0
 62
7
 10
0.0
 20
0.0
 30
0.0
  0
INSERT
  2
SKETCH100
  8
0
 62
7
 10
0.0
 20
0.0
 30
0.0
  0
INSERT
  2
SKETCH095
  8
0
 62
7
 10
0.0
 20
0.0
 30
0.0
  0
INSERT
  2
SKETCH101
  8
0
 62
7
 10
0.0
 20
0.0
 30
0.0
  0
INSERT
  2
SKETCH103
  8
0
 62
7
 10
0.0
 20
0.0
 30
0.0
  0
INSERT
  2
SKETCH104
  8
0
 62
7
 10
0.0
 20
0.0
 30
0.0
  0
INSERT
  2
SKETCH003
  8
0
 62
7
 10
0.0
 20
0.0
 30
0.0
  0
INSERT
  2
SKETCH107
  8
0
 62
7
 10
0.0
 20
0.0
 30
0.0
  0
INSERT
  2
SKETCH105
  8
0
 62
7
 10
0.0
 20
0.0
 30
0.0
  0
INSERT
  2
SKETCH108
  8
0
 62
7
 10
0.0
 20
0.0
 30
0.0
  0
INSERT
  2
SKETCH109
  8
0
 62
7
 10
0.0
 20
0.0
 30
0.0
  0
INSERT
  2
SKETCH110
  8
0
 62
7
 10
0.0
 20
0.0
 30
0.0
  0
POLYLINE
  8
0
 62
7
 70
0
 66
1
 10
0.0
 20
0.0
 30
0.0
  0
VERTEX
  8
0
 10
177.75
 20
8.0
 30
0.0
  0
VERTEX
  8
0
 10
175.0
 20
8.0
 30
0.0
  0
VERTEX
  8
0
 10
175.0
 20
5.0
 30
0.0
  0
VERTEX
  8
0
 10
172.0
 20
5.0
 30
0.0
  0
VERTEX
  8
0
 10
172.0
 20
8.0
 30
0.0
  0
VERTEX
  8
0
 10
166.0
 20
8.0
 30
0.0
  0
VERTEX
  8
0
 10
179.001002214
 20
31.4544288607
 30
0.0
 42
-0.272631291852
  0
VERTEX
  8
0
 10
181.624861336
 20
33.0
 30
0.0
  0
VERTEX
  8
0
 10
182.624861336
 20
33.0
 30
0.0
 42
-0.487732588566
  0
VERTEX
  8
0
 10
183.595157062
 20
31.7580781044
 30
0.0
  0
VERTEX
  8
0
 10
179.74548266
 20
16.3178774138
 30
0.0
 42
-0.34432761329
  0
VERTEX
  8
0
 10
178.775186934
 20
15.5597993094
 30
0.0
  0
VERTEX
  8
0
 10
177.775186934
 20
15.5597993094
 30
0.0
 42
0.60110959244
  0
VERTEX
  8
0
 10
176.94655871
 20
14.0
 30
0.0
  0
VERTEX
  8
0
 10
181.0
 20
8.0
 30
0.0
  0
VERTEX
  8
0
 10
178.25
 20
8.0
 30
0.0
  0
SEQEND
  8
0
  0
INSERT
  2
SKETCH116
  8
0
 62
7
 10
0.0
 20
0.0
 30
0.0
  0
INSERT
  2
SKETCH112
  8
0
 62
7
 10
0.0
 20
0.0
 30
0.0
  0
INSERT
  2
SKETCH119
  8
0
 62
7
 10
0.0
 20
0.0
 30
0.0
  0
INSERT
  2
SKETCH117
  8
0
 62
7
 10
0.0
 20
0.0
 30
0.0
  0
INSERT
  2
SKETCH131
  8
0
 62
7
 10
0.0
 20
0.0
 30
0.0
  0
INSERT
  2
SKETCH129
  8
0
 62
7
 10
0.0
 20
0.0
 30
0.0
  0
INSERT
  2
SKETCH128
  8
0
 62
7
 10
0.0
 20
0.0
 30
0.0
  0
INSERT
  2
SKETCH130
  8
0
 62
7
 10
0.0
 20
0.0
 30
0.0
  0
INSERT
  2
SKETCH124
  8
0
 62
7
 10
0.0
 20
0.0
 30
0.0
  0
INSERT
  2
SKETCH127
  8
0
 62
7
 10
0.0
 20
0.0
 30
0.0
  0
INSERT
  2
SKETCH125
  8
0
 62
7
 10
0.0
 20
0.0
 30
0.0
  0
INSERT
  2
SKETCH132
  8
0
 62
7
 10
0.0
 20
0.0
 30
0.0
  0
INSERT
  2
SKETCH133
  8
0
 62
7
 10
0.0
 20
0.0
 30
0.0
  0
INSERT
  2
SKETCH051
  8
0
 62
7
 10
0.0
 20
0.0
 30
0.0
  0
INSERT
  2
SKETCH046
  8
0
 62
7
 10
0.0
 20
0.0
 30
0.0
  0
INSERT
  2
SKETCH039
  8
0
 62
7
 10
0.0
 20
0.0
 30
0.0
  0
INSERT
  2
SKETCH052
  8
0
 62
7
 10
0.0
 20
0.0
 30
0.0
  0
INSERT
  2
SKETCH084
  8
0
 62
7
 10
0.0
 20
0.0
 30
0.0
  0
INSERT
  2
SKETCH093
  8
0
 62
7
 10
0.0
 20
0.0
 30
0.0
  0
INSERT
  2
SKETCH094
  8
0
 62
7
 10
0.0
 20
0.0
 30
0.0
  0
INSERT
  2
SKETCH064
  8
0
 62
7
 10
0.0
 20
0.0
 30
0.0
  0
INSERT
  2
SKETCH083
  8
0
 62
7
 10
0.0
 20
0.0
 30
0.0
  0
ENDSEC
  0
EOF
